<svg width="18" height="18" viewBox="0 0 18 18" fill="none" xmlns="http://www.w3.org/2000/svg">
<g id="Group 457">
<path id="Vector" d="M11.9219 16.5711L11.9219 13.2652L6.6816 13.2652C5.88761 13.2652 4.77314 12.1533 4.77314 11.3644L4.77314 6.15771L1.44132 6.15771C0.647336 6.15771 0.00332925 6.79759 0.00332921 7.58648L0.00332882 16.5711C0.00332878 17.36 0.647335 17.9998 1.44132 17.9998L10.4839 17.9998C11.2779 17.9998 11.9219 17.36 11.9219 16.5711Z" fill="#1093FF"/>
<path id="Vector_2" d="M11.9219 14.6778L11.9219 12.8127L6.66051 13.2767C5.86734 13.2767 4.75157 12.1734 4.75157 11.3853L5.22399 6.15771L3.34682 6.15771C2.55365 6.15771 1.9103 6.79694 1.9103 7.58502L1.9103 14.6778C1.9103 15.4659 2.55365 16.1051 3.34682 16.1051L10.4854 16.1051C11.2785 16.1051 11.9219 15.4659 11.9219 14.6778Z" fill="#55B2FF"/>
<path id="Vector_3" d="M11.9219 12.8011C11.9219 12.8011 11.9131 12.8011 11.9043 12.8011L6.6715 12.8011C5.87865 12.8011 5.23557 12.1622 5.23557 11.3744L5.23557 6.17522L5.23557 6.15771C4.45154 6.16647 3.81726 6.80543 3.81726 7.58443L3.81726 12.7836C3.81726 13.5714 4.46035 14.2104 5.25319 14.2104L10.4859 14.2104C11.27 14.2104 11.9131 13.5801 11.9219 12.8011Z" fill="#99D1FF"/>
<path id="Vector_4" d="M5.92254 1.44782L5.92254 4.80241L11.2327 4.80241C12.0373 4.80241 13.1666 5.92451 13.1666 6.72392L13.1666 12L16.5428 12C17.3474 12 18 11.3516 18 10.5522L18 1.44782C18 0.64841 17.3474 -2.83429e-08 16.5428 -6.32862e-08L7.3797 -4.61251e-07C6.57513 -4.96194e-07 5.92254 0.64841 5.92254 1.44782Z" fill="#1093FF"/>
<path id="Vector_5" d="M5.92018 3.40181L5.92018 5.21043L11.2255 4.81033C12.0266 4.81033 13.1532 5.9291 13.1532 6.7244L12.6765 11.9999L14.5725 11.9999C15.3736 11.9999 16.0234 11.3548 16.0234 10.5595L16.0234 3.40181C16.0234 2.6065 15.3736 1.96143 14.5725 1.96143L7.37113 1.96143C6.56999 1.96143 5.92018 2.6065 5.92018 3.40181Z" fill="#55B2FF"/>
<path id="Vector_6" d="M5.92563 5.24127C5.92563 5.24127 5.93447 5.24127 5.9433 5.24127L11.1918 5.24127C11.9871 5.24127 12.6321 5.89131 12.6321 6.69274L12.6321 11.9821C12.6321 11.9821 12.6321 11.991 12.6321 11.9999C13.4185 11.991 14.0547 11.341 14.0547 10.5485L14.0547 5.25908C14.0547 4.45766 13.4097 3.80762 12.6144 3.80762L7.36589 3.80762C6.57949 3.80762 5.93446 4.44875 5.92563 5.24127Z" fill="#99D1FF"/>
</g>
</svg>
