<svg width="20" height="19" viewBox="0 0 20 19" fill="none" xmlns="http://www.w3.org/2000/svg">
<g id="Group 137">
<path id="Vector" d="M15.253 5.88343L15.647 5.48951C16.2996 4.83683 17.3578 4.83683 18.0105 5.48951C18.6632 6.14218 18.6632 7.20037 18.0105 7.85305L17.6166 8.24697M15.253 5.88343C15.253 5.88343 15.3023 6.72052 16.0409 7.45912C16.7795 8.19773 17.6166 8.24697 17.6166 8.24697M15.253 5.88343L11.6315 9.50496C11.3862 9.75025 11.2636 9.8729 11.1581 10.0081C11.0337 10.1677 10.927 10.3403 10.8399 10.5229C10.7662 10.6777 10.7113 10.8423 10.6016 11.1713L10.2504 12.225L10.1368 12.5659M17.6166 8.24697L13.995 11.8685C13.7497 12.1138 13.6271 12.2364 13.4919 12.3419C13.3323 12.4663 13.1597 12.573 12.9771 12.6601C12.8223 12.7338 12.6577 12.7887 12.3287 12.8984L11.275 13.2496L10.9341 13.3632M10.9341 13.3632L10.5932 13.4769C10.4313 13.5308 10.2527 13.4887 10.132 13.368C10.0113 13.2473 9.96916 13.0687 10.0231 12.9068L10.1368 12.5659M10.9341 13.3632L10.1368 12.5659" stroke="#1093FF" stroke-width="1.5"/>
<path id="Vector_2" d="M5.25 10.3501H7.375" stroke="#1093FF" stroke-width="1.5" stroke-linecap="round"/>
<path id="Vector_3" d="M5.25 6.94995H10.775" stroke="#1093FF" stroke-width="1.5" stroke-linecap="round"/>
<path id="Vector_4" d="M5.25 13.75H6.525" stroke="#1093FF" stroke-width="1.5" stroke-linecap="round"/>
<path id="Vector_5" d="M15.3042 1.99584C14.3083 1 12.7055 1 9.5 1H7.8C4.59445 1 2.99167 1 1.99584 1.99584C1 2.99167 1 4.59445 1 7.8V11.2C1 14.4056 1 16.0083 1.99584 17.0042C2.99167 18 4.59445 18 7.8 18H9.5C12.7056 18 14.3083 18 15.3042 17.0042C16.1058 16.2025 16.2621 15.0076 16.2926 12.9" stroke="#1093FF" stroke-width="1.5" stroke-linecap="round"/>
</g>
</svg>
