<svg width="46" height="46" viewBox="0 0 46 46" fill="none" xmlns="http://www.w3.org/2000/svg">
<path fill-rule="evenodd" clip-rule="evenodd" d="M20.7893 42.0408C11.245 40.9448 3.83301 32.8381 3.83301 23.0002C3.83301 12.4147 12.4142 3.8335 22.9997 3.8335C33.5851 3.8335 42.1663 12.4147 42.1663 23.0002C42.1663 32.8835 35.8745 32.0708 30.5006 31.3766C27.4011 30.9762 24.607 30.6152 23.5016 32.3687C22.7456 33.568 23.5628 35.0633 24.5652 36.0657C25.8177 37.3182 25.8177 39.3488 24.5652 40.6013C23.5628 41.6037 22.1977 42.2025 20.7893 42.0408ZM21.2459 13.4164C21.2459 15.0042 19.9587 16.2914 18.3709 16.2914C16.7831 16.2914 15.4959 15.0042 15.4959 13.4164C15.4959 11.8285 16.7831 10.5414 18.3709 10.5414C19.9587 10.5414 21.2459 11.8285 21.2459 13.4164ZM12.458 24.9168C14.0458 24.9168 15.333 23.6296 15.333 22.0418C15.333 20.454 14.0458 19.1668 12.458 19.1668C10.8702 19.1668 9.58301 20.454 9.58301 22.0418C9.58301 23.6296 10.8702 24.9168 12.458 24.9168ZM33.5413 24.9168C35.1292 24.9168 36.4163 23.6296 36.4163 22.0418C36.4163 20.454 35.1292 19.1668 33.5413 19.1668C31.9535 19.1668 30.6663 20.454 30.6663 22.0418C30.6663 23.6296 31.9535 24.9168 33.5413 24.9168ZM27.7913 16.2918C29.3792 16.2918 30.6663 15.0046 30.6663 13.4168C30.6663 11.829 29.3792 10.5418 27.7913 10.5418C26.2035 10.5418 24.9163 11.829 24.9163 13.4168C24.9163 15.0046 26.2035 16.2918 27.7913 16.2918Z" fill="#1093FF"/>
</svg>
