<svg
  width="38"
  height="38"
  viewBox="0 0 38 38"
  fill="none"
  xmlns="http://www.w3.org/2000/svg"
>
  <path
    d="M15.7858 36.2307C23.3994 36.2307 29.5715 30.0586 29.5715 22.445C29.5715 14.8313 23.3994 8.65918 15.7858 8.65918C8.1721 8.65918 2 14.8313 2 22.445C2 24.574 2.48263 26.5903 3.34446 28.3905C3.64067 29.0092 3.74467 29.7102 3.56736 30.3728L3.00207 32.4856C2.55652 34.1508 4.07995 35.6742 5.74516 35.2286L7.85789 34.6634C8.52055 34.4861 9.22152 34.5901 9.84024 34.8863C11.6404 35.7481 13.6567 36.2307 15.7858 36.2307Z"
    stroke="currentColor"
    stroke-width="3"
  />
  <path
    d="M29.5693 23.3095C29.6838 23.2618 29.7974 23.2122 29.91 23.1607C30.5339 22.8757 31.234 22.7691 31.8967 22.9464L32.717 23.1659C34.3822 23.6115 35.9056 22.088 35.4601 20.4228L35.2406 19.6025C35.0633 18.9399 35.1699 18.2398 35.4549 17.6158C36.1017 16.1998 36.4621 14.6255 36.4621 12.9671C36.4621 6.78094 31.4473 1.76611 25.2612 1.76611C20.6046 1.76611 16.6117 4.60768 14.9219 8.65142"
    stroke="currentColor"
    stroke-width="3"
  />
  <path
    d="M11.4738 22.4447C11.4738 23.3964 10.7023 24.1679 9.75057 24.1679C8.79886 24.1679 8.02734 23.3964 8.02734 22.4447C8.02734 21.4929 8.79886 20.7214 9.75057 20.7214C10.7023 20.7214 11.4738 21.4929 11.4738 22.4447Z"
    fill="currentColor"
  />
  <path
    d="M17.5051 22.4447C17.5051 23.3964 16.7335 24.1679 15.7818 24.1679C14.8301 24.1679 14.0586 23.3964 14.0586 22.4447C14.0586 21.4929 14.8301 20.7214 15.7818 20.7214C16.7335 20.7214 17.5051 21.4929 17.5051 22.4447Z"
    fill="currentColor"
  />
  <path
    d="M23.5363 22.4447C23.5363 23.3964 22.7648 24.1679 21.8131 24.1679C20.8614 24.1679 20.0899 23.3964 20.0899 22.4447C20.0899 21.4929 20.8614 20.7214 21.8131 20.7214C22.7648 20.7214 23.5363 21.4929 23.5363 22.4447Z"
    fill="currentColor"
  />
</svg>
