<svg width="60" height="60" viewBox="0 0 60 60" fill="none" xmlns="http://www.w3.org/2000/svg">
<path d="M43.9535 21.6279C43.9535 24.7104 41.4546 27.2093 38.3721 27.2093C35.2896 27.2093 32.7907 24.7104 32.7907 21.6279C32.7907 18.5454 35.2896 16.0465 38.3721 16.0465C41.4546 16.0465 43.9535 18.5454 43.9535 21.6279Z" fill="#E1E1E1"/>
<path fill-rule="evenodd" clip-rule="evenodd" d="M30 0C13.4315 0 0 13.4315 0 30C0 46.5685 13.4315 60 30 60C46.5685 60 60 46.5685 60 30C60 13.4315 46.5685 0 30 0ZM27.7178 39.3818L15.7465 27.4105C13.357 25.0211 9.52425 24.8935 6.98117 27.1186L4.18885 29.6157C4.39434 15.5362 15.8717 4.18605 30 4.18605C44.2567 4.18605 55.8139 15.7433 55.8139 30C55.8139 35.4547 54.1221 40.5142 51.2345 44.6825L46.1204 40.0436C43.2193 37.4327 38.8991 37.1727 35.7059 39.4168L34.8737 40.0017C32.6546 41.5612 29.6357 41.2997 27.7178 39.3818Z" fill="#E1E1E1"/>
</svg>
