<svg width="640" height="182" viewBox="0 0 640 182" fill="none" xmlns="http://www.w3.org/2000/svg">
<rect width="640" height="182" fill="url(#paint0_linear_1863_616)"/>
<mask id="mask0_1863_616" style="mask-type:alpha" maskUnits="userSpaceOnUse" x="0" y="0" width="640" height="182">
<rect width="640" height="182" fill="url(#paint1_linear_1863_616)"/>
</mask>
<g mask="url(#mask0_1863_616)">
<path d="M526.728 210.286L505.289 197.908C501.069 195.471 499.617 190.049 502.055 185.826L507.363 176.633C509.801 172.41 508.35 166.988 504.129 164.551C499.909 162.114 494.487 163.569 492.049 167.791L486.741 176.985C484.303 181.207 478.882 182.662 474.661 180.225L459.347 171.383C450.055 166.018 446.869 154.095 452.233 144.804L460.194 131.014L452.538 126.593C443.245 121.228 440.059 109.305 445.423 100.013C450.787 90.7221 462.707 87.5198 471.999 92.8848L479.656 97.3055L487.618 83.5157C492.982 74.2245 504.901 71.0221 514.194 76.3871L527.976 84.3444L532.399 76.6835C537.763 67.3922 549.683 64.1899 558.975 69.5549C568.268 74.9199 571.454 86.8434 566.09 96.1347L561.667 103.796L581.575 115.29C590.867 120.655 594.053 132.578 588.689 141.869L579.843 157.191C577.405 161.414 571.983 162.868 567.763 160.432L558.575 155.127C554.354 152.69 548.933 154.144 546.495 158.367C544.057 162.59 545.508 168.012 549.728 170.449L558.917 175.754C563.137 178.19 564.589 183.613 562.151 187.835L553.304 203.157C547.94 212.449 536.021 215.651 526.728 210.286ZM512.128 189.599L532.036 201.093C536.257 203.529 541.678 202.075 544.116 197.852L552.078 184.063L544.421 179.642C535.128 174.277 531.942 162.353 537.306 153.062C542.671 143.771 554.59 140.569 563.882 145.934L571.539 150.354L579.501 136.564C581.939 132.342 580.487 126.919 576.267 124.483L554.827 112.105C550.607 109.668 549.156 104.246 551.594 100.023L556.901 90.8298C559.339 86.6071 557.888 81.1848 553.667 78.7481C549.447 76.3114 544.025 77.7656 541.587 81.9883L536.28 91.1815C533.842 95.4043 528.42 96.8585 524.2 94.4218L508.886 85.5803C504.665 83.1436 499.244 84.5978 496.806 88.8206L487.96 104.143C485.522 108.365 480.1 109.82 475.88 107.383L466.691 102.078C462.471 99.6413 457.049 101.095 454.611 105.318C452.173 109.541 453.625 114.963 457.845 117.4L467.034 122.705C471.254 125.142 472.705 130.564 470.267 134.787L461.421 150.109C458.983 154.331 460.435 159.754 464.655 162.19L478.438 170.148L482.861 162.487C488.225 153.195 500.144 149.993 509.437 155.358C518.729 160.723 521.915 172.647 516.551 181.938L512.128 189.599Z" fill="white" fill-opacity="0.15"/>
</g>
<path d="M456.812 77.1681L447.308 81.2245C445.437 82.023 443.263 81.149 442.464 79.277L440.725 75.2015C439.926 73.3295 437.752 72.4555 435.881 73.254C434.01 74.0525 433.137 76.2269 433.936 78.0989L435.675 82.1744C436.474 84.0464 435.601 86.2208 433.73 87.0193L426.941 89.9167C422.822 91.6748 418.043 89.7511 416.285 85.6321L413.676 79.519L410.282 80.9677C406.162 82.7258 401.383 80.8021 399.625 76.6831C397.867 72.5642 399.784 67.7825 403.904 66.0244L407.298 64.5757L404.689 58.4625C402.931 54.3436 404.849 49.5618 408.968 47.8037L415.078 45.196L413.629 41.7998C411.871 37.6809 413.788 32.8992 417.907 31.141C422.027 29.3829 426.806 31.3066 428.564 35.4256L430.013 38.8218L438.839 35.0551C442.958 33.297 447.737 35.2207 449.495 39.3397L452.394 46.1321C453.193 48.0041 452.32 50.1785 450.449 50.977L446.376 52.7154C444.505 53.514 443.632 55.6883 444.431 57.5603C445.23 59.4323 447.404 60.3064 449.275 59.5078L453.348 57.7694C455.219 56.9709 457.393 57.8449 458.192 59.7169L461.091 66.5093C462.849 70.6283 460.932 75.41 456.812 77.1681ZM446.247 76.8593L455.073 73.0927C456.944 72.2942 457.817 70.1198 457.018 68.2478L454.409 62.1346L451.014 63.5833C446.895 65.3414 442.116 63.4177 440.358 59.2988C438.6 55.1799 440.517 50.3981 444.637 48.64L448.031 47.1913L445.422 41.0781C444.623 39.2061 442.449 38.3321 440.578 39.1306L431.074 43.187C429.203 43.9855 427.029 43.1114 426.23 41.2394L424.491 37.164C423.692 35.292 421.518 34.418 419.647 35.2165C417.776 36.015 416.903 38.1894 417.702 40.0614L419.441 44.1368C420.24 46.0088 419.367 48.1832 417.496 48.9817L410.707 51.8791C408.836 52.6777 407.964 54.8521 408.763 56.724L411.661 63.5165C412.46 65.3884 411.588 67.5628 409.717 68.3614L405.643 70.0998C403.772 70.8983 402.899 73.0727 403.698 74.9447C404.497 76.8167 406.671 77.6907 408.542 76.8922L412.615 75.1538C414.486 74.3553 416.66 75.2293 417.459 77.1013L420.358 83.8937C421.157 85.7657 423.331 86.6397 425.202 85.8412L431.312 83.2336L429.863 79.8374C428.105 75.7184 430.022 70.9367 434.141 69.1786C438.261 67.4204 443.04 69.3442 444.798 73.4631L446.247 76.8593Z" fill="white" fill-opacity="0.3"/>
<defs>
<linearGradient id="paint0_linear_1863_616" x1="289.5" y1="188" x2="428" y2="-10" gradientUnits="userSpaceOnUse">
<stop stop-color="#0478D9"/>
<stop offset="1" stop-color="#38A5FE"/>
</linearGradient>
<linearGradient id="paint1_linear_1863_616" x1="289.5" y1="188" x2="428" y2="-10" gradientUnits="userSpaceOnUse">
<stop stop-color="#0478D9"/>
<stop offset="1" stop-color="#38A5FE"/>
</linearGradient>
</defs>
</svg>
