<svg width="640" height="182" viewBox="0 0 640 182" fill="none" xmlns="http://www.w3.org/2000/svg">
<rect width="640" height="182" fill="url(#paint0_linear_1863_610)"/>
<mask id="mask0_1863_610" style="mask-type:alpha" maskUnits="userSpaceOnUse" x="0" y="0" width="640" height="182">
<rect width="640" height="182" fill="url(#paint1_linear_1863_610)"/>
</mask>
<g mask="url(#mask0_1863_610)">
<path d="M571.545 215.815L576.361 201.018L576.365 201.012L576.368 201.007L595.641 141.808C595.644 141.802 595.647 141.797 595.65 141.791C595.653 141.786 595.651 141.777 595.655 141.771L600.471 126.982C601.829 122.803 601.727 119.113 600.15 116.014C598.572 112.915 595.677 110.657 591.493 109.307L579.679 105.478C575.875 104.246 572.459 104.331 569.581 105.524C570.513 100.092 568.008 95.2327 562.307 91.9414L551.469 85.6841C548.104 83.7413 544.844 83.1053 541.85 83.5724C540.758 80.7463 538.577 78.2411 535.212 76.2982L524.374 70.041C516.739 65.6327 509.543 67.5718 505.122 75.2287L458.06 156.743C453.639 164.4 455.558 171.602 463.193 176.01L474.031 182.267C477.396 184.21 480.656 184.846 483.65 184.379C484.742 187.205 486.923 189.71 490.288 191.653L501.126 197.91C508.761 202.319 515.957 200.38 520.378 192.723L557.432 128.544L537.909 188.527C537.906 188.532 537.906 188.532 537.903 188.538C537.899 188.543 537.905 188.546 537.901 188.552L533.09 203.344C531.732 207.524 531.834 211.213 533.412 214.312C534.475 216.412 536.155 218.121 538.42 219.428C539.499 220.051 540.72 220.589 542.074 221.023L553.887 224.851C558.063 226.204 561.75 226.087 564.84 224.501C567.925 222.913 570.19 219.989 571.545 215.815ZM503.046 97.5718L522.013 108.522L495.344 154.714L476.378 143.763L503.046 97.5718ZM530.141 113.215L549.108 124.165L522.439 170.357L503.472 159.407L530.141 113.215ZM546.755 93.8242L557.593 100.081C560.785 101.924 561.152 103.303 559.304 106.504L553.814 116.014L534.847 105.063L540.338 95.5534C542.186 92.3526 543.564 91.9814 546.755 93.8242ZM519.661 78.181L530.499 84.4383C533.69 86.2811 534.058 87.6597 532.21 90.8605L526.719 100.371L507.753 89.4203L513.243 79.9103C515.091 76.7095 516.469 76.3382 519.661 78.181ZM478.73 174.104L467.892 167.847C464.7 166.004 464.333 164.626 466.181 161.425L471.671 151.915L490.638 162.865L485.147 172.375C483.299 175.576 481.922 175.947 478.73 174.104ZM505.825 189.748L494.987 183.49C491.795 181.648 491.428 180.269 493.276 177.068L498.766 167.558L517.733 178.508L512.242 188.018C510.394 191.219 509.016 191.59 505.825 189.748ZM564.64 136.669L585.265 143.359L568.896 193.636L548.278 186.949L564.64 136.669ZM576.76 114.415L588.579 118.246C589.17 118.435 589.847 118.703 590.432 119.041C591.018 119.379 591.517 119.79 591.767 120.282C592.27 121.276 591.921 122.894 591.535 124.076L588.172 134.408L567.547 127.718L570.912 117.386C572.046 113.933 573.3 113.287 576.76 114.415ZM560.573 216.125C559.58 216.631 557.968 216.28 556.791 215.905C556.785 215.902 556.786 215.902 556.786 215.902L544.965 212.07C543.791 211.689 542.278 211.019 541.777 210.034C541.274 209.041 541.623 207.423 542.009 206.24L545.374 195.909L565.992 202.596L562.628 212.928C562.231 214.104 561.569 215.613 560.573 216.125Z" fill="white" fill-opacity="0.15"/>
</g>
<path d="M484.722 74.5055L480.814 70.1536L480.813 70.1514L480.812 70.1494L465.18 52.7366C465.179 52.7345 465.178 52.7324 465.177 52.7303C465.176 52.7283 465.172 52.7273 465.171 52.7253L461.266 48.3745C460.162 47.1461 458.945 46.4842 457.644 46.4128C456.342 46.3415 455.068 46.8565 453.849 47.9612L450.4 51.0773C449.289 52.0808 448.679 53.2068 448.529 54.3664C446.939 53.0402 444.892 52.9385 442.759 54.1702L438.703 56.5119C437.444 57.239 436.629 58.1781 436.221 59.2385C435.099 59.0609 433.879 59.2974 432.619 60.0245L428.563 62.3662C425.706 64.0159 424.992 66.7187 426.654 69.5971L444.346 100.241C446.008 103.119 448.706 103.852 451.563 102.203L455.619 99.8611C456.878 99.134 457.693 98.1949 458.101 97.1345C459.223 97.3121 460.443 97.0756 461.703 96.3485L465.759 94.0068C468.616 92.3571 469.33 89.6543 467.668 86.7759L453.738 62.6493L469.578 80.2909C469.579 80.2929 469.579 80.2928 469.58 80.2949C469.581 80.2969 469.583 80.2959 469.585 80.298L473.491 84.6476C474.595 85.876 475.813 86.5379 477.114 86.6093C477.995 86.6592 478.863 86.4355 479.711 85.9461C480.115 85.7131 480.517 85.4177 480.911 85.0598L484.36 81.9436C485.579 80.8421 486.23 79.6222 486.291 78.3198C486.351 77.0186 485.825 75.7319 484.722 74.5055ZM433.524 74.4806L440.622 70.3826L450.648 87.7473L443.55 91.8452L433.524 74.4806ZM443.664 68.6263L450.762 64.5284L460.787 81.893L453.69 85.991L443.664 68.6263ZM440.467 59.5766L444.523 57.2349C445.718 56.5453 446.234 56.6857 446.929 57.8889L448.993 61.464L441.895 65.562L439.831 61.9869C439.136 60.7836 439.273 60.2662 440.467 59.5766ZM430.327 65.4308L434.383 63.0891C435.578 62.3995 436.094 62.5399 436.789 63.7432L438.853 67.3182L431.755 71.4162L429.691 67.8411C428.996 66.6379 429.133 66.1204 430.327 65.4308ZM453.845 96.797L449.789 99.1387C448.594 99.8283 448.078 99.6879 447.383 98.4847L445.319 94.9096L452.417 90.8116L454.481 94.3867C455.176 95.59 455.039 96.1074 453.845 96.797ZM463.984 90.9428L459.928 93.2845C458.734 93.9741 458.218 93.8337 457.523 92.6304L455.459 89.0553L462.557 84.9574L464.621 88.5325C465.315 89.7357 465.179 90.2531 463.984 90.9428ZM457.724 61.8385L463.747 56.3992L477.023 71.1876L471.001 76.6252L457.724 61.8385ZM452.758 53.7093L456.208 50.5918C456.38 50.4353 456.594 50.2659 456.813 50.1395C457.032 50.013 457.258 49.9283 457.465 49.9397C457.882 49.9634 458.342 50.3816 458.654 50.7299L461.382 53.7689L455.358 59.2079L452.631 56.1686C451.721 55.1496 451.745 54.6207 452.758 53.7093ZM482.774 78.128C482.753 78.5459 482.338 79.0033 481.996 79.315C481.994 79.3162 481.994 79.3162 481.994 79.3162L478.543 82.434C478.2 82.7438 477.699 83.1089 477.286 83.0861C476.87 83.0624 476.409 82.6442 476.097 82.2959L473.369 79.2566L479.391 73.8191L482.119 76.858C482.427 77.2087 482.794 77.708 482.774 78.128Z" fill="white" fill-opacity="0.3"/>
<defs>
<linearGradient id="paint0_linear_1863_610" x1="289.5" y1="188" x2="428" y2="-10" gradientUnits="userSpaceOnUse">
<stop stop-color="#0478D9"/>
<stop offset="1" stop-color="#38A5FE"/>
</linearGradient>
<linearGradient id="paint1_linear_1863_610" x1="289.5" y1="188" x2="428" y2="-10" gradientUnits="userSpaceOnUse">
<stop stop-color="#0478D9"/>
<stop offset="1" stop-color="#38A5FE"/>
</linearGradient>
</defs>
</svg>
