<svg width="233" height="96" viewBox="0 0 233 96" fill="none"
    xmlns="http://www.w3.org/2000/svg">
    <path d="M63.8672 88.168L63.8672 67.9891L35.7867 67.9891C31.5321 67.9891 28.0811 64.5713 28.0811 60.3576L28.0811 32.5471L7.70626 32.5471C3.45164 32.5471 0.000678867 35.9649 0.000678683 40.1786L0.000676585 88.168C0.000676401 92.3817 3.45164 95.7995 7.70625 95.7995L56.1616 95.7995C60.4162 95.7995 63.8672 92.3817 63.8672 88.168Z" fill="#1093FF"/>
    <path d="M63.8672 78.2196L63.8672 68.087L35.7899 68.087C31.5571 68.087 28.1239 64.6143 28.1239 60.3329L28.1239 31.9329L18.1064 31.9329C13.8736 31.9329 10.4404 35.4056 10.4404 39.687L10.4404 78.2196C10.4404 82.501 13.8736 85.9737 18.1064 85.9737L56.2012 85.9737C60.4339 85.9737 63.8672 82.501 63.8672 78.2196Z" fill="#55B2FF"/>
    <path d="M63.8672 68.0115C63.8672 68.0115 63.8205 68.0115 63.7737 68.0115L36.019 68.0115C31.8138 68.0115 28.4028 64.6005 28.4028 60.3953L28.4029 32.6406L28.4029 32.5471C24.2443 32.5938 20.8801 36.0048 20.8801 40.1633L20.8801 67.918C20.8801 72.1233 24.291 75.5342 28.4963 75.5342L56.251 75.5342C60.4095 75.5342 63.8205 72.17 63.8672 68.0115Z" fill="#99D1FF"/>
    <path d="M31.3171 7.70559L31.3171 28.0805L59.3975 28.0805C63.6522 28.0805 67.1031 31.5314 67.1031 35.786L67.1031 63.8665L87.478 63.8665C91.7326 63.8665 95.1836 60.4156 95.1836 56.1609L95.1836 7.70559C95.1836 3.45097 91.7326 -1.50847e-07 87.478 -3.36822e-07L39.0227 -2.45487e-06C34.7681 -2.64085e-06 31.3171 3.45097 31.3171 7.70559Z" fill="#1093FF"/>
    <path d="M31.3173 18.1059L31.3173 28.1234L59.3723 28.1234C63.6088 28.1234 67.045 31.5567 67.045 35.7894L67.045 63.8667L77.0714 63.8667C81.3079 63.8667 84.7441 60.4335 84.7441 56.2007L84.7441 18.1059C84.7441 13.8732 81.3079 10.4399 77.0714 10.4399L38.9901 10.4399C34.7536 10.4399 31.3173 13.8732 31.3173 18.1059Z" fill="#55B2FF"/>
    <path d="M31.3196 27.8958C31.3196 27.8958 31.3663 27.8958 31.413 27.8958L59.1677 27.8958C63.373 27.8958 66.7839 31.3555 66.7839 35.6208L66.7839 63.772C66.7839 63.772 66.7839 63.8194 66.7839 63.8668C70.9424 63.8194 74.3066 60.3598 74.3066 56.1418L74.3066 27.9906C74.3066 23.7253 70.8957 20.2656 66.6905 20.2656L38.9358 20.2656C34.7772 20.2656 31.3663 23.6779 31.3196 27.8958Z" fill="#99D1FF"/>
    <path d="M119.009 54.0719H133.103V64.9415H106.113V5.34303H119.009V54.0719Z" fill="white"/>
    <path d="M152.113 5.34303V64.9415H139.217V5.34303H152.113Z" fill="white"/>
    <path d="M195.881 64.9415H182.985V15.4757C182.985 14.9844 182.801 14.5545 182.432 14.1861C182.125 13.8176 181.726 13.6334 181.235 13.6334H176.26C175.769 13.6334 175.339 13.8176 174.971 14.1861C174.664 14.5545 174.51 14.9844 174.51 15.4757V64.9415H161.614V16.5811C161.614 8.47494 165.422 4.42188 173.036 4.42188H184.459C192.074 4.42188 195.881 8.47494 195.881 16.5811V64.9415Z" fill="white"/>
    <path d="M217.421 54.2562H231.699V64.9415H204.525V5.34303H231.699V15.8441H217.421V29.8457H230.778V39.9783H217.421V54.2562Z" fill="white"/>
    <path d="M114.464 80.2504H120.925V88.0126C118.812 89.2736 116.626 89.9041 114.366 89.9041C111.795 89.9041 109.715 89.0853 108.127 87.4477C106.538 85.8101 105.744 83.6894 105.744 81.0856C105.744 78.4818 106.563 76.3611 108.201 74.7235C109.838 73.0859 111.803 72.2671 114.096 72.2671C116.405 72.2671 118.591 72.8976 120.655 74.1585V76.4675H120.556C118.542 75.1083 116.552 74.4287 114.587 74.4287C112.638 74.4287 111.05 75.0183 109.822 76.1973C108.594 77.3764 107.979 78.9813 107.979 81.0119C107.979 83.0261 108.577 84.6637 109.773 85.9247C110.968 87.1693 112.598 87.7916 114.661 87.7916C116.2 87.7916 117.633 87.4313 118.96 86.7107V82.2647H114.464V80.2504Z" fill="white"/>
    <path d="M129.869 77.8186C131.294 77.1963 132.817 76.8851 134.438 76.8851C136.076 76.8851 137.329 77.36 138.197 78.3098C139.065 79.2597 139.499 80.3978 139.499 81.7242V89.6584H137.533L137.263 88.0863H137.19C136.01 89.2982 134.496 89.9041 132.645 89.9041C131.532 89.9041 130.582 89.5684 129.796 88.8969C129.026 88.2255 128.641 87.3085 128.641 86.1458C128.641 84.9831 129.116 84.0415 130.066 83.3209C131.032 82.6004 132.441 82.2401 134.291 82.2401H137.263V82.0436C137.263 80.9628 136.993 80.1849 136.453 79.71C135.929 79.2351 135.012 78.9976 133.701 78.9976C132.391 78.9976 131.163 79.276 130.017 79.8328H129.869V77.8186ZM137.263 86.0966V84.0333H134.586C132.113 84.0333 130.877 84.6883 130.877 85.9984C130.877 87.2921 131.745 87.9389 133.48 87.9389C134.201 87.9389 134.897 87.767 135.568 87.4231C136.24 87.0628 136.805 86.6207 137.263 86.0966Z" fill="white"/>
    <path d="M154.917 79.0468H151.355V86.4651C151.355 87.1529 151.544 87.5787 151.92 87.7424C152.231 87.8734 152.633 87.9389 153.124 87.9389C153.615 87.9389 154.156 87.8079 154.745 87.5459H154.917V89.3637C154.229 89.7239 153.492 89.9041 152.706 89.9041C150.315 89.9041 149.12 88.8233 149.12 86.6616V79.0468H146.786V78.8994L151.355 74.4287V77.1308H154.917V79.0468Z" fill="white"/>
    <path d="M173.777 83.3946V84.1806H164.295C164.426 85.327 164.852 86.2195 165.573 86.8581C166.293 87.4968 167.382 87.8161 168.84 87.8161C170.314 87.8161 171.673 87.4067 172.917 86.5879H173.04V88.7496C171.665 89.5192 170.043 89.9041 168.177 89.9041C166.326 89.9041 164.836 89.3391 163.706 88.2092C162.592 87.0628 162.036 85.5235 162.036 83.5911C162.036 81.6424 162.535 80.0375 163.534 78.7766C164.533 77.5156 165.99 76.8851 167.906 76.8851C169.822 76.8851 171.28 77.5156 172.279 78.7766C173.278 80.0375 173.777 81.5769 173.777 83.3946ZM164.295 82.3629H171.542C171.476 81.1838 171.075 80.2913 170.338 79.6854C169.618 79.0795 168.807 78.7766 167.906 78.7766C167.006 78.7766 166.195 79.0795 165.474 79.6854C164.754 80.2913 164.361 81.1838 164.295 82.3629Z" fill="white"/>
    <path d="M188.965 72.5127C190.144 72.5127 191.176 72.6765 192.06 73.004C192.945 73.3152 193.624 73.7409 194.099 74.2813C194.591 74.8217 194.951 75.4031 195.18 76.0254C195.409 76.6313 195.524 77.2782 195.524 77.9659C195.524 78.6537 195.409 79.3088 195.18 79.9311C194.951 80.537 194.591 81.1101 194.099 81.6506C193.624 82.191 192.945 82.6249 192.06 82.9524C191.176 83.2636 190.144 83.4192 188.965 83.4192H184.495V89.6584H182.259V72.5127H188.965ZM188.744 81.3067C190.415 81.3067 191.586 80.9873 192.257 80.3487C192.945 79.71 193.289 78.9158 193.289 77.9659C193.289 77.0161 192.945 76.2219 192.257 75.5832C191.586 74.9446 190.415 74.6252 188.744 74.6252H184.495V81.3067H188.744Z" fill="white"/>
    <path d="M203.506 77.8186C204.931 77.1963 206.454 76.8851 208.075 76.8851C209.712 76.8851 210.965 77.36 211.833 78.3098C212.701 79.2597 213.135 80.3978 213.135 81.7242V89.6584H211.17L210.9 88.0863H210.826C209.647 89.2982 208.132 89.9041 206.282 89.9041C205.168 89.9041 204.218 89.5684 203.432 88.8969C202.663 88.2255 202.278 87.3085 202.278 86.1458C202.278 84.9831 202.753 84.0415 203.702 83.3209C204.669 82.6004 206.077 82.2401 207.927 82.2401H210.9V82.0436C210.9 80.9628 210.63 80.1849 210.089 79.71C209.565 79.2351 208.648 78.9976 207.338 78.9976C206.028 78.9976 204.8 79.276 203.653 79.8328H203.506V77.8186ZM210.9 86.0966V84.0333H208.222C205.749 84.0333 204.513 84.6883 204.513 85.9984C204.513 87.2921 205.381 87.9389 207.117 87.9389C207.837 87.9389 208.533 87.767 209.205 87.4231C209.876 87.0628 210.441 86.6207 210.9 86.0966Z" fill="white"/>
    <path d="M233 77.1308L225.459 95.3082H223.199L225.311 89.8549L220.128 77.1308H222.535L226.466 87.0301H226.564L230.592 77.1308H233Z" fill="white"/>
</svg>
