<svg width="79" height="79" viewBox="0 0 79 79" fill="none" xmlns="http://www.w3.org/2000/svg">
<path d="M25.6061 60.6127C26.2377 60.3313 26.8757 60.0739 27.5208 59.8316C29.1526 59.2123 30.8282 58.7149 32.5336 58.3438C33.8096 58.0727 35.1008 57.8721 36.4024 57.7457C35.6676 60.0498 34.8638 62.3312 33.9919 64.587C34.0295 65.0259 34.0503 65.4672 34.0615 65.9101C35.8525 65.556 37.6739 65.3774 39.4996 65.3769C41.3608 65.3769 43.1789 65.5624 44.9377 65.9101C44.9497 65.4664 44.9697 65.0251 45.0073 64.587C44.1357 62.3312 43.3321 60.0498 42.5976 57.7457C43.8992 57.8721 45.1896 58.0719 46.4656 58.3438C48.1715 58.7129 49.8471 59.21 51.4784 59.8308C56.8073 61.8237 61.5563 65.1121 65.2967 69.3991C73.6842 62.1557 79 51.4529 79 39.5005C79 17.6848 61.3153 2.71072e-08 39.5004 2.71072e-08C17.6863 -0.000799465 0 17.684 0 39.4997C0 51.4521 5.31661 62.1557 13.7041 69.3991C16.984 65.6383 21.046 62.6395 25.6061 60.6127Z" fill="#A0DBE8"/>
<path d="M28.2102 67.7586C30.0866 66.9278 32.0483 66.3078 34.0615 65.9101C34.0503 65.4672 34.0295 65.0259 33.9919 64.587C34.8638 62.3312 35.6676 60.0498 36.4024 57.7457C35.1008 57.8721 33.8096 58.0727 32.5336 58.3438C30.8277 58.7129 29.1521 59.2108 27.5208 59.8316L30.4008 60.5288L28.2102 67.7586ZM21.4218 72.0175C21.4937 71.282 21.5377 70.5385 21.5377 69.7885C21.5377 69.3376 21.9039 68.9715 22.3556 68.9715H23.0735L25.6061 60.6127C21.046 62.6395 16.984 65.6383 13.7041 69.3991C15.554 70.9969 17.5473 72.4208 19.6597 73.6509C20.2234 73.0814 20.8113 72.5365 21.4218 72.0175ZM53.3942 60.6128L55.927 68.9706H56.6441C57.0958 68.9706 57.4612 69.3368 57.4612 69.7885C57.4612 70.5385 57.506 71.2812 57.5779 72.0167C58.1882 72.5356 58.7761 73.0803 59.34 73.6493C61.4523 72.4192 63.4468 70.9969 65.2967 69.3991C62.0163 65.6388 57.9538 62.6403 53.3942 60.6128ZM48.5996 60.5288L51.4784 59.8308C49.8465 59.2115 48.171 58.7149 46.4656 58.3438C45.1884 58.0722 43.8971 57.8726 42.5976 57.7457C43.3321 60.0498 44.1357 62.3312 45.0073 64.587C44.9711 65.0273 44.9479 65.4685 44.9377 65.9101C46.978 66.3123 48.9354 66.9391 50.7894 67.7586L48.5996 60.5288Z" fill="#525353"/>
<path d="M45.0656 68.9707C44.9526 67.9547 44.9099 66.932 44.9377 65.9101C43.1467 65.556 41.3253 65.3774 39.4996 65.3769C37.6384 65.3769 35.8219 65.5624 34.0615 65.9101C34.0886 66.932 34.0458 67.9546 33.9335 68.9707H45.0656ZM19.6597 73.6509C20.1194 73.9187 20.5812 74.1777 21.0513 74.4272C21.216 73.6357 21.3418 72.8322 21.4218 72.0175C20.8113 72.5365 20.2234 73.0814 19.6597 73.6509Z" fill="black"/>
<path d="M27.8421 68.9705L33.9335 68.9707C34.047 67.9449 34.0879 66.9231 34.0615 65.9101C32.0212 66.3123 30.0635 66.9391 28.2102 67.7586L27.8421 68.9705ZM57.5779 72.0167C57.6579 72.8314 57.783 73.6355 57.9477 74.427C58.4169 74.1775 58.8813 73.9177 59.34 73.6493C58.7761 73.0803 58.1882 72.5356 57.5779 72.0167ZM51.1576 68.9705L50.7894 67.7586C48.9131 66.9275 46.9509 66.308 44.9377 65.9101C44.9099 66.932 44.9526 67.9547 45.0656 68.9707L51.1576 68.9705Z" fill="black"/>
<path d="M27.8421 68.9705L28.2102 67.7586L30.4008 60.5288L27.5208 59.8316C26.8757 60.0739 26.2377 60.3313 25.6061 60.6127L23.0735 68.9715L25.793 68.9697L27.8421 68.9705ZM51.1576 68.9705L55.927 68.9706L53.3942 60.6128C52.7634 60.3313 52.1235 60.0731 51.4784 59.8308L48.5996 60.5288L51.1576 68.9705Z" fill="#AA9678"/>
<path d="M23.1565 70.6592L23.2309 70.6065H23.1589L23.1565 70.6592Z" fill="#C0B098"/>
<path d="M39.4997 70.6053L23.2309 70.6065C23.206 70.6239 23.1812 70.6415 23.1565 70.6592C23.1006 72.1847 22.9015 73.7002 22.5601 75.188C27.8523 77.7043 33.6398 79.0067 39.4997 79V70.6053Z" fill="#C0B098"/>
<path d="M55.8404 70.6053H55.7684L55.8436 70.6581C55.842 70.6405 55.8404 70.6237 55.8404 70.6053ZM55.7684 70.6053H39.4997V79C45.3597 79.0071 51.1479 77.7047 56.44 75.188C56.0992 73.7001 55.8995 72.1834 55.8436 70.6581L55.7684 70.6053Z" fill="#AA9678"/>
<path d="M39.4996 69.7883H40.2991V70.6054L39.4997 70.6053L39.4996 69.7883Z" fill="#786453"/>
<path d="M57.5779 72.0167C57.506 71.2812 57.4612 70.5385 57.4612 69.7885C57.4612 69.3368 57.0958 68.9706 56.6441 68.9706L22.3556 68.9715C21.9039 68.9715 21.5377 69.3376 21.5377 69.7885C21.5377 70.5385 21.4937 71.282 21.4218 72.0175C21.3418 72.8268 21.2179 73.6312 21.0513 74.4272C21.5486 74.691 22.0517 74.9457 22.5601 75.188C22.8959 73.7153 23.1013 72.2038 23.1565 70.6592C23.1565 70.6416 23.1581 70.6241 23.1589 70.6065L55.8381 70.6063L55.8405 70.659C55.8949 72.202 56.1019 73.7163 56.4377 75.1889C56.9458 74.946 57.4486 74.692 57.9456 74.427C57.7802 73.6309 57.6581 72.8259 57.5779 72.0167Z" fill="#8B7460"/>
<path d="M63.9603 29.416C64.4005 29.3808 64.7288 28.9955 64.6936 28.5553C64.6584 28.1152 64.273 27.7869 63.8329 27.8221C63.3928 27.8573 63.0645 28.2426 63.0997 28.6827C63.1349 29.1229 63.5202 29.4512 63.9603 29.416Z" fill="white"/>
<path d="M65.7996 30.7086C65.7932 30.7006 65.786 30.6918 65.7804 30.683C65.4677 30.2467 65.1289 29.8304 64.7664 29.4344L64.7587 29.4222C64.6038 29.2543 64.4438 29.0911 64.279 28.9329C64.2182 28.8746 64.1559 28.8234 64.0951 28.7683C63.9928 28.6763 63.891 28.5814 63.7879 28.4974L63.7886 32.1719L65.1949 38.6142C65.2109 38.6653 65.2285 38.7117 65.2429 38.7637L66.2178 39.8548L66.2266 39.8436H67.2467C67.2483 39.7493 67.2539 39.6557 67.2539 39.5614C67.2539 36.5233 66.7542 33.6012 65.8492 30.8661C65.8332 30.8142 65.8172 30.7614 65.7996 30.7086Z" fill="#BBBCBD"/>
<path d="M65.3333 39.2426L65.3389 39.2738C65.3397 39.2794 65.3421 39.2858 65.3421 39.2921L65.3429 39.2946C65.3613 39.4457 65.3684 39.6024 65.3716 39.7615C65.3724 39.791 65.3772 39.8182 65.3772 39.847V39.8694C65.3772 39.9006 65.3716 39.9301 65.3716 39.9621C65.3697 40.1155 65.3601 40.2678 65.3429 40.4202V40.4226C65.3429 40.4306 65.3405 40.437 65.3389 40.445L65.3325 40.4794C65.3119 40.6369 65.2826 40.7936 65.244 40.9476L65.2485 40.9439L65.2504 40.9356L66.2178 39.8548L65.2429 38.7637V38.7661C65.2821 38.918 65.3109 39.0771 65.3333 39.2426Z" fill="#676A6A"/>
<path d="M65.3325 40.4794C65.3349 40.4586 65.3405 40.4426 65.3429 40.4226C65.3613 40.2739 65.3684 40.118 65.3716 39.9621C65.3724 39.9277 65.3772 39.8934 65.3772 39.8574C65.3772 39.8254 65.3716 39.7934 65.3716 39.7615C65.3695 39.6052 65.3604 39.4499 65.3429 39.2946C65.3405 39.2762 65.3357 39.2602 65.3333 39.2426C65.3122 39.0822 65.282 38.9231 65.2429 38.7661C65.2293 38.7125 65.2109 38.6653 65.1949 38.6142C65.111 38.3277 64.9859 38.0552 64.8228 37.8051C64.7655 37.7187 64.7021 37.6365 64.6333 37.5589C64.5712 37.4895 64.5029 37.4258 64.4294 37.3686C64.4023 37.3486 64.3735 37.3342 64.3455 37.3159C64.2603 37.26 64.1681 37.2157 64.0713 37.1839C63.98 37.1532 63.8846 37.1365 63.7883 37.1344C63.6616 37.1364 63.5366 37.1636 63.4205 37.2143C63.3557 37.2415 63.2926 37.2759 63.231 37.3159C63.2038 37.3342 63.175 37.3478 63.1479 37.3686C63.0202 37.467 62.9085 37.5846 62.8169 37.7172C62.7953 37.7461 62.7742 37.7754 62.7537 37.8051C62.5835 38.0662 62.4544 38.3517 62.3703 38.6518C62.329 38.7981 62.2946 38.9464 62.2688 39.0963C62.2608 39.1442 62.2504 39.1882 62.244 39.237C62.2195 39.4137 62.2061 39.5918 62.2041 39.7702C62.2041 39.7958 62.1985 39.819 62.1985 39.8454L62.2061 39.8455C62.2061 41.3501 62.9176 42.5693 63.7962 42.5693C63.9729 42.5676 64.1459 42.5182 64.2967 42.4262C64.3543 42.3942 64.4099 42.3558 64.4642 42.3134C64.4946 42.2902 64.5226 42.2607 64.5506 42.2335C64.6748 42.1126 64.7851 41.9788 64.8788 41.833C64.9043 41.7914 64.9275 41.7466 64.9507 41.7027C64.9969 41.6188 65.0388 41.5326 65.0762 41.4444C65.0898 41.4125 65.1038 41.382 65.1174 41.3476C65.1654 41.2213 65.2088 41.0883 65.244 40.9476C65.2824 40.7997 65.3109 40.6409 65.3325 40.4794ZM63.8458 39.4953C63.5164 39.4953 63.2494 39.038 63.2494 38.4735C63.2494 37.9099 63.5164 37.4526 63.8458 37.4526C64.1752 37.4526 64.4414 37.9099 64.4414 38.4735C64.4414 39.038 64.1752 39.4953 63.8458 39.4953Z" fill="black"/>
<path d="M63.8458 39.4953C64.2874 39.4953 64.645 39.0375 64.645 38.4732C64.645 37.9089 64.2874 37.4526 63.8458 37.4526C63.4043 37.4526 63.046 37.9089 63.046 38.4732C63.046 39.0375 63.4043 39.4953 63.8458 39.4953Z" fill="white"/>
<path d="M62.3823 38.615C62.4751 38.3048 62.6026 38.0314 62.7537 37.8051C62.8113 37.7182 62.8747 37.6361 62.9438 37.558C63.0094 37.4868 63.0775 37.423 63.1479 37.3686C63.175 37.3478 63.2038 37.3342 63.231 37.3159C63.3971 37.2064 63.5896 37.1437 63.7883 37.1344C63.915 37.1357 64.04 37.1627 64.1558 37.2142C64.2198 37.2414 64.2839 37.2759 64.3455 37.3159C64.3735 37.3342 64.4023 37.3486 64.4294 37.3686C64.5574 37.467 64.6691 37.5844 64.761 37.7171L64.8228 37.8051C64.9739 38.0322 65.1006 38.3048 65.1949 38.6142L63.7886 32.1719L62.3823 38.615Z" fill="#909393"/>
<path d="M45.1469 39.7982C45.1449 39.67 45.1364 39.5427 45.1214 39.4153V39.4097C45.1065 39.2864 45.0849 39.164 45.0582 39.0427L45.0566 39.0331C45.0303 38.9151 44.9981 38.7977 44.9599 38.6829L44.9567 38.6749C44.8797 38.4447 44.7816 38.2223 44.6618 38.0112C44.2478 37.289 43.6049 36.7257 42.8356 36.4076L42.8252 36.4036C42.6101 36.316 42.3879 36.2482 42.16 36.2029L42.1425 36.2005C41.9073 36.1542 41.6684 36.1288 41.4287 36.1284C41.1888 36.1284 40.9544 36.1541 40.7266 36.1981L40.7026 36.2013C40.479 36.2457 40.2608 36.311 40.0494 36.3964L40.0318 36.4028C39.8191 36.4891 39.617 36.5937 39.4267 36.716H39.4243C39.2323 36.8398 39.0519 36.9808 38.8855 37.1373L38.8815 37.1501L38.8679 37.1533C38.6017 37.4062 38.3739 37.6979 38.1922 38.017L38.185 38.0282C38.1297 38.1271 38.0791 38.2284 38.0331 38.332L38.0172 38.3621C37.9749 38.4581 37.9389 38.558 37.9053 38.658C37.8973 38.6779 37.8892 38.6981 37.8836 38.7181C37.8544 38.8122 37.829 38.9066 37.8076 39.0027C37.8012 39.0307 37.7916 39.0571 37.786 39.0851C37.7668 39.181 37.7525 39.2762 37.7397 39.3745C37.7365 39.4049 37.7301 39.4337 37.7261 39.4632C37.6865 39.8328 37.7036 40.2043 37.7766 40.5687L37.7796 40.5857C37.8268 40.8176 37.8941 41.0404 37.9821 41.2547L37.9859 41.2653C38.1639 41.6962 38.4211 42.0881 38.744 42.4244C38.9966 42.6882 39.2891 42.9155 39.6089 43.0969L39.613 43.0975C39.713 43.1535 39.8161 43.2047 39.9208 43.2518L39.9472 43.2638C40.0448 43.307 40.1461 43.344 40.2485 43.3784L40.2996 43.3975C40.3932 43.4279 40.4885 43.4501 40.586 43.4725C40.6124 43.4789 40.638 43.4869 40.6644 43.4925C40.7587 43.5125 40.8562 43.5253 40.9522 43.5381C40.9818 43.542 41.0113 43.5484 41.0401 43.5516C41.7117 43.6233 42.3901 43.5102 43.0021 43.2246C43.6141 42.939 44.1366 42.4918 44.5131 41.9311C44.9284 41.3166 45.1498 40.5916 45.1487 39.85L45.1479 39.8244L45.1469 39.7982ZM41.4279 39.3615C41.0572 39.3615 40.7018 39.2143 40.4397 38.9522C40.1776 38.6901 40.0304 38.3346 40.0304 37.964C40.0304 37.5933 40.1776 37.2379 40.4397 36.9758C40.7018 36.7137 41.0572 36.5665 41.4279 36.5665C41.7985 36.5665 42.154 36.7137 42.4161 36.9758C42.6781 37.2379 42.8254 37.5933 42.8254 37.964C42.8254 38.3346 42.6781 38.6901 42.4161 38.9522C42.154 39.2143 41.7985 39.3615 41.4279 39.3615Z" fill="black"/>
<path d="M41.4279 39.3615C42.1997 39.3615 42.8254 38.7358 42.8254 37.964C42.8254 37.1922 42.1997 36.5665 41.4279 36.5665C40.656 36.5665 40.0304 37.1922 40.0304 37.964C40.0304 38.7358 40.656 39.3615 41.4279 39.3615Z" fill="white"/>
<path d="M38.8678 37.1556L38.8815 37.1501L38.8855 37.1373L41.4486 29.3005L41.4485 27.4453C40.0016 27.1459 38.5281 26.9945 37.0506 26.9924C36.5493 26.9924 36.0512 27.0132 35.5571 27.0476L35.3413 27.062C32.7631 27.2652 30.2408 27.9209 27.89 28.9991C25.8796 29.923 24.0075 31.121 22.3279 32.5612L22.3255 32.5644C21.8738 32.9482 21.4421 33.3519 21.0191 33.7661C20.94 33.8444 20.8584 33.9204 20.7817 33.9979C20.384 34.3991 20.0001 34.8145 19.6288 35.2403C19.5481 35.3323 19.4689 35.4274 19.389 35.5209C19.0164 35.9607 18.6534 36.4092 18.3089 36.8729C18.2801 36.9121 18.2529 36.9536 18.2241 36.992C17.8963 37.4397 17.5821 37.897 17.2807 38.3639C17.2224 38.4559 17.1616 38.5454 17.104 38.6374C16.8602 39.0243 16.6332 39.4221 16.4094 39.8203H28.0851L38.8678 37.1556Z" fill="#BBBCBD"/>
<path d="M48.726 36.2733C48.75 35.9671 48.7691 35.6609 48.7851 35.3555C48.8059 34.9413 48.8203 34.5264 48.8283 34.1123C48.8347 33.7901 48.8342 33.4694 48.8326 33.1473C48.831 33.0537 48.8326 32.961 48.8326 32.8674C48.823 32.0364 48.7928 31.2057 48.7412 30.3762L48.7348 30.3714L48.7308 30.365C48.7223 30.3602 48.7138 30.3554 48.7052 30.3507L48.6679 30.329C48.516 30.2411 48.1402 30.0268 47.8044 29.8358L47.7829 29.8246L47.5406 29.6879C47.5392 29.687 47.5378 29.6859 47.5366 29.6847L47.3687 29.5911L47.3373 29.572C47.2972 29.549 47.2567 29.5269 47.2157 29.5056C46.6789 29.2272 46.1313 28.9698 45.5744 28.7341C44.2464 28.1736 42.4567 27.6827 41.4485 27.4453L41.4486 29.3005L43.9906 37.1503L43.993 37.1583C44.3439 37.4923 44.6258 37.8915 44.8239 38.3336C44.8255 38.3344 44.8269 38.3368 44.8285 38.3392C44.8764 38.4479 44.9191 38.5606 44.9567 38.6749L44.9599 38.6829C44.9981 38.7977 45.0303 38.9151 45.0566 39.0331L45.0582 39.0427C45.0846 39.1626 45.107 39.2842 45.1214 39.4097V39.4153C45.1373 39.5408 45.1453 39.6679 45.1469 39.7982L45.1565 39.819L48.2671 39.819C48.4781 38.6806 48.6244 37.5269 48.7172 36.3692L48.726 36.2733Z" fill="#E2DDDB"/>
<path d="M45.1744 51.007C45.8796 50.3051 46.5456 49.6319 47.1812 48.9731C47.5593 48.5814 47.9279 48.1936 48.2805 47.8115C50.8796 44.9893 52.7896 42.3477 53.9369 38.9507C53.9688 38.8501 53.9955 38.7479 54.0168 38.6445L54.0296 38.5893C54.0568 38.463 54.082 38.3224 54.1084 38.1625C54.118 38.0529 54.13 37.9458 54.1396 37.8435C53.8518 36.3644 53.2905 34.9261 52.7965 33.507L52.8016 33.5214L52.7877 33.5078C52.6933 33.4183 52.5937 33.3343 52.4978 33.2463C52.2059 32.977 51.9082 32.7142 51.6047 32.458C50.7028 31.6941 49.7463 30.9983 48.7412 30.3762C48.7923 31.2077 48.8238 32.0384 48.8326 32.8674C48.8326 32.961 48.831 33.0537 48.8326 33.1473C48.8342 33.4694 48.8347 33.7901 48.8283 34.1123C48.8203 34.5264 48.8059 34.9413 48.7851 35.3555C48.7691 35.6609 48.75 35.9671 48.726 36.2733C48.7228 36.3053 48.7188 36.3373 48.7172 36.3692C48.6264 37.5261 48.4762 38.6776 48.2671 39.819L47.9015 41.5467C47.1388 44.6407 45.5878 47.4469 44.3134 50.3443C43.9718 51.1115 43.6584 51.891 43.374 52.6812L43.294 52.905C43.6922 52.4869 44.0448 52.1255 44.3126 51.8601C44.6052 51.5707 44.8938 51.2869 45.1744 51.007Z" fill="#FBB040"/>
<path d="M38.8858 37.1397C39.0522 36.9832 39.2337 36.8416 39.4258 36.7178C39.6161 36.5947 39.8199 36.4891 40.0318 36.4028L40.0494 36.3964C40.2608 36.311 40.479 36.2457 40.7026 36.2013L40.7266 36.1981C40.9544 36.1541 41.1883 36.1307 41.429 36.1307C41.6728 36.1307 41.9106 36.1557 42.1425 36.2005L42.16 36.2029C42.8493 36.3417 43.4847 36.6725 43.993 37.1583L43.9905 37.1525L41.4486 29.3005L38.8858 37.1397Z" fill="#909393"/>
<path d="M37.9827 41.2573C37.894 41.0404 37.826 40.8155 37.7796 40.5857L37.7772 40.5705C37.7055 40.206 37.6877 39.8328 37.7261 39.4632C37.7301 39.4337 37.7365 39.4049 37.7397 39.3745C37.7525 39.2762 37.7668 39.181 37.786 39.0851L37.8076 39.0027C37.829 38.9066 37.8544 38.8122 37.8836 38.7181C37.8892 38.6981 37.8973 38.6779 37.9053 38.658C37.9389 38.558 37.9749 38.4581 38.0172 38.3621L38.0331 38.332C38.0791 38.2284 38.1297 38.1271 38.185 38.0282L38.1922 38.017C38.3739 37.6979 38.6017 37.4062 38.8679 37.1533L28.0853 39.8179H28.0653L38.744 42.4244C38.4211 42.0881 38.1639 41.6962 37.9859 41.2653L37.9827 41.2573Z" fill="#676A6A"/>
<path d="M62.244 39.237L62.2688 39.0963C62.296 38.9436 62.3288 38.7941 62.3703 38.6518C62.3751 38.6358 62.3767 38.6174 62.3807 38.6022L63.7879 32.1591V28.4862C62.6382 27.5372 61.4072 27.0167 60.1249 27.0167C58.5059 27.0167 56.9957 27.9105 55.8668 29.0154C54.6308 30.2235 53.6759 31.7465 52.9044 33.2808C52.8692 33.3519 52.8324 33.4191 52.7973 33.4902C53.0355 33.6965 53.2716 33.9043 53.5035 34.1162C54.0288 34.5982 54.5449 35.0902 55.0513 35.5921C55.2879 35.8255 55.5195 36.0646 55.7522 36.3021C55.9984 36.5531 56.2463 36.8041 56.4893 37.06C56.934 37.5274 57.3719 37.9996 57.8045 38.4783C58.1738 38.8876 58.5424 39.2993 58.9046 39.7167C58.9661 39.7806 59.008 39.8246 59.024 39.8438L62.1985 39.8454C62.1985 39.8198 62.2027 39.795 62.2027 39.7686C62.2075 39.5863 62.2192 39.4081 62.244 39.237ZM52.7965 33.507L52.7933 33.4974L52.7877 33.5078L52.8016 33.5214L52.7965 33.507Z" fill="#E2DDDB"/>
<path d="M14.4953 43.8732L14.5233 43.8021C14.728 43.268 14.9522 42.7409 15.1872 42.2188C15.2528 42.0733 15.3208 41.9294 15.3879 41.7847C15.5806 41.3746 15.7841 40.9711 15.9951 40.5697C16.0815 40.4074 16.1646 40.2435 16.2542 40.082C16.3029 39.9925 16.3585 39.9075 16.4081 39.818C16.6335 39.4206 16.861 39.0235 17.104 38.6374C17.1616 38.5454 17.2224 38.4559 17.2807 38.3639C17.5821 37.897 17.8963 37.4397 18.2241 36.992C18.2529 36.9536 18.2801 36.9121 18.3089 36.8729C18.6526 36.4092 19.0152 35.9596 19.3886 35.5191C19.4685 35.4256 19.5469 35.3312 19.6284 35.2385C19.9994 34.8124 20.3835 34.3993 20.7817 33.9979C20.8584 33.9204 20.94 33.8444 21.0191 33.7661C21.4403 33.35 21.876 32.9497 22.3255 32.5644L22.3279 32.5612C24.1028 26.6162 29.5309 22.2875 35.9556 22.2875C38.5427 22.2875 41.1139 23.0326 43.3181 24.3814C45.5791 25.7645 47.4211 27.7896 48.6179 30.1513L48.6355 30.1865C48.6659 30.2465 48.7004 30.3051 48.7308 30.365C48.7308 30.3674 48.7314 30.3688 48.733 30.3704L48.7394 30.3752C49.7446 30.9972 50.7028 31.694 51.6047 32.458C51.9082 32.7142 52.2059 32.977 52.4978 33.2463C52.5937 33.3343 52.6933 33.4183 52.7877 33.5078L52.7933 33.4974C52.7949 33.4952 52.7962 33.4928 52.7973 33.4902C52.8292 33.4231 52.862 33.3543 52.8948 33.2888C53.7998 27.574 56.3194 23.458 59.2927 23.458C61.5337 23.458 63.5188 25.7949 64.7492 29.391L64.7612 29.4302L64.7664 29.4344C65.1134 29.8118 65.4527 30.2265 65.7804 30.683L65.7996 30.7086C65.8172 30.7614 65.8301 30.8149 65.8477 30.8677L65.8006 30.6798C62.1021 19.7307 51.7463 11.8469 39.5477 11.8469C24.2471 11.8469 11.8454 24.2503 11.8454 39.5501C11.8454 42.5666 12.3267 45.4704 13.2213 48.1727C13.2229 48.1671 13.2245 48.1623 13.2245 48.1567C13.4004 47.3412 13.6114 46.5321 13.8569 45.7302C14.0512 45.105 14.2634 44.4857 14.4953 43.8732Z" fill="#525353"/>
<path d="M66.2178 39.8548L65.2504 40.9356L65.2485 40.9439C65.2127 41.0804 65.1689 41.2163 65.1174 41.3476C65.07 41.4701 65.0141 41.5877 64.9507 41.7027C64.9275 41.7466 64.9043 41.7914 64.8788 41.833C64.7851 41.9788 64.6748 42.1126 64.5506 42.2335C64.5226 42.2607 64.4946 42.2902 64.4642 42.3134C64.3917 42.371 64.3135 42.4214 64.2304 42.4621C64.0958 42.5308 63.9473 42.567 63.7962 42.5693C62.9176 42.5693 62.2061 41.3501 62.2061 39.8455L59.0173 39.847C59.6089 40.5314 60.1925 41.2245 60.7658 41.9241L60.7866 41.9497C61.3446 42.6316 61.8955 43.3192 62.4391 44.0108L62.5191 44.1123C63.0355 44.7703 63.5464 45.4331 64.0517 46.0966L64.1988 46.2885C64.7344 46.9929 65.2649 47.698 65.791 48.4039L65.8014 48.4199C66.7347 45.6562 67.225 42.7623 67.2541 39.8454H66.2275L66.2178 39.8548Z" fill="white"/>
<path d="M35.3413 27.062L35.5571 27.0476C36.0512 27.0132 36.5493 26.9924 37.0506 26.9924C38.5528 26.9924 40.0214 27.1535 41.4485 27.4453C42.4567 27.6827 44.2464 28.1736 45.5744 28.7341C46.1738 28.9879 46.7619 29.2675 47.3373 29.572L47.3687 29.5911L47.5366 29.6847C47.5378 29.6859 47.5392 29.687 47.5406 29.6879L47.7816 29.8227L47.8024 29.8355C48.1032 30.0063 48.4053 30.1783 48.7052 30.3507L48.7308 30.365C48.7004 30.3051 48.6659 30.2465 48.6355 30.1865L48.6179 30.1513C47.4211 27.7896 45.5791 25.7645 43.3181 24.3814C41.1139 23.0326 38.5427 22.2875 35.9556 22.2875C29.5309 22.2875 24.1028 26.6162 22.3279 32.5612C24.0071 31.1206 25.8776 29.9216 27.8879 28.9976C30.2395 27.9195 32.7623 27.2647 35.3413 27.062Z" fill="black"/>
<path d="M55.8668 29.0154C56.9957 27.9105 58.5059 27.0167 60.1249 27.0167C61.4072 27.0167 62.6382 27.5372 63.7879 28.4862V28.4974C63.891 28.5814 63.991 28.6765 64.0933 28.7692C64.1541 28.8252 64.2172 28.8764 64.278 28.9347C64.4395 29.089 64.5986 29.2529 64.7561 29.424C64.7601 29.4272 64.7632 29.4312 64.7664 29.4344C64.7656 29.4326 64.765 29.4312 64.7632 29.4304L64.7492 29.391C63.5188 25.7949 61.5337 23.458 59.2927 23.458C56.3194 23.458 53.7983 27.5764 52.8932 33.2904L52.9028 33.2824C53.6767 31.7457 54.6316 30.2243 55.8668 29.0154Z" fill="black"/>
<path d="M29.6305 65.3917C29.8839 65.4893 30.1414 65.5772 30.398 65.6667C33.3392 66.6984 36.4337 67.225 39.5506 67.2242C43.209 67.2242 46.6988 66.5078 49.8968 65.219C50.0663 65.1511 50.2326 65.0759 50.3988 65.0048C50.6707 64.8888 50.9401 64.7697 51.2063 64.6458C51.4462 64.5355 51.6844 64.4251 51.9195 64.3076C51.8635 64.3148 51.8059 64.3252 51.7492 64.3316C50.7554 64.4435 49.7688 64.4507 48.8047 64.3124C43.1043 63.4929 41.8411 60.7443 42.0226 57.8821C41.5911 57.6337 41.1729 57.3628 40.7698 57.0706C36.3854 53.891 33.7838 50.5028 33.7838 50.5028C33.7838 50.5028 37.1657 53.1131 42.2169 55.0671C42.3256 55.1086 42.4271 55.1454 42.5335 55.1854C42.7701 54.3699 43.0486 53.5918 43.294 52.905L43.374 52.6812C43.6546 51.8897 43.9752 51.1134 44.3134 50.3443C45.5878 47.4469 47.1388 44.6407 47.9015 41.5467L48.2671 39.819L45.1493 39.819L45.1485 39.8262L45.1494 39.8519C45.1505 40.4615 45.0015 41.062 44.7153 41.6003C44.4292 42.1385 44.0148 42.598 43.5088 42.938C42.7847 43.4276 41.91 43.6455 41.0408 43.5534C41.0112 43.5503 40.9824 43.5438 40.9528 43.5399C40.856 43.5285 40.7606 43.5133 40.665 43.4943C40.6386 43.4887 40.613 43.4807 40.5867 43.4743C40.4897 43.4529 40.3945 43.4268 40.2996 43.3975L40.2485 43.3784C40.1469 43.3451 40.046 43.308 39.9479 43.2656L39.9215 43.2536C39.8164 43.2073 39.7137 43.1558 39.6137 43.0993L39.6089 43.0969C39.2891 42.9155 38.9966 42.6882 38.744 42.4244L28.0635 39.8192L16.4094 39.8203C16.359 39.909 16.3029 39.9925 16.2542 40.082C16.1646 40.2435 16.0815 40.4074 15.9951 40.5697C15.7083 41.1107 15.4386 41.6605 15.1872 42.2188C14.9522 42.7409 14.728 43.268 14.5233 43.8021C14.5153 43.8261 14.5041 43.8501 14.4953 43.8732C13.9664 45.2676 13.5432 46.7004 13.2274 48.1579C15.063 53.7543 18.6319 58.5625 23.3001 61.9523C23.4353 62.0514 23.5792 62.1386 23.7159 62.2345C25.5517 63.5234 27.5379 64.5837 29.6305 65.3917Z" fill="white"/>
<path d="M48.7577 56.7871C48.5966 57.8609 48.6686 58.9568 48.9688 60.0003C49.0887 60.4232 49.2406 60.8181 49.4101 61.1835C49.6891 61.7872 50.035 62.3576 50.4414 62.884C50.5693 63.0503 50.6915 63.1962 50.8099 63.3337C51.0873 63.6593 51.3905 63.9612 51.7181 64.2363L51.7261 64.2619L51.751 64.3327C51.8069 64.3263 51.8645 64.3151 51.9213 64.3087C53.1565 64.1536 54.4013 63.8186 55.6285 63.3773C56.2595 63.153 56.8809 62.9028 57.4913 62.6274C57.6792 62.5418 57.8623 62.4475 58.0478 62.358C64.3941 59.2887 69.7075 53.8618 69.7075 53.8618C61.7334 57.7793 53.94 57.6234 48.7577 56.7871Z" fill="#9F2255"/>
<path d="M64.0517 46.0966C63.5464 45.4331 63.0355 44.7703 62.5191 44.1123L62.4391 44.0108C61.8955 43.3192 61.3446 42.6316 60.7866 41.9497L60.7658 41.9241C60.1556 41.1797 59.5351 40.4438 58.9046 39.7167C58.5424 39.2993 58.1738 38.8876 57.8045 38.4783C57.3719 37.9996 56.934 37.5274 56.4893 37.06C56.2463 36.8041 55.9984 36.5531 55.7522 36.3021C55.5195 36.0654 55.2879 35.8276 55.0513 35.5941C54.5445 35.0932 54.0287 34.6015 53.5043 34.119C53.2714 33.9065 53.0356 33.6966 52.7973 33.4902L52.7933 33.4974C53.2945 34.9357 53.8654 36.3924 54.1516 37.8922C54.2259 38.2824 54.2878 38.6634 54.3373 39.0343C55.0353 44.227 53.3716 47.6177 50.7284 52.078C50.539 52.3978 50.3444 52.722 50.1454 53.0538C49.5409 54.0612 49.154 55.0158 48.9301 55.9112C48.855 56.2094 48.7985 56.5025 48.7577 56.7871C53.94 57.6234 61.7334 57.7793 69.7075 53.8618C69.7075 53.8618 68.1439 51.5627 65.791 48.4039C65.2639 47.6963 64.7324 46.9912 64.1988 46.2885C64.15 46.2245 64.0997 46.1606 64.0517 46.0966Z" fill="#E2066F"/>
<path d="M51.7181 64.2363C51.7181 64.2363 51.3183 63.9189 50.8099 63.3337C50.5741 63.0627 50.3537 62.7784 50.1495 62.4828C49.8659 62.0714 49.6196 61.6372 49.4101 61.1835C49.2406 60.8181 49.0887 60.4232 48.9688 60.0003C48.7518 59.2391 48.653 58.4482 48.6777 57.657C48.7016 57.0679 48.7865 56.4831 48.9301 55.9112C49.154 55.0158 49.5409 54.0612 50.1454 53.0538L50.1487 53.0448C50.3462 52.7162 50.5406 52.3938 50.7284 52.078C53.3716 47.6177 55.0353 44.227 54.3373 39.0343C54.2856 38.6524 54.224 38.2708 54.1516 37.8922C54.1124 38.1617 54.0712 38.3943 54.0296 38.5893L54.0168 38.6445C53.9955 38.7479 53.9688 38.8501 53.9369 38.9507C52.7896 42.3477 50.8796 44.9893 48.2805 47.8115C47.9279 48.1936 47.5593 48.5814 47.1812 48.9731C46.5456 49.6319 45.8796 50.3051 45.1744 51.007L44.3126 51.8601C44.0448 52.1255 43.6922 52.4869 43.294 52.905C43.0486 53.5926 42.7687 54.3687 42.5328 55.1834C42.4273 55.1434 42.3248 55.1094 42.2169 55.0671C37.1657 53.1131 33.7832 50.5008 33.7832 50.5008C33.7832 50.5008 36.3862 53.8902 40.7698 57.0706C41.1729 57.3628 41.5911 57.6337 42.0226 57.8821C41.8411 60.7443 43.1043 63.4929 48.8047 64.3124C49.7688 64.4507 50.7554 64.4435 51.7492 64.3316L51.7261 64.2619C51.7233 64.2537 51.7207 64.2446 51.7181 64.2363Z" fill="black"/>
</svg>
