<svg
  width="20"
  height="20"
  viewBox="0 0 20 20"
  fill="none"
  xmlns="http://www.w3.org/2000/svg"
>
  <path
    d="M6.39844 15.5231V4.51854C6.39844 2.98661 6.39844 2.22065 5.91026 1.96942C5.42208 1.7182 4.79879 2.16341 3.55221 3.05382L2.12909 4.07033C1.57482 4.46624 1.29768 4.6642 1.14806 4.95494C0.998437 5.24569 0.998437 5.58627 0.998437 6.26742V13.7742C0.998437 14.4553 0.998437 14.7959 1.14806 15.0867C1.29768 15.3774 1.57482 15.5754 2.12909 15.9713L3.55221 16.9878C4.79879 17.8782 5.42208 18.3234 5.91026 18.0722C6.39844 17.821 6.39844 17.055 6.39844 15.5231Z"
    stroke="#242424"
    stroke-width="1.5"
  />
  <path
    d="M13.6 15.5231V4.51854C13.6 2.98661 13.6 2.22065 14.0882 1.96942C14.5764 1.7182 15.1996 2.16341 16.4462 3.05382L17.8693 4.07033C18.4236 4.46624 18.7008 4.6642 18.8504 4.95494C19 5.24569 19 5.58627 19 6.26742V13.7742C19 14.4553 19 14.7959 18.8504 15.0867C18.7008 15.3774 18.4236 15.5754 17.8693 15.9713L16.4462 16.9878C15.1996 17.8782 14.5764 18.3234 14.0882 18.0722C13.6 17.821 13.6 17.055 13.6 15.5231Z"
    stroke="#242424"
    stroke-width="1.5"
  />
  <path
    d="M10 19L10 1"
    stroke="#242424"
    stroke-width="1.5"
    stroke-linecap="round"
  />
</svg>
