<svg width="16" height="16" viewBox="0 0 16 16" fill="none" xmlns="http://www.w3.org/2000/svg">
<path d="M1 8C1 4.70017 1 3.05025 2.02513 2.02513C3.05025 1 4.70017 1 8 1C11.2998 1 12.9497 1 13.9749 2.02513C15 3.05025 15 4.70017 15 8" stroke="currentColor" stroke-width="1.5"/>
<path d="M1 9.40029C1 7.44011 1 6.46002 1.38148 5.71133C1.71703 5.05276 2.25247 4.51733 2.91103 4.18177C3.65972 3.80029 4.63982 3.80029 6.6 3.80029H9.4C11.3602 3.80029 12.3403 3.80029 13.089 4.18177C13.7475 4.51733 14.283 5.05276 14.6185 5.71133C15 6.46002 15 7.44011 15 9.40029C15 11.3605 15 12.3406 14.6185 13.0893C14.283 13.7478 13.7475 14.2833 13.089 14.6188C12.3403 15.0003 11.3602 15.0003 9.4 15.0003H6.6C4.63982 15.0003 3.65972 15.0003 2.91103 14.6188C2.25247 14.2833 1.71703 13.7478 1.38148 13.0893C1 12.3406 1 11.3605 1 9.40029Z" stroke="currentColor" stroke-width="1.5"/>
<path d="M8.00234 12.2001L8.00234 6.6001M8.00234 6.6001L10.1023 8.93343M8.00234 6.6001L5.90234 8.93343" stroke="currentColor" stroke-width="1.5" stroke-linecap="round" stroke-linejoin="round"/>
</svg>
