<svg width="48" height="48" viewBox="0 0 48 48" fill="none" xmlns="http://www.w3.org/2000/svg">
<rect width="48" height="48" rx="12" fill="#1093FF"/>
<path fill-rule="evenodd" clip-rule="evenodd" d="M22.469 35.9248L22.7755 35.407C23.2666 34.5772 23.5122 34.1624 23.9034 33.931C24.2946 33.6996 24.8048 33.6832 25.8254 33.6506C26.7823 33.62 27.4254 33.5365 27.9753 33.3087C29.1331 32.8292 30.0529 31.9093 30.5325 30.7516C30.8921 29.8832 30.8921 28.7825 30.8921 26.5809V25.6359C30.8921 22.5425 30.8921 20.9958 30.1959 19.8596C29.8063 19.2238 29.2717 18.6892 28.6359 18.2996C27.4997 17.6034 25.953 17.6034 22.8597 17.6034H20.0247C16.9313 17.6034 15.3846 17.6034 14.2484 18.2996C13.6126 18.6892 13.0781 19.2238 12.6885 19.8596C11.9922 20.9958 11.9922 22.5425 11.9922 25.6359V26.5809C11.9922 28.7825 11.9922 29.8832 12.3519 30.7516C12.8314 31.9093 13.7512 32.8292 14.909 33.3087C15.4589 33.5365 16.102 33.62 17.0589 33.6506C18.0794 33.6832 18.5897 33.6996 18.9809 33.931C19.3721 34.1624 19.6176 34.5772 20.1088 35.407L20.4152 35.9248C20.8718 36.6962 22.0125 36.6962 22.469 35.9248ZM25.5765 27.0533C26.2289 27.0533 26.7578 26.5245 26.7578 25.8721C26.7578 25.2197 26.2289 24.6908 25.5765 24.6908C24.9241 24.6908 24.3953 25.2197 24.3953 25.8721C24.3953 26.5245 24.9241 27.0533 25.5765 27.0533ZM22.6234 25.8721C22.6234 26.5245 22.0945 27.0533 21.4422 27.0533C20.7898 27.0533 20.2609 26.5245 20.2609 25.8721C20.2609 25.2197 20.7898 24.6908 21.4422 24.6908C22.0945 24.6908 22.6234 25.2197 22.6234 25.8721ZM17.3078 27.0533C17.9602 27.0533 18.489 26.5245 18.489 25.8721C18.489 25.2197 17.9602 24.6908 17.3078 24.6908C16.6554 24.6908 16.1266 25.2197 16.1266 25.8721C16.1266 26.5245 16.6554 27.0533 17.3078 27.0533Z" fill="white"/>
<path d="M28.1322 11.9927C29.5436 11.9927 30.6661 11.9927 31.5662 12.0782C32.4892 12.166 33.2697 12.35 33.9648 12.776C34.6801 13.2143 35.2814 13.8157 35.7197 14.5309C36.1458 15.2261 36.3297 16.0065 36.4175 16.9295C36.5031 17.8297 36.5031 18.9522 36.5031 20.3636V21.3276C36.5031 22.3322 36.5031 23.1312 36.4589 23.7791C36.4136 24.4419 36.3192 25.0111 36.0984 25.5441C35.5589 26.8466 34.5241 27.8814 33.2216 28.4209C33.1891 28.4344 33.1563 28.4474 33.1234 28.46C32.9247 28.536 32.7197 28.3861 32.7231 28.1733C32.7305 27.7097 32.7305 27.2001 32.7304 26.6424V25.5489C32.7305 24.0763 32.7305 22.8427 32.6352 21.8398C32.5353 20.7898 32.3182 19.8045 31.7633 18.8991C31.2221 18.0159 30.4796 17.2734 29.5965 16.7322C28.691 16.1773 27.7057 15.9602 26.6557 15.8603C25.6528 15.765 24.4193 15.765 22.9466 15.7651H19.9377C19.1302 15.765 18.3945 15.765 17.7294 15.7807C17.5008 15.7861 17.3358 15.5701 17.4104 15.3539C17.5101 15.0649 17.636 14.7916 17.7958 14.5309C18.2341 13.8157 18.8355 13.2143 19.5507 12.776C20.2459 12.35 21.0263 12.166 21.9493 12.0782C22.8495 11.9927 23.9719 11.9927 25.3834 11.9927H28.1322Z" fill="white"/>
</svg>