<svg width="12" height="12" viewBox="0 0 12 12" fill="none" xmlns="http://www.w3.org/2000/svg">
<path d="M5.55 3.50849C4.98846 3.66204 4.65 4.09293 4.65 4.5C4.65 4.90707 4.98846 5.33796 5.55 5.49151V3.50849Z" fill="currentColor"/>
<path d="M6.45 6.50849V8.49151C7.01154 8.33797 7.35 7.90708 7.35 7.5C7.35 7.09293 7.01154 6.66204 6.45 6.50849Z" fill="currentColor"/>
<path fill-rule="evenodd" clip-rule="evenodd" d="M12 6C12 9.31371 9.31371 12 6 12C2.68629 12 0 9.31371 0 6C0 2.68629 2.68629 0 6 0C9.31371 0 12 2.68629 12 6ZM6 1.95C6.24853 1.95 6.45 2.15147 6.45 2.4V2.59004C7.42826 2.7652 8.25 3.50017 8.25 4.5C8.25 4.74853 8.04853 4.95 7.8 4.95C7.55147 4.95 7.35 4.74853 7.35 4.5C7.35 4.09293 7.01154 3.66204 6.45 3.50849V5.59004C7.42826 5.7652 8.25 6.50017 8.25 7.5C8.25 8.49984 7.42826 9.2348 6.45 9.40996V9.6C6.45 9.84853 6.24853 10.05 6 10.05C5.75147 10.05 5.55 9.84853 5.55 9.6V9.40996C4.57174 9.2348 3.75 8.49984 3.75 7.5C3.75 7.25147 3.95147 7.05 4.2 7.05C4.44853 7.05 4.65 7.25147 4.65 7.5C4.65 7.90708 4.98846 8.33797 5.55 8.49151V6.40996C4.57174 6.2348 3.75 5.49983 3.75 4.5C3.75 3.50017 4.57174 2.7652 5.55 2.59004V2.4C5.55 2.15147 5.75147 1.95 6 1.95Z" fill="currentColor"/>
</svg>
