<svg
  width="17"
  height="16"
  viewBox="0 0 17 16"
  fill="none"
  xmlns="http://www.w3.org/2000/svg"
>
  <path
    d="M12.9183 12.7291C12.605 12.7291 12.3508 12.4749 12.3508 12.1616C12.3508 11.8483 12.605 11.594 12.9183 11.594C14.1116 11.594 14.6209 11.0848 14.6209 9.89142V3.83769C14.6209 2.64435 14.1116 2.13508 12.9183 2.13508H3.83769C2.64435 2.13508 2.13508 2.64435 2.13508 3.83769V9.89142C2.13508 11.0848 2.64435 11.594 3.83769 11.594C4.15097 11.594 4.40523 11.8483 4.40523 12.1616C4.40523 12.4749 4.15097 12.7291 3.83769 12.7291C2.00795 12.7291 1 11.7212 1 9.89142V3.83769C1 2.00795 2.00795 1 3.83769 1H12.9183C14.748 1 15.756 2.00795 15.756 3.83769V9.89142C15.756 11.7212 14.748 12.7291 12.9183 12.7291ZM11.8301 14.2653C12.0572 13.8105 12.0087 13.2755 11.7038 12.8699L9.43584 9.85355C8.93035 9.18007 7.82479 9.18083 7.31931 9.85355L5.05146 12.8706C4.74651 13.2762 4.69808 13.8112 4.9251 14.266C5.15136 14.7185 5.60542 15 6.11015 15H10.6444C11.1498 14.9992 11.6046 14.7178 11.8301 14.2653ZM8.52856 10.5354L10.7965 13.5523C10.8601 13.6363 10.835 13.7182 10.8146 13.7583C10.7949 13.7977 10.7465 13.8642 10.6444 13.8642H6.11015C6.00799 13.8642 5.96024 13.7977 5.93981 13.7583C5.92014 13.7175 5.89445 13.6363 5.95801 13.5523L8.22585 10.5354C8.27504 10.4696 8.3417 10.4597 8.37651 10.4597C8.41132 10.4597 8.47937 10.4689 8.52856 10.5354Z"
    fill="#242424"
    stroke="#242424"
    stroke-width="0.5"
  />
</svg>
