<svg width="12" height="12" viewBox="0 0 12 12" fill="none" xmlns="http://www.w3.org/2000/svg">
<path fill-rule="evenodd" clip-rule="evenodd" d="M12 6C12 9.31371 9.31371 12 6 12C2.68629 12 0 9.31371 0 6C0 2.68629 2.68629 0 6 0C9.31371 0 12 2.68629 12 6ZM4.18178 4.18179C4.35751 4.00605 4.64244 4.00605 4.81817 4.18179L5.99998 5.3636L7.18178 4.1818C7.35751 4.00607 7.64244 4.00607 7.81817 4.1818C7.99391 4.35754 7.99391 4.64246 7.81817 4.8182L6.63638 5.99999L7.81816 7.18178C7.9939 7.35751 7.9939 7.64244 7.81816 7.81817C7.64243 7.99391 7.3575 7.99391 7.18176 7.81817L5.99998 6.63639L4.81819 7.81819C4.64245 7.99392 4.35753 7.99392 4.18179 7.81819C4.00605 7.64245 4.00605 7.35753 4.18179 7.18179L5.36358 5.99999L4.18178 4.81819C4.00604 4.64245 4.00604 4.35753 4.18178 4.18179Z" fill="currentColor"/>
</svg>
