<svg width="17" height="17" viewBox="0 0 17 17" fill="none" xmlns="http://www.w3.org/2000/svg">
<path d="M16 7.375V8.5C16 12.0355 16 13.8033 14.9017 14.9017C13.8033 16 12.0355 16 8.5 16C4.96447 16 3.1967 16 2.09835 14.9017C1 13.8033 1 12.0355 1 8.5C1 4.96447 1 3.1967 2.09835 2.09835C3.1967 1 4.96447 1 8.5 1H9.625" stroke="currentColor" stroke-width="1.2" stroke-linecap="round"/>
<path d="M11.989 2.0913L12.4756 1.60468C13.2819 0.798439 14.5891 0.798439 15.3953 1.60468C16.2016 2.41093 16.2016 3.71811 15.3953 4.52435L14.9087 5.01097M11.989 2.0913C11.989 2.0913 12.0499 3.12535 12.9623 4.03774C13.8747 4.95014 14.9087 5.01097 14.9087 5.01097M11.989 2.0913L7.51538 6.56495C7.21237 6.86796 7.06087 7.01946 6.93057 7.18651C6.77687 7.38357 6.6451 7.59679 6.53758 7.82239C6.44644 8.01363 6.37868 8.2169 6.24317 8.62343L5.80931 9.925M14.9087 5.01097L10.4351 9.48462C10.132 9.78763 9.98054 9.93913 9.81349 10.0694C9.61643 10.2231 9.40321 10.3549 9.17761 10.4624C8.98637 10.5536 8.7831 10.6213 8.37657 10.7568L7.075 11.1907M7.075 11.1907L6.23282 11.4714C6.03276 11.5381 5.8122 11.486 5.66308 11.3369C5.51397 11.1878 5.4619 10.9672 5.52859 10.7672L5.80931 9.925M7.075 11.1907L5.80931 9.925" stroke="currentColor" stroke-width="1.2"/>
</svg>
