<svg
  width="24"
  height="24"
  viewBox="0 0 24 24"
  fill="none"
  xmlns="http://www.w3.org/2000/svg"
>
  <rect
    width="14"
    height="14"
    rx="7"
    transform="matrix(-1 0 0 1 19 5)"
    fill="#9F9F9F"
  />
  <path
    fill-rule="evenodd"
    clip-rule="evenodd"
    d="M12 24C5.37258 24 0 18.6274 0 12C0 5.37258 5.37258 0 12 0C18.6274 0 24 5.37258 24 12C24 18.6274 18.6274 24 12 24ZM14.4364 7.7636C14.0849 7.41213 13.5151 7.41213 13.1636 7.7636L9.5636 11.3636C9.21213 11.7151 9.21213 12.2849 9.5636 12.6364L13.1636 16.2364C13.5151 16.5879 14.0849 16.5879 14.4364 16.2364C14.7879 15.8849 14.7879 15.3151 14.4364 14.9636L11.4728 12L14.4364 9.0364C14.7879 8.68493 14.7879 8.11508 14.4364 7.7636Z"
    fill="#F5F5F5"
  />
</svg>
