<svg width="93" height="38" viewBox="0 0 93 38" fill="none"
    xmlns="http://www.w3.org/2000/svg">
    <path d="M25.334 34.9728L25.334 26.9686L14.1956 26.9686C12.5079 26.9686 11.1391 25.6129 11.1391 23.9415L11.1391 12.9102L3.05715 12.9102C1.36951 12.9102 0.000652254 14.2659 0.000652181 15.9373L0.000651349 34.9728C0.000651276 36.6442 1.36951 37.9999 3.05715 37.9999L22.2775 37.9999C23.9651 37.9999 25.334 36.6442 25.334 34.9728Z" fill="#1093FF"/>
    <path d="M25.334 31.0269L25.334 27.0077L14.1968 27.0077C12.5179 27.0077 11.156 25.6302 11.156 23.9319L11.156 12.6667L7.18248 12.6667C5.50351 12.6667 4.14168 14.0442 4.14168 15.7425L4.14168 31.0269C4.14168 32.7252 5.50351 34.1026 7.18248 34.1026L22.2932 34.1026C23.9722 34.1026 25.334 32.7252 25.334 31.0269Z" fill="#55B2FF"/>
    <path d="M25.334 26.9775C25.334 26.9775 25.3154 26.9775 25.2969 26.9775L14.2877 26.9775C12.6197 26.9775 11.2667 25.6245 11.2667 23.9564L11.2667 12.9472L11.2667 12.9102C9.61715 12.9287 8.28271 14.2817 8.28271 15.9312L8.2827 26.9404C8.2827 28.6085 9.63569 29.9614 11.3037 29.9614L22.3129 29.9614C23.9625 29.9614 25.3154 28.627 25.334 26.9775Z" fill="#99D1FF"/>
    <path d="M12.4225 3.0565L12.4225 11.1384L23.5609 11.1384C25.2486 11.1384 26.6174 12.5073 26.6174 14.1949L26.6174 25.3333L34.6994 25.3333C36.387 25.3333 37.7559 23.9645 37.7559 22.2768L37.7559 3.0565C37.7559 1.36886 36.387 -5.98349e-08 34.6994 -1.33604e-07L15.479 -9.73751e-07C13.7914 -1.04752e-06 12.4225 1.36886 12.4225 3.0565Z" fill="#1093FF"/>
    <path d="M12.4229 7.18167L12.4229 11.1552L23.5512 11.1552C25.2317 11.1552 26.5947 12.5171 26.5947 14.196L26.5947 25.3332L30.5718 25.3332C32.2522 25.3332 33.6152 23.9713 33.6152 22.2924L33.6152 7.18167C33.6152 5.5027 32.2522 4.14087 30.5718 4.14087L15.4664 4.14087C13.786 4.14087 12.4229 5.5027 12.4229 7.18167Z" fill="#55B2FF"/>
    <path d="M12.4233 11.0649C12.4233 11.0649 12.4419 11.0649 12.4604 11.0649L23.4696 11.0649C25.1377 11.0649 26.4906 12.4372 26.4906 14.1291L26.4906 25.2956C26.4906 25.2956 26.4906 25.3144 26.4906 25.3332C28.1402 25.3144 29.4746 23.9421 29.4746 22.269L29.4746 11.1025C29.4746 9.41064 28.1216 8.03833 26.4536 8.03833L15.4444 8.03833C13.7948 8.03833 12.4419 9.39184 12.4233 11.0649Z" fill="#99D1FF"/>
    <path d="M47.2072 21.4481H52.7976V25.7597H42.0918V2.11929H47.2072V21.4481Z" fill="#242424"/>
    <path d="M60.3382 2.11929V25.7597H55.2228V2.11929H60.3382Z" fill="#242424"/>
    <path d="M77.6991 25.7597H72.5837V6.13852C72.5837 5.94365 72.5106 5.77314 72.3645 5.62698C72.2427 5.48083 72.0844 5.40775 71.8895 5.40775H69.9164C69.7215 5.40775 69.551 5.48083 69.4049 5.62698C69.2831 5.77314 69.2222 5.94365 69.2222 6.13852V25.7597H64.1068V6.57698C64.1068 3.3616 65.617 1.75391 68.6376 1.75391H73.1683C76.1888 1.75391 77.6991 3.3616 77.6991 6.57698V25.7597Z" fill="#242424"/>
    <path d="M86.2434 21.5212H91.9068V25.7597H81.128V2.11929H91.9068V6.28467H86.2434V11.8385H91.5415V15.8577H86.2434V21.5212Z" fill="#242424"/>
    <path d="M45.4043 31.8322H47.9669V34.9112C47.1289 35.4113 46.2617 35.6614 45.3653 35.6614C44.3455 35.6614 43.5205 35.3366 42.8904 34.6871C42.2604 34.0375 41.9453 33.1963 41.9453 32.1635C41.9453 31.1307 42.2701 30.2895 42.9197 29.6399C43.5692 28.9903 44.3487 28.6655 45.2581 28.6655C46.174 28.6655 47.0412 28.9156 47.8597 29.4158V30.3317H47.8207C47.0217 29.7925 46.2325 29.523 45.453 29.523C44.68 29.523 44.0499 29.7568 43.5627 30.2245C43.0756 30.6922 42.832 31.3288 42.832 32.1342C42.832 32.9332 43.0691 33.5828 43.5433 34.083C44.0174 34.5766 44.6638 34.8235 45.4822 34.8235C46.0928 34.8235 46.6612 34.6806 47.1874 34.3948V32.6312H45.4043V31.8322Z" fill="#242424"/>
    <path d="M51.5149 30.8676C52.08 30.6207 52.6841 30.4973 53.3272 30.4973C53.9768 30.4973 54.4737 30.6857 54.818 31.0625C55.1622 31.4392 55.3344 31.8907 55.3344 32.4168V35.564H54.5549L54.4477 34.9404H54.4185C53.9508 35.4211 53.3499 35.6614 52.6159 35.6614C52.1742 35.6614 51.7975 35.5283 51.4857 35.2619C51.1804 34.9956 51.0277 34.6319 51.0277 34.1707C51.0277 33.7095 51.2161 33.336 51.5928 33.0501C51.9761 32.7643 52.5347 32.6214 53.2687 32.6214H54.4477V32.5435C54.4477 32.1148 54.3405 31.8062 54.1262 31.6178C53.9183 31.4295 53.5545 31.3353 53.0349 31.3353C52.5152 31.3353 52.028 31.4457 51.5733 31.6666H51.5149V30.8676ZM54.4477 34.1512V33.3327H53.3857C52.4048 33.3327 51.9144 33.5925 51.9144 34.1122C51.9144 34.6254 52.2586 34.8819 52.9472 34.8819C53.233 34.8819 53.5091 34.8137 53.7754 34.6773C54.0417 34.5344 54.2658 34.359 54.4477 34.1512Z" fill="#242424"/>
    <path d="M61.4503 31.3548H60.0375V34.2973C60.0375 34.5701 60.1122 34.739 60.2616 34.804C60.385 34.856 60.5442 34.8819 60.739 34.8819C60.9339 34.8819 61.1483 34.83 61.3821 34.726H61.4503V35.4471C61.1775 35.59 60.8852 35.6614 60.5734 35.6614C59.625 35.6614 59.1508 35.2327 59.1508 34.3753V31.3548H58.2252V31.2963L60.0375 29.523V30.5948H61.4503V31.3548Z" fill="#242424"/>
    <path d="M68.9313 33.0794V33.3912H65.1703C65.2223 33.8459 65.3912 34.1999 65.677 34.4532C65.9628 34.7066 66.3947 34.8332 66.9729 34.8332C67.5575 34.8332 68.0966 34.6708 68.5903 34.346H68.639V35.2035C68.0934 35.5088 67.4503 35.6614 66.7098 35.6614C65.9758 35.6614 65.3847 35.4373 64.9365 34.9891C64.4947 34.5344 64.2739 33.9238 64.2739 33.1573C64.2739 32.3843 64.472 31.7477 64.8682 31.2476C65.2645 30.7474 65.8426 30.4973 66.6026 30.4973C67.3626 30.4973 67.9407 30.7474 68.337 31.2476C68.7332 31.7477 68.9313 32.3583 68.9313 33.0794ZM65.1703 32.6701H68.0447C68.0187 32.2024 67.8595 31.8484 67.5672 31.6081C67.2814 31.3677 66.9599 31.2476 66.6026 31.2476C66.2453 31.2476 65.9238 31.3677 65.638 31.6081C65.3522 31.8484 65.1963 32.2024 65.1703 32.6701Z" fill="#242424"/>
    <path d="M74.9559 28.763C75.4236 28.763 75.8328 28.8279 76.1836 28.9578C76.5344 29.0813 76.8039 29.2501 76.9923 29.4645C77.1872 29.6789 77.3301 29.9095 77.421 30.1563C77.512 30.3966 77.5574 30.6532 77.5574 30.926C77.5574 31.1989 77.512 31.4587 77.421 31.7055C77.3301 31.9459 77.1872 32.1732 76.9923 32.3876C76.8039 32.6019 76.5344 32.7741 76.1836 32.904C75.8328 33.0274 75.4236 33.0891 74.9559 33.0891H73.1826V35.564H72.2959V28.763H74.9559ZM74.8682 32.2512C75.5308 32.2512 75.9952 32.1245 76.2616 31.8712C76.5344 31.6178 76.6708 31.3028 76.6708 30.926C76.6708 30.5493 76.5344 30.2342 76.2616 29.9809C75.9952 29.7276 75.5308 29.6009 74.8682 29.6009H73.1826V32.2512H74.8682Z" fill="#242424"/>
    <path d="M80.7236 30.8676C81.2887 30.6207 81.8928 30.4973 82.5359 30.4973C83.1855 30.4973 83.6824 30.6857 84.0267 31.0625C84.3709 31.4392 84.5431 31.8907 84.5431 32.4168V35.564H83.7636L83.6564 34.9404H83.6272C83.1595 35.4211 82.5586 35.6614 81.8246 35.6614C81.3829 35.6614 81.0061 35.5283 80.6943 35.2619C80.389 34.9956 80.2364 34.6319 80.2364 34.1707C80.2364 33.7095 80.4248 33.336 80.8015 33.0501C81.1848 32.7643 81.7434 32.6214 82.4774 32.6214H83.6564V32.5435C83.6564 32.1148 83.5492 31.8062 83.3349 31.6178C83.127 31.4295 82.7632 31.3353 82.2436 31.3353C81.7239 31.3353 81.2367 31.4457 80.782 31.6666H80.7236V30.8676ZM83.6564 34.1512V33.3327H82.5943C81.6135 33.3327 81.1231 33.5925 81.1231 34.1122C81.1231 34.6254 81.4673 34.8819 82.1559 34.8819C82.4417 34.8819 82.7178 34.8137 82.9841 34.6773C83.2504 34.5344 83.4745 34.359 83.6564 34.1512Z" fill="#242424"/>
    <path d="M92.4226 30.5948L89.4313 37.805H88.5349L89.3728 35.6419L87.3169 30.5948H88.2718L89.8308 34.5214H89.8698L91.4677 30.5948H92.4226Z" fill="#242424"/>
</svg>
