<svg width="38" height="38" viewBox="0 0 38 38" fill="none"
    xmlns="http://www.w3.org/2000/svg">
    <path d="M25.334 34.9728L25.334 26.9686L14.1956 26.9686C12.5079 26.9686 11.1391 25.6129 11.1391 23.9415L11.1391 12.9102L3.05715 12.9102C1.36951 12.9102 0.000652254 14.2659 0.000652181 15.9373L0.000651349 34.9728C0.000651276 36.6442 1.36951 37.9999 3.05715 37.9999L22.2775 37.9999C23.9651 37.9999 25.334 36.6442 25.334 34.9728Z" fill="#1093FF"/>
    <path d="M25.334 31.0269L25.334 27.0077L14.1968 27.0077C12.5179 27.0077 11.156 25.6302 11.156 23.9319L11.156 12.6667L7.18248 12.6667C5.50351 12.6667 4.14168 14.0442 4.14168 15.7425L4.14168 31.0269C4.14168 32.7252 5.50351 34.1026 7.18248 34.1026L22.2932 34.1026C23.9722 34.1026 25.334 32.7252 25.334 31.0269Z" fill="#55B2FF"/>
    <path d="M25.334 26.9775C25.334 26.9775 25.3154 26.9775 25.2969 26.9775L14.2877 26.9775C12.6197 26.9775 11.2667 25.6245 11.2667 23.9564L11.2667 12.9472L11.2667 12.9102C9.61715 12.9287 8.28271 14.2817 8.28271 15.9312L8.2827 26.9404C8.2827 28.6085 9.63569 29.9614 11.3037 29.9614L22.3129 29.9614C23.9625 29.9614 25.3154 28.627 25.334 26.9775Z" fill="#99D1FF"/>
    <path d="M12.4225 3.0565L12.4225 11.1384L23.5609 11.1384C25.2486 11.1384 26.6174 12.5073 26.6174 14.1949L26.6174 25.3333L34.6994 25.3333C36.387 25.3333 37.7559 23.9645 37.7559 22.2768L37.7559 3.0565C37.7559 1.36886 36.387 -5.98349e-08 34.6994 -1.33604e-07L15.479 -9.73751e-07C13.7914 -1.04752e-06 12.4225 1.36886 12.4225 3.0565Z" fill="#1093FF"/>
    <path d="M12.4229 7.18167L12.4229 11.1552L23.5512 11.1552C25.2317 11.1552 26.5947 12.5171 26.5947 14.196L26.5947 25.3332L30.5718 25.3332C32.2522 25.3332 33.6152 23.9713 33.6152 22.2924L33.6152 7.18167C33.6152 5.5027 32.2522 4.14087 30.5718 4.14087L15.4664 4.14087C13.786 4.14087 12.4229 5.5027 12.4229 7.18167Z" fill="#55B2FF"/>
    <path d="M12.4233 11.0649C12.4233 11.0649 12.4419 11.0649 12.4604 11.0649L23.4696 11.0649C25.1377 11.0649 26.4906 12.4372 26.4906 14.1291L26.4906 25.2956C26.4906 25.2956 26.4906 25.3144 26.4906 25.3332C28.1402 25.3144 29.4746 23.9421 29.4746 22.269L29.4746 11.1025C29.4746 9.41064 28.1216 8.03833 26.4536 8.03833L15.4444 8.03833C13.7948 8.03833 12.4419 9.39184 12.4233 11.0649Z" fill="#99D1FF"/>
</svg>
