<svg width="16" height="16" viewBox="0 0 16 16" fill="none" xmlns="http://www.w3.org/2000/svg">
    <path d="M1 11.43C1 10.5135 1 10.0552 1.2063 9.71855C1.32174 9.53017 1.48012 9.37179 1.6685 9.25635C2.00516 9.05005 2.46344 9.05005 3.38 9.05005H4.15C5.46993 9.05005 6.1299 9.05005 6.53995 9.4601C6.95 9.87015 6.95 10.5301 6.95 11.85V12.62C6.95 13.5366 6.95 13.9949 6.7437 14.3315C6.62826 14.5199 6.46988 14.6783 6.2815 14.7937C5.94484 15 5.48656 15 4.57 15C3.19516 15 2.50774 15 2.00275 14.6906C1.72019 14.5174 1.48261 14.2799 1.30946 13.9973C1 13.4923 1 12.8049 1 11.43Z" stroke="#242424" stroke-width="2"/>
    <path d="M9.05078 3.38C9.05078 2.46344 9.05078 2.00516 9.25709 1.6685C9.37252 1.48012 9.53091 1.32174 9.71928 1.2063C10.0559 1 10.5142 1 11.4308 1C12.8056 1 13.493 1 13.998 1.30946C14.2806 1.48261 14.5182 1.72019 14.6913 2.00275C15.0008 2.50774 15.0008 3.19516 15.0008 4.57C15.0008 5.48656 15.0008 5.94484 14.7945 6.2815C14.679 6.46988 14.5207 6.62826 14.3323 6.7437C13.9956 6.95 13.5373 6.95 12.6208 6.95H11.8508C10.5308 6.95 9.87088 6.95 9.46083 6.53995C9.05078 6.1299 9.05078 5.46993 9.05078 4.15V3.38Z" stroke="#242424" stroke-width="2"/>
    <path d="M11.1484 3.9751C11.1484 3.61431 11.1484 3.43392 11.2388 3.30655C11.2707 3.2616 11.3099 3.22236 11.3549 3.19047C11.4823 3.1001 11.6627 3.1001 12.0234 3.1001C12.3842 3.1001 12.5646 3.1001 12.692 3.19047C12.7369 3.22236 12.7762 3.2616 12.8081 3.30655C12.8984 3.43392 12.8984 3.61431 12.8984 3.9751C12.8984 4.33588 12.8984 4.51627 12.8081 4.64365C12.7762 4.68859 12.7369 4.72783 12.692 4.75972C12.5646 4.8501 12.3842 4.8501 12.0234 4.8501C11.6627 4.8501 11.4823 4.8501 11.3549 4.75972C11.3099 4.72783 11.2707 4.68859 11.2388 4.64365C11.1484 4.51627 11.1484 4.33588 11.1484 3.9751Z" fill="#242424"/>
    <path d="M8.05078 15C8.05078 15.5523 8.4985 16 9.05078 16C9.60307 16 10.0508 15.5523 10.0508 15H8.05078ZM9.67298 9.28599L10.2286 10.1175L10.2286 10.1175L9.67298 9.28599ZM9.28672 9.67225L8.45525 9.11668L8.45525 9.11668L9.28672 9.67225ZM12.9008 8.05005H11.5008V10.05H12.9008V8.05005ZM8.05078 12.9V15H10.0508V12.9H8.05078ZM11.5008 8.05005C11.03 8.05005 10.6017 8.04884 10.2494 8.08468C9.88043 8.12221 9.48567 8.20846 9.11741 8.45452L10.2286 10.1175C10.2134 10.1276 10.241 10.0959 10.4518 10.0744C10.6794 10.0513 10.9884 10.05 11.5008 10.05V8.05005ZM10.0508 11.5C10.0508 10.9877 10.052 10.6787 10.0751 10.4511C10.0966 10.2402 10.1283 10.2127 10.1182 10.2278L8.45525 9.11668C8.2092 9.48493 8.12294 9.8797 8.08541 10.2487C8.04957 10.601 8.05078 11.0293 8.05078 11.5H10.0508ZM9.11741 8.45452C8.85536 8.62962 8.63035 8.85462 8.45525 9.11668L10.1182 10.2278C10.1474 10.1841 10.1849 10.1466 10.2286 10.1175L9.11741 8.45452Z" fill="#242424"/>
    <path d="M16 9.05005C16 8.49776 15.5523 8.05005 15 8.05005C14.4477 8.05005 14 8.49776 14 9.05005H16ZM14.1358 14.8935L14.5184 15.8174L14.5184 15.8174L14.1358 14.8935ZM14.8934 14.1358L13.9696 13.7531L13.9696 13.7531L14.8934 14.1358ZM11.5 16H12.9V14H11.5V16ZM16 11.5V9.05005H14V11.5H16ZM12.9 16C13.2125 16 13.4969 16.0006 13.7341 15.9844C13.9802 15.9676 14.2476 15.9295 14.5184 15.8174L13.7531 13.9696C13.7666 13.964 13.7423 13.9792 13.5979 13.989C13.4446 13.9995 13.2398 14 12.9 14V16ZM14 12.9C14 13.2399 13.9995 13.4447 13.989 13.598C13.9792 13.7423 13.964 13.7666 13.9696 13.7531L15.8173 14.5185C15.9295 14.2477 15.9676 13.9803 15.9844 13.7341C16.0005 13.497 16 13.2125 16 12.9H14ZM14.5184 15.8174C15.1065 15.5738 15.5737 15.1066 15.8173 14.5185L13.9696 13.7531C13.929 13.8511 13.8511 13.929 13.7531 13.9696L14.5184 15.8174Z" fill="#242424"/>
    <path d="M1 4.57C1 3.19516 1 2.50774 1.30946 2.00275C1.48261 1.72019 1.72019 1.48261 2.00275 1.30946C2.50774 1 3.19516 1 4.57 1C5.48656 1 5.94484 1 6.2815 1.2063C6.46988 1.32174 6.62826 1.48012 6.7437 1.6685C6.95 2.00516 6.95 2.46344 6.95 3.38V4.15C6.95 5.46993 6.95 6.1299 6.53995 6.53995C6.1299 6.95 5.46993 6.95 4.15 6.95H3.38C2.46344 6.95 2.00516 6.95 1.6685 6.7437C1.48012 6.62826 1.32174 6.46988 1.2063 6.2815C1 5.94484 1 5.48656 1 4.57Z" stroke="#242424" stroke-width="2"/>
    <path d="M3.10156 3.9751C3.10156 3.61431 3.10156 3.43392 3.19194 3.30655C3.22383 3.2616 3.26307 3.22236 3.30801 3.19047C3.43539 3.1001 3.61578 3.1001 3.97656 3.1001C4.33735 3.1001 4.51774 3.1001 4.64511 3.19047C4.69006 3.22236 4.7293 3.2616 4.76119 3.30655C4.85156 3.43392 4.85156 3.61431 4.85156 3.9751C4.85156 4.33588 4.85156 4.51627 4.76119 4.64365C4.7293 4.68859 4.69006 4.72783 4.64511 4.75972C4.51774 4.8501 4.33735 4.8501 3.97656 4.8501C3.61578 4.8501 3.43539 4.8501 3.30801 4.75972C3.26307 4.72783 3.22383 4.68859 3.19194 4.64365C3.10156 4.51627 3.10156 4.33588 3.10156 3.9751Z" fill="#242424"/>
    <path d="M3.10156 12.0249C3.10156 11.6641 3.10156 11.4837 3.19194 11.3564C3.22383 11.3114 3.26307 11.2722 3.30801 11.2403C3.43539 11.1499 3.61578 11.1499 3.97656 11.1499C4.33735 11.1499 4.51774 11.1499 4.64511 11.2403C4.69006 11.2722 4.7293 11.3114 4.76119 11.3564C4.85156 11.4837 4.85156 11.6641 4.85156 12.0249C4.85156 12.3857 4.85156 12.5661 4.76119 12.6935C4.7293 12.7384 4.69006 12.7776 4.64511 12.8095C4.51774 12.8999 4.33735 12.8999 3.97656 12.8999C3.61578 12.8999 3.43539 12.8999 3.30801 12.8095C3.26307 12.7776 3.22383 12.7384 3.19194 12.6935C3.10156 12.5661 3.10156 12.3857 3.10156 12.0249Z" fill="#242424"/>
    <path d="M10.8008 12.025C10.8008 11.5335 10.8008 11.2877 10.9188 11.1111C10.9698 11.0347 11.0354 10.9691 11.1119 10.918C11.2884 10.8 11.5342 10.8 12.0258 10.8C12.5173 10.8 12.7631 10.8 12.9397 10.918C13.0161 10.9691 13.0817 11.0347 13.1328 11.1111C13.2508 11.2877 13.2508 11.5335 13.2508 12.025C13.2508 12.5166 13.2508 12.7624 13.1328 12.9389C13.0817 13.0154 13.0161 13.081 12.9397 13.1321C12.7631 13.25 12.5173 13.25 12.0258 13.25C11.5342 13.25 11.2884 13.25 11.1119 13.1321C11.0354 13.081 10.9698 13.0154 10.9188 12.9389C10.8008 12.7624 10.8008 12.5166 10.8008 12.025Z" fill="#242424"/>
    </svg>
    