<svg
  width="24"
  height="24"
  viewBox="0 0 24 24"
  fill="none"
  xmlns="http://www.w3.org/2000/svg"
>
  <rect x="5" y="5" width="14" height="14" rx="7" fill="#9F9F9F" />
  <path
    fill-rule="evenodd"
    clip-rule="evenodd"
    d="M12 24C18.6274 24 24 18.6274 24 12C24 5.37258 18.6274 0 12 0C5.37258 0 0 5.37258 0 12C0 18.6274 5.37258 24 12 24ZM9.5636 7.7636C9.91508 7.41213 10.4849 7.41213 10.8364 7.7636L14.4364 11.3636C14.7879 11.7151 14.7879 12.2849 14.4364 12.6364L10.8364 16.2364C10.4849 16.5879 9.91508 16.5879 9.5636 16.2364C9.21213 15.8849 9.21213 15.3151 9.5636 14.9636L12.5272 12L9.5636 9.0364C9.21213 8.68493 9.21213 8.11508 9.5636 7.7636Z"
    fill="#F5F5F5"
  />
</svg>
