<svg width="36" height="36" viewBox="0 0 36 36" fill="none"
    xmlns="http://www.w3.org/2000/svg">
    <rect width="36" height="36" rx="12" fill="white"/>
    <path d="M21.75 26.4869L21.75 22.4848L16.1449 22.4848C15.2956 22.4848 14.6067 21.8069 14.6067 20.9712L14.6067 15.4556L10.5397 15.4556C9.69044 15.4556 9.00159 16.1334 9.00159 16.9691L9.00159 26.4869C9.00159 27.3226 9.69044 28.0005 10.5397 28.0005L20.2119 28.0005C21.0612 28.0005 21.75 27.3226 21.75 26.4869Z" fill="#1093FF"/>
    <path d="M21.75 24.5129L21.75 22.5032L16.1455 22.5032C15.3006 22.5032 14.6153 21.8145 14.6153 20.9654L14.6153 15.3328L12.6157 15.3328C11.7708 15.3328 11.0855 16.0215 11.0855 16.8706L11.0855 24.5129C11.0855 25.362 11.7708 26.0507 12.6157 26.0507L20.2198 26.0507C21.0647 26.0507 21.75 25.362 21.75 24.5129Z" fill="#55B2FF"/>
    <path d="M21.75 22.4892C21.75 22.4892 21.7407 22.4892 21.7313 22.4892L16.1912 22.4892C15.3518 22.4892 14.671 21.8127 14.671 20.9787L14.671 15.4741L14.671 15.4556C13.8409 15.4648 13.1693 16.1413 13.1693 16.9661L13.1693 22.4707C13.1693 23.3047 13.8502 23.9812 14.6896 23.9812L20.2297 23.9812C21.0598 23.9812 21.7407 23.314 21.75 22.4892Z" fill="#99D1FF"/>
    <path d="M15.2516 10.5283L15.2516 14.5692L20.8567 14.5692C21.706 14.5692 22.3949 15.2537 22.3949 16.0975L22.3949 21.6667L26.4619 21.6667C27.3112 21.6667 28 20.9823 28 20.1384L28 10.5283C28 9.68443 27.3112 9 26.4619 9L16.7897 9C15.9404 9 15.2516 9.68443 15.2516 10.5283Z" fill="#1093FF"/>
    <path d="M15.2534 12.5902L15.2534 14.577L20.8535 14.577C21.6991 14.577 22.385 15.2579 22.385 16.0974L22.385 21.666L24.3864 21.666C25.2321 21.666 25.918 20.9851 25.918 20.1456L25.918 12.5902C25.918 11.7507 25.2321 11.0698 24.3864 11.0698L16.785 11.0698C15.9393 11.0698 15.2534 11.7507 15.2534 12.5902Z" fill="#55B2FF"/>
    <path d="M15.2553 14.5331C15.2553 14.5331 15.2646 14.5331 15.2739 14.5331L20.8141 14.5331C21.6535 14.5331 22.3343 15.2192 22.3343 16.0652L22.3343 21.6484C22.3343 21.6484 22.3343 21.6578 22.3343 21.6672C23.1644 21.6578 23.8359 20.9717 23.8359 20.1351L23.8359 14.5519C23.8359 13.7059 23.1551 13.0198 22.3157 13.0198L16.7755 13.0198C15.9455 13.0198 15.2646 13.6965 15.2553 14.5331Z" fill="#99D1FF"/>
</svg>
