<svg width="66" height="66" viewBox="0 0 66 66" fill="none" xmlns="http://www.w3.org/2000/svg">
<g id="Group 351">
<path id="Vector" d="M27 63.0002C40.2548 63.0002 51 52.2551 51 39.0002C51 25.7454 40.2548 15.0002 27 15.0002C13.7452 15.0002 3 25.7454 3 39.0002C3 42.7068 3.84023 46.217 5.3406 49.351C5.85628 50.4281 6.03734 51.6484 5.72866 52.8021L4.74453 56.4802C3.96886 59.3792 6.62104 62.0314 9.52004 61.2557L13.1982 60.2716C14.3518 59.9629 15.5721 60.144 16.6493 60.6596C19.7832 62.16 23.2935 63.0002 27 63.0002Z" stroke="#D8D8D8" stroke-width="5"/>
<path id="Vector_2" d="M51 40.5055C51.1994 40.4223 51.3972 40.336 51.5932 40.2464C52.6794 39.7502 53.8982 39.5647 55.0518 39.8734L56.48 40.2555C59.379 41.0311 62.0311 38.3789 61.2555 35.4799L60.8734 34.0518C60.5647 32.8982 60.7503 31.6794 61.2464 30.5932C62.3725 28.128 63 25.3873 63 22.5C63 11.7304 54.2696 3 43.5 3C35.3932 3 28.4419 7.94696 25.5 14.9868" stroke="#D8D8D8" stroke-width="5"/>
<g id="Vector_3">
<path d="M19.502 38.9998C19.502 40.6566 18.1588 41.9998 16.502 41.9998C14.8451 41.9998 13.502 40.6566 13.502 38.9998C13.502 37.3429 14.8451 35.9998 16.502 35.9998C18.1588 35.9998 19.502 37.3429 19.502 38.9998Z" fill="#D8D8D8"/>
<path d="M30.002 38.9998C30.002 40.6566 28.6588 41.9998 27.002 41.9998C25.3451 41.9998 24.002 40.6566 24.002 38.9998C24.002 37.3429 25.3451 35.9998 27.002 35.9998C28.6588 35.9998 30.002 37.3429 30.002 38.9998Z" fill="#D8D8D8"/>
<path d="M40.502 38.9998C40.502 40.6566 39.1588 41.9998 37.502 41.9998C35.8451 41.9998 34.502 40.6566 34.502 38.9998C34.502 37.3429 35.8451 35.9998 37.502 35.9998C39.1588 35.9998 40.502 37.3429 40.502 38.9998Z" fill="#D8D8D8"/>
</g>
</g>
</svg>