<svg width="14" height="14" viewBox="0 0 14 14" fill="none" xmlns="http://www.w3.org/2000/svg">
<path fill-rule="evenodd" clip-rule="evenodd" d="M6.0151 1.31251H7.9876C8.11383 1.31243 8.22381 1.31236 8.32765 1.32894C8.73791 1.39445 9.09292 1.65034 9.28481 2.01882C9.33338 2.11209 9.36809 2.21644 9.40793 2.33622L9.47303 2.53157C9.48406 2.56464 9.48721 2.574 9.48988 2.58138C9.59203 2.86378 9.85688 3.05468 10.1571 3.06229C10.165 3.06249 10.1747 3.06252 10.2097 3.06252H11.9597C12.2013 3.06252 12.3972 3.2584 12.3972 3.50002C12.3972 3.74165 12.2013 3.93752 11.9597 3.93752H2.04297C1.80134 3.93752 1.60547 3.74165 1.60547 3.50002C1.60547 3.2584 1.80134 3.06252 2.04297 3.06252H3.79302C3.82804 3.06252 3.83771 3.06249 3.8456 3.06229C4.14582 3.05468 4.41066 2.86379 4.51282 2.58139C4.5155 2.57397 4.51859 2.56481 4.52967 2.53157L4.59477 2.33623C4.63461 2.21646 4.66932 2.11209 4.71789 2.01882C4.90978 1.65034 5.26479 1.39445 5.67505 1.32894C5.7789 1.31236 5.88887 1.31243 6.0151 1.31251ZM5.25606 3.06252C5.2861 3.00359 5.31273 2.94236 5.33564 2.87903C5.34259 2.8598 5.34942 2.83933 5.35818 2.81303L5.4164 2.63837C5.46958 2.47883 5.48183 2.44628 5.49397 2.42296C5.55794 2.30013 5.67627 2.21483 5.81303 2.193C5.839 2.18885 5.87374 2.18752 6.04192 2.18752H7.96078C8.12897 2.18752 8.1637 2.18885 8.18967 2.193C8.32643 2.21483 8.44477 2.30013 8.50873 2.42296C8.52087 2.44628 8.53312 2.47882 8.5863 2.63837L8.64449 2.81292L8.66707 2.87904C8.68997 2.94236 8.7166 3.0036 8.74665 3.06252H5.25606Z" fill="#F33131"/>
<path d="M3.45177 4.92925C3.4357 4.68816 3.22723 4.50575 2.98614 4.52182C2.74505 4.5379 2.56264 4.74637 2.57871 4.98746L2.84905 9.04264C2.89893 9.7909 2.93921 10.3953 3.0337 10.8696C3.13193 11.3627 3.29901 11.7746 3.6441 12.0974C3.9892 12.4203 4.41127 12.5596 4.90982 12.6248C5.38933 12.6875 5.99508 12.6875 6.74499 12.6875H7.25768C8.00759 12.6875 8.61337 12.6875 9.09289 12.6248C9.59143 12.5596 10.0135 12.4203 10.3586 12.0974C10.7037 11.7746 10.8708 11.3627 10.969 10.8696C11.0635 10.3953 11.1038 9.79091 11.1536 9.04265L11.424 4.98746C11.4401 4.74637 11.2577 4.5379 11.0166 4.52182C10.7755 4.50575 10.567 4.68816 10.5509 4.92925L10.2826 8.95374C10.2302 9.73998 10.1929 10.287 10.1109 10.6987C10.0313 11.0979 9.9203 11.3093 9.76081 11.4585C9.60132 11.6077 9.38306 11.7044 8.97939 11.7572C8.56324 11.8116 8.01491 11.8125 7.22691 11.8125H6.77579C5.9878 11.8125 5.43946 11.8116 5.02331 11.7572C4.61964 11.7044 4.40138 11.6077 4.24189 11.4585C4.0824 11.3093 3.97137 11.0979 3.89183 10.6987C3.80984 10.287 3.77249 9.73998 3.72007 8.95374L3.45177 4.92925Z" fill="#F33131"/>
<path d="M5.49949 5.98136C5.73991 5.95732 5.95431 6.13273 5.97835 6.37316L6.27002 9.28982C6.29406 9.53025 6.11865 9.74464 5.87822 9.76868C5.6378 9.79273 5.4234 9.61731 5.39936 9.37689L5.10769 6.46022C5.08365 6.2198 5.25906 6.0054 5.49949 5.98136Z" fill="#F33131"/>
<path d="M8.50322 5.98136C8.74365 6.0054 8.91906 6.2198 8.89502 6.46022L8.60335 9.37689C8.57931 9.61731 8.36491 9.79273 8.12449 9.76868C7.88406 9.74464 7.70865 9.53025 7.73269 9.28982L8.02436 6.37316C8.0484 6.13273 8.2628 5.95732 8.50322 5.98136Z" fill="#F33131"/>
</svg>