<svg
  width="20"
  height="21"
  viewBox="0 0 20 21"
  fill="none"
  xmlns="http://www.w3.org/2000/svg"
>
  <path
    d="M14.4998 7.80176C16.4572 7.81265 17.5173 7.89946 18.2089 8.59099C18.9997 9.38179 18.9997 10.6546 18.9997 13.2001V14.1001C18.9997 16.6456 18.9997 17.9184 18.2089 18.7092C17.4181 19.5 16.1453 19.5 13.5998 19.5H6.3999C3.85436 19.5 2.58159 19.5 1.7908 18.7092C1 17.9184 1 16.6456 1 14.1001L1 13.2001C1 10.6546 1 9.38179 1.7908 8.59099C2.48233 7.89946 3.54243 7.81265 5.49992 7.80176"
    stroke="#242424"
    stroke-width="1.5"
    stroke-linecap="round"
  />
  <path
    d="M10.0046 13.2L10.0046 1.50016M10.0046 1.50016L12.7046 4.65011M10.0046 1.50016L7.30469 4.65011"
    stroke="#242424"
    stroke-width="1.5"
    stroke-linecap="round"
    stroke-linejoin="round"
  />
</svg>
