<svg width="11" height="11" viewBox="0 0 11 11" fill="none" xmlns="http://www.w3.org/2000/svg">
<path fill-rule="evenodd" clip-rule="evenodd" d="M0.664821 0.644365C0 1.28873 0 2.32582 0 4.4V6.6C0 8.67418 0 9.71127 0.664821 10.3556C1.32964 11 2.39966 11 4.53968 11H5.6746C7.81463 11 8.88464 11 9.54946 10.3556C10.2143 9.71127 10.2143 8.67418 10.2143 6.6V4.4C10.2143 2.32582 10.2143 1.28873 9.54946 0.644365C8.88464 0 7.81463 0 5.6746 0H4.53968C2.39966 0 1.32964 0 0.664821 0.644365ZM2.41171 3.3C2.41171 3.07218 2.60225 2.8875 2.8373 2.8875H7.37698C7.61203 2.8875 7.80258 3.07218 7.80258 3.3C7.80258 3.52782 7.61203 3.7125 7.37698 3.7125H2.8373C2.60225 3.7125 2.41171 3.52782 2.41171 3.3ZM2.41171 5.5C2.41171 5.27218 2.60225 5.0875 2.8373 5.0875H7.37698C7.61203 5.0875 7.80258 5.27218 7.80258 5.5C7.80258 5.72782 7.61203 5.9125 7.37698 5.9125H2.8373C2.60225 5.9125 2.41171 5.72782 2.41171 5.5ZM2.8373 7.2875C2.60225 7.2875 2.41171 7.47218 2.41171 7.7C2.41171 7.92782 2.60225 8.1125 2.8373 8.1125H5.6746C5.90965 8.1125 6.1002 7.92782 6.1002 7.7C6.1002 7.47218 5.90965 7.2875 5.6746 7.2875H2.8373Z" fill="currentColor"/>
</svg>
