<svg
  width="16"
  height="16"
  viewBox="0 0 16 16"
  fill="none"
  xmlns="http://www.w3.org/2000/svg"
>
  <path
    fill-rule="evenodd"
    clip-rule="evenodd"
    d="M6.20254 1.55474e-05H8.97705C9.15461 -9.77195e-05 9.30929 -0.000196363 9.45536 0.0231285C10.0324 0.115277 10.5318 0.475196 10.8017 0.993507C10.87 1.1247 10.9188 1.27147 10.9749 1.43995L11.0664 1.71474C11.0819 1.76125 11.0864 1.77442 11.0901 1.78479C11.2338 2.18201 11.6064 2.45053 12.0286 2.46124C12.0397 2.46152 12.0533 2.46157 12.1026 2.46157H14.5641C14.904 2.46157 15.1795 2.73708 15.1795 3.07695C15.1795 3.41682 14.904 3.69233 14.5641 3.69233H0.615383C0.275517 3.69233 0 3.41682 0 3.07695C0 2.73708 0.275517 2.46157 0.615383 2.46157H3.07699C3.12625 2.46157 3.13985 2.46152 3.15095 2.46124C3.57323 2.45053 3.94576 2.18203 4.08945 1.78481C4.09323 1.77437 4.09757 1.76148 4.11315 1.71474L4.20472 1.43997C4.26076 1.2715 4.30959 1.1247 4.37791 0.993508C4.64781 0.475198 5.14717 0.115277 5.72424 0.0231285C5.8703 -0.000196363 6.02499 -9.77195e-05 6.20254 1.55474e-05ZM5.13488 2.46157C5.17715 2.37867 5.2146 2.29254 5.24682 2.20347C5.25661 2.17642 5.2662 2.14762 5.27853 2.11063L5.36042 1.86496C5.43523 1.64054 5.45245 1.59477 5.46954 1.56196C5.5595 1.38919 5.72596 1.26921 5.91831 1.2385C5.95485 1.23266 6.00371 1.2308 6.24027 1.2308H8.93932C9.17589 1.2308 9.22475 1.23266 9.26128 1.2385C9.45364 1.26921 9.62009 1.38919 9.71006 1.56196C9.72715 1.59477 9.74437 1.64053 9.81917 1.86496L9.90102 2.11048L9.93278 2.20348C9.965 2.29255 10.0024 2.37868 10.0447 2.46157H5.13488Z"
    fill="currentColor"
  />
  <path
    d="M2.59699 5.08729C2.57438 4.74818 2.28115 4.4916 1.94204 4.51421C1.60292 4.53681 1.34634 4.83005 1.36895 5.16916L1.74922 10.8731C1.81937 11.9256 1.87603 12.7758 2.00893 13.4429C2.1471 14.1365 2.38211 14.7159 2.86753 15.17C3.35294 15.6241 3.94661 15.8201 4.64786 15.9118C5.32235 16 6.17438 16 7.2292 16H7.95034C9.00516 16 9.85725 16 10.5317 15.9118C11.233 15.8201 11.8267 15.6241 12.3121 15.17C12.7975 14.7159 13.0325 14.1365 13.1707 13.4429C13.3036 12.7758 13.3602 11.9256 13.4304 10.8732L13.8106 5.16916C13.8333 4.83005 13.5767 4.53681 13.2376 4.51421C12.8984 4.4916 12.6052 4.74818 12.5826 5.08729L12.2052 10.7481C12.1315 11.854 12.079 12.6235 11.9636 13.2025C11.8517 13.7641 11.6956 14.0613 11.4712 14.2712C11.2469 14.4811 10.9399 14.6172 10.3721 14.6914C9.78674 14.768 9.01546 14.7692 7.90707 14.7692H7.27252C6.16414 14.7692 5.39285 14.768 4.8075 14.6914C4.2397 14.6172 3.9327 14.4811 3.70837 14.2712C3.48403 14.0613 3.32786 13.7641 3.21598 13.2025C3.10064 12.6235 3.04811 11.854 2.97438 10.7481L2.59699 5.08729Z"
    fill="currentColor"
  />
  <path
    d="M5.47729 6.56718C5.81547 6.53336 6.11704 6.78009 6.15086 7.11827L6.56111 11.2208C6.59493 11.559 6.3482 11.8606 6.01002 11.8944C5.67183 11.9282 5.37027 11.6815 5.33645 11.3433L4.9262 7.24074C4.89238 6.90256 5.13911 6.60099 5.47729 6.56718Z"
    fill="currentColor"
  />
  <path
    d="M9.70232 6.56718C10.0405 6.60099 10.2872 6.90256 10.2534 7.24074L9.84316 11.3433C9.80934 11.6815 9.50777 11.9282 9.16959 11.8944C8.83141 11.8606 8.58468 11.559 8.6185 11.2208L9.02875 7.11827C9.06257 6.78009 9.36413 6.53336 9.70232 6.56718Z"
    fill="currentColor"
  />
</svg>
