<svg width="46" height="46" viewBox="0 0 46 46" fill="none" xmlns="http://www.w3.org/2000/svg">
<path fill-rule="evenodd" clip-rule="evenodd" d="M23.0993 2.39575H22.9C21.178 2.3957 19.7419 2.39566 18.6019 2.54892C17.3987 2.7107 16.3123 3.06657 15.4393 3.93955C14.5663 4.81253 14.2105 5.8989 14.0487 7.10217C13.9388 7.91937 13.9077 9.87358 13.8989 11.5491C10.023 11.6757 7.69579 12.1282 6.07852 13.7454C3.83301 15.9909 3.83301 19.6051 3.83301 26.8333C3.83301 34.0615 3.83301 37.6756 6.07852 39.9211C8.32403 42.1666 11.9381 42.1666 19.1663 42.1666H26.833C34.0612 42.1666 37.6753 42.1666 39.9208 39.9211C42.1663 37.6756 42.1663 34.0615 42.1663 26.8333C42.1663 19.6051 42.1663 15.9909 39.9208 13.7454C38.3036 12.1282 35.9764 11.6757 32.1004 11.5491C32.0916 9.87358 32.0606 7.91937 31.9507 7.10217C31.7889 5.8989 31.433 4.81253 30.5601 3.93955C29.6871 3.06657 28.6007 2.7107 27.3974 2.54892C26.2575 2.39566 24.8214 2.3957 23.0993 2.39575ZM29.2249 11.5035C29.2162 9.88078 29.1886 8.13439 29.1013 7.48526C28.9824 6.60079 28.7769 6.22226 28.5271 5.97248C28.2773 5.72271 27.8988 5.5172 27.0143 5.39828C26.0885 5.27381 24.8474 5.27076 22.9997 5.27076C21.152 5.27076 19.9108 5.27381 18.985 5.39828C18.1005 5.5172 17.722 5.72271 17.4722 5.97248C17.2225 6.22226 17.017 6.60079 16.898 7.48526C16.8108 8.13439 16.7832 9.88078 16.7745 11.5035C17.5247 11.4999 18.3208 11.4999 19.1663 11.4999H26.833C27.6785 11.4999 28.4746 11.4999 29.2249 11.5035ZM22.9997 17.7291C23.7936 17.7291 24.4372 18.3727 24.4372 19.1666V19.1862C26.524 19.712 28.2705 21.3573 28.2705 23.6388C28.2705 24.4327 27.6269 25.0763 26.833 25.0763C26.0391 25.0763 25.3955 24.4327 25.3955 23.6388C25.3955 22.9027 24.5794 21.8819 22.9997 21.8819C21.42 21.8819 20.6038 22.9027 20.6038 23.6388C20.6038 24.3749 21.42 25.3958 22.9997 25.3958C25.6541 25.3958 28.2705 27.2353 28.2705 30.0277C28.2705 32.3092 26.524 33.9546 24.4372 34.4803V34.4999C24.4372 35.2938 23.7936 35.9374 22.9997 35.9374C22.2058 35.9374 21.5622 35.2938 21.5622 34.4999V34.4803C19.4753 33.9546 17.7288 32.3092 17.7288 30.0277C17.7288 29.2338 18.3724 28.5902 19.1663 28.5902C19.9602 28.5902 20.6038 29.2338 20.6038 30.0277C20.6038 30.7638 21.42 31.7846 22.9997 31.7846C24.5794 31.7846 25.3955 30.7638 25.3955 30.0277C25.3955 29.2916 24.5794 28.2708 22.9997 28.2708C20.3452 28.2708 17.7288 26.4312 17.7288 23.6388C17.7288 21.3573 19.4753 19.712 21.5622 19.1862V19.1666C21.5622 18.3727 22.2058 17.7291 22.9997 17.7291Z" fill="#F7BF53"/>
</svg>
