<svg width="46" height="46" viewBox="0 0 46 46" fill="none" xmlns="http://www.w3.org/2000/svg">
<path fill-rule="evenodd" clip-rule="evenodd" d="M15.8128 13.4425C15.8127 13.4339 15.8126 13.4253 15.8126 13.4167V11.5C15.8126 7.53045 19.0305 4.3125 23.0001 4.3125C26.9696 4.3125 30.1876 7.53045 30.1876 11.5V13.4167C30.1876 13.4253 30.1875 13.4339 30.1874 13.4425C32.674 13.512 34.1885 13.7692 35.3483 14.7199C36.938 16.0232 37.3806 18.2359 38.2656 22.6613L39.4156 28.4113C40.6885 34.7755 41.3249 37.9575 39.5996 40.0621C37.8742 42.1667 34.6291 42.1667 28.139 42.1667H17.8611C11.3709 42.1667 8.12586 42.1667 6.40053 40.0621C4.6752 37.9575 5.31161 34.7755 6.58444 28.4113L7.73444 22.6613C8.61952 18.2359 9.06206 16.0232 10.6518 14.7199C11.8116 13.7692 13.3262 13.512 15.8128 13.4425ZM18.6876 11.5C18.6876 9.11827 20.6184 7.1875 23.0001 7.1875C25.3818 7.1875 27.3126 9.11827 27.3126 11.5V13.4167C27.3126 13.4167 27.3126 13.4167 27.3126 13.4167C27.206 13.4166 27.0982 13.4167 26.989 13.4167H19.0111C18.902 13.4167 18.7941 13.4167 18.6876 13.4167C18.6876 13.4167 18.6876 13.4167 18.6876 13.4167V11.5ZM23.0008 33.0625C21.1254 33.0625 19.526 31.8645 18.9333 30.1876C18.6688 29.4391 17.8475 29.0468 17.0989 29.3113C16.3504 29.5759 15.9581 30.3972 16.2227 31.1457C17.2087 33.9354 19.8691 35.9375 23.0008 35.9375C26.1325 35.9375 28.7929 33.9354 29.7789 31.1457C30.0435 30.3972 29.6512 29.5759 28.9027 29.3113C28.1541 29.0468 27.3329 29.4391 27.0683 30.1876C26.4756 31.8645 24.8762 33.0625 23.0008 33.0625Z" fill="#1093FF"/>
</svg>
