<svg width="45" height="46" viewBox="0 0 45 46" fill="none" xmlns="http://www.w3.org/2000/svg">
<path d="M27.496 4.46433C28.1907 4.10928 29.0354 4.39711 29.3827 5.1072L33.5099 13.545C36.047 13.7442 37.6391 14.2529 38.6663 15.5518C39.4827 16.5841 39.7469 17.8684 39.6498 19.6459H5.35018C5.2531 17.8684 5.51732 16.5841 6.33369 15.5518C7.36091 14.2529 8.95295 13.7442 11.49 13.545L15.6172 5.1072C15.9645 4.39711 16.8092 4.10928 17.5038 4.46433C18.1985 4.81938 18.4801 5.68285 18.1327 6.39294L14.6922 13.4268C15.5983 13.4167 16.5869 13.4167 17.6661 13.4167H27.3339C28.413 13.4167 29.4016 13.4167 30.3076 13.4268L26.8671 6.39294C26.5198 5.68285 26.8014 4.81938 27.496 4.46433Z" fill="#1093FF"/>
<path fill-rule="evenodd" clip-rule="evenodd" d="M6.66583 27.3263C6.27771 25.4748 5.94549 23.89 5.70958 22.5209H39.2904C39.0545 23.89 38.7223 25.4747 38.3342 27.3262L37.5306 31.1596C36.6175 35.5154 36.161 37.6932 34.614 38.9716C33.067 40.2501 30.8881 40.2501 26.5303 40.2501H18.4697C14.1119 40.2501 11.933 40.2501 10.386 38.9716C8.83902 37.6932 8.38248 35.5154 7.4694 31.1597L6.66583 27.3263ZM18.7499 25.3959C17.9733 25.3959 17.3437 26.0395 17.3437 26.8334C17.3437 27.6273 17.9733 28.2709 18.7499 28.2709H26.2499C27.0266 28.2709 27.6562 27.6273 27.6562 26.8334C27.6562 26.0395 27.0266 25.3959 26.2499 25.3959H18.7499Z" fill="#1093FF"/>
</svg>
