<svg width="46" height="46" viewBox="0 0 46 46" fill="none" xmlns="http://www.w3.org/2000/svg">
<path d="M7.24096 7.00502C6.89396 7.69674 6.72331 8.55004 6.38199 10.2566L5.23597 15.9867C4.51034 19.6149 7.2854 22.9999 10.9854 22.9999C13.9977 22.9999 16.5199 20.7174 16.8197 17.72L16.9519 16.3973C16.6393 19.9405 19.4321 22.9999 22.9996 22.9999C26.5913 22.9999 29.3978 19.8988 29.0404 16.3249L29.1803 17.72C29.48 20.7174 32.0022 22.9999 35.0145 22.9999C38.7146 22.9999 41.4896 19.6149 40.764 15.9867L39.618 10.2566C39.2767 8.55007 39.106 7.69673 38.759 7.00502C38.0278 5.5475 36.7122 4.46896 35.1396 4.03785C34.3933 3.83325 33.5231 3.83325 31.7827 3.83325H27.7912H14.2172C12.4769 3.83325 11.6067 3.83325 10.8603 4.03785C9.28772 4.46896 7.97211 5.5475 7.24096 7.00502Z" fill="#1093FF"/>
<path d="M35.0143 25.8749C36.5805 25.8749 38.0355 25.4679 39.2913 24.7612V26.8332C39.2913 34.0614 39.2913 37.6755 37.0458 39.921C35.2382 41.7286 32.5438 42.0811 27.7913 42.1499V35.4583C27.7913 33.6669 27.7913 32.7713 27.4062 32.1041C27.1538 31.6671 26.7909 31.3041 26.3538 31.0518C25.6867 30.6666 24.791 30.6666 22.9997 30.6666C21.2083 30.6666 20.3127 30.6666 19.6455 31.0518C19.2085 31.3041 18.8455 31.6671 18.5932 32.1041C18.208 32.7713 18.208 33.6669 18.208 35.4583V42.1499C13.4555 42.0811 10.7611 41.7286 8.95352 39.921C6.70801 37.6755 6.70801 34.0614 6.70801 26.8332V24.7611C7.96388 25.4679 9.41892 25.8749 10.9852 25.8749C13.2796 25.8749 15.3832 24.9863 16.9513 23.5211C18.5371 24.9781 20.6546 25.8749 22.9993 25.8749C25.3442 25.8749 27.4619 24.9779 29.0477 23.5208C30.6159 24.9862 32.7197 25.8749 35.0143 25.8749Z" fill="#1093FF"/>
</svg>
