<svg width="12" height="12" viewBox="0 0 12 12" fill="none" xmlns="http://www.w3.org/2000/svg">
<path d="M11.1639 6.30984C10.8604 9.09763 8.5115 11.2 5.70001 11.2C3.78376 11.2 2.0356 10.201 1.04617 8.62547V10.2128C1.04617 10.4464 0.856628 10.6359 0.623089 10.6359C0.389551 10.6359 0.200012 10.4464 0.200012 10.2128V7.39232C0.200012 7.15878 0.389551 6.96924 0.623089 6.96924H3.4436C3.67714 6.96924 3.86668 7.15878 3.86668 7.39232C3.86668 7.62586 3.67714 7.8154 3.4436 7.8154H1.5651C2.3492 9.35314 3.93832 10.3539 5.70001 10.3539C8.07883 10.3539 10.0656 8.57578 10.3229 6.21839C10.3477 5.98542 10.5586 5.81898 10.7888 5.84324C11.0218 5.86863 11.1887 6.07743 11.1639 6.30984ZM10.7769 0.764115C10.5434 0.764115 10.3539 0.953653 10.3539 1.18719V2.77456C9.36442 1.19902 7.61627 0.200012 5.70001 0.200012C2.88909 0.200012 0.540146 2.30239 0.236095 5.09019C0.21071 5.3226 0.378284 5.5314 0.610694 5.55678C0.625925 5.55848 0.641738 5.55899 0.656968 5.55899C0.870199 5.55899 1.05347 5.39825 1.0766 5.18163C1.33383 2.82425 3.3212 1.04617 5.69946 1.04617C7.46172 1.04617 9.05027 2.04688 9.83438 3.58463H7.95642C7.72288 3.58463 7.53335 3.77417 7.53335 4.0077C7.53335 4.24124 7.72288 4.43078 7.95642 4.43078H10.7769C11.0105 4.43078 11.2 4.24124 11.2 4.0077V1.18719C11.2 0.953653 11.0105 0.764115 10.7769 0.764115Z" fill="currentColor"/>
<path fill-rule="evenodd" clip-rule="evenodd" d="M0.0372617 5.06849C0.352419 2.17887 2.78738 0 5.7 0C7.46599 0 9.09384 0.818478 10.1538 2.14753V1.18718C10.1538 0.843184 10.4329 0.564103 10.7769 0.564103C11.1209 0.564103 11.4 0.843184 11.4 1.18718V4.00769C11.4 4.35169 11.1209 4.63077 10.7769 4.63077H7.95641C7.61241 4.63077 7.33333 4.35169 7.33333 4.00769C7.33333 3.6637 7.61241 3.38462 7.95641 3.38462H9.4939C8.69967 2.07867 7.27144 1.24615 5.69945 1.24615C3.42281 1.24615 1.52152 2.94783 1.27541 5.20332C1.24108 5.52262 0.970994 5.75897 0.656956 5.75897C0.637872 5.75897 0.614156 5.75837 0.588967 5.75559M5.7 0.4C2.99077 0.4 0.727849 2.42589 0.434904 5.11186C0.421504 5.23454 0.509864 5.34457 0.632398 5.35795C0.637531 5.35852 0.645672 5.35897 0.656956 5.35897C0.769229 5.35897 0.865582 5.27408 0.87772 5.16039C1.14607 2.70111 3.21957 0.846154 5.69945 0.846154C7.5382 0.846154 9.19488 1.89021 10.0125 3.49376L10.1608 3.78462H7.95641C7.83333 3.78462 7.73333 3.88461 7.73333 4.00769C7.73333 4.13077 7.83333 4.23077 7.95641 4.23077H10.7769C10.9 4.23077 11 4.13077 11 4.00769V1.18718C11 1.0641 10.9 0.964103 10.7769 0.964103C10.6538 0.964103 10.5538 1.0641 10.5538 1.18718V3.46908L10.1845 2.88091C9.23097 1.36258 7.54621 0.4 5.7 0.4ZM10.7675 6.04209C10.6453 6.0294 10.5347 6.11831 10.5217 6.23957C10.2534 8.69883 8.18046 10.5538 5.7 10.5538C3.86183 10.5538 2.20458 9.5098 1.38691 7.90624L1.2386 7.61538H3.44359C3.56667 7.61538 3.66667 7.51539 3.66667 7.39231C3.66667 7.26923 3.56667 7.16923 3.44359 7.16923H0.623077C0.499995 7.16923 0.4 7.26923 0.4 7.39231V10.2128C0.4 10.3359 0.499995 10.4359 0.623077 10.4359C0.746158 10.4359 0.846154 10.3359 0.846154 10.2128V7.93092L1.21552 8.51909C2.16903 10.0374 3.85379 11 5.7 11C8.40973 11 10.6726 8.97422 10.9651 6.28844C10.9781 6.1653 10.89 6.05565 10.7675 6.04209ZM10.124 6.19668C10.161 5.85237 10.4719 5.60872 10.8097 5.64433C11.1529 5.68173 11.3993 5.98957 11.3628 6.33106C11.0482 9.22074 8.61316 11.4 5.7 11.4C3.93401 11.4 2.30616 10.5815 1.24615 9.25247V10.2128C1.24615 10.5568 0.967072 10.8359 0.623077 10.8359C0.279081 10.8359 0 10.5568 0 10.2128V7.39231C0 7.04831 0.279081 6.76923 0.623077 6.76923H3.44359C3.78759 6.76923 4.06667 7.04831 4.06667 7.39231C4.06667 7.7363 3.78759 8.01538 3.44359 8.01538H1.90556C2.69985 9.32132 4.12852 10.1538 5.7 10.1538C7.97701 10.1538 9.8777 8.45194 10.124 6.19668Z" fill="currentColor"/>
</svg>
