<svg width="13" height="13" viewBox="0 0 13 13" fill="none" xmlns="http://www.w3.org/2000/svg">
<path fill-rule="evenodd" clip-rule="evenodd" d="M5.71799 1.22534C5.3903 1.26865 4.98229 1.36216 4.38418 1.50018L3.70702 1.65645C3.20096 1.77323 2.86612 1.85127 2.61321 1.93807C2.37356 2.02032 2.25801 2.09456 2.17628 2.17628C2.09456 2.25801 2.02032 2.37356 1.93807 2.61321C1.85127 2.86612 1.77323 3.20096 1.65645 3.70702L1.50018 4.38418C1.36215 4.98229 1.26865 5.3903 1.22534 5.71799C1.18371 6.033 1.1957 6.22828 1.24437 6.398C1.29304 6.56771 1.38638 6.73966 1.58864 6.98473C1.79904 7.23965 2.09457 7.53608 2.52862 7.97013L3.53739 8.9789C4.29067 9.73218 4.81386 10.2536 5.26012 10.5941C5.69254 10.924 5.9815 11.027 6.25815 11.027C6.53479 11.027 6.82376 10.924 7.25617 10.5941C7.70244 10.2536 8.22562 9.73218 8.9789 8.9789C9.73218 8.22562 10.2536 7.70244 10.5941 7.25617C10.924 6.82376 11.027 6.53479 11.027 6.25815C11.027 5.9815 10.924 5.69254 10.5941 5.26012C10.2536 4.81386 9.73218 4.29067 8.9789 3.53739L7.97013 2.52862C7.53608 2.09457 7.23965 1.79904 6.98473 1.58864C6.73966 1.38638 6.56771 1.29304 6.398 1.24437C6.22828 1.1957 6.033 1.18371 5.71799 1.22534ZM5.56077 0.0356869C5.97107 -0.0185364 6.34574 -0.018995 6.72881 0.0908699C7.11189 0.200735 7.42937 0.3997 7.74856 0.663139C8.05294 0.914347 8.38958 1.251 8.79858 1.66002L9.85821 2.71965C10.5733 3.43476 11.1529 4.01432 11.5481 4.53222C11.9594 5.07138 12.227 5.61363 12.227 6.25815C12.227 6.90266 11.9594 7.44491 11.5481 7.98407C11.1529 8.50198 10.5733 9.08154 9.8582 9.79666L9.79666 9.8582C9.08154 10.5733 8.50198 11.1529 7.98407 11.5481C7.44491 11.9594 6.90266 12.227 6.25815 12.227C5.61363 12.227 5.07138 11.9594 4.53222 11.5481C4.01431 11.1529 3.43474 10.5733 2.71962 9.85818L1.66001 8.79858C1.251 8.38958 0.914346 8.05294 0.663139 7.74856C0.399699 7.42937 0.200735 7.11189 0.0908699 6.72881C-0.0189949 6.34574 -0.0185365 5.97107 0.0356868 5.56077C0.0873922 5.16952 0.194454 4.70562 0.324528 4.14201L0.493924 3.40796C0.602152 2.93891 0.69358 2.54266 0.803061 2.22367C0.919359 1.88481 1.07124 1.58427 1.32776 1.32776C1.58427 1.07124 1.88481 0.919359 2.22367 0.803061C2.54266 0.69358 2.93891 0.602152 3.40796 0.493923L4.14202 0.324526C4.70562 0.194453 5.16952 0.0873921 5.56077 0.0356869Z" fill="currentColor"/>
<path fill-rule="evenodd" clip-rule="evenodd" d="M3.88879 4.03723C3.69247 4.23355 3.69247 4.55184 3.88879 4.74816C4.08511 4.94448 4.4034 4.94448 4.59972 4.74816C4.79604 4.55184 4.79604 4.23355 4.59972 4.03723C4.4034 3.84091 4.08511 3.84091 3.88879 4.03723ZM3.04026 5.59669C2.37532 4.93174 2.37532 3.85365 3.04026 3.1887C3.70521 2.52376 4.7833 2.52376 5.44825 3.1887C6.1132 3.85365 6.1132 4.93174 5.44825 5.59669C4.7833 6.26164 3.70521 6.26164 3.04026 5.59669Z" fill="currentColor"/>
<path fill-rule="evenodd" clip-rule="evenodd" d="M10.1331 6.27354L6.28522 10.1216C6.05091 10.3559 5.67101 10.3559 5.43669 10.1216C5.20237 9.88726 5.20237 9.50736 5.43668 9.27304L9.28456 5.42502C9.51887 5.19071 9.89877 5.1907 10.1331 5.42501C10.3674 5.65932 10.3674 6.03922 10.1331 6.27354Z" fill="currentColor"/>
</svg>
