<svg width="12" height="12" viewBox="0 0 12 12" fill="none" xmlns="http://www.w3.org/2000/svg">
<path fill-rule="evenodd" clip-rule="evenodd" d="M3.77294 4.19999C3.77478 4.53136 3.50765 4.80148 3.17629 4.80332C2.61188 4.80647 2.23105 4.82144 1.94951 4.87315C1.68512 4.92172 1.56154 4.99375 1.47643 5.07886C1.38041 5.17488 1.29875 5.32213 1.25117 5.67599C1.20128 6.04711 1.2 6.54527 1.2 7.28997V7.80456C1.2 8.54926 1.20128 9.04743 1.25117 9.41854C1.29875 9.7724 1.38041 9.91965 1.47642 10.0157C1.57244 10.1117 1.7197 10.1934 2.07355 10.2409C2.44467 10.2908 2.94284 10.2921 3.68754 10.2921H7.80425C8.54895 10.2921 9.04712 10.2908 9.41823 10.2409C9.77209 10.1934 9.91934 10.1117 10.0154 10.0157C10.1114 9.91966 10.193 9.7724 10.2406 9.41855C10.2905 9.04743 10.2918 8.54926 10.2918 7.80456V7.28997C10.2918 6.54527 10.2905 6.04711 10.2406 5.67599C10.193 5.32213 10.1114 5.17488 10.0154 5.07886C9.93025 4.99375 9.80667 4.92172 9.54227 4.87315C9.26073 4.82144 8.87991 4.80647 8.3155 4.80332C7.98413 4.80148 7.717 4.53136 7.71885 4.19999C7.72069 3.86863 7.99081 3.6015 8.32218 3.60334C8.87701 3.60643 9.35888 3.61939 9.75907 3.6929C10.1764 3.76956 10.5536 3.92004 10.8639 4.23033C11.22 4.58647 11.3644 5.02917 11.4299 5.51609C11.4918 5.97662 11.4918 6.55615 11.4918 7.24862V7.84592C11.4918 8.53839 11.4918 9.11792 11.4299 9.57844C11.3644 10.0654 11.22 10.5081 10.8639 10.8642C10.5077 11.2203 10.0651 11.3648 9.57813 11.4302C9.11761 11.4921 8.53808 11.4921 7.84562 11.4921H3.64618C2.95371 11.4921 2.37418 11.4921 1.91366 11.4302C1.42673 11.3648 0.984037 11.2203 0.627896 10.8642C0.271756 10.5081 0.127337 10.0654 0.061872 9.57844C-4.36865e-05 9.11792 -2.33596e-05 8.53839 9.59109e-07 7.84592V7.24861C-2.32404e-05 6.55615 -4.34481e-05 5.97661 0.0618722 5.51609C0.127337 5.02917 0.271756 4.58647 0.627897 4.23033C0.938188 3.92004 1.31537 3.76956 1.73272 3.6929C2.13291 3.61939 2.61477 3.60643 3.16961 3.60334C3.50097 3.6015 3.77109 3.86863 3.77294 4.19999Z" fill="currentColor"/>
<path fill-rule="evenodd" clip-rule="evenodd" d="M5.74479 0C6.07616 0 6.34479 0.268629 6.34479 0.6L6.34479 5.6677L6.833 5.09812C7.04866 4.84653 7.42744 4.81739 7.67903 5.03304C7.93063 5.2487 7.95977 5.62748 7.74411 5.87907L6.20035 7.68013C6.08636 7.81312 5.91995 7.88966 5.74479 7.88966C5.56964 7.88966 5.40323 7.81312 5.28924 7.68013L3.74547 5.87907C3.52982 5.62748 3.55895 5.2487 3.81055 5.03304C4.06214 4.81739 4.44092 4.84653 4.65658 5.09812L5.14479 5.6677L5.14479 0.6C5.14479 0.268629 5.41342 0 5.74479 0Z" fill="currentColor"/>
</svg>
