<svg width="12" height="8" viewBox="0 0 12 8" fill="none" xmlns="http://www.w3.org/2000/svg">
<path d="M2.55794 4C2.55794 4.23 2.75181 4.41667 2.99068 4.41667H10.0235L7.87716 6.48332C7.7081 6.6461 7.7081 6.91 7.87716 7.07278C7.9614 7.15389 8.0722 7.19499 8.18298 7.19499C8.29376 7.19499 8.40455 7.15445 8.48879 7.07278L11.3737 4.295C11.4135 4.25667 11.4452 4.21062 11.4671 4.15951C11.511 4.05784 11.511 3.94284 11.4671 3.84117C11.4452 3.79006 11.4135 3.74387 11.3737 3.70554L8.48879 0.927762C8.31974 0.764984 8.04565 0.764984 7.87659 0.927762C7.70754 1.09054 7.70754 1.35445 7.87659 1.51723L10.023 3.58388H2.99068C2.75181 3.58332 2.55794 3.77 2.55794 4ZM0.682739 0.25C0.92161 0.25 1.11548 0.436667 1.11548 0.666667V7.33333C1.11548 7.56333 0.92161 7.75 0.682739 7.75C0.443867 7.75 0.25 7.56333 0.25 7.33333V0.666667C0.25 0.436667 0.443867 0.25 0.682739 0.25Z" fill="currentColor"/>
<path fill-rule="evenodd" clip-rule="evenodd" d="M0.682739 0.5C0.572936 0.5 0.5 0.583571 0.5 0.666667V7.33333C0.5 7.41643 0.572936 7.5 0.682739 7.5C0.792541 7.5 0.865477 7.41643 0.865477 7.33333V0.666667C0.865477 0.583571 0.792541 0.5 0.682739 0.5ZM0 0.666667C0 0.289762 0.314798 0 0.682739 0C1.05068 0 1.36548 0.289762 1.36548 0.666667V7.33333C1.36548 7.71024 1.05068 8 0.682739 8C0.314798 8 0 7.71024 0 7.33333V0.666667ZM7.70319 0.747672C7.96906 0.49168 8.39633 0.49168 8.6622 0.747672L11.5471 3.52545C11.6115 3.58741 11.662 3.66143 11.6968 3.74239C11.7678 3.90719 11.7677 4.09373 11.6967 4.25852C11.6618 4.33979 11.6114 4.41324 11.5471 4.47509L8.66281 7.25228C8.66268 7.2524 8.66294 7.25215 8.66281 7.25228C8.52879 7.382 8.35397 7.44499 8.18298 7.44499C8.01105 7.44499 7.83705 7.38122 7.70376 7.25287C7.43257 6.99175 7.43257 6.56434 7.70376 6.30323L9.40344 4.66667H2.99068C2.62274 4.66667 2.30794 4.3769 2.30794 4C2.30794 3.62331 2.62256 3.3332 2.99091 3.33388C2.9908 3.33388 2.99103 3.33388 2.99091 3.33388H9.40288L9.84956 3.76397L10.023 3.58388V3.33388H9.40288L7.70319 1.69731C7.432 1.4362 7.432 1.00879 7.70319 0.747672ZM8.31539 1.10785C8.24315 1.03829 8.12224 1.03829 8.04999 1.10785C7.98307 1.17229 7.98307 1.2727 8.04999 1.33714L10.643 3.83388H2.99068C2.88144 3.83362 2.80794 3.91681 2.80794 4C2.80794 4.0831 2.88087 4.16667 2.99068 4.16667H10.6436L8.05056 6.66341C7.98363 6.72785 7.98363 6.82825 8.05056 6.89269C8.08574 6.92657 8.13334 6.94499 8.18298 6.94499C8.23337 6.94499 8.28037 6.92664 8.31478 6.89328L11.2003 4.11491C11.2157 4.1001 11.2284 4.0819 11.2374 4.06095C11.254 4.02248 11.2541 3.97866 11.2376 3.94019C11.2285 3.91901 11.2155 3.90027 11.2003 3.88563L8.31539 1.10785Z" fill="currentColor"/>
</svg>
