<svg width="12" height="12" viewBox="0 0 12 12" fill="none" xmlns="http://www.w3.org/2000/svg">
<path fill-rule="evenodd" clip-rule="evenodd" d="M3.77294 4.19986C3.77478 4.53123 3.50765 4.80135 3.17629 4.80319C2.61188 4.80634 2.23105 4.82131 1.94951 4.87302C1.68512 4.92159 1.56154 4.99362 1.47643 5.07873C1.38041 5.17475 1.29875 5.322 1.25117 5.67586C1.20128 6.04698 1.2 6.54514 1.2 7.28984V7.80443C1.2 8.54913 1.20128 9.0473 1.25117 9.41842C1.29875 9.77227 1.38041 9.91953 1.47642 10.0155C1.57244 10.1116 1.7197 10.1932 2.07355 10.2408C2.44467 10.2907 2.94284 10.292 3.68754 10.292H7.80425C8.54895 10.292 9.04712 10.2907 9.41823 10.2408C9.77209 10.1932 9.91934 10.1116 10.0154 10.0155C10.1114 9.91953 10.193 9.77227 10.2406 9.41842C10.2905 9.0473 10.2918 8.54913 10.2918 7.80443V7.28984C10.2918 6.54514 10.2905 6.04698 10.2406 5.67586C10.193 5.322 10.1114 5.17475 10.0154 5.07873C9.93025 4.99362 9.80667 4.92159 9.54227 4.87302C9.26073 4.82131 8.87991 4.80634 8.3155 4.80319C7.98413 4.80135 7.717 4.53123 7.71885 4.19986C7.72069 3.8685 7.99081 3.60137 8.32218 3.60321C8.87701 3.6063 9.35888 3.61926 9.75907 3.69277C10.1764 3.76943 10.5536 3.91991 10.8639 4.2302C11.22 4.58635 11.3644 5.02904 11.4299 5.51596C11.4918 5.97649 11.4918 6.55602 11.4918 7.24849V7.84579C11.4918 8.53826 11.4918 9.11779 11.4299 9.57831C11.3644 10.0652 11.22 10.5079 10.8639 10.8641C10.5077 11.2202 10.0651 11.3646 9.57813 11.4301C9.11761 11.492 8.53808 11.492 7.84562 11.492H3.64618C2.95371 11.492 2.37418 11.492 1.91366 11.4301C1.42673 11.3646 0.984037 11.2202 0.627896 10.8641C0.271756 10.5079 0.127337 10.0652 0.061872 9.57831C-4.36865e-05 9.11779 -2.33596e-05 8.53826 9.59109e-07 7.84579V7.24848C-2.32404e-05 6.55602 -4.34481e-05 5.97649 0.0618722 5.51596C0.127337 5.02904 0.271756 4.58634 0.627897 4.2302C0.938188 3.91991 1.31537 3.76943 1.73272 3.69277C2.13291 3.61926 2.61477 3.6063 3.16961 3.60321C3.50097 3.60137 3.77109 3.8685 3.77294 4.19986Z" fill="currentColor"/>
<path fill-rule="evenodd" clip-rule="evenodd" d="M5.74478 7.88966C6.07615 7.88966 6.34478 7.62103 6.34478 7.28966L6.34478 2.22195L6.833 2.79154C7.04865 3.04313 7.42743 3.07227 7.67902 2.85662C7.93062 2.64096 7.95976 2.26218 7.7441 2.01059L6.20034 0.209525C6.08635 0.0765376 5.91994 0 5.74478 0C5.56963 0 5.40322 0.0765376 5.28923 0.209525L3.74546 2.01059C3.52981 2.26218 3.55895 2.64096 3.81054 2.85662C4.06214 3.07227 4.44092 3.04313 4.65657 2.79154L5.14478 2.22195L5.14478 7.28966C5.14478 7.62103 5.41341 7.88966 5.74478 7.88966Z" fill="currentColor"/>
</svg>
