<svg width="35" height="35" viewBox="0 0 35 35" fill="none" xmlns="http://www.w3.org/2000/svg">
<path fill-rule="evenodd" clip-rule="evenodd" d="M17.5 0C27.1657 0 35 7.83434 35 17.5C35 27.1657 27.1657 35 17.5 35C7.83434 35 0 27.1657 0 17.5C0 7.83434 7.83434 0 17.5 0Z" fill="#F0B90B"/>
<path d="M9.61799 17.5001L9.63061 22.1275L13.5625 24.4412V27.1504L7.32953 23.4947V16.1469L9.61799 17.5001ZM9.61799 12.8727V15.5692L7.32812 14.2147V11.5181L9.61799 10.1636L11.9191 11.5181L9.61799 12.8727ZM15.2045 11.5181L17.4944 10.1636L19.7955 11.5181L17.4944 12.8727L15.2045 11.5181Z" fill="white"/>
<path d="M11.2734 21.1684V18.4592L13.5633 19.8138V22.5103L11.2734 21.1684ZM15.2053 25.4116L17.4952 26.7661L19.7963 25.4116V28.1081L17.4952 29.4627L15.2053 28.1081V25.4116ZM23.0803 11.5181L25.3702 10.1636L27.6713 11.5181V14.2147L25.3702 15.5692V12.8727L23.0803 11.5181ZM25.3702 22.1275L25.3828 17.5001L27.6727 16.1455V23.4933L21.4397 27.149V24.4398L25.3702 22.1275Z" fill="white"/>
<path d="M23.7274 21.1681L21.4375 22.5101V19.8136L23.7274 18.459V21.1681Z" fill="white"/>
<path d="M23.7282 13.8319L23.7408 16.541L19.7977 18.8547V23.4933L17.5078 24.8353L15.2179 23.4933V18.8547L11.2748 16.541V13.8319L13.5745 12.4773L17.4938 14.8022L21.4369 12.4773L23.738 13.8319H23.7282ZM11.2734 9.20587L17.4952 5.5376L23.7282 9.20587L21.4383 10.5604L17.4952 8.23551L13.5633 10.5604L11.2734 9.20587Z" fill="white"/>
</svg>
