<svg width="35" height="35" viewBox="0 0 35 35" fill="none" xmlns="http://www.w3.org/2000/svg">
<rect width="35" height="35" rx="17.5" fill="#8247E5"/>
<path d="M23.6423 13.2661C23.2164 13.0227 22.6689 13.0227 22.1822 13.2661L18.7755 15.2736L16.4637 16.5512L13.1178 18.5587C12.6919 18.8021 12.1444 18.8021 11.6577 18.5587L9.04178 16.977C8.61593 16.7337 8.31175 16.247 8.31175 15.6995V12.6577C8.31175 12.171 8.55509 11.6843 9.04178 11.3802L11.6577 9.85927C12.0836 9.61593 12.6311 9.61593 13.1178 9.85927L15.7337 11.441C16.1595 11.6843 16.4637 12.171 16.4637 12.7185V14.7261L18.7755 13.3877V11.3193C18.7755 10.8326 18.5321 10.346 18.0454 10.0418L13.1786 7.18251C12.7527 6.93916 12.2052 6.93916 11.7185 7.18251L6.73003 10.1026C6.24334 10.346 6 10.8326 6 11.3193V17.0379C6 17.5245 6.24334 18.0112 6.73003 18.3154L11.6577 21.1747C12.0836 21.418 12.6311 21.418 13.1178 21.1747L16.4637 19.2279L18.7755 17.8896L22.1214 15.9428C22.5473 15.6995 23.0948 15.6995 23.5815 15.9428L26.1974 17.4637C26.6232 17.707 26.9274 18.1937 26.9274 18.7413V21.783C26.9274 22.2697 26.6841 22.7564 26.1974 23.0606L23.6423 24.5815C23.2164 24.8248 22.6689 24.8248 22.1822 24.5815L19.5663 23.0606C19.1405 22.8172 18.8363 22.3305 18.8363 21.783V19.8363L16.5245 21.1747V23.1822C16.5245 23.6689 16.7679 24.1556 17.2546 24.4598L22.1822 27.3191C22.6081 27.5624 23.1556 27.5624 23.6423 27.3191L28.57 24.4598C28.9958 24.2164 29.3 23.7298 29.3 23.1822V17.4029C29.3 16.9162 29.0567 16.4295 28.57 16.1253L23.6423 13.2661Z" fill="white"/>
</svg>
