<svg width="35" height="35" viewBox="0 0 35 35" fill="none" xmlns="http://www.w3.org/2000/svg">
<rect width="35" height="35" rx="17.5" fill="#50AF95"/>
<path fill-rule="evenodd" clip-rule="evenodd" d="M20.1042 19.783C19.9804 19.7923 19.3411 19.8304 17.915 19.8304C16.7807 19.8304 15.9753 19.7964 15.6928 19.783C11.3093 19.5902 8.03736 18.8271 8.03736 17.9135C8.03736 16.9998 11.3093 16.2378 15.6928 16.0419V19.023C15.9795 19.0436 16.8003 19.0921 17.9346 19.0921C19.2957 19.0921 19.9773 19.0354 20.1 19.024V16.044C24.4743 16.2388 27.739 17.0019 27.739 17.9135C27.739 18.825 24.4753 19.5881 20.1 19.782L20.1042 19.783ZM20.1042 15.7356V13.068H26.2087V9H9.58825V13.068H15.6918V15.7346C10.7308 15.9625 7 16.9452 7 18.1228C7 19.3004 10.7308 20.2821 15.6918 20.511V29.0594H20.1031V20.5079C25.0528 20.28 28.7774 19.2983 28.7774 18.1218C28.7774 16.9452 25.0559 15.9635 20.1031 15.7346L20.1042 15.7356Z" fill="white"/>
</svg>
