<svg width="35" height="35" viewBox="0 0 35 35" fill="none" xmlns="http://www.w3.org/2000/svg">
<path d="M17.741 34.7589C27.2729 34.6258 34.8921 26.7908 34.759 17.2589C34.6259 7.72706 26.7909 0.107838 17.259 0.240937C7.72712 0.374036 0.107898 8.20905 0.240997 17.7409C0.374096 27.2728 8.20911 34.892 17.741 34.7589Z" fill="#EB0017"/>
<path d="M25.8434 13.0304L18.3609 16.5386L23.3622 11.2655L25.8434 13.0304ZM22.7365 11.0281L17.0664 17.0348L9.25159 7.79175L22.7365 11.0281ZM9.15234 8.60732L16.7427 17.5829L15.7718 27.2057L9.15234 8.60732ZM16.3587 27.21L17.3382 17.6864L25.4939 13.8632L16.3587 27.21Z" fill="white"/>
</svg>
