<svg width="19" height="19" viewBox="0 0 19 19" fill="none"
    xmlns="http://www.w3.org/2000/svg">
    <path d="M9.5 18C14.1944 18 18 14.1944 18 9.5C18 4.80558 14.1944 1 9.5 1C4.80558 1 1 4.80558 1 9.5C1 14.1944 4.80558 18 9.5 18Z" stroke="currentColor" stroke-width="1.5"/>
    <path d="M12.4746 6.94995L12.6204 7.09579C13.7538 8.22912 14.3204 8.79579 14.3204 9.49995C14.3204 10.2041 13.7538 10.7708 12.6204 11.9041L12.4746 12.05" stroke="currentColor" stroke-width="1.5" stroke-linecap="round"/>
    <path d="M10.6016 5.39453L9.50158 9.49972L8.4016 13.6049" stroke="currentColor" stroke-width="1.5" stroke-linecap="round"/>
    <path d="M6.52552 6.94995L6.37969 7.09579C5.24635 8.22912 4.67969 8.79579 4.67969 9.49995C4.67969 10.2041 5.24635 10.7708 6.37969 11.9041L6.52552 12.05" stroke="currentColor" stroke-width="1.5" stroke-linecap="round"/>
</svg>
