<svg width="18" height="19" viewBox="0 0 18 19" fill="none"
    xmlns="http://www.w3.org/2000/svg">
    <path d="M13.9015 6.13343L14.2954 5.73951C14.9481 5.08683 16.0063 5.08683 16.6589 5.73951C17.3116 6.39218 17.3116 7.45037 16.6589 8.10305L16.265 8.49697M13.9015 6.13343C13.9015 6.13343 13.9507 6.97052 14.6893 7.70912C15.4279 8.44773 16.265 8.49697 16.265 8.49697M13.9015 6.13343L10.2799 9.75496C10.0346 10.0003 9.912 10.1229 9.80652 10.2581C9.68209 10.4177 9.57542 10.5903 9.48838 10.7729C9.4146 10.9277 9.35975 11.0923 9.25005 11.4213L8.89883 12.475L8.78521 12.8159M16.265 8.49697L12.6435 12.1185C12.3982 12.3638 12.2755 12.4864 12.1403 12.5919C11.9808 12.7163 11.8082 12.823 11.6256 12.9101C11.4707 12.9838 11.3062 13.0387 10.9771 13.1484L9.92344 13.4996L9.58255 13.6132M9.58255 13.6132L9.24167 13.7269C9.07972 13.7808 8.90117 13.7387 8.78046 13.618C8.65974 13.4973 8.61759 13.3187 8.67158 13.1568L8.78521 12.8159M9.58255 13.6132L8.78521 12.8159" stroke="currentColor" stroke-width="1.5"/>
    <path d="M5.25 10.3501H7.375" stroke="currentColor" stroke-width="1.5" stroke-linecap="round"/>
    <path d="M5.25 6.94995H10.775" stroke="currentColor" stroke-width="1.5" stroke-linecap="round"/>
    <path d="M5.25 13.75H6.525" stroke="currentColor" stroke-width="1.5" stroke-linecap="round"/>
    <path d="M15.3042 1.99584C14.3083 1 12.7055 1 9.5 1H7.8C4.59445 1 2.99167 1 1.99584 1.99584C1 2.99167 1 4.59445 1 7.8V11.2C1 14.4056 1 16.0083 1.99584 17.0042C2.99167 18 4.59445 18 7.8 18H9.5C12.7056 18 14.3083 18 15.3042 17.0042C16.1058 16.2025 16.2621 15.0076 16.2926 12.9" stroke="currentColor" stroke-width="1.5" stroke-linecap="round"/>
</svg>
