<svg width="18" height="18" viewBox="0 0 18 18" fill="none"
    xmlns="http://www.w3.org/2000/svg">
    <path d="M17 9H1" stroke="currentcolor" stroke-width="1.5" stroke-linecap="round"/>
    <path d="M9 1V17" stroke="currentcolor" stroke-width="1.5" stroke-linecap="round"/>
    <path d="M9.80078 9C9.80078 10.7673 11.2335 12.2 13.0008 12.2" stroke="currentcolor" stroke-width="1.5" stroke-linecap="round"/>
    <path d="M8.2 9C8.2 10.7673 6.76731 12.2 5 12.2" stroke="currentcolor" stroke-width="1.5" stroke-linecap="round"/>
    <path d="M9 7.42809C9 6.23618 9.81119 5.19723 10.9675 4.90815C12.2505 4.5874 13.4126 5.74953 13.0919 7.03251C12.8028 8.18883 11.7638 9.00002 10.5719 9.00002H9V7.42809Z" stroke="currentcolor" stroke-width="1.5"/>
    <path d="M8.99929 7.42809C8.99929 6.23618 8.1881 5.19723 7.03178 4.90815C5.7488 4.5874 4.58667 5.74953 4.90741 7.03251C5.19649 8.18883 6.23545 9.00002 7.42736 9.00002H8.99929V7.42809Z" stroke="currentcolor" stroke-width="1.5"/>
    <path d="M1 9C1 5.22876 1 3.34315 2.17157 2.17157C3.34315 1 5.22876 1 9 1C12.7712 1 14.6569 1 15.8284 2.17157C17 3.34315 17 5.22876 17 9C17 12.7712 17 14.6569 15.8284 15.8284C14.6569 17 12.7712 17 9 17C5.22876 17 3.34315 17 2.17157 15.8284C1 14.6569 1 12.7712 1 9Z" stroke="currentcolor" stroke-width="1.5"/>
</svg>
