<svg width="20" height="18" viewBox="0 0 20 18" fill="none" xmlns="http://www.w3.org/2000/svg">
<path d="M10.75 11.75L13.75 8.5L10.75 5.25" stroke="#242424" stroke-width="1.5" stroke-linecap="round" stroke-linejoin="round"/>
<path d="M15.75 0H3.75C1.332 0 0 1.332 0 3.75V13.75C0 16.168 1.332 17.5 3.75 17.5H15.75C18.168 17.5 19.5 16.168 19.5 13.75V3.75C19.5 1.332 18.168 0 15.75 0ZM1.5 13.75V3.75C1.5 2.173 2.173 1.5 3.75 1.5H6V16H3.75C2.173 16 1.5 15.327 1.5 13.75ZM18 13.75C18 15.327 17.327 16 15.75 16H7.5V1.5H15.75C17.327 1.5 18 2.173 18 3.75V13.75Z" fill="#242424"/>
</svg>
