<svg width="18" height="18" viewBox="0 0 18 18" fill="none"
    xmlns="http://www.w3.org/2000/svg">
    <path d="M11.1055 4.36836H13.6318M13.6318 4.36836H16.1581M13.6318 4.36836V6.89467M13.6318 4.36836V1.84204" stroke="currentcolor" stroke-width="1.5" stroke-linecap="round"/>
    <path d="M1 4.36842C1 2.78053 1 1.98659 1.49329 1.49329C1.98659 1 2.78053 1 4.36842 1C5.95631 1 6.75025 1 7.24355 1.49329C7.73684 1.98659 7.73684 2.78053 7.73684 4.36842C7.73684 5.95631 7.73684 6.75025 7.24355 7.24355C6.75025 7.73684 5.95631 7.73684 4.36842 7.73684C2.78053 7.73684 1.98659 7.73684 1.49329 7.24355C1 6.75025 1 5.95631 1 4.36842Z" stroke="currentcolor" stroke-width="1.5"/>
    <path d="M10.2637 13.6316C10.2637 12.0437 10.2637 11.2498 10.757 10.7565C11.2503 10.2632 12.0442 10.2632 13.6321 10.2632C15.22 10.2632 16.0139 10.2632 16.5072 10.7565C17.0005 11.2498 17.0005 12.0437 17.0005 13.6316C17.0005 15.2195 17.0005 16.0134 16.5072 16.5067C16.0139 17 15.22 17 13.6321 17C12.0442 17 11.2503 17 10.757 16.5067C10.2637 16.0134 10.2637 15.2195 10.2637 13.6316Z" stroke="currentcolor" stroke-width="1.5"/>
    <path d="M1 13.6316C1 12.0437 1 11.2498 1.49329 10.7565C1.98659 10.2632 2.78053 10.2632 4.36842 10.2632C5.95631 10.2632 6.75025 10.2632 7.24355 10.7565C7.73684 11.2498 7.73684 12.0437 7.73684 13.6316C7.73684 15.2195 7.73684 16.0134 7.24355 16.5067C6.75025 17 5.95631 17 4.36842 17C2.78053 17 1.98659 17 1.49329 16.5067C1 16.0134 1 15.2195 1 13.6316Z" stroke="currentcolor" stroke-width="1.5"/>
</svg>
