<svg width="20" height="20" viewBox="0 0 20 20" fill="none"
    xmlns="http://www.w3.org/2000/svg">
    <path d="M8.2 19.0001C12.1765 19.0001 15.4 15.7765 15.4 11.8001C15.4 7.82365 12.1765 4.6001 8.2 4.6001C4.22355 4.6001 1 7.82365 1 11.8001C1 12.9121 1.25207 13.9651 1.70218 14.9053C1.85688 15.2285 1.9112 15.5946 1.8186 15.9407L1.52336 17.0441C1.29066 17.9138 2.08631 18.7094 2.95601 18.4767L4.05945 18.1815C4.40554 18.0889 4.77164 18.1432 5.09478 18.2979C6.03496 18.748 7.08805 19.0001 8.2 19.0001Z" stroke="currentcolor" stroke-width="1.5"/>
    <path d="M15.4 12.2517C15.4598 12.2267 15.5192 12.2008 15.578 12.1739C15.9038 12.0251 16.2695 11.9694 16.6156 12.062L17.044 12.1766C17.9137 12.4093 18.7093 11.6137 18.4766 10.744L18.362 10.3156C18.2694 9.96946 18.3251 9.60383 18.4739 9.27795C18.8117 8.53839 19 7.71618 19 6.85C19 3.61913 16.3809 1 13.15 1C10.718 1 8.63256 2.48409 7.75 4.59604" stroke="currentcolor" stroke-width="1.5"/>
    <path d="M5.95039 11.7999C5.95039 12.297 5.54745 12.6999 5.05039 12.6999C4.55333 12.6999 4.15039 12.297 4.15039 11.7999C4.15039 11.3028 4.55333 10.8999 5.05039 10.8999C5.54745 10.8999 5.95039 11.3028 5.95039 11.7999Z" fill="currentcolor"/>
    <path d="M9.10039 11.7999C9.10039 12.297 8.69745 12.6999 8.20039 12.6999C7.70333 12.6999 7.30039 12.297 7.30039 11.7999C7.30039 11.3028 7.70333 10.8999 8.20039 10.8999C8.69745 10.8999 9.10039 11.3028 9.10039 11.7999Z" fill="currentcolor"/>
    <path d="M12.2504 11.7999C12.2504 12.297 11.8474 12.6999 11.3504 12.6999C10.8533 12.6999 10.4504 12.297 10.4504 11.7999C10.4504 11.3028 10.8533 10.8999 11.3504 10.8999C11.8474 10.8999 12.2504 11.3028 12.2504 11.7999Z" fill="currentcolor"/>
</svg>
