<svg width="18" height="18" viewBox="0 0 18 18" fill="none"
    xmlns="http://www.w3.org/2000/svg">
    <path d="M9 9C11.0711 9 12.75 7.32107 12.75 5.25C12.75 3.17893 11.0711 1.5 9 1.5C6.92893 1.5 5.25 3.17893 5.25 5.25C5.25 7.32107 6.92893 9 9 9Z" stroke="currentcolor" stroke-width="1.5" stroke-linecap="round" stroke-linejoin="round"/>
    <path d="M14.4083 11.805L11.7532 14.46C11.6482 14.565 11.5508 14.76 11.5283 14.9025L11.3858 15.915C11.3333 16.2825 11.5883 16.5375 11.9558 16.485L12.9682 16.3425C13.1107 16.32 13.3133 16.2225 13.4108 16.1175L16.0657 13.4625C16.5232 13.005 16.7407 12.4725 16.0657 11.7975C15.3982 11.13 14.8658 11.3475 14.4083 11.805Z" stroke="currentcolor" stroke-width="1.5" stroke-miterlimit="10" stroke-linecap="round" stroke-linejoin="round"/>
    <path d="M14.0254 12.1875C14.2504 12.9975 14.8804 13.6275 15.6904 13.8525" stroke="currentcolor" stroke-width="1.5" stroke-miterlimit="10" stroke-linecap="round" stroke-linejoin="round"/>
    <path d="M2.55664 16.5C2.55664 13.5975 5.44416 11.25 8.99916 11.25C9.77916 11.25 10.5291 11.3625 11.2266 11.5725" stroke="currentcolor" stroke-width="1.5" stroke-linecap="round" stroke-linejoin="round"/>
</svg>
