<svg width="20" height="20" viewBox="0 0 20 20" fill="none"
    xmlns="http://www.w3.org/2000/svg">
    <path d="M9 14V15.9747C9 17.6479 7.65734 19 6.0042 19C4.35106 19 3 17.6479 3 15.9747V14C3 15.6731 4.34267 16.8599 6.0042 16.8599C7.65734 16.8599 9 15.6634 9 14Z" stroke="currentColor" stroke-width="1.2" stroke-linecap="round" stroke-linejoin="round"/>
    <path d="M8.95883 11.7584C8.95883 12.175 8.84216 12.5583 8.64216 12.8917C8.15049 13.7 7.14215 14.2084 5.97548 14.2084C4.80882 14.2084 3.80047 13.6917 3.30881 12.8917C3.10881 12.5583 2.99219 12.175 2.99219 11.7584C2.99219 11.0417 3.3255 10.4 3.85884 9.93336C4.4005 9.45836 5.14214 9.17505 5.96714 9.17505C6.79214 9.17505 7.53383 9.46669 8.0755 9.93336C8.6255 10.3917 8.95883 11.0417 8.95883 11.7584Z" stroke="currentColor" stroke-width="1.2" stroke-linecap="round" stroke-linejoin="round"/>
    <path d="M8.96031 11.7584V14.0501C8.96031 15.4834 7.62697 16.5001 5.9853 16.5001C4.34363 16.5001 3.00195 15.4751 3.00195 14.0501V11.7584C3.00195 10.3251 4.3353 9.16675 5.9853 9.16675C6.8103 9.16675 7.55199 9.45839 8.09366 9.92506C8.62699 10.3917 8.96031 11.0417 8.96031 11.7584Z" stroke="currentColor" stroke-width="1.2" stroke-linecap="round" stroke-linejoin="round"/>
    <path d="M18.3329 9.14147V10.8582C18.3329 11.3165 17.9662 11.6915 17.4995 11.7082H15.8662C14.9662 11.7082 14.1412 11.0498 14.0662 10.1498C14.0162 9.62482 14.2162 9.13315 14.5662 8.79148C14.8745 8.47482 15.2995 8.2915 15.7662 8.2915H17.4995C17.9662 8.30817 18.3329 8.68314 18.3329 9.14147Z" stroke="currentColor" stroke-width="1.5" stroke-linecap="round" stroke-linejoin="round"/>
    <path d="M1.66602 8.75008V7.08341C1.66602 4.81675 3.03268 3.23341 5.15768 2.96675C5.37435 2.93341 5.59935 2.91675 5.83268 2.91675H13.3327C13.5493 2.91675 13.7577 2.92507 13.9577 2.9584C16.1077 3.2084 17.4993 4.80008 17.4993 7.08341V8.29176H15.766C15.2993 8.29176 14.8743 8.47507 14.566 8.79174C14.216 9.1334 14.016 9.62508 14.066 10.1501C14.141 11.0501 14.966 11.7084 15.866 11.7084H17.4993V12.9167C17.4993 15.4167 15.8327 17.0834 13.3327 17.0834H11.2493" stroke="currentColor" stroke-width="1.5" stroke-linecap="round" stroke-linejoin="round"/>
</svg>
