<svg width="45" height="46" viewBox="0 0 45 46" fill="none" xmlns="http://www.w3.org/2000/svg">
<path fill-rule="evenodd" clip-rule="evenodd" d="M20.0004 11.7578L19.0593 11.077C17.7162 10.1053 16.1112 9.5835 14.4657 9.5835H13.3173C12.5595 9.5835 11.7939 9.63235 11.0797 9.8913C6.61209 11.511 3.53904 17.4323 3.76132 30.8635C3.8061 33.5697 4.42556 36.5606 6.81418 37.7283C7.55852 38.0921 8.43125 38.3335 9.42508 38.3335C10.6176 38.3335 11.5646 37.986 12.2956 37.4963C13.062 36.9828 13.7369 36.3154 14.4115 35.6482C15.2451 34.8238 16.0783 33.9998 17.0836 33.4669C18.1785 32.8865 19.3938 32.5835 20.6272 32.5835H24.3728C25.6062 32.5835 26.8215 32.8865 27.9164 33.4669C28.9217 33.9998 29.7549 34.8238 30.5885 35.6482C31.2631 36.3154 31.938 36.9828 32.7044 37.4963C33.4354 37.986 34.3824 38.3335 35.5749 38.3335C36.5687 38.3335 37.4415 38.0921 38.1858 37.7283C40.5744 36.5606 41.1939 33.5697 41.2387 30.8635C41.461 17.4323 38.3879 11.511 33.9203 9.8913C33.2061 9.63235 32.4405 9.5835 31.6827 9.5835H30.5343C28.8888 9.5835 27.2839 10.1053 25.9407 11.077L24.9997 11.7578C24.2688 12.2866 23.3954 12.5705 22.5 12.5705C21.6046 12.5705 20.7313 12.2866 20.0004 11.7578ZM31.4062 17.2502C32.1829 17.2502 32.8125 17.8938 32.8125 18.6877C32.8125 19.4816 32.1829 20.1252 31.4062 20.1252C30.6296 20.1252 30 19.4816 30 18.6877C30 17.8938 30.6296 17.2502 31.4062 17.2502ZM14.0625 17.7293C14.8391 17.7293 15.4687 18.3729 15.4687 19.1668V20.6043H16.875C17.6517 20.6043 18.2812 21.2479 18.2812 22.0418C18.2812 22.8357 17.6516 23.4793 16.875 23.4793H15.4687V24.9168C15.4687 25.7107 14.8391 26.3543 14.0625 26.3543C13.2858 26.3543 12.6562 25.7107 12.6562 24.9168V23.4793H11.25C10.4733 23.4793 9.84375 22.8357 9.84375 22.0418C9.84375 21.2479 10.4734 20.6043 11.25 20.6043H12.6562V19.1668C12.6562 18.3729 13.2858 17.7293 14.0625 17.7293ZM35.625 21.5627C35.625 22.3566 34.9954 23.0002 34.2188 23.0002C33.4421 23.0002 32.8125 22.3566 32.8125 21.5627C32.8125 20.7688 33.4421 20.1252 34.2188 20.1252C34.9954 20.1252 35.625 20.7688 35.625 21.5627ZM28.5938 23.0002C29.3704 23.0002 30 22.3566 30 21.5627C30 20.7688 29.3704 20.1252 28.5938 20.1252C27.8171 20.1252 27.1875 20.7688 27.1875 21.5627C27.1875 22.3566 27.8171 23.0002 28.5938 23.0002ZM32.8125 24.4377C32.8125 23.6438 32.1829 23.0002 31.4062 23.0002C30.6296 23.0002 30 23.6438 30 24.4377C30 25.2316 30.6296 25.8752 31.4062 25.8752C32.1829 25.8752 32.8125 25.2316 32.8125 24.4377Z" fill="#F7BF53"/>
</svg>
