<svg width="46" height="46" viewBox="0 0 46 46" fill="none" xmlns="http://www.w3.org/2000/svg">
<path fill-rule="evenodd" clip-rule="evenodd" d="M19.6943 4.32215C19.8545 4.31244 20.0238 4.31247 20.2414 4.3125H25.7586C25.9762 4.31247 26.1455 4.31244 26.3057 4.32215C28.3383 4.44524 30.118 5.72805 30.8776 7.61732C30.9374 7.76621 30.991 7.92696 31.0597 8.13332L31.0655 8.15071C31.2253 8.58077 31.5919 9.06977 32.1051 9.46046C32.1622 9.50394 32.2195 9.545 32.2769 9.58366C36.4052 9.58846 38.5601 9.66469 40.0454 10.8732C40.3501 11.1211 40.6285 11.3996 40.8765 11.7043C42.1663 13.2896 42.1663 15.6376 42.1663 20.3338C42.1663 21.5254 42.1663 22.1212 41.8773 22.586C41.8211 22.6765 41.7573 22.7622 41.6868 22.8422C41.3246 23.2525 40.7539 23.4237 39.6126 23.7661L30.6663 26.45V24.9167C30.6663 22.7996 28.9501 21.0833 26.833 21.0833H19.1663C17.0492 21.0833 15.333 22.7996 15.333 24.9167V26.45L6.38678 23.7661C5.2454 23.4237 4.67471 23.2525 4.31258 22.8422C4.24204 22.7622 4.17829 22.6765 4.122 22.586C3.83301 22.1212 3.83301 21.5254 3.83301 20.3338C3.83301 15.6376 3.83301 13.2896 5.12289 11.7043C5.3708 11.3996 5.64929 11.1211 5.95398 10.8732C7.43927 9.66469 9.59416 9.58846 13.7225 9.58366C13.7799 9.54498 13.8373 9.5039 13.8944 9.46039C14.4078 9.06964 14.7744 8.58061 14.9341 8.15064C15.0069 7.93238 15.0613 7.76957 15.1225 7.61732C15.882 5.72805 17.6618 4.44524 19.6943 4.32215ZM28.4021 9.23471C28.4485 9.35271 28.4996 9.46898 28.555 9.58333H17.4446C17.5 9.46917 17.551 9.3531 17.5973 9.2353L17.6002 9.2286L17.6082 9.20962L17.6176 9.18638L17.6263 9.16346L17.6333 9.14439L17.6367 9.13478L17.6449 9.11132L17.6522 9.08967L17.6562 9.07766L17.6614 9.06167L17.6657 9.04819L17.6692 9.03712C17.7436 8.81421 17.7679 8.74472 17.79 8.6897C18.1352 7.83094 18.9442 7.24784 19.8681 7.19189C19.9299 7.18814 20.0057 7.18751 20.2805 7.18751H25.7195C25.9943 7.18751 26.0701 7.18814 26.1319 7.19189C27.0558 7.24784 27.8648 7.83094 28.21 8.6897C28.2318 8.74391 28.255 8.81087 28.3304 9.03706L28.3338 9.04803L28.3381 9.06158L28.3434 9.07759L28.3474 9.08959L28.3547 9.11119L28.3628 9.13461L28.3662 9.14421L28.3732 9.16323L28.3819 9.18602L28.3912 9.20903L28.3991 9.22777L28.4021 9.23471ZM26.833 23.9583H19.1663C18.6371 23.9583 18.208 24.3874 18.208 24.9167V29.0595C18.208 29.4514 18.4466 29.8038 18.8104 29.9493L20.1523 30.4861C21.9802 31.2172 24.0192 31.2172 25.847 30.4861L27.1889 29.9493C27.5528 29.8038 27.7913 29.4514 27.7913 29.0595V24.9167C27.7913 24.3874 27.3623 23.9583 26.833 23.9583ZM15.3536 29.4575L5.7609 26.5797C5.81858 32.5492 6.1673 38.0467 8.27568 39.9208C10.8019 42.1664 14.8677 42.1664 22.9995 42.1664C31.1312 42.1664 35.1971 42.1664 37.7233 39.9208C39.8316 38.0467 40.1804 32.5492 40.238 26.5797L30.6457 29.4574C30.4996 30.8618 29.5877 32.0863 28.2567 32.6187L26.9148 33.1554C24.4015 34.1607 21.5978 34.1607 19.0846 33.1554L17.7427 32.6187C16.4117 32.0863 15.4998 30.8619 15.3536 29.4575Z" fill="#F7BF53"/>
</svg>
