<svg width="18" height="18" viewBox="0 0 18 18" fill="none" xmlns="http://www.w3.org/2000/svg">
<path d="M1 4.36842C1 2.50809 2.50809 1 4.36842 1C6.22875 1 7.73684 2.50809 7.73684 4.36842C7.73684 6.22875 6.22875 7.73684 4.36842 7.73684C2.50809 7.73684 1 6.22875 1 4.36842Z" stroke="#242424" stroke-width="1.5"/>
<path d="M10.2656 13.6316C10.2656 11.7713 11.7737 10.2632 13.634 10.2632C15.4944 10.2632 17.0025 11.7713 17.0025 13.6316C17.0025 15.4919 15.4944 17 13.634 17C11.7737 17 10.2656 15.4919 10.2656 13.6316Z" stroke="#242424" stroke-width="1.5"/>
<path d="M17.0025 4.36842C17.0025 2.50809 15.4944 1 13.634 1C11.7737 1 10.2656 2.50809 10.2656 4.36842C10.2656 6.22875 11.7737 7.73684 13.634 7.73684C15.4944 7.73684 17.0025 6.22875 17.0025 4.36842Z" stroke="#242424" stroke-width="1.5"/>
<path d="M7.73684 13.6316C7.73684 11.7713 6.22875 10.2632 4.36842 10.2632C2.50809 10.2632 1 11.7713 1 13.6316C1 15.4919 2.50809 17 4.36842 17C6.22875 17 7.73684 15.4919 7.73684 13.6316Z" stroke="#242424" stroke-width="1.5"/>
</svg>
