<svg width="18" height="18" viewBox="0 0 18 18" fill="none" xmlns="http://www.w3.org/2000/svg">
<g clip-path="url(#clip0_2484_1246)">
<path fill-rule="evenodd" clip-rule="evenodd" d="M9 0C13.9709 0 18 4.02909 18 9C18 13.9709 13.9709 18 9 18C4.02909 18 0 13.9709 0 9C0 4.02909 4.02909 0 9 0Z" fill="#F0B90B"/>
<path d="M4.94327 8.99988L4.94976 11.3797L6.97188 12.5696V13.9629L3.76635 12.0828V8.30397L4.94327 8.99988ZM4.94327 6.62008V8.00686L3.76562 7.31022V5.92344L4.94327 5.22681L6.12668 5.92344L4.94327 6.62008ZM7.81635 5.92344L8.99399 5.22681L10.1774 5.92344L8.99399 6.62008L7.81635 5.92344Z" fill="white"/>
<path d="M5.79688 10.8864V9.49315L6.97452 10.1898V11.5766L5.79688 10.8864ZM7.81899 13.0686L8.99663 13.7653L10.18 13.0686V14.4554L8.99663 15.152L7.81899 14.4554V13.0686ZM11.869 5.92344L13.0466 5.22681L14.23 5.92344V7.31022L13.0466 8.00686V6.62008L11.869 5.92344ZM13.0466 11.3797L13.0531 8.99988L14.2308 8.30325V12.0821L11.0252 13.9621V12.5689L13.0466 11.3797Z" fill="white"/>
<path d="M12.2011 10.8864L11.0234 11.5766V10.1898L12.2011 9.49316V10.8864Z" fill="white"/>
<path d="M12.2022 7.11353L12.2087 8.50679L10.1808 9.6967V12.0823L9.00312 12.7724L7.82548 12.0823V9.6967L5.7976 8.50679V7.11353L6.98029 6.41689L8.99591 7.61256L11.0238 6.41689L12.2072 7.11353H12.2022ZM5.79688 4.73444L8.99663 2.8479L12.2022 4.73444L11.0245 5.43107L8.99663 4.2354L6.97452 5.43107L5.79688 4.73444Z" fill="white"/>
</g>
<defs>
<clipPath id="clip0_2484_1246">
<rect width="18" height="18" fill="white"/>
</clipPath>
</defs>
</svg>
