<svg width="18" height="18" viewBox="0 0 18 18" fill="none" xmlns="http://www.w3.org/2000/svg">
<g clip-path="url(#clip0_2484_1253)">
<path d="M0 9C0 4.02944 4.02944 0 9 0C13.9706 0 18 4.02944 18 9C18 13.9706 13.9706 18 9 18C4.02944 18 0 13.9706 0 9Z" fill="#F7931A"/>
<path d="M11.9424 8.19009C12.0709 7.33263 11.4176 6.87159 10.5249 6.56395L10.8146 5.40213L10.1077 5.22622L9.82538 6.35736C9.63965 6.31073 9.44901 6.26736 9.25879 6.224L9.54311 5.0855L8.8362 4.90918L8.54656 6.07059C8.39274 6.03541 8.24138 6.00104 8.09492 5.96423L8.09574 5.96054L7.12047 5.71713L6.93229 6.47232C6.93229 6.47232 7.45715 6.59259 7.44611 6.59995C7.73247 6.67154 7.78401 6.86095 7.77542 7.0115L7.4457 8.33491C7.46533 8.33982 7.4907 8.34718 7.51933 8.35823L7.44447 8.33982L6.9822 10.1938C6.94701 10.2805 6.85824 10.411 6.65779 10.3615C6.66515 10.3718 6.14397 10.2335 6.14397 10.2335L5.79297 11.0427L6.71342 11.2722C6.88442 11.3151 7.05215 11.3601 7.21701 11.4023L6.92451 12.5772L7.63101 12.7531L7.92065 11.5913C8.11374 11.6432 8.30111 11.6915 8.48438 11.7373L8.19556 12.8942L8.90247 13.0701L9.19497 11.8977C10.401 12.126 11.3075 12.0339 11.6892 10.9433C11.9968 10.0654 11.6741 9.5585 11.0396 9.22836C11.5018 9.122 11.8496 8.81804 11.9424 8.19009ZM10.3265 10.4556C10.1085 11.334 8.62961 10.859 8.15015 10.74L8.53879 9.18336C9.01824 9.30323 10.5552 9.54009 10.3265 10.4556ZM10.5454 8.17741C10.3462 8.97636 9.11561 8.57013 8.71674 8.47072L9.06856 7.05936C9.46742 7.15877 10.7532 7.34409 10.5454 8.17741Z" fill="white"/>
</g>
<defs>
<clipPath id="clip0_2484_1253">
<rect width="18" height="18" fill="white"/>
</clipPath>
</defs>
</svg>
