<svg width="18" height="18" viewBox="0 0 18 18" fill="none" xmlns="http://www.w3.org/2000/svg">
<path d="M0 9C0 4.02944 4.02944 0 9 0C13.9706 0 18 4.02944 18 9C18 13.9706 13.9706 18 9 18C4.02944 18 0 13.9706 0 9Z" fill="#627EEA"/>
<path d="M9 3.40527V7.72041L12.6472 9.35014L9 3.40527Z" fill="white" fill-opacity="0.602"/>
<path d="M8.99924 3.40527L5.35156 9.35014L8.99924 7.72041V3.40527Z" fill="white"/>
<path d="M9 12.1465V15.0785L12.6496 10.0293L9 12.1465Z" fill="white" fill-opacity="0.602"/>
<path d="M8.99924 15.0785V12.146L5.35156 10.0293L8.99924 15.0785Z" fill="white"/>
<path d="M9 11.4681L12.6472 9.35044L9 7.72168V11.4681Z" fill="white" fill-opacity="0.2"/>
<path d="M5.35156 9.35044L8.99924 11.4681V7.72168L5.35156 9.35044Z" fill="white" fill-opacity="0.602"/>
</svg>
