<svg width="20" height="19" viewBox="0 0 20 19" fill="none" xmlns="http://www.w3.org/2000/svg">
<path d="M14.269 5.19585C13.9246 4.99407 13.4818 4.99407 13.0882 5.19585L10.3328 6.86053L8.46302 7.91988L5.75682 9.58457C5.4124 9.78635 4.96956 9.78635 4.57594 9.58457L2.46018 8.273C2.11576 8.07122 1.86974 7.66766 1.86974 7.21365V4.69139C1.86974 4.28783 2.06655 3.88427 2.46018 3.63205L4.57594 2.37092C4.92036 2.16914 5.36319 2.16914 5.75682 2.37092L7.87258 3.68249C8.217 3.88427 8.46302 4.28783 8.46302 4.74184V6.40653L10.3328 5.29674V3.5816C10.3328 3.17804 10.1359 2.77448 9.74232 2.52226L5.80603 0.151335C5.4616 -0.0504451 5.01877 -0.0504451 4.62514 0.151335L0.590443 2.5727C0.196814 2.77448 0 3.17804 0 3.5816V8.32344C0 8.727 0.196814 9.13056 0.590443 9.38279L4.57594 11.7537C4.92036 11.9555 5.36319 11.9555 5.75682 11.7537L8.46302 10.1395L10.3328 9.02967L13.039 7.41543C13.3834 7.21365 13.8262 7.21365 14.2198 7.41543L16.3356 8.67656C16.68 8.87834 16.926 9.2819 16.926 9.73591V12.2582C16.926 12.6617 16.7292 13.0653 16.3356 13.3175L14.269 14.5786C13.9246 14.7804 13.4818 14.7804 13.0882 14.5786L10.9724 13.3175C10.628 13.1157 10.382 12.7122 10.382 12.2582V10.6439L8.51223 11.7537V13.4184C8.51223 13.822 8.70904 14.2255 9.10267 14.4777L13.0882 16.8487C13.4326 17.0504 13.8754 17.0504 14.269 16.8487L18.2545 14.4777C18.599 14.276 18.845 13.8724 18.845 13.4184V8.62611C18.845 8.22255 18.6482 7.81899 18.2545 7.56677L14.269 5.19585Z" fill="#8247E5"/>
</svg>
