<svg width="20" height="18" viewBox="0 0 20 18" fill="none" xmlns="http://www.w3.org/2000/svg">
<path fill-rule="evenodd" clip-rule="evenodd" d="M3.47872 0.0834941L0.0142433 7.56818C0.00105991 7.59602 -0.00311781 7.62746 0.00232105 7.65792C0.00775991 7.68837 0.02253 7.71624 0.0444714 7.73745L9.4012 16.9592C9.42778 16.9854 9.46318 17 9.5 17C9.53682 17 9.57222 16.9854 9.5988 16.9592L18.9555 7.73802C18.9775 7.71682 18.9922 7.68895 18.9977 7.65849C19.0031 7.62804 18.9989 7.59659 18.9858 7.56875L15.5213 0.0840699C15.5101 0.0589332 15.4921 0.0376391 15.4695 0.0227328C15.4468 0.00782648 15.4205 -6.16616e-05 15.3936 1.1142e-05H3.60747C3.58047 -0.000334398 3.55394 0.00736373 3.5311 0.0221769C3.50825 0.03699 3.49006 0.0582854 3.47872 0.0834941Z" fill="#50AF95"/>
<path fill-rule="evenodd" clip-rule="evenodd" d="M10.6191 8.37552C10.5566 8.38015 10.2336 8.39917 9.51328 8.39917C8.94034 8.39917 8.53355 8.3822 8.39083 8.37552C6.17667 8.27939 4.52398 7.89899 4.52398 7.44353C4.52398 6.98807 6.17667 6.60818 8.39083 6.51051V7.99666C8.53563 8.00694 8.95023 8.0311 9.52318 8.0311C10.2107 8.0311 10.555 8.00283 10.617 7.99717V6.51154C12.8265 6.6087 14.4755 6.9891 14.4755 7.44353C14.4755 7.89796 12.827 8.27836 10.617 8.37501L10.6191 8.37552ZM10.6191 6.35784V5.02796H13.7025V3H5.30735V5.02796H8.39031V6.35732C5.88446 6.47093 4 6.96083 4 7.54788C4 8.13494 5.88446 8.62433 8.39031 8.73845V13H10.6185V8.7369C13.1187 8.6233 15 8.13391 15 7.54737C15 6.96083 13.1202 6.47144 10.6185 6.35732L10.6191 6.35784Z" fill="white"/>
</svg>
