<svg width="18" height="18" viewBox="0 0 18 18" fill="none" xmlns="http://www.w3.org/2000/svg">
<g clip-path="url(#clip0_2484_1226)">
<path d="M9.12544 17.9986C14.0955 17.9292 18.0683 13.8439 17.9989 8.87378C17.9295 3.9037 13.8442 -0.069083 8.87412 0.000316939C3.90404 0.0697168 -0.0687403 4.15502 0.000659615 9.1251C0.0700595 14.0952 4.15536 18.068 9.12544 17.9986Z" fill="#EB0017"/>
<path d="M13.3514 6.669L9.44994 8.49825L12.0577 5.74875L13.3514 6.669ZM11.7314 5.625L8.77494 8.757L4.70019 3.9375L11.7314 5.625ZM4.64844 4.36275L8.60619 9.04275L8.09994 14.0603L4.64844 4.36275ZM8.40594 14.0625L8.91669 9.09675L13.1692 7.10325L8.40594 14.0625Z" fill="white"/>
</g>
<defs>
<clipPath id="clip0_2484_1226">
<rect width="18" height="18" fill="white"/>
</clipPath>
</defs>
</svg>
