<svg width="45" height="46" viewBox="0 0 45 46" fill="none" xmlns="http://www.w3.org/2000/svg">
<path fill-rule="evenodd" clip-rule="evenodd" d="M41.25 22.9999C41.25 33.5854 32.8553 42.1666 22.5 42.1666C12.1447 42.1666 3.75 33.5854 3.75 22.9999C3.75 12.4145 12.1447 3.83325 22.5 3.83325C32.8553 3.83325 41.25 12.4145 41.25 22.9999ZM22.5 34.0208C23.2767 34.0208 23.9062 33.3772 23.9062 32.5833V21.0833C23.9062 20.2893 23.2767 19.6458 22.5 19.6458C21.7233 19.6458 21.0938 20.2893 21.0938 21.0833V32.5833C21.0938 33.3772 21.7233 34.0208 22.5 34.0208ZM22.5 13.4166C23.5355 13.4166 24.375 14.2747 24.375 15.3333C24.375 16.3918 23.5355 17.2499 22.5 17.2499C21.4645 17.2499 20.625 16.3918 20.625 15.3333C20.625 14.2747 21.4645 13.4166 22.5 13.4166Z" fill="#F7BF53"/>
</svg>
