<svg width="46" height="46" viewBox="0 0 46 46" fill="none" xmlns="http://www.w3.org/2000/svg">
<path fill-rule="evenodd" clip-rule="evenodd" d="M42.1663 23.0002C42.1663 33.5856 33.5851 42.1668 22.9997 42.1668C12.4142 42.1668 3.83301 33.5856 3.83301 23.0002C3.83301 12.4147 12.4142 3.8335 22.9997 3.8335C33.5851 3.8335 42.1663 12.4147 42.1663 23.0002ZM15.333 24.9168C16.3916 24.9168 17.2497 24.0587 17.2497 23.0002C17.2497 21.9416 16.3916 21.0835 15.333 21.0835C14.2745 21.0835 13.4163 21.9416 13.4163 23.0002C13.4163 24.0587 14.2745 24.9168 15.333 24.9168ZM22.9997 24.9168C24.0582 24.9168 24.9163 24.0587 24.9163 23.0002C24.9163 21.9416 24.0582 21.0835 22.9997 21.0835C21.9411 21.0835 21.083 21.9416 21.083 23.0002C21.083 24.0587 21.9411 24.9168 22.9997 24.9168ZM30.6663 24.9168C31.7249 24.9168 32.583 24.0587 32.583 23.0002C32.583 21.9416 31.7249 21.0835 30.6663 21.0835C29.6078 21.0835 28.7497 21.9416 28.7497 23.0002C28.7497 24.0587 29.6078 24.9168 30.6663 24.9168Z" fill="#1093FF"/>
</svg>
