<svg width="46" height="46" viewBox="0 0 46 46" fill="none" xmlns="http://www.w3.org/2000/svg">
<path fill-rule="evenodd" clip-rule="evenodd" d="M6.6399 39.3599C9.44679 42.1668 13.9644 42.1668 22.9997 42.1668C32.0349 42.1668 36.5526 42.1668 39.3594 39.3599C42.1663 36.553 42.1663 32.0354 42.1663 23.0002C42.1663 13.9649 42.1663 9.44728 39.3594 6.64039C36.5526 3.8335 32.0349 3.8335 22.9997 3.8335C13.9644 3.8335 9.44679 3.8335 6.6399 6.64039C3.83301 9.44728 3.83301 13.9649 3.83301 23.0002C3.83301 32.0354 3.83301 36.553 6.6399 39.3599ZM27.9506 34.9529C25.5866 35.9321 22.9853 36.1883 20.4757 35.6891C17.9661 35.1899 15.6608 33.9577 13.8515 32.1484C12.0421 30.339 10.81 28.0338 10.3108 25.5241C9.81157 23.0145 10.0678 20.4132 11.047 18.0492C12.0262 15.6852 13.6844 13.6646 15.812 12.243C17.9395 10.8214 20.4409 10.0627 22.9997 10.0627C23.7936 10.0627 24.4372 10.7063 24.4372 11.5002C24.4372 12.2941 23.7936 12.9377 22.9997 12.9377C21.0095 12.9377 19.064 13.5278 17.4092 14.6335C15.7545 15.7392 14.4647 17.3107 13.7031 19.1494C12.9415 20.9881 12.7423 23.0113 13.1305 24.9633C13.5188 26.9152 14.4771 28.7082 15.8844 30.1154C17.2917 31.5227 19.0846 32.4811 21.0366 32.8693C22.9885 33.2576 25.0117 33.0583 26.8504 32.2967C28.6891 31.5351 30.2607 30.2454 31.3663 28.5906C32.472 26.9358 33.0622 24.9903 33.0622 23.0002C33.0622 22.2063 33.7058 21.5627 34.4997 21.5627C35.2936 21.5627 35.9372 22.2063 35.9372 23.0002C35.9372 25.559 35.1784 28.0603 33.7568 30.1879C32.3352 32.3154 30.3147 33.9736 27.9506 34.9529ZM27.3998 10.8324C26.6701 10.5195 25.825 10.8574 25.5122 11.5871C25.1993 12.3168 25.5372 13.1619 26.2669 13.4748C29.0715 14.6772 31.3226 16.9283 32.5251 19.733C32.8379 20.4626 33.6831 20.8005 34.4127 20.4877C35.1424 20.1748 35.4803 19.3297 35.1675 18.6C33.6742 15.1172 30.8827 12.3257 27.3998 10.8324ZM22.9997 18.6876C23.7936 18.6876 24.4372 19.3312 24.4372 20.1251V21.5626H25.8747C26.6686 21.5626 27.3122 22.2062 27.3122 23.0001C27.3122 23.794 26.6686 24.4376 25.8747 24.4376H24.4372V25.8751C24.4372 26.669 23.7936 27.3126 22.9997 27.3126C22.2058 27.3126 21.5622 26.669 21.5622 25.8751V24.4376H20.1247C19.3308 24.4376 18.6872 23.794 18.6872 23.0001C18.6872 22.2062 19.3308 21.5626 20.1247 21.5626H21.5622V20.1251C21.5622 19.3312 22.2058 18.6876 22.9997 18.6876Z" fill="#F7BF53"/>
</svg>
