<svg width="88" height="77" viewBox="0 0 88 77" fill="none" xmlns="http://www.w3.org/2000/svg">
<path d="M58.1079 10.8097L43.5104 7.19896C29.7478 3.79476 22.8665 2.09266 17.5361 5.29998C13.866 7.5083 11.9179 11.4502 9.95208 18.1727C9.56222 19.5058 9.36729 20.1724 9.50769 20.684C9.6481 21.1956 10.5136 22.0049 12.2448 23.6233C14.1673 25.4208 15.0864 28.1738 14.4108 30.9052C13.7352 33.6366 11.6386 35.6438 9.09984 36.3377C6.81387 36.9625 5.67084 37.275 5.30813 37.6621C4.94541 38.0493 4.80711 38.7299 4.53053 40.0911C3.13585 46.9548 3.02163 51.3503 5.23907 55.0149C8.45964 60.3373 15.3409 62.0394 29.1035 65.4436L43.701 69.0543C57.4636 72.4585 64.3449 74.1606 69.6753 70.9533C73.3454 68.745 75.2935 64.8031 77.2594 58.0806C77.6492 56.7475 77.8441 56.0809 77.7037 55.5693C77.5633 55.0577 76.6978 54.2484 74.9667 52.63C73.0441 50.8325 72.125 48.0794 72.8006 45.348C73.4762 42.6166 75.5728 40.6095 78.1116 39.9156C80.3976 39.2907 81.5406 38.9783 81.9033 38.5912C82.266 38.204 82.4043 37.5234 82.6809 36.1622C84.0756 29.2985 84.1898 24.903 81.9724 21.2384C78.7518 15.916 71.8705 14.2139 58.1079 10.8097Z" stroke="#E0F1FF" stroke-width="7"/>
<path d="M29.9836 46.3461L57.228 29.907" stroke="#E0F1FF" stroke-width="7" stroke-linecap="round"/>
<path d="M54.0955 50.3789C53.5982 52.3894 51.5652 53.6161 49.5548 53.1188C47.5443 52.6215 46.3176 50.5885 46.8149 48.578C47.3122 46.5676 49.3451 45.3409 51.3556 45.8382C53.3661 46.3355 54.5928 48.3684 54.0955 50.3789Z" fill="#E0F1FF"/>
<path d="M40.3963 27.6753C39.899 29.6858 37.866 30.9124 35.8555 30.4151C33.8451 29.9179 32.6184 27.8849 33.1157 25.8744C33.613 23.8639 35.6459 22.6373 37.6564 23.1346C39.6669 23.6319 40.8936 25.6648 40.3963 27.6753Z" fill="#E0F1FF"/>
</svg>
