<svg width="53" height="42" viewBox="0 0 53 42" fill="none" xmlns="http://www.w3.org/2000/svg">
<path fill-rule="evenodd" clip-rule="evenodd" d="M20.9869 0H31.5131C41.4372 0 46.3993 0 49.4824 3.07538C51.6051 5.19285 52.2663 8.19891 52.4722 13.0974C52.5131 14.0688 52.5335 14.5545 52.3521 14.8786C52.1707 15.2026 51.4465 15.607 49.9982 16.4159C48.3896 17.3141 47.3023 19.0304 47.3023 21C47.3023 22.9696 48.3896 24.6859 49.9982 25.5842C51.4465 26.393 52.1707 26.7974 52.3521 27.1214C52.5335 27.4455 52.5131 27.9312 52.4722 28.9026C52.2663 33.8011 51.6051 36.8071 49.4824 38.9246C46.3993 42 41.4372 42 31.5131 42H20.9869C11.0628 42 6.10068 42 3.01764 38.9246C0.894891 36.8071 0.233707 33.8011 0.0277654 28.9026C-0.0130758 27.9312 -0.0334964 27.4455 0.147903 27.1214C0.329302 26.7974 1.0535 26.393 2.50184 25.5841C4.11037 24.6859 5.19768 22.9696 5.19768 21C5.19768 19.0304 4.11037 17.3141 2.50184 16.4159C1.05348 15.607 0.329303 15.2026 0.147903 14.8786C-0.0334964 14.5545 -0.0130758 14.0688 0.0277655 13.0974C0.233707 8.19891 0.894891 5.19285 3.01764 3.07538C6.10068 0 11.0628 0 20.9869 0ZM35.5631 11.7329C36.3338 12.5017 36.3338 13.7483 35.5631 14.5171L19.7738 30.2671C19.0031 31.036 17.7534 31.036 16.9827 30.2671C16.2119 29.4983 16.2119 28.2517 16.9827 27.4829L32.7719 11.7329C33.5427 10.964 34.7923 10.964 35.5631 11.7329ZM32.8517 30.1875C34.3051 30.1875 35.4833 29.0122 35.4833 27.5625C35.4833 26.1128 34.3051 24.9375 32.8517 24.9375C31.3984 24.9375 30.2202 26.1128 30.2202 27.5625C30.2202 29.0122 31.3984 30.1875 32.8517 30.1875ZM19.694 17.0625C21.1474 17.0625 22.3256 15.8872 22.3256 14.4375C22.3256 12.9878 21.1474 11.8125 19.694 11.8125C18.2407 11.8125 17.0625 12.9878 17.0625 14.4375C17.0625 15.8872 18.2407 17.0625 19.694 17.0625Z" fill="#1093FF"/>
</svg>
