<svg width="39" height="32" viewBox="0 0 39 32" fill="none" xmlns="http://www.w3.org/2000/svg">
<path d="M4.23106 21.7674C2.74369 19.8351 2 18.8689 2 16C2 13.1311 2.74369 12.1649 4.23106 10.2326C7.20094 6.37423 12.1817 2 19.5 2C26.8183 2 31.7991 6.37423 34.7689 10.2326C36.2563 12.1649 37 13.1311 37 16C37 18.8689 36.2563 19.8351 34.7689 21.7674C31.7991 25.6258 26.8183 30 19.5 30C12.1817 30 7.20094 25.6258 4.23106 21.7674Z" stroke="#1093FF" stroke-width="3"/>
<path d="M24.5 16C24.5 19.0376 22.0376 21.5 19 21.5C15.9624 21.5 13.5 19.0376 13.5 16C13.5 12.9624 15.9624 10.5 19 10.5C22.0376 10.5 24.5 12.9624 24.5 16Z" stroke="#1093FF" stroke-width="3"/>
</svg>
