<svg width="85" height="86" viewBox="0 0 85 86" fill="none" xmlns="http://www.w3.org/2000/svg">
<path d="M36.5135 9.7795L36.4755 10.0433L32.7675 35.4248L23.1316 38.0068C20.8325 38.6228 18.7617 39.685 16.9934 41.0648L19.1233 25.3467L19.168 24.9724L19.2597 24.368C19.2729 24.147 19.2862 23.926 19.3423 23.7298C21.0265 12.2985 25.4053 8.62484 36.5135 9.7795Z" stroke="#E0F1FF" stroke-width="7" stroke-linecap="round" stroke-linejoin="round"/>
<path d="M61.0781 28.565C59.4298 28.4993 57.7526 28.7313 56.1297 29.1662L32.7668 35.4262L36.4748 10.0447L36.5128 9.7809C37.0653 9.81406 37.602 9.9239 38.1635 9.99087L46.4781 11.1331C51.0988 11.7431 54.4866 12.7559 56.8246 14.4487C57.2714 14.7638 57.6415 15.0633 57.9959 15.4394C58.4271 15.8312 58.7906 16.2411 59.0617 16.712C59.2785 16.9801 59.4614 17.2572 59.6015 17.5095C61.2754 20.105 61.6676 23.7324 61.0781 28.565Z" stroke="#E0F1FF" stroke-width="7" stroke-linecap="round" stroke-linejoin="round"/>
<path d="M77.0541 41.2432L78.8207 47.8361C79.0018 48.5123 79.1492 49.1976 79.2966 49.8829C81.8159 61.8548 76.8174 69.5719 64.3077 72.9239L37.9357 79.9903C37.1243 80.2077 36.2947 80.3575 35.4899 80.4644C24.548 82.6353 17.2602 78.4277 13.6693 67.8663C13.3595 67.1158 13.0744 66.3225 12.857 65.5111L11.0904 58.9181C9.26948 52.1222 11.827 45.1678 17.0306 41.0557C18.8327 39.6669 20.8697 38.6137 23.1688 37.9977L56.1675 29.1557C57.8242 28.7118 59.5105 28.5136 61.1159 28.5546C68.3968 28.8142 75.0519 33.7711 77.0541 41.2432Z" stroke="#E0F1FF" stroke-width="7" stroke-linecap="round" stroke-linejoin="round"/>
<path d="M19.1209 25.348L16.9909 41.0661C11.7874 45.1782 9.22986 52.1326 11.0508 58.9284L8.39639 49.022C5.82352 39.4199 10.5061 29.5769 19.1209 25.348Z" stroke="#E0F1FF" stroke-width="7" stroke-linecap="round" stroke-linejoin="round"/>
<path d="M74.3884 31.337L77.0428 41.2434C75.0497 33.8051 68.4193 28.8053 61.1137 28.5886C61.6941 23.7222 61.2772 20.1376 59.6619 17.4903C59.5128 17.2041 59.3298 16.927 59.1221 16.6927C66.2805 18.2535 72.3591 23.7635 74.3884 31.337Z" stroke="#E0F1FF" stroke-width="7" stroke-linecap="round" stroke-linejoin="round"/>
</svg>
