<svg width="52" height="52" viewBox="0 0 52 52" fill="none" xmlns="http://www.w3.org/2000/svg">
<path d="M25.8102 0.542809L19.3967 15.4721H12.9832C11.9188 15.4721 10.8809 15.552 9.86963 15.7649L12.5308 9.37799L12.6373 9.13848L12.7969 8.71269C12.8768 8.52641 12.93 8.36674 13.0098 8.23368C16.0968 1.07505 19.5564 -1.16036 25.8102 0.542809Z" fill="#1093FF"/>
<path d="M43.8787 16.1903L43.8255 16.1637C42.2288 15.7113 40.6054 15.4718 38.9555 15.4718H22.2964L28.2841 1.55372L28.3639 1.36743C28.7365 1.50049 29.1357 1.68678 29.5349 1.81984L35.4161 4.29475C38.6894 5.65196 40.978 7.0624 42.3884 8.76557C42.628 9.08491 42.8408 9.37764 43.0537 9.7236C43.2933 10.0962 43.4795 10.4687 43.586 10.8679C43.6924 11.1074 43.7723 11.3203 43.8255 11.5598C44.2247 12.917 44.2513 14.4605 43.8787 16.1903Z" fill="#1093FF"/>
<path d="M42.7123 18.7881C41.5147 18.4421 40.264 18.2559 38.96 18.2559H12.9867C11.177 18.2559 9.47387 18.6018 7.87715 19.2937C3.24666 21.2896 0 25.8935 0 31.2425V36.4319C0 37.0705 0.0532239 37.6826 0.13306 38.3213C0.718524 46.7839 5.24256 51.308 13.7052 51.8668C14.3173 51.9467 14.9293 51.9999 15.5946 51.9999H36.352C46.1984 51.9999 51.3878 47.3162 51.8934 38.002C51.92 37.4963 51.9466 36.9641 51.9466 36.4319V31.2425C51.9466 25.3613 48.0347 20.4114 42.7123 18.7881Z" fill="#1093FF"/>
</svg>
