<svg width="38" height="38" viewBox="0 0 38 38" fill="none" xmlns="http://www.w3.org/2000/svg">
<path d="M19 0C8.5226 0 0 8.52437 0 19C0 29.4756 8.5226 38 19 38C29.4774 38 38 29.4756 38 19C38 8.52437 29.4774 0 19 0ZM35.3488 19C35.3488 19.0601 35.34 19.1184 35.34 19.1785C34.5482 19.3641 33.7546 19.7688 33.1395 20.398C32.8709 20.1842 32.2558 19.5461 31.2608 17.7097C30.1614 15.6825 30.5979 14.7404 31.2589 13.3141C31.4834 12.8316 31.7044 12.3456 31.867 11.8436C32.1268 11.0748 32.0843 10.0532 31.8987 8.98743C34.0515 11.7588 35.3488 15.2265 35.3488 19ZM2.65116 19C2.65116 18.134 2.73774 17.2909 2.86853 16.4619C4.41151 20.8947 7.87395 22.6515 9.804 23.6254C10.1292 23.7898 10.5145 23.9842 10.7266 24.1167C10.8114 24.5886 10.7973 24.9209 10.7691 25.4989C10.7425 26.0768 10.7089 26.7979 10.7619 27.9203C10.868 30.1031 12.6426 31.031 13.9399 31.7079C14.7175 32.1144 15.4545 32.4979 15.8309 33.0547C16.02 33.3251 16.1951 34.1735 16.1332 35.0802C8.4837 33.721 2.65116 27.0366 2.65116 19ZM18.7667 35.3365C18.878 33.896 18.6129 32.4025 18.0172 31.5524C17.2767 30.4583 16.158 29.8733 15.17 29.359C13.855 28.6714 13.4396 28.3657 13.4131 27.7948C13.3654 26.7909 13.3972 26.144 13.4202 25.6261C13.4556 24.8803 13.4856 24.2352 13.2558 23.2472C13.0313 22.2839 12.1353 21.8315 11.0006 21.2588C8.59507 20.0464 4.60423 18.0173 4.7527 11.0094C7.55763 6.02698 12.8881 2.65116 19.0017 2.65116C19.6963 2.65116 20.3768 2.70948 21.0502 2.79431C20.7656 3.16724 20.3592 3.47657 19.9421 3.61266C16.2888 4.80922 16.2499 8.05777 16.2234 10.2087C16.2022 12.0133 16.0855 12.3421 15.8222 12.4039C15.6013 12.388 14.9791 12.0522 14.6097 11.8507C13.6605 11.3346 12.6814 10.8008 11.6616 11.0483C10.8203 11.2462 9.79688 12.0275 9.4699 13.1374C9.3073 13.6889 9.19244 14.7811 10.2511 15.8787C10.891 16.5415 10.914 16.8013 10.9634 17.3192C11.0006 17.7151 11.0536 18.2559 11.3435 18.9204C12.4588 21.3843 15.8044 21.0043 17.077 20.8558C19.053 20.6084 19.4101 20.5978 20.4016 21.63C20.8046 22.0488 21.0396 22.5826 21.2871 23.1482C21.759 24.2192 22.4023 25.6862 24.3942 25.916C25.9496 26.1086 26.9464 26.5982 27.2451 26.9994C27.3175 27.0967 27.3353 27.1638 27.3158 27.277C27.2222 27.8319 26.5258 28.4947 25.7181 29.2635C24.3784 30.5361 22.6039 32.2435 21.9623 35.0696C21.0008 35.2463 20.0127 35.3524 19 35.3524C18.9205 35.3489 18.8444 35.3383 18.7667 35.3365ZM25.0783 34.1646C25.6969 32.9504 26.6265 32.0526 27.5438 31.1812C28.6484 30.1313 29.6895 29.1416 29.9316 27.7135C30.0713 26.8845 29.8786 26.0875 29.3731 25.4105C28.2632 23.9206 25.9832 23.4363 24.7124 23.279C24.2952 23.2312 24.1839 23.1376 23.7173 22.0771C23.4186 21.3966 23.0456 20.5483 22.3157 19.79C20.3733 17.7681 18.772 17.9678 16.7642 18.2205C14.3392 18.4963 13.8567 18.0332 13.7683 17.8388C13.6552 17.5807 13.6358 17.3757 13.6075 17.0664C13.5227 16.1703 13.3477 15.2636 12.1617 14.0353C12.0628 13.9328 12.0222 13.862 12.0169 13.8797C12.0451 13.8037 12.2024 13.657 12.1706 13.6376C12.3844 13.657 12.9854 13.984 13.3442 14.1784C14.2862 14.691 15.2618 15.2177 16.2852 15.0073C18.8268 14.4842 18.8551 12.031 18.8763 10.2388C18.9063 7.80325 19.0936 6.67915 20.7692 6.13125C21.9887 5.7318 23.21 4.70671 23.7597 3.36169C25.1896 3.79825 26.5293 4.43098 27.763 5.21926C28.6308 6.55191 29.6877 10.0196 29.3536 11.0129C29.2193 11.4265 29.0373 11.8136 28.8571 12.1989C28.1183 13.7914 27.1992 15.7744 28.933 18.9735C30.43 21.7324 31.6319 22.9732 32.954 23.1252C33.0265 23.1341 33.1095 23.1394 33.2032 23.1394C33.6751 23.1394 34.3767 22.9874 35.0219 22.2698C33.9137 27.6941 30.1084 32.1409 25.0783 34.1646Z" fill="#1093FF"/>
</svg>
