<svg width="28" height="28" viewBox="0 0 28 28" fill="none" xmlns="http://www.w3.org/2000/svg">
<path d="M14 0C6.27981 0 0 6.28112 0 14C0 21.7189 6.27981 28 14 28C21.7202 28 28 21.7189 28 14C28 6.28112 21.7202 0 14 0ZM23.1723 21.7905L19.406 18.0242C20.2486 16.8964 20.7656 15.512 20.7656 14C20.7656 12.488 20.2486 11.1036 19.406 9.97578L23.1723 6.2095C24.9604 8.31145 26.0465 11.0294 26.0465 14C26.0465 16.9706 24.9604 19.6886 23.1723 21.7905ZM9.18925 14C9.18925 11.3472 11.3472 9.18925 14 9.18925C16.6528 9.18925 18.8108 11.3472 18.8108 14C18.8108 16.6528 16.6528 18.8108 14 18.8108C11.3472 18.8108 9.18925 16.6528 9.18925 14ZM21.7905 4.82903L18.0242 8.59532C16.8964 7.75271 15.512 7.23703 14 7.23703C12.488 7.23703 11.1036 7.75401 9.97578 8.59532L6.2095 4.82903C8.31275 3.03964 11.0294 1.95349 14 1.95349C16.9706 1.95349 19.6886 3.03964 21.7905 4.82903ZM4.82768 6.2095L8.59405 9.97578C7.75144 11.1036 7.23441 12.488 7.23441 14C7.23441 15.512 7.75144 16.8964 8.59405 18.0242L4.82768 21.7905C3.03959 19.6886 1.95349 16.9706 1.95349 14C1.95349 11.0294 3.03959 8.31145 4.82768 6.2095ZM6.2095 23.171L9.97578 19.4047C11.1036 20.2473 12.488 20.763 14 20.763C15.512 20.763 16.8964 20.246 18.0242 19.4047L21.7905 23.171C19.6873 24.9604 16.9706 26.0465 14 26.0465C11.0294 26.0465 8.31145 24.9604 6.2095 23.171Z" fill="#1093FF"/>
</svg>
