<svg width="29" height="30" viewBox="0 0 29 30" fill="none" xmlns="http://www.w3.org/2000/svg">
<path d="M22.2521 9.45506L22.901 8.80624C23.976 7.73125 25.7189 7.73125 26.7939 8.80624C27.8688 9.88124 27.8688 11.6241 26.7939 12.6991L26.145 13.348M22.2521 9.45506C22.2521 9.45506 22.3332 10.8338 23.5498 12.0503C24.7663 13.2669 26.145 13.348 26.145 13.348M22.2521 9.45506L16.2873 15.4199C15.8833 15.8239 15.6813 16.0259 15.5075 16.2487C15.3026 16.5114 15.1269 16.7957 14.9835 17.0965C14.862 17.3515 14.7717 17.6225 14.591 18.1646L14.0125 19.9L13.8254 20.4615M26.145 13.348L20.1802 19.3128C19.7762 19.7168 19.5741 19.9188 19.3514 20.0926C19.0887 20.2975 18.8044 20.4732 18.5036 20.6166C18.2486 20.7381 17.9776 20.8284 17.4355 21.0091L15.7001 21.5876L15.1386 21.7747M15.1386 21.7747L14.5772 21.9619C14.3104 22.0508 14.0164 21.9814 13.8175 21.7826C13.6187 21.5837 13.5493 21.2897 13.6382 21.0229L13.8254 20.4615M15.1386 21.7747L13.8254 20.4615" stroke="#1093FF" stroke-width="2"/>
<path d="M8 16.3999H11.5" stroke="#1093FF" stroke-width="2" stroke-linecap="round"/>
<path d="M8 10.8H17.1" stroke="#1093FF" stroke-width="2" stroke-linecap="round"/>
<path d="M8 22H10.1" stroke="#1093FF" stroke-width="2" stroke-linecap="round"/>
<path d="M24.5598 2.6402C22.9196 1 20.2797 1 15 1H12.2C6.92027 1 4.2804 1 2.6402 2.6402C1 4.2804 1 6.92027 1 12.2V17.8C1 23.0797 1 25.7196 2.6402 27.3598C4.2804 29 6.92027 29 12.2 29H15C20.2797 29 22.9196 29 24.5598 27.3598C25.8801 26.0395 26.1376 24.0714 26.1878 20.6" stroke="#1093FF" stroke-width="2" stroke-linecap="round"/>
</svg>
