<svg width="28" height="30" viewBox="0 0 28 30" fill="none" xmlns="http://www.w3.org/2000/svg">
<path d="M1 12.7833C1 8.3067 1 6.06839 1.52852 5.31537C2.05704 4.56235 4.16165 3.84194 8.37088 2.40111L9.17281 2.1266C11.367 1.37553 12.4641 1 13.6 1C14.7359 1 15.833 1.37553 18.0272 2.1266L18.8291 2.40111C23.0383 3.84194 25.143 4.56235 25.6715 5.31537C26.2 6.06839 26.2 8.3067 26.2 12.7833C26.2 13.4595 26.2 14.1928 26.2 14.9879C26.2 22.8812 20.2655 26.7117 16.542 28.3382C15.532 28.7794 15.027 29 13.6 29C12.173 29 11.668 28.7794 10.658 28.3382C6.93455 26.7117 1 22.8812 1 14.9879C1 14.1928 1 13.4595 1 12.7833Z" stroke="#1093FF" stroke-width="2"/>
<path d="M20.6001 15C20.6001 15.9193 20.419 16.8295 20.0673 17.6788C19.7155 18.5281 19.1999 19.2997 18.5498 19.9497C17.8998 20.5998 17.1282 21.1154 16.2789 21.4672C15.4296 21.8189 14.5194 22 13.6001 22C12.6808 22 11.7706 21.8189 10.9213 21.4672C10.072 21.1154 9.30036 20.5998 8.65035 19.9497C8.00034 19.2997 7.48472 18.5281 7.13294 17.6788C6.78116 16.8295 6.6001 15.9193 6.6001 15C6.6001 14.0807 6.78116 13.1705 7.13294 12.3212C7.48472 11.4719 8.00034 10.7003 8.65035 10.0503C9.30036 9.40024 10.072 8.88463 10.9213 8.53284C11.7706 8.18106 12.6808 8 13.6001 8C14.5194 8 15.4296 8.18106 16.2789 8.53284C17.1282 8.88463 17.8998 9.40024 18.5498 10.0503C19.1999 10.7003 19.7155 11.4719 20.0673 12.3212C20.419 13.1705 20.6001 14.0807 20.6001 15L20.6001 15Z" stroke="#1093FF" stroke-width="2"/>
<path d="M16.1867 17.6788C16.3274 16.8295 16.3998 15.9193 16.3998 15C16.3998 14.0807 16.3274 13.1705 16.1867 12.3212C16.046 11.4719 15.8397 10.7003 15.5797 10.0503C15.3197 9.40024 15.011 8.88463 14.6713 8.53284C14.3316 8.18106 13.9675 8 13.5998 8C13.2321 8 12.868 8.18106 12.5283 8.53284C12.1886 8.88463 11.8799 9.40024 11.6199 10.0503C11.3599 10.7003 11.1537 11.4719 11.0129 12.3212C10.8722 13.1705 10.7998 14.0807 10.7998 15C10.7998 15.9193 10.8722 16.8295 11.0129 17.6788C11.1537 18.5281 11.3599 19.2997 11.6199 19.9497C11.8799 20.5998 12.1886 21.1154 12.5283 21.4672C12.868 21.8189 13.2321 22 13.5998 22C13.9675 22 14.3316 21.8189 14.6713 21.4672C15.011 21.1154 15.3197 20.5998 15.5797 19.9497C15.8397 19.2997 16.046 18.5281 16.1867 17.6788Z" stroke="#1093FF" stroke-width="2"/>
<path d="M6.6001 15H20.6001" stroke="#1093FF" stroke-width="2" stroke-linecap="round"/>
</svg>
