<svg width="37" height="41" viewBox="0 0 37 41" fill="none" xmlns="http://www.w3.org/2000/svg">
<path d="M2 17.5708C2 11.6553 2 8.69752 2.69432 7.70246C3.38864 6.7074 6.15347 5.75542 11.6831 3.85147L12.7366 3.48873C15.6191 2.49624 17.0603 2 18.5526 2C20.0449 2 21.4862 2.49624 24.3686 3.48873L25.4221 3.85147C30.9518 5.75542 33.7166 6.7074 34.4109 7.70246C35.1053 8.69752 35.1053 11.6553 35.1053 17.5708C35.1053 18.4643 35.1053 19.4333 35.1053 20.484C35.1053 30.9145 27.309 35.9762 22.4176 38.1255C21.0907 38.7085 20.4272 39 18.5526 39C16.678 39 16.0146 38.7085 14.6877 38.1255C9.79622 35.9762 2 30.9145 2 20.484C2 19.4333 2 18.4643 2 17.5708Z" stroke="#1093FF" stroke-width="3"/>
<path d="M16.3351 14.2258C17.3218 12.5665 17.8151 11.7368 18.5527 11.7368C19.2902 11.7368 19.7835 12.5665 20.7702 14.2258L21.0255 14.6551C21.3058 15.1267 21.446 15.3624 21.6646 15.518C21.8832 15.6735 22.1554 15.7313 22.6999 15.8468L23.1955 15.9519C25.1115 16.3583 26.0695 16.5615 26.2974 17.2486C26.5253 17.9358 25.8722 18.6517 24.5661 20.0837L24.2281 20.4541C23.857 20.861 23.6714 21.0645 23.5879 21.3162C23.5044 21.5679 23.5324 21.8394 23.5886 22.3823L23.6397 22.8765C23.8371 24.7871 23.9359 25.7423 23.3392 26.167C22.7425 26.5916 21.8455 26.2045 20.0516 25.4301L19.5875 25.2298C19.0777 25.0097 18.8228 24.8997 18.5527 24.8997C18.2825 24.8997 18.0276 25.0097 17.5178 25.2298L17.0537 25.4301C15.2598 26.2045 14.3628 26.5916 13.7661 26.167C13.1694 25.7423 13.2682 24.7871 13.4657 22.8765L13.5168 22.3823C13.5729 21.8394 13.6009 21.5679 13.5174 21.3162C13.4339 21.0645 13.2484 20.861 12.8772 20.4541L12.5393 20.0837C11.2331 18.6517 10.58 17.9358 10.8079 17.2486C11.0358 16.5615 11.9938 16.3583 13.9098 15.9519L14.4055 15.8468C14.9499 15.7313 15.2221 15.6735 15.4407 15.518C15.6593 15.3624 15.7995 15.1267 16.0799 14.6551L16.3351 14.2258Z" stroke="#1093FF" stroke-width="3"/>
</svg>
