<svg width="34" height="42" viewBox="0 0 34 42" fill="none" xmlns="http://www.w3.org/2000/svg">
<path d="M5.1721 17.0373L10.9902 9.16552C14.751 4.07722 16.6313 1.53307 18.3857 2.07071C20.1401 2.60834 20.1401 5.72873 20.1401 11.9695V12.558C20.1401 14.8089 20.1401 15.9343 20.8593 16.6403L20.8974 16.6769C21.6321 17.3679 22.8035 17.3679 25.1462 17.3679C29.3621 17.3679 31.4701 17.3679 32.1825 18.6465C32.1943 18.6677 32.2057 18.689 32.2169 18.7105C32.8894 20.0089 31.6689 21.6602 29.2278 24.9628L23.4098 32.8345C19.6489 37.9228 17.7685 40.4669 16.0141 39.9293C14.2597 39.3916 14.2598 36.2712 14.2598 30.0304L14.2599 29.4422C14.2599 27.1912 14.2599 26.0658 13.5407 25.3598L13.5026 25.3232C12.7679 24.6322 11.5965 24.6322 9.25373 24.6322C5.03788 24.6322 2.92995 24.6322 2.21754 23.3536C2.20575 23.3324 2.19428 23.3111 2.18315 23.2896C1.51064 21.9912 2.73113 20.3399 5.1721 17.0373Z" stroke="#1093FF" stroke-width="3"/>
</svg>
