<svg width="28" height="28" viewBox="0 0 28 28" fill="none" xmlns="http://www.w3.org/2000/svg">
<path d="M27.313 5.78885C27.178 5.45428 26.8837 5.21016 26.5304 5.13692C26.1758 5.06369 25.8096 5.17426 25.5554 5.42842L22.4222 8.54588C22.0101 8.95656 21.3395 8.95655 20.926 8.54443L19.4541 7.0726C19.042 6.66049 19.0406 5.98847 19.4527 5.57492L22.5701 2.44313C22.8243 2.18754 22.9334 1.82135 22.8616 1.46811C22.7898 1.11486 22.5443 0.820521 22.2097 0.685543C19.4498 -0.430182 16.3755 -0.174596 13.7721 1.3834C12.5918 2.09132 11.5923 3.06344 10.8844 4.19209C10.8844 4.19209 10.883 4.19355 10.883 4.19498L10.7652 4.3888C9.59925 6.31727 9.14837 8.48127 9.46284 10.651C9.50735 10.9583 9.39392 11.2827 9.15986 11.5182L1.51635 19.1617C0.538477 20.1396 0 21.4392 0 22.8234C0 24.2077 0.538477 25.5058 1.51635 26.4836C2.49423 27.4615 3.79376 28 5.178 28C6.56081 28 7.86033 27.4615 8.83821 26.4836L16.4817 18.8401C16.7158 18.606 17.0417 18.4926 17.349 18.5371C19.5144 18.8516 21.6741 18.4065 23.5939 17.2505C24.8331 16.5053 25.8742 15.4642 26.5994 14.2451C28.1717 11.6403 28.433 8.55878 27.313 5.78885ZM24.7513 13.1366C24.2042 14.057 23.4202 14.841 22.4825 15.4025C20.6029 16.5354 18.8209 16.5713 17.6592 16.4033C16.677 16.2597 15.6718 16.6015 14.9596 17.3152L7.31612 24.9587C6.17167 26.1017 4.18146 26.1002 3.03989 24.9587C2.46982 24.3872 2.15391 23.6275 2.15391 22.8205C2.15391 22.0135 2.46839 21.2539 3.03989 20.6824L10.6848 13.0389C11.397 12.3253 11.7374 11.3172 11.5952 10.3408C11.354 8.67224 11.7044 6.99936 12.6147 5.49306L12.7109 5.33508C13.2394 4.49362 13.9904 3.76561 14.8792 3.23144C16.7086 2.13581 18.426 2.02812 19.7442 2.22915L17.9248 4.05567C16.6784 5.30925 16.6799 7.34544 17.9306 8.59614L19.4024 10.0665C20.6531 11.3187 22.6893 11.3201 23.9429 10.0723L25.768 8.25582C26.0106 9.91433 25.6646 11.6245 24.7513 13.1366ZM5.4135 21.1764H5.39913C4.60649 21.1764 3.97037 21.8197 3.97037 22.6123C3.97037 23.405 4.62086 24.0483 5.4135 24.0483C6.20614 24.0483 6.84944 23.405 6.84944 22.6123C6.84944 21.8197 6.20614 21.1764 5.4135 21.1764Z" fill="#1093FF"/>
</svg>
