<svg width="32" height="30" viewBox="0 0 32 30" fill="none" xmlns="http://www.w3.org/2000/svg">
<path d="M6.89453 11.3157H12.7893" stroke="#1093FF" stroke-width="2" stroke-linecap="round" stroke-linejoin="round"/>
<path d="M28.7542 12.7896H24.9188C22.2893 12.7896 20.1577 14.7689 20.1577 17.2106C20.1577 19.6523 22.2893 21.6317 24.9188 21.6317H28.7542C28.877 21.6317 28.9384 21.6317 28.9903 21.6285C29.785 21.5801 30.418 20.9923 30.4701 20.2544C30.4735 20.2062 30.4735 20.1492 30.4735 20.0352V14.386C30.4735 14.272 30.4735 14.215 30.4701 14.1669C30.418 13.4289 29.785 12.8411 28.9903 12.7927C28.9384 12.7896 28.877 12.7896 28.7542 12.7896Z" stroke="#1093FF" stroke-width="2"/>
<circle cx="24.5792" cy="17.2105" r="1.47368" fill="#1093FF"/>
<path d="M28.9485 12.7896C28.8339 10.0304 28.4645 8.33866 27.2735 7.14767C25.5469 5.42114 22.7681 5.42114 17.2105 5.42114H12.7895C7.23186 5.42114 4.45306 5.42114 2.72653 7.14767C1 8.8742 1 11.653 1 17.2106C1 22.7682 1 25.547 2.72653 27.2736C4.45306 29.0001 7.23186 29.0001 12.7895 29.0001H17.2105C22.7681 29.0001 25.5469 29.0001 27.2735 27.2736C28.4645 26.0826 28.8339 24.3909 28.9485 21.6317" stroke="#1093FF" stroke-width="2"/>
<path d="M6.89453 5.42105L12.3995 1.77093C13.9497 0.743022 16.0499 0.743022 17.6001 1.77093L23.1051 5.42105" stroke="#1093FF" stroke-width="2" stroke-linecap="round"/>
</svg>
