<svg width="28" height="28" viewBox="0 0 28 28" fill="none" xmlns="http://www.w3.org/2000/svg">
<path d="M8.69577 17.6092L9.47241 16.8303L8.69577 17.6092ZM8.69577 11.0369L7.91912 10.2579L8.69577 11.0369ZM16.9359 19.2523L16.1592 18.4733L16.9359 19.2523ZM10.3438 19.2523L9.56714 20.0313L10.3438 19.2523ZM13.6398 21.576V22.676V21.576ZM23.9521 12.2572L24.7288 13.0361L23.9521 12.2572ZM15.712 4.04176L16.4886 4.82074L15.712 4.04176ZM12.7685 16.7452C13.1987 16.3162 13.1997 15.6197 12.7708 15.1895C12.3419 14.7593 11.6454 14.7583 11.2152 15.1872L12.7685 16.7452ZM6.28799 13.4375L7.06581 12.6597L7.06464 12.6585L6.28799 13.4375ZM11.3953 8.67453C11.9061 9.00332 12.5868 8.85573 12.9156 8.34488C13.2443 7.83403 13.0968 7.15336 12.5859 6.82457L11.3953 8.67453ZM11.2355 7.26358L11.8309 6.33861H11.8309L11.2355 7.26358ZM8.15197 5.68136L8.31279 4.59318L8.15197 5.68136ZM2.27017 9.22789L3.04681 10.0069H3.04681L2.27017 9.22789ZM6.00729 5.95545L6.42885 6.97146V6.97146L6.00729 5.95545ZM3.03577 10.9112L2.63055 11.9339H2.63055L3.03577 10.9112ZM3.18363 10.9704L3.60266 9.95335H3.60266L3.18363 10.9704ZM5.13511 12.2881L5.91175 11.5091L5.13511 12.2881ZM5.02207 12.1761L4.25606 12.9656L5.02207 12.1761ZM2.58139 10.7312L2.98661 9.70855L2.98661 9.70855L2.58139 10.7312ZM14.6 21.8L13.8222 22.5778C13.8392 22.5948 13.8567 22.6113 13.8748 22.6271L14.6 21.8ZM21.1565 15.3695C20.8263 14.8596 20.1452 14.7139 19.6353 15.0441C19.1253 15.3742 18.9796 16.0553 19.3098 16.5653L21.1565 15.3695ZM20.7206 16.7202L19.7972 17.318V17.318L20.7206 16.7202ZM22.3076 19.7945L23.3956 19.6327L22.3076 19.7945ZM18.7504 25.6586L19.527 26.4376V26.4376L18.7504 25.6586ZM22.0327 21.9327L23.0478 22.3565L22.0327 21.9327ZM17.2988 25.4896L18.3206 25.0823L17.2988 25.4896ZM16.7298 24.1793L17.6943 23.6503L16.7298 24.1793ZM15.2275 22.3501L16.0041 21.5712L15.9791 21.5463L15.9526 21.523L15.2275 22.3501ZM16.209 23.3899L17.0747 22.7114L16.209 23.3899ZM18.6495 25.7592L17.8729 24.9802L18.6495 25.7592ZM6.49947 13.649L7.52005 14.0594L6.49947 13.649ZM23.1755 11.4782L16.1592 18.4733L17.7125 20.0313L24.7288 13.0361L23.1755 11.4782ZM11.1204 18.4733L9.47241 16.8303L7.91912 18.3882L9.56714 20.0313L11.1204 18.4733ZM9.47241 11.8159L16.4886 4.82074L14.9353 3.26277L7.91912 10.2579L9.47241 11.8159ZM20.6561 3.1H21.3387V0.9H20.6561V3.1ZM24.9 6.64733V7.32792H27.1V6.64733H24.9ZM21.3387 3.1C22.4684 3.1 23.2053 3.10232 23.7499 3.17532C24.2632 3.24413 24.438 3.35714 24.5407 3.45957L26.094 1.9016C25.5141 1.32345 24.7982 1.09617 24.0422 0.994824C23.3175 0.897678 22.4064 0.9 21.3387 0.9V3.1ZM27.1 6.64733C27.1 5.58313 27.1024 4.674 27.0048 3.95063C26.9029 3.19528 26.6744 2.48021 26.094 1.9016L24.5407 3.45957C24.643 3.56155 24.7557 3.73446 24.8245 4.24464C24.8977 4.78681 24.9 5.52076 24.9 6.64733H27.1ZM9.47241 16.8303C8.67348 16.0337 8.15436 15.5129 7.82133 15.0777C7.50763 14.6678 7.46511 14.4661 7.46511 14.3231H5.26511C5.26511 15.1426 5.61104 15.8094 6.07422 16.4147C6.51808 16.9947 7.16428 17.6357 7.91912 18.3882L9.47241 16.8303ZM9.56714 20.0313C10.322 20.7839 10.9649 21.4281 11.5465 21.8706C12.1536 22.3324 12.8209 22.676 13.6398 22.676V20.476C13.4933 20.476 13.2895 20.4323 12.8784 20.1196C12.4418 19.7875 11.9193 19.2698 11.1204 18.4733L9.56714 20.0313ZM24.7288 13.0361C25.6754 12.0923 26.38 11.4174 26.7497 10.5275L24.7181 9.68346C24.5556 10.0746 24.2497 10.4072 23.1755 11.4782L24.7288 13.0361ZM24.9 7.32792C24.9 8.84258 24.8804 9.29265 24.7181 9.68346L26.7497 10.5275C27.1196 9.63727 27.1 8.66265 27.1 7.32792H24.9ZM16.4886 4.82074C17.5625 3.75015 17.8965 3.44454 18.29 3.28203L17.4502 1.2486C16.5588 1.61673 15.8824 2.31854 14.9353 3.26277L16.4886 4.82074ZM20.6561 0.9C19.3166 0.9 18.3413 0.880628 17.4502 1.2486L18.29 3.28203C18.6839 3.11937 19.1375 3.1 20.6561 3.1V0.9ZM10.2964 19.2098L12.7685 16.7452L11.2152 15.1872L8.74313 17.6518L10.2964 19.2098ZM12.5859 6.82457L11.8309 6.33861L10.6402 8.18856L11.3953 8.67453L12.5859 6.82457ZM11.8309 6.33861C11.0877 5.86032 10.4783 5.46719 9.95189 5.18352C9.41162 4.89239 8.89273 4.67889 8.31279 4.59318L7.99116 6.76954C8.22278 6.80377 8.48833 6.89395 8.90829 7.12024C9.34207 7.35398 9.86866 7.69199 10.6402 8.18856L11.8309 6.33861ZM3.04681 10.0069C3.72327 9.33247 4.4447 8.61351 5.09208 8.02294C5.41548 7.72792 5.70727 7.47706 5.95531 7.28589C6.22038 7.08158 6.37339 6.99447 6.42885 6.97146L5.58573 4.93943C5.25172 5.07802 4.91089 5.31324 4.61227 5.54341C4.29661 5.7867 3.95487 6.08247 3.60939 6.39763C2.91902 7.02742 2.16137 7.78308 1.49353 8.44889L3.04681 10.0069ZM8.31279 4.59318C7.39431 4.45745 6.45126 4.58031 5.58573 4.93943L6.42885 6.97146C6.93718 6.76055 7.47826 6.69375 7.99116 6.76954L8.31279 4.59318ZM2.17618 11.7538L2.63055 11.9339L3.44099 9.8886L2.98661 9.70855L2.17618 11.7538ZM4.35846 13.067L5.51134 14.2165L7.06464 12.6585L5.91175 11.5091L4.35846 13.067ZM2.63055 11.9339C2.70738 11.9643 2.7365 11.9759 2.7646 11.9875L3.60266 9.95335C3.55765 9.9348 3.51256 9.91696 3.44098 9.8886L2.63055 11.9339ZM5.91175 11.5091C5.8573 11.4548 5.823 11.4206 5.78807 11.3867L4.25606 12.9656C4.27783 12.9867 4.29999 13.0088 4.35846 13.067L5.91175 11.5091ZM2.7646 11.9875C3.31975 12.2162 3.8259 12.5482 4.25606 12.9656L5.78807 11.3867C5.15736 10.7747 4.41564 10.2883 3.60266 9.95335L2.7646 11.9875ZM1.49353 8.44889C0.462726 9.47658 0.826425 11.219 2.17618 11.7538L2.98661 9.70855C3.10525 9.75556 3.14085 9.91313 3.04681 10.0069L1.49353 8.44889ZM19.3098 16.5653L19.7972 17.318L21.6439 16.1223L21.1565 15.3695L19.3098 16.5653ZM17.9737 24.8797L17.8729 24.9802L19.4262 26.5382L19.527 26.4376L17.9737 24.8797ZM19.7972 17.318C20.2953 18.0873 20.6343 18.6122 20.8686 19.0444C21.0954 19.4629 21.1854 19.7268 21.2195 19.9563L23.3956 19.6327C23.3094 19.0531 23.0948 18.5348 22.8027 17.996C22.518 17.4709 22.1236 16.8632 21.6439 16.1223L19.7972 17.318ZM19.527 26.4376C20.1948 25.7718 20.9528 25.0164 21.5845 24.3281C21.9006 23.9837 22.1973 23.6429 22.4414 23.3281C22.6722 23.0305 22.9084 22.6903 23.0478 22.3565L21.0175 21.509C20.9948 21.5635 20.9078 21.7157 20.7028 21.98C20.5111 22.2272 20.2595 22.5181 19.9636 22.8406C19.3713 23.486 18.6502 24.2052 17.9737 24.8797L19.527 26.4376ZM21.2195 19.9563C21.2953 20.4657 21.2286 21.0034 21.0175 21.509L23.0478 22.3565C23.4085 21.4923 23.532 20.5503 23.3956 19.6327L21.2195 19.9563ZM15.9526 21.523L15.3252 20.9729L13.8748 22.6271L14.5023 23.1772L15.9526 21.523ZM18.3206 25.0823C18.0647 24.4403 17.905 24.0345 17.6943 23.6503L15.7654 24.7083C15.8965 24.9474 16.0021 25.2073 16.277 25.8969L18.3206 25.0823ZM14.4508 23.1291C14.9771 23.6538 15.1748 23.8536 15.3432 24.0684L17.0747 22.7114C16.8044 22.3664 16.4941 22.0596 16.0041 21.5712L14.4508 23.1291ZM17.6943 23.6503C17.5137 23.3211 17.3065 23.007 17.0747 22.7114L15.3432 24.0684C15.5011 24.27 15.6423 24.484 15.7654 24.7083L17.6943 23.6503ZM19.4553 10.2579C18.9744 10.7374 18.1934 10.7374 17.7125 10.2579L16.1592 11.8159C17.4987 13.1514 19.6691 13.1514 21.0086 11.8159L19.4553 10.2579ZM17.7125 10.2579C17.2335 9.78034 17.2335 9.00737 17.7125 8.52976L16.1592 6.97179C14.8179 8.30908 14.8179 10.4786 16.1592 11.8159L17.7125 10.2579ZM17.7125 8.52976C18.1934 8.05033 18.9744 8.05033 19.4553 8.52976L21.0086 6.97179C19.6691 5.63632 17.4987 5.63632 16.1592 6.97179L17.7125 8.52976ZM19.4553 8.52976C19.9343 9.00737 19.9343 9.78034 19.4553 10.2579L21.0086 11.8159C22.3499 10.4786 22.3499 8.30908 21.0086 6.97179L19.4553 8.52976ZM17.8729 24.9802C17.9451 24.9082 18.0425 24.8905 18.1142 24.9048C18.1863 24.9192 18.2783 24.976 18.3206 25.0823L16.277 25.8969C16.7921 27.1891 18.463 27.4985 19.4262 26.5382L17.8729 24.9802ZM16.1592 18.4733C15.5438 19.087 15.0878 19.5406 14.6978 19.8775C14.3059 20.2159 14.0592 20.3652 13.8823 20.4303L14.6428 22.4948C15.1899 22.2932 15.6745 21.9408 16.1357 21.5425C16.5988 21.1426 17.1175 20.6245 17.7125 20.0313L16.1592 18.4733ZM13.8823 20.4303C13.7924 20.4635 13.7168 20.476 13.6398 20.476V22.676C13.9895 22.676 14.322 22.6129 14.6428 22.4948L13.8823 20.4303ZM15.3778 21.0222L15.0404 20.6847L13.4847 22.2404L13.8222 22.5778L15.3778 21.0222ZM7.91912 10.2579C7.33827 10.8371 6.82979 11.3432 6.43385 11.7951C6.03988 12.2447 5.68979 12.7141 5.4789 13.2386L7.52005 14.0594C7.59265 13.8788 7.75036 13.6308 8.08849 13.245C8.42464 12.8613 8.87256 12.414 9.47241 11.8159L7.91912 10.2579ZM5.4789 13.2386C5.34056 13.5826 5.26511 13.9418 5.26511 14.3231H7.46511C7.46511 14.2422 7.47924 14.1609 7.52005 14.0594L5.4789 13.2386ZM5.51017 14.2153L5.72166 14.4268L7.27729 12.8712L7.0658 12.6597L5.51017 14.2153Z" fill="#1093FF"/>
</svg>
