<svg width="30" height="26" viewBox="0 0 30 26" fill="none" xmlns="http://www.w3.org/2000/svg">
<path d="M18.8235 3.29541C22.8537 3.30721 24.9904 3.43459 26.3661 4.81036C27.8823 6.3265 27.8823 8.76671 27.8823 13.6471C27.8823 18.5275 27.8823 20.9677 26.3661 22.4839C24.85 24 22.4098 24 17.5294 24H12.3529C7.4725 24 5.0323 24 3.51615 22.4839C2 20.9677 2 18.5275 2 13.6471C2 8.76671 2 6.3265 3.51615 4.81036C4.89191 3.43459 7.02853 3.30721 11.0588 3.29541" stroke="#1093FF" stroke-width="2.5" stroke-linecap="round"/>
<path d="M14.9407 4.58823L14.9407 2" stroke="#1093FF" stroke-width="2.5" stroke-linecap="round"/>
<path d="M9.76489 11.7056H20.1178" stroke="#1093FF" stroke-width="2.5" stroke-linecap="round"/>
<path d="M9.76489 16.2351H16.8825" stroke="#1093FF" stroke-width="2.5" stroke-linecap="round"/>
</svg>
