<svg width="28" height="28" viewBox="0 0 28 28" fill="none" xmlns="http://www.w3.org/2000/svg">
<path d="M11.5977 6.80079C11.5803 8.84866 11.4666 9.97761 10.7221 10.7221C9.97761 11.4666 8.84866 11.5803 6.80079 11.5977" stroke="#1093FF" stroke-width="2.2" stroke-linecap="round"/>
<path d="M11.5977 21.1968C11.5803 19.1489 11.4666 18.0199 10.7221 17.2755C9.97761 16.531 8.84866 16.4173 6.80079 16.3999" stroke="#1093FF" stroke-width="2.2" stroke-linecap="round"/>
<path d="M16.3999 6.80079C16.4173 8.84866 16.531 9.97761 17.2755 10.7221C18.0199 11.4666 19.1489 11.5803 21.1968 11.5977" stroke="#1093FF" stroke-width="2.2" stroke-linecap="round"/>
<path d="M16.3999 21.1968C16.4173 19.1489 16.531 18.0199 17.2755 17.2755C18.0199 16.531 19.1489 16.4173 21.1968 16.3999" stroke="#1093FF" stroke-width="2.2" stroke-linecap="round"/>
<path d="M2 14C2 8.34315 2 5.51472 3.75736 3.75736C5.51472 2 8.34315 2 14 2C19.6569 2 22.4853 2 24.2426 3.75736C26 5.51472 26 8.34315 26 14C26 19.6569 26 22.4853 24.2426 24.2426C22.4853 26 19.6569 26 14 26C8.34315 26 5.51472 26 3.75736 24.2426C2 22.4853 2 19.6569 2 14Z" stroke="#1093FF" stroke-width="2.2"/>
</svg>
