<svg width="25" height="28" viewBox="0 0 25 28" fill="none" xmlns="http://www.w3.org/2000/svg">
<path d="M2 12.1C2 8.26289 2 6.34433 2.45302 5.69889C2.90604 5.05345 4.70999 4.43595 8.31789 3.20095L9.00527 2.96566C10.886 2.32189 11.8263 2 12.8 2C13.7737 2 14.714 2.32189 16.5947 2.96566L17.2821 3.20095C20.89 4.43595 22.694 5.05345 23.147 5.69889C23.6 6.34433 23.6 8.26289 23.6 12.1C23.6 12.6796 23.6 13.3081 23.6 13.9896C23.6 20.7553 18.5132 24.0386 15.3217 25.4327C14.456 25.8109 14.0231 26 12.8 26C11.5769 26 11.144 25.8109 10.2783 25.4327C7.08675 24.0386 2 20.7553 2 13.9896C2 13.3081 2 12.6796 2 12.1Z" stroke="#1093FF" stroke-width="2.2"/>
<path d="M11.4335 9.63602C12.0415 8.54534 12.3455 8 12.8 8C13.2545 8 13.5585 8.54534 14.1665 9.63602L14.3238 9.91819C14.4965 10.2281 14.5829 10.3831 14.7176 10.4853C14.8523 10.5876 15.0201 10.6256 15.3556 10.7015L15.661 10.7706C16.8417 11.0377 17.432 11.1713 17.5724 11.6229C17.7129 12.0745 17.3104 12.5452 16.5056 13.4864L16.2973 13.7299C16.0686 13.9973 15.9542 14.1311 15.9028 14.2965C15.8513 14.4619 15.8686 14.6404 15.9032 14.9972L15.9347 15.3221C16.0564 16.5779 16.1172 17.2058 15.7495 17.4849C15.3818 17.764 14.8291 17.5095 13.7237 17.0006L13.4377 16.8689C13.1236 16.7242 12.9665 16.6519 12.8 16.6519C12.6335 16.6519 12.4764 16.7242 12.1623 16.8689L11.8763 17.0006C10.7709 17.5095 10.2182 17.764 9.85047 17.4849C9.48278 17.2058 9.54362 16.5779 9.66531 15.3221L9.69679 14.9972C9.73137 14.6404 9.74866 14.4619 9.69721 14.2965C9.64577 14.1311 9.5314 13.9973 9.30268 13.7299L9.09445 13.4864C8.28956 12.5452 7.88712 12.0745 8.02756 11.6229C8.16801 11.1713 8.75833 11.0377 9.93898 10.7706L10.2444 10.7015C10.5799 10.6256 10.7477 10.5876 10.8824 10.4853C11.0171 10.3831 11.1035 10.2281 11.2762 9.91819L11.4335 9.63602Z" stroke="#1093FF" stroke-width="2.2"/>
</svg>
