<svg width="20px" height="20px" viewBox="0 0 32 32" fill="none" xmlns="http://www.w3.org/2000/svg">
<path fill-rule="evenodd" clip-rule="evenodd" d="M16 32C7.16344 32 0 24.8366 0 16C0 7.16344 7.16344 0 16 0C24.8366 0 32 7.16344 32 16C32 24.8366 24.8366 32 16 32ZM19.2485 10.3515C18.7799 9.88284 18.0201 9.88284 17.5515 10.3515L12.7515 15.1515C12.2828 15.6201 12.2828 16.3799 12.7515 16.8485L17.5515 21.6485C18.0201 22.1172 18.7799 22.1172 19.2485 21.6485C19.7172 21.1799 19.7172 20.4201 19.2485 19.9515L15.2971 16L19.2485 12.0485C19.7172 11.5799 19.7172 10.8201 19.2485 10.3515Z" fill="#9F9F9F"/>
</svg>
