<svg width="21" height="20" viewBox="0 0 21 20" fill="none" xmlns="http://www.w3.org/2000/svg">
<path d="M20.427 16.3603L19.9111 13.9344V13.9333V13.9323L17.8481 4.22636C17.8481 4.22536 17.8481 4.22431 17.8481 4.22331C17.8481 4.22231 17.8472 4.22125 17.8472 4.22025L17.332 1.79533C17.186 1.11033 16.8771 0.60929 16.4111 0.30729C15.9451 0.00528982 15.364 -0.0756721 14.677 0.0713279L12.7361 0.484292C12.1111 0.617292 11.645 0.901327 11.342 1.29533C11.037 0.471327 10.302 0.00028298 9.25 0.00028298H7.25C6.629 0.00028298 6.127 0.172259 5.75 0.475259C5.373 0.172259 4.871 0.00028298 4.25 0.00028298H2.25C0.841 0.00028298 0 0.841283 0 2.25028V17.2503C0 18.6593 0.841 19.5003 2.25 19.5003H4.25C4.871 19.5003 5.373 19.3283 5.75 19.0253C6.127 19.3283 6.629 19.5003 7.25 19.5003H9.25C10.659 19.5003 11.5 18.6593 11.5 17.2503V5.44035L13.5911 15.2743C13.5911 15.2753 13.5911 15.2753 13.5911 15.2763C13.5911 15.2773 13.592 15.2774 13.592 15.2784L14.1082 17.7033C14.2542 18.3883 14.5631 18.8893 15.0291 19.1913C15.3441 19.3963 15.7131 19.4983 16.1311 19.4983C16.3301 19.4983 16.5422 19.4753 16.7642 19.4273L18.7051 19.0143C19.3911 18.8683 19.8921 18.5583 20.1931 18.0933C20.4931 17.6283 20.573 17.0443 20.427 16.3603ZM1.49805 5.49931H4.99805V13.9993H1.49805V5.49931ZM6.49805 5.49931H9.99805V13.9993H6.49805V5.49931ZM7.24805 1.49931H9.24805C9.83705 1.49931 9.99805 1.66031 9.99805 2.24931V3.99931H6.49805V2.24931C6.49805 1.66031 6.65905 1.49931 7.24805 1.49931ZM2.24805 1.49931H4.24805C4.83705 1.49931 4.99805 1.66031 4.99805 2.24931V3.99931H1.49805V2.24931C1.49805 1.66031 1.65905 1.49931 2.24805 1.49931ZM4.24805 17.9993H2.24805C1.65905 17.9993 1.49805 17.8383 1.49805 17.2493V15.4993H4.99805V17.2493C4.99805 17.8383 4.83705 17.9993 4.24805 17.9993ZM9.24805 17.9993H7.24805C6.65905 17.9993 6.49805 17.8383 6.49805 17.2493V15.4993H9.99805V17.2493C9.99805 17.8383 9.83705 17.9993 9.24805 17.9993ZM13.147 5.98734L16.5361 5.26725L18.2881 13.5103L14.9001 14.2303L13.147 5.98734ZM13.0461 1.95036L14.988 1.53727C15.085 1.51627 15.2001 1.49931 15.3081 1.49931C15.4161 1.49931 15.518 1.51625 15.592 1.56425C15.741 1.66125 15.822 1.91236 15.863 2.10636L16.2231 3.80033L12.834 4.5203L12.4741 2.82633C12.3551 2.25933 12.4771 2.07036 13.0461 1.95036ZM18.9331 17.2773C18.8361 17.4263 18.5851 17.5063 18.3921 17.5483C18.3911 17.5483 18.3911 17.5483 18.3911 17.5483L16.449 17.9613C16.256 18.0023 15.993 18.0304 15.845 17.9344C15.696 17.8374 15.615 17.5863 15.574 17.3923L15.2141 15.6983L18.6021 14.9783L18.9622 16.6723C19.0012 16.8663 19.0301 17.1273 18.9331 17.2773Z" fill="white"/>
</svg>
