<svg width="21" height="20" viewBox="0 0 21 20" fill="none" xmlns="http://www.w3.org/2000/svg">
<path d="M17.75 19.5H14.25C13.561 19.5 13 18.939 13 18.25V16.75C13 16.061 12.439 15.5 11.75 15.5C11.061 15.5 10.5 16.061 10.5 16.75V18.25C10.5 18.939 9.939 19.5 9.25 19.5H6.75C5.233 19.5 4 18.266 4 16.75V14.5H2.75C1.233 14.5 0 13.266 0 11.75C0 10.234 1.233 9 2.75 9H4V6.75C4 5.234 5.233 4 6.75 4H9V2.75C9 1.234 10.233 0 11.75 0C13.267 0 14.5 1.234 14.5 2.75V4H17.75C19.267 4 20.5 5.234 20.5 6.75V9.25C20.5 9.939 19.939 10.5 19.25 10.5H17.75C17.061 10.5 16.5 11.061 16.5 11.75C16.5 12.439 17.061 13 17.75 13H19.25C19.939 13 20.5 13.561 20.5 14.25V16.75C20.5 18.266 19.267 19.5 17.75 19.5ZM14.5 18H17.75C18.439 18 19 17.439 19 16.75V14.5H17.75C16.233 14.5 15 13.266 15 11.75C15 10.234 16.233 9 17.75 9H19V6.75C19 6.061 18.439 5.5 17.75 5.5H14.25C13.561 5.5 13 4.939 13 4.25V2.75C13 2.061 12.439 1.5 11.75 1.5C11.061 1.5 10.5 2.061 10.5 2.75V4.25C10.5 4.939 9.939 5.5 9.25 5.5H6.75C6.061 5.5 5.5 6.061 5.5 6.75V9.25C5.5 9.939 4.939 10.5 4.25 10.5H2.75C2.061 10.5 1.5 11.061 1.5 11.75C1.5 12.439 2.061 13 2.75 13H4.25C4.939 13 5.5 13.561 5.5 14.25V16.75C5.5 17.439 6.061 18 6.75 18H9V16.75C9 15.234 10.233 14 11.75 14C13.267 14 14.5 15.234 14.5 16.75V18Z" fill="white"/>
</svg>
