<svg width="20px" height="20px" viewBox="0 0 32 32" fill="none" xmlns="http://www.w3.org/2000/svg">
<path fill-rule="evenodd" clip-rule="evenodd" d="M16 32C24.8366 32 32 24.8366 32 16C32 7.16344 24.8366 0 16 0C7.16344 0 0 7.16344 0 16C0 24.8366 7.16344 32 16 32ZM12.7515 10.3515C13.2201 9.88284 13.9799 9.88284 14.4485 10.3515L19.2485 15.1515C19.7172 15.6201 19.7172 16.3799 19.2485 16.8485L14.4485 21.6485C13.9799 22.1172 13.2201 22.1172 12.7515 21.6485C12.2828 21.1799 12.2828 20.4201 12.7515 19.9515L16.7029 16L12.7515 12.0485C12.2828 11.5799 12.2828 10.8201 12.7515 10.3515Z" fill="#9F9F9F"/>
</svg>
