<svg width="45" height="46" viewBox="0 0 45 46" fill="none" xmlns="http://www.w3.org/2000/svg">
<path d="M29.0625 14.3748C29.0625 18.0797 26.1244 21.0832 22.5 21.0832C18.8756 21.0832 15.9375 18.0797 15.9375 14.3748C15.9375 10.6699 18.8756 7.6665 22.5 7.6665C26.1244 7.6665 29.0625 10.6699 29.0625 14.3748Z" fill="#1093FF"/>
<path d="M33.75 31.6248C33.75 35.3297 28.7132 38.3332 22.5 38.3332C16.2868 38.3332 11.25 35.3297 11.25 31.6248C11.25 27.9199 16.2868 24.9165 22.5 24.9165C28.7132 24.9165 33.75 27.9199 33.75 31.6248Z" fill="#1093FF"/>
<path d="M13.3538 9.5835C13.6866 9.5835 14.0114 9.61687 14.3251 9.68041C13.5609 11.0679 13.125 12.6695 13.125 14.3752C13.125 16.0393 13.54 17.6044 14.2699 18.9682C13.9733 19.0247 13.6671 19.0543 13.3538 19.0543C10.7018 19.0543 8.55192 16.9342 8.55192 14.3189C8.55192 11.7036 10.7018 9.5835 13.3538 9.5835Z" fill="#1093FF"/>
<path d="M10.2138 36.3899C9.14891 35.0887 8.4375 33.492 8.4375 31.6252C8.4375 29.8154 9.10607 28.2595 10.1171 26.9806C6.54581 27.2637 3.75 29.2604 3.75 31.6815C3.75 34.1253 6.59494 36.1367 10.2138 36.3899Z" fill="#1093FF"/>
<path d="M31.8749 14.3752C31.8749 16.0393 31.4599 17.6044 30.73 18.9682C31.0266 19.0247 31.3328 19.0543 31.6461 19.0543C34.2981 19.0543 36.448 16.9342 36.448 14.3189C36.448 11.7036 34.2981 9.5835 31.6461 9.5835C31.3133 9.5835 30.9885 9.61687 30.6748 9.68041C31.439 11.0679 31.8749 12.6695 31.8749 14.3752Z" fill="#1093FF"/>
<path d="M34.7861 36.3899C38.405 36.1367 41.2499 34.1253 41.2499 31.6815C41.2499 29.2604 38.4541 27.2637 34.8828 26.9806C35.8938 28.2595 36.5624 29.8154 36.5624 31.6252C36.5624 33.492 35.851 35.0887 34.7861 36.3899Z" fill="#1093FF"/>
</svg>
