<svg width="44" height="44" viewBox="0 0 44 44" fill="none" xmlns="http://www.w3.org/2000/svg">
<path d="M2 30C2 24.3431 2 21.5147 3.75736 19.7574C5.51472 18 8.34315 18 14 18H30C35.6569 18 38.4853 18 40.2426 19.7574C42 21.5147 42 24.3431 42 30C42 35.6569 42 38.4853 40.2426 40.2426C38.4853 42 35.6569 42 30 42H14C8.34315 42 5.51472 42 3.75736 40.2426C2 38.4853 2 35.6569 2 30Z" stroke="currentColor" stroke-width="3"/>
<path d="M10 18V14C10 7.37258 15.3726 2 22 2C28.6274 2 34 7.37258 34 14V18" stroke="#currentColor" stroke-width="3" stroke-linecap="round"/>
<path d="M16 30C16 31.1046 15.1046 32 14 32C12.8954 32 12 31.1046 12 30C12 28.8954 12.8954 28 14 28C15.1046 28 16 28.8954 16 30Z" fill="currentColor"/>
<path d="M24 30C24 31.1046 23.1046 32 22 32C20.8954 32 20 31.1046 20 30C20 28.8954 20.8954 28 22 28C23.1046 28 24 28.8954 24 30Z" fill="currentColor"/>
<path d="M32 30C32 31.1046 31.1046 32 30 32C28.8954 32 28 31.1046 28 30C28 28.8954 28.8954 28 30 28C31.1046 28 32 28.8954 32 30Z" fill="currentColor"/>
</svg>
