<svg width="46" height="44" viewBox="0 0 46 44" fill="none" xmlns="http://www.w3.org/2000/svg">
<path d="M34.5211 20.8803C39.7562 20.8803 44 16.6538 44 11.4402C44 6.2265 39.7562 2 34.5211 2C29.2861 2 25.0422 6.2265 25.0422 11.4402C25.0422 13.8551 26.1444 15.6114 26.1444 15.6114L14.6816 27.0274C14.1673 27.5396 13.4471 28.8715 14.6816 30.1009L16.0042 31.4182C16.5186 31.8572 17.8118 32.4719 18.8699 31.4182L20.413 29.8814C21.956 31.4181 23.7196 30.54 24.3809 29.6618C25.4831 28.1251 24.1604 26.5883 24.1604 26.5883L24.6013 26.1492C26.7175 28.2568 28.5692 27.0274 29.2305 26.1492C30.3327 24.6125 29.2305 23.0757 29.2305 23.0757C28.7896 22.1975 27.908 22.1975 29.0101 21.0999L30.3328 19.7826C31.3909 20.6608 33.5659 20.8803 34.5211 20.8803Z" stroke="currentColor" stroke-width="3" stroke-linejoin="round"/>
<path d="M42 27.9859C41.8722 33.574 41.3384 36.838 39.1083 39.0681C36.1765 42 31.4577 42 22.0201 42C12.5825 42 7.86375 42 4.93188 39.0681C2 36.1362 2 31.4175 2 21.9799C2 12.5423 2 7.82355 4.93188 4.89167C7.16198 2.66156 10.426 2.12777 16.0141 2" stroke="currentColor" stroke-width="3" stroke-linecap="round"/>
</svg>
