<svg width="44" height="44" viewBox="0 0 44 44" fill="none" xmlns="http://www.w3.org/2000/svg">
<path d="M42 26C42 33.5425 42 37.3137 39.6569 39.6569C37.3137 42 33.5425 42 26 42" stroke="currentColor" stroke-width="3" stroke-linecap="round"/>
<path d="M18 42C10.4575 42 6.68629 42 4.34315 39.6569C2 37.3137 2 33.5425 2 26" stroke="currentColor" stroke-width="3" stroke-linecap="round"/>
<path d="M18 2C10.4575 2 6.68629 2 4.34315 4.34315C2 6.68629 2 10.4575 2 18" stroke="currentColor" stroke-width="3" stroke-linecap="round"/>
<path d="M26 2C33.5425 2 37.3137 2 39.6569 4.34315C42 6.68629 42 10.4575 42 18" stroke="currentColor" stroke-width="3" stroke-linecap="round"/>
<path d="M6 21C6 21 10.8 17 22 17C33.2 17 38 21 38 21" stroke="currentColor" stroke-width="3" stroke-linecap="round"/>
<path d="M8.5 18C8.5 18.8284 9.17157 19.5 10 19.5C10.8284 19.5 11.5 18.8284 11.5 18H8.5ZM32.8284 10.1716L31.7678 11.2322L31.7678 11.2322L32.8284 10.1716ZM18 10.5H26V7.5H18V10.5ZM11.5 18V17H8.5V18H11.5ZM32.5 17V18H35.5V17H32.5ZM26 10.5C27.928 10.5 29.2231 10.5032 30.1892 10.6331C31.1121 10.7572 31.5071 10.9716 31.7678 11.2322L33.8891 9.11091C32.9781 8.19997 31.8445 7.82863 30.589 7.65982C29.3765 7.49681 27.8432 7.5 26 7.5V10.5ZM35.5 17C35.5 15.1568 35.5032 13.6235 35.3402 12.411C35.1714 11.1555 34.8 10.0219 33.8891 9.11091L31.7678 11.2322C32.0284 11.4929 32.2428 11.8879 32.3669 12.8108C32.4968 13.7769 32.5 15.072 32.5 17H35.5ZM18 7.5C16.1568 7.5 14.6235 7.49681 13.411 7.65982C12.1555 7.82863 11.0219 8.19997 10.1109 9.11091L12.2322 11.2322C12.4929 10.9716 12.8879 10.7572 13.8108 10.6331C14.7769 10.5032 16.072 10.5 18 10.5V7.5ZM11.5 17C11.5 15.072 11.5032 13.7769 11.6331 12.8108C11.7572 11.8879 11.9716 11.4929 12.2322 11.2322L10.1109 9.11091C9.19997 10.0219 8.82863 11.1555 8.65982 12.411C8.49681 13.6235 8.5 15.1568 8.5 17H11.5Z" fill="currentColor"/>
<path d="M10 26V27C10 30.7712 10 32.6569 11.1716 33.8284C12.3431 35 14.2288 35 18 35H26C29.7712 35 31.6569 35 32.8284 33.8284C34 32.6569 34 30.7712 34 27V26" stroke="currentColor" stroke-width="3" stroke-linecap="round"/>
</svg>
