<svg width="14" height="18" viewBox="0 0 14 18" fill="none" xmlns="http://www.w3.org/2000/svg">
<path id="arrow-down-from-line" d="M12.28 11.22C12.573 11.513 12.573 11.988 12.28 12.281L7.28003 17.281C7.21103 17.35 7.12811 17.4051 7.03711 17.4431C6.94611 17.4811 6.848 17.501 6.75 17.501C6.652 17.501 6.55489 17.4811 6.46289 17.4431C6.37089 17.4051 6.28897 17.35 6.21997 17.281L1.21997 12.281C0.926971 11.988 0.926971 11.513 1.21997 11.22C1.51297 10.927 1.98801 10.927 2.28101 11.22L6.00098 14.9399V4.75C6.00098 4.336 6.33698 4 6.75098 4C7.16498 4 7.50098 4.336 7.50098 4.75V14.939L11.2209 11.219C11.5129 10.927 11.987 10.927 12.28 11.22ZM12.75 0H0.75C0.336 0 0 0.336 0 0.75C0 1.164 0.336 1.5 0.75 1.5H12.75C13.164 1.5 13.5 1.164 13.5 0.75C13.5 0.336 13.164 0 12.75 0Z" fill="#FF9C27"/>
</svg>
