<svg width="16" height="11" viewBox="0 0 16 11" fill="none" xmlns="http://www.w3.org/2000/svg">
<path d="M3.37207 5.5C3.37207 5.83733 3.64584 6.11111 3.98318 6.11111H13.9149L10.8838 9.1422C10.6451 9.38094 10.6451 9.768 10.8838 10.0067C11.0028 10.1257 11.1593 10.186 11.3157 10.186C11.4722 10.186 11.6286 10.1265 11.7476 10.0067L15.8217 5.93267C15.8779 5.87645 15.9226 5.8089 15.9536 5.73394C16.0155 5.58483 16.0155 5.41616 15.9536 5.26705C15.9226 5.19209 15.8779 5.12435 15.8217 5.06812L11.7476 0.99405C11.5089 0.755309 11.1218 0.755309 10.883 0.99405C10.6443 1.23279 10.6443 1.61986 10.883 1.8586L13.9141 4.88968H3.98318C3.64584 4.88887 3.37207 5.16267 3.37207 5.5ZM0.72392 0C1.06125 0 1.33503 0.273778 1.33503 0.611111V10.3889C1.33503 10.7262 1.06125 11 0.72392 11C0.386586 11 0.112808 10.7262 0.112808 10.3889V0.611111C0.112808 0.273778 0.386586 0 0.72392 0Z" fill="#242424"/>
</svg>
