<svg width="1230" height="874" viewBox="0 0 1230 874" fill="none" xmlns="http://www.w3.org/2000/svg">
<g opacity="0.3">
<path d="M0.196289 -63.8687C49.6126 -29.5386 112.567 6.66907 148.445 53.442C204.785 126.838 128.264 231.454 212.241 299.946C279.905 355.126 277.298 415.267 270.038 496.257C264.572 557.323 259.947 664.937 336.861 679.117C419.829 694.419 470.871 649.215 529.229 592.41C604.124 519.49 736.76 471.596 833.267 510.774C884.141 531.428 938.07 531.877 995.222 528.794C1035.87 526.608 1082.56 516.912 1120.54 532.858C1171.28 554.156 1174.81 616.791 1187.51 663.116C1205.53 728.833 1263.63 814.364 1323.65 846.844C1424.61 901.492 1518.96 752.514 1611.34 738.361C1685.17 727.067 1772.37 793.093 1838.75 732.588" stroke="black" stroke-width="0.25" stroke-miterlimit="10"/>
<path d="M0.196289 -63.8687C50.5096 -29.5666 112.371 5.12772 151.388 50.5275C211.344 120.309 138.663 225.653 216.81 291.23C283.885 347.475 289.855 393.267 282.091 480.256C276.625 541.517 267.459 650.673 346.307 665.918C429.891 682.088 479.924 634.25 541.225 579.883C625.931 504.749 736.929 455.566 844.619 500.265C896.474 521.788 948.02 525.879 1004.92 524.254C1045.37 523.105 1091.14 514.277 1128.53 529.915C1179.69 551.298 1181.9 610.822 1193.5 658.155C1209.54 723.48 1268.32 807.694 1327.63 839.138C1426.82 891.74 1525.38 745.48 1615.24 734.97C1687.39 726.563 1773.02 791.888 1838.75 732.588" stroke="black" stroke-width="0.25" stroke-miterlimit="10"/>
<path d="M0.196289 -63.8687C51.4065 -29.5947 112.287 3.75452 154.247 47.6129C217.735 113.947 145.951 219.768 221.351 282.543C287.949 337.975 301.011 377.798 293.919 464.702C288.902 526.076 274.691 636.464 355.108 653.111C439.506 670.57 490.856 618.024 554.624 567.047C595.547 534.343 645.384 501.358 694.211 478.91C754.055 451.39 798.426 464.113 855.915 490.26C906.789 513.409 957.831 520.219 1014.56 519.882C1054.79 519.63 1098.65 512.203 1136.38 527.084C1188.23 547.542 1189.83 606.506 1199.92 653.307C1213.71 717.343 1273.05 802.285 1331.55 831.123C1432.12 880.726 1530.34 735.503 1619.11 731.72C1686.94 728.805 1773.77 787.068 1838.75 732.616" stroke="black" stroke-width="0.25" stroke-miterlimit="10"/>
<path d="M0.196289 -63.8687C52.2474 -29.6787 111.951 2.52144 157.078 44.7264C224.266 107.585 154.247 213.994 225.947 273.799C290.92 327.998 311.046 364.038 305.356 449.933C301.291 511.195 282.035 622.536 363.265 640.668C448.335 659.64 501.675 605.357 568.47 554.717C611.356 522.208 657.128 484.992 706.488 462.068C766.332 434.267 811.544 453.38 867.211 480.984C917.047 505.674 967.557 514.922 1024.18 515.678C1064.04 516.211 1106.16 510.27 1144.06 524.394C1196.67 544.011 1197.96 601.938 1206.57 648.571C1218.2 711.794 1277.37 796.036 1335.45 822.883C1437.53 870.077 1528.26 732.672 1622.95 728.665C1694.98 725.61 1771.17 788.665 1838.75 732.616" stroke="black" stroke-width="0.25" stroke-miterlimit="10"/>
<path d="M0.196289 -63.8687C53.0603 -29.7908 112.203 1.40046 159.797 41.8398C230.152 101.644 163.301 208.165 230.656 264.887C292.854 317.265 319.875 352.576 316.259 436.117C313.456 500.966 288.454 600.284 370.861 628.533C452.259 656.446 523.567 586.609 582.233 542.134C625.118 509.653 668.34 467.28 718.317 444.664C777.88 417.705 825.39 444.104 878.563 472.493C927.503 498.612 977.199 509.709 1033.71 511.503C1073.09 512.736 1113.73 508.476 1151.52 521.788C1204.97 540.648 1206.12 597.034 1213.35 643.863C1223.08 706.75 1281.18 789.03 1339.31 814.42C1442.83 859.651 1530.03 725.834 1626.73 725.666C1697.53 725.554 1771.81 787.404 1838.72 732.588" stroke="black" stroke-width="0.25" stroke-miterlimit="10"/>
<path d="M0.196289 -63.8687C53.8171 -29.931 112.651 0.363563 162.488 38.9814C236.01 95.9832 173.083 202 235.646 255.695C293.975 305.775 327.527 343.748 326.518 423.45C325.733 487.262 296.919 587.113 378.065 616.707C458.173 645.964 539.544 574.166 595.855 528.962C637.171 495.809 679.159 448.504 729.865 427.177C788.98 402.319 839.77 436.397 890.083 465.01C938.266 492.39 986.841 504.665 1043.29 507.411C1082.03 509.289 1121.5 507.103 1158.86 519.406C1213.07 537.257 1213.8 592.382 1220.61 639.351C1229.63 701.593 1284.38 781.379 1343.32 805.872C1448.01 849.366 1532.33 719.024 1630.57 722.864C1700.11 725.61 1772.57 786.255 1838.8 732.644" stroke="black" stroke-width="0.25" stroke-miterlimit="10"/>
<path d="M0.196289 -63.8687C54.5459 -30.1271 113.296 -0.645311 165.067 36.0948C242.597 91.135 181.801 190.902 240.943 246.027C294.564 295.994 334.086 337.499 336.02 411.848C337.646 474.062 306.14 574.418 384.96 604.993C464.116 635.68 555.548 561.611 609.057 514.698C647.878 480.676 689.586 428.27 741.021 409.914C799.799 388.952 854.121 430.232 901.631 458.452C949.085 486.645 995.474 499.48 1052.57 503.264C1090.58 505.758 1129.15 505.73 1165.81 517.136C1220.86 534.231 1222.09 586.917 1227.7 634.811C1235.02 697.137 1288.55 779.445 1347.22 797.157C1453.42 829.189 1530.11 712.102 1634.19 720.117C1702.19 725.358 1773.16 785.078 1838.69 732.644" stroke="black" stroke-width="0.25" stroke-miterlimit="10"/>
<path d="M0.196289 -63.8687C55.2186 -30.3513 113.576 -1.06569 167.618 33.2644C250.866 86.1466 194.05 176.358 246.773 235.798C290.948 285.597 339.86 333.491 344.765 401.338C348.83 457.359 317.801 565.786 391.967 593.25C470.478 622.34 571.105 548.551 622.035 499.144C657.969 464.282 700.098 407.672 752.149 393.464C810.619 377.49 868.136 424.767 913.432 452.819C993.933 502.703 1083.21 488.831 1172.65 514.978C1228.54 531.316 1230.62 581.34 1235.13 630.327C1240.9 692.822 1292.03 771.29 1351.37 788.329C1455.97 818.371 1535.86 705.348 1637.94 717.399C1704.54 725.274 1773.94 783.817 1838.78 732.616" stroke="black" stroke-width="0.25" stroke-miterlimit="10"/>
<path d="M0.196289 -63.8687C55.8633 -30.6035 114.305 -2.21471 170.084 30.4058C255.995 80.6818 206.859 163.887 253.697 224.896C286.884 268.11 347.877 331.698 352.642 391.754C357.154 448.532 327.275 554.1 399.255 581.34C479.896 611.859 584.055 535.968 634.564 482.245C668.929 445.673 709.6 388.223 763.333 378.639C822.083 368.157 881.226 419.779 925.372 448.027C1002.71 497.547 1091.78 489.868 1179.18 513.016C1235.86 528.037 1239.33 576.324 1242.61 625.899C1246.87 690.495 1296.15 762.098 1355.57 779.473C1410.59 795.559 1460.29 778.605 1515.26 753.186C1553.94 735.307 1598.17 707.899 1641.56 714.793C1706.7 725.134 1774.64 782.584 1838.78 732.588" stroke="black" stroke-width="0.25" stroke-miterlimit="10"/>
<path d="M0.196289 -63.8687C56.4799 -30.8558 115.118 -3.27964 172.467 27.6034C259.891 74.6566 220.65 147.913 262.078 213.77C291.817 261.048 349.67 327.718 359.593 383.375C368.955 435.977 338.066 542.302 407.243 569.037C491.641 601.658 596.36 522.04 646.701 464.029C679.972 425.692 719.158 369.951 774.797 365.691C834.22 361.123 893.278 415.042 937.481 444.02C1011.31 492.39 1100.14 490.288 1185.43 511.307C1242.95 525.459 1248.05 570.803 1250.32 621.695C1253.24 686.46 1299.65 753.859 1359.86 770.702C1414.99 786.143 1464.94 770.113 1520.3 746.152C1558.59 729.59 1604.25 702.994 1645.12 712.327C1704.71 725.946 1777.56 779.866 1838.75 732.616" stroke="black" stroke-width="0.25" stroke-miterlimit="10"/>
<path d="M0.196289 -63.8687C57.0685 -31.164 116.071 -4.23246 174.793 24.7729C262.218 67.9587 236.767 129.304 271.664 202.589C299.357 260.767 346.783 318.498 364.835 376.313C381.624 430.12 347.316 529.495 416.073 557.323C504.843 593.25 606.31 508.56 658.614 444.608C691.801 404.029 728.94 353.416 786.821 354.846C847.225 356.359 904.434 410.222 949.842 440.405C1019.97 487.009 1108.1 489.391 1191.46 509.625C1250.35 523.918 1256.82 563.853 1258.25 617.463C1259.96 682.312 1303.38 745.48 1364.4 761.846C1419.56 776.671 1469.79 761.594 1525.49 739.146C1563.41 723.873 1608.79 699.211 1648.71 709.832C1707.12 725.414 1778.09 778.801 1838.8 732.56" stroke="black" stroke-width="0.25" stroke-miterlimit="10"/>
<path d="M0.196289 -63.8687C57.6011 -31.4723 117.136 -5.18529 177.064 21.9705C262.722 60.7844 255.631 117.646 282.063 191.575C304.739 254.994 339.944 310.371 368.254 370.343C393.173 423.17 356.173 520.106 425.239 546.786C519.867 583.33 615.981 492.867 670.246 424.347C704.106 381.581 739.9 338.928 799.519 346.158C860.68 353.585 915.394 405.766 962.343 437.126C1028.97 481.629 1116.65 490.26 1197.18 508.224C1258.73 521.956 1262.74 558.416 1266.24 613.428C1270.39 678.501 1305.23 736.932 1369 753.158C1424.52 767.283 1474.42 752.85 1530.7 732.392C1567.7 718.94 1611.96 695.512 1652.13 707.534C1712.5 725.61 1776.83 779.109 1838.72 732.644" stroke="black" stroke-width="0.25" stroke-miterlimit="10"/>
<path d="M0.196289 -63.8687C58.1337 -31.8086 121.116 -7.25911 179.25 19.168C261.405 56.5247 269.926 99.7665 293.163 180.281C312.98 248.857 332.404 303.281 369.992 365.131C401.077 416.247 367.105 512.596 434.684 537.369C534.134 573.801 626.267 473.698 681.766 403.664C716.495 359.806 752.821 327.69 813.001 339.853C874.246 352.239 926.83 401.703 975.041 433.763C1038.64 476.08 1124.97 491.017 1202.64 506.935C1264.67 519.658 1271.51 552.783 1274.34 609.392C1277.59 674.213 1309.41 728.665 1373.82 744.443C1429.26 758.007 1479.46 744.555 1535.89 725.694C1572.49 713.476 1616.5 691.869 1655.57 705.18C1714.27 725.19 1777.53 777.876 1838.72 732.616" stroke="black" stroke-width="0.25" stroke-miterlimit="10"/>
<path d="M0.196289 -63.8687C58.6382 -32.1449 121.985 -8.21195 181.38 16.3936C259.947 48.93 283.941 88.6688 304.907 168.539C323.603 239.721 325.593 296.947 370.328 360.507C405.113 409.914 379.522 506.486 444.383 528.99C547.672 564.805 640.17 455.902 693.342 383.122C775.497 270.716 909.311 378.863 987.907 430.035C1049.32 469.998 1132.04 491.69 1207.88 505.87C1270.31 517.528 1280.23 547.262 1282.58 605.525C1285.19 669.841 1314.12 720.622 1378.86 735.923C1434.14 748.983 1484.65 736.484 1541.16 719.221C1577.37 708.179 1621.13 688.45 1659.02 702.966C1715.92 724.741 1778.26 776.727 1838.78 732.672" stroke="black" stroke-width="0.25" stroke-miterlimit="10"/>
<path d="M0.196289 -63.8687C59.1427 -32.5092 122.882 -9.19281 183.426 13.6192C258.041 41.7277 296.919 78.636 317.128 156.152C336.076 228.96 318.67 290.137 369.487 356.135C406.01 403.552 392.948 501.694 454.249 521.339C559.753 555.137 646.056 435.36 705.171 363.337C788.699 261.552 928.119 378.751 1000.88 425.355C1061.34 464.085 1137.33 492.082 1212.87 504.833C1275.46 515.426 1290.68 542.386 1290.94 601.63C1291.22 664.685 1320.28 712.747 1384.08 727.376C1439.07 740.015 1489.92 728.413 1546.4 712.803C1583.93 702.434 1625.25 686.348 1662.36 700.696C1716.51 721.631 1778.9 775.494 1838.75 732.616" stroke="black" stroke-width="0.25" stroke-miterlimit="10"/>
<path d="M0.196289 -63.8687C59.5912 -32.8735 123.835 -10.1737 185.445 10.8728C256.051 34.9739 307.99 69.5561 329.657 143.177C351.072 215.928 313.484 283.439 367.89 351.903C392.5 382.87 404.272 408.401 414.699 446.43C423.024 476.808 431.461 504.609 464.34 514.193C571.217 545.328 653.68 410.923 718.037 345.934C802.602 260.571 943.059 374.939 1013.5 418.882C1075.56 457.584 1140.47 492.222 1217.64 504.048C1280.59 513.689 1298.92 537.033 1299.32 597.902C1299.74 659.893 1325.8 704.9 1389.52 719.052C1444.26 731.215 1495.3 720.594 1551.67 706.582C1588.89 697.333 1629.56 683.097 1665.66 698.51C1718.19 720.958 1779.55 774.317 1838.75 732.616" stroke="black" stroke-width="0.25" stroke-miterlimit="10"/>
<path d="M0.196289 -63.8687C60.0677 -33.2379 124.844 -11.1826 187.379 8.09832C254.65 28.8365 316.764 61.1207 342.243 129.501C368.899 201.019 311.13 276.741 365.844 347.447C389.108 377.518 408.673 402.824 421.959 438.947C432.442 467.392 440.655 498.612 474.571 506.991C579.234 532.745 665.201 383.375 731.323 331.221C817.262 263.43 956.794 368.494 1025.55 411.063C1090.52 451.278 1141.76 492.25 1222.15 503.348C1285.22 512.063 1306.88 531.849 1307.7 594.231C1308.48 654.848 1331.94 697.193 1395.15 710.841C1449.56 722.583 1500.79 712.887 1556.97 700.5C1593.85 692.373 1634.44 679.706 1668.94 696.381C1718.64 720.398 1781.26 772.495 1838.75 732.616" stroke="black" stroke-width="0.25" stroke-miterlimit="10"/>
<path d="M0.196289 -63.8687C60.5162 -33.6302 125.881 -12.1914 189.257 5.37994C254.594 23.4838 324.444 54.1146 354.66 115.348C387.959 182.803 311.578 271.052 363.91 342.599C385.605 372.277 412.093 397.499 427.929 431.297C441.019 459.181 449.26 492.979 485.138 499.2C590.866 517.5 669.461 365.719 744.945 318.89C833.631 263.906 968.79 357.452 1037.24 401.983C1103.16 444.889 1142.57 492.558 1226.55 502.815C1285.78 510.074 1316.55 525.851 1315.94 590.644C1315.35 650.925 1339.6 690.131 1401.06 702.798C1454.74 713.84 1505.53 705.685 1562.01 694.671C1596.77 687.889 1638.98 675.586 1672.2 694.279C1721.28 721.883 1781.71 771.486 1838.78 732.644" stroke="black" stroke-width="0.25" stroke-miterlimit="10"/>
<path d="M0.196289 -63.8687C60.9366 -34.0225 126.919 -13.2283 191.078 2.63355C256.668 18.8317 327.863 47.3887 366.6 100.747C412.036 163.326 315.67 264.186 362.62 336.994C382.605 367.989 411.616 392.483 431.854 423.702C448.531 449.429 459.407 486.897 495.985 489.784C603.311 498.247 670.891 346.607 758.848 308.745C853.756 267.886 977.564 342.711 1047.3 392.118C1110.73 437.07 1142.71 492.726 1230.76 502.339C1291.47 508.953 1321.43 521.368 1324.23 587.057C1326.73 645.824 1344.61 682.34 1407.15 694.811C1460.46 705.433 1511.3 698.174 1567.28 688.786C1601.87 682.985 1642.93 672.588 1675.36 692.149C1722.96 720.818 1782.1 770.449 1838.75 732.616" stroke="black" stroke-width="0.25" stroke-miterlimit="10"/>
<path d="M0.196289 -63.8687C61.3571 -34.4149 127.984 -14.2652 192.816 -0.0848368C260.676 14.7401 328.003 42.4003 377.728 86.0345C436.506 137.628 326.462 260.599 362.592 330.52C379.83 363.898 409.738 388.111 434.152 416.472C455.202 440.937 471.095 476.893 506.973 477.929C612.365 481.012 675.488 328.979 773.003 300.702C870.238 272.538 987.262 327.578 1056.61 382.058C1118.5 430.68 1142.29 492.979 1234.88 501.974C1295.17 507.832 1328.47 517.164 1332.45 583.582C1335.84 640.444 1352.15 675.278 1413.51 687.048C1466.49 697.221 1517.19 690.888 1572.63 683.069C1607.08 678.221 1647.14 669.841 1678.59 690.075C1724.41 719.529 1782.6 769.413 1838.8 732.616" stroke="black" stroke-width="0.25" stroke-miterlimit="10"/>
<path d="M0.196289 -63.8687C61.7775 -34.8072 129.049 -15.3022 194.526 -2.80322C264.769 10.6205 325.032 42.2882 387.679 71.4898C450.745 100.916 350.988 273.939 364.498 322.842C376.747 367.148 466.891 465.206 517.989 463.861C621.586 461.087 682.439 316.396 787.466 294.313C883.244 274.163 999.931 314.883 1065.63 371.604C1126.35 424.01 1141.37 493.315 1238.8 501.722C1298.62 506.879 1335.03 513.268 1340.35 580.163C1344.72 635.231 1360.06 668.328 1419.98 679.454C1472.54 689.206 1523.05 683.741 1577.88 677.464C1612.18 673.513 1651.17 667.207 1681.7 688.057C1725.79 718.184 1783.02 768.432 1838.8 732.644" stroke="black" stroke-width="0.25" stroke-miterlimit="10"/>
<path d="M0.196289 -63.8687C62.1699 -35.1996 130.114 -16.3391 196.18 -5.49357C265.357 5.85636 327.807 43.9137 396.032 57.5336C467.171 71.714 370.665 279.151 369.824 312.697C368.647 360.03 471.095 455.23 528.079 447.495C580.299 440.405 624.558 390.269 663.771 358.741C705.647 325.084 748.365 298.124 801.593 288.175C897.847 270.156 1011.12 301.851 1074.97 360.507C1102.38 385.673 1114.82 435.893 1142.32 464.842C1168.42 492.334 1206.48 498.892 1242.7 501.526C1302.46 505.87 1340.66 512.456 1348.31 576.968C1354.65 630.383 1368.75 661.378 1426.68 671.971C1478.54 681.444 1528.99 676.707 1583.06 671.887C1617.26 668.832 1655.1 664.545 1684.72 685.983C1727.16 716.698 1783.39 767.367 1838.78 732.616" stroke="black" stroke-width="0.25" stroke-miterlimit="10"/>
<path d="M0.196289 -63.8687C62.5623 -35.6199 131.207 -17.404 197.778 -8.18392C266.927 1.37244 338.122 41.0552 402.366 44.5302C485.418 49.0141 391.575 264.13 381.148 296.162C359.733 362.02 478.943 442.03 535.535 431.016C589.605 420.507 632.714 372.473 675.908 341.954C719.971 310.819 762.66 292.996 815.131 281.758C909.76 261.496 1024.29 289.829 1084.95 348.624C1112.95 375.752 1120.29 429.923 1146.78 461.983C1171.64 492.082 1209.43 498.892 1246.54 501.33C1305.76 505.197 1346.21 509.093 1355.96 573.605C1363.84 625.675 1376.62 654.484 1433.58 664.629C1484.79 673.765 1534.96 669.813 1588.25 666.394C1622.36 664.208 1659.02 661.966 1687.78 683.966C1728.59 715.157 1783.84 766.358 1838.78 732.644" stroke="black" stroke-width="0.25" stroke-miterlimit="10"/>
<path d="M0.196289 -63.8687C62.9267 -36.0403 132.272 -18.4409 199.347 -10.8743C268.3 -3.11148 337.618 28.5282 407.215 31.1625C516.868 35.2821 412.877 221.281 397.713 273.715C383.783 321.945 389.697 354.005 433.087 385.729C463.891 408.232 503.105 424.599 541.534 414.986C596.724 401.17 641.235 355.827 688.718 326.793C733.481 299.413 777.796 287.531 827.969 274.752C920.355 251.239 1031.27 277.666 1095.93 335.985C1112.95 351.315 1125.48 374.631 1133.3 398.088C1139.24 418.321 1145.49 438.471 1152.05 458.508C1175.51 491.549 1211.81 498.864 1250.38 501.162C1308.68 504.637 1351.45 506.458 1363.42 570.242C1372.89 620.742 1384.3 648.178 1440.67 657.398C1511.67 669.029 1629.37 634.082 1690.75 681.892C1730.86 713.139 1784.23 765.293 1838.75 732.616" stroke="black" stroke-width="0.25" stroke-miterlimit="10"/>
<path d="M0.196289 -63.8687C63.3192 -36.4326 133.337 -19.4778 200.861 -13.5646C269.926 -7.51133 340.112 19.9807 410.411 18.4113C441.692 17.7107 466.358 13.7593 476.224 47.0524C492.145 100.691 435.161 198.525 418.764 246.111C401.694 295.658 385.745 339.881 433.9 376.06C465.629 399.881 508.627 410.334 547.027 399.349C603.788 383.094 650.597 340.217 702.34 313.061C746.739 289.773 792.68 281.45 839.966 266.821C928.96 239.273 1053.66 265.56 1108.07 322.533C1140.14 356.107 1137.73 407.616 1158.72 453.884C1175.9 491.774 1216.52 498.976 1254.3 501.022C1311.48 504.132 1356.55 504.581 1370.74 566.963C1381.86 615.922 1391.9 642.237 1447.87 650.617C1518.98 661.238 1633.29 630.383 1693.72 679.902C1729.85 709.524 1787.26 766.47 1838.75 732.644" stroke="black" stroke-width="0.25" stroke-miterlimit="10"/>
<path d="M0.196289 -63.8687C63.6835 -36.853 134.43 -20.5147 202.346 -16.227C271.552 -11.8832 341.766 11.153 412.261 6.30476C437.151 4.59526 477.177 -3.95222 492.005 22.0265C517.456 66.6416 458.229 174.816 443.542 214.275C425.435 262.925 388.996 324.271 437.487 364.879C468.713 391.025 515.242 395.481 552.942 383.963C611.524 366.056 661.164 325.42 716.887 300.45C760.333 280.973 806.919 274.303 851.206 257.769C936.78 225.793 1069.3 253.817 1121.55 308.325C1176.97 366.14 1139.41 495.585 1258.36 500.825C1314.14 503.292 1361.6 503.152 1377.86 563.685C1390.61 611.214 1399.61 636.829 1455.02 644.199C1526.02 653.615 1637.35 626.824 1696.67 677.884C1731.39 707.759 1787.57 765.461 1838.78 732.672" stroke="black" stroke-width="0.25" stroke-miterlimit="10"/>
<path d="M0.196289 -63.8687C64.0199 -37.2734 135.496 -21.5236 203.776 -18.9173C273.009 -16.255 342.579 1.98898 412.905 -5.26937C435.694 -7.62343 484.83 -18.4129 504.478 0.223435C540.609 34.4694 482.952 147.66 470.955 179.356C454.417 223.074 401.581 309.586 443.458 352.324C472.132 381.581 524.267 379.788 559.697 368.718C620.129 349.857 672.965 311.212 732.136 288.287C774.488 271.893 820.009 265.672 861.549 247.484C942.779 211.921 1087.22 242.439 1136.21 293.388C1190.08 349.409 1141.68 496.005 1262.57 500.433C1317.2 502.451 1366.53 501.974 1384.69 560.322C1399.07 606.506 1407.12 631.644 1462.03 638.09C1533.34 646.469 1641 622.956 1699.55 675.726C1732.88 705.769 1787.87 764.284 1838.75 732.588" stroke="black" stroke-width="0.25" stroke-miterlimit="10"/>
<path d="M0.196289 -63.8687C64.3843 -37.6937 136.561 -22.5325 205.205 -21.5796C274.271 -20.6268 342.859 -7.37122 412.681 -16.227C437.796 -19.4218 488.642 -31.3322 512.607 -16.4231C559.613 12.8064 512.831 107.922 500.05 142.784C485.278 183.139 419.576 294.733 452.511 338.115C477.346 370.848 535.311 363.617 568.022 353.444C629.995 334.164 685.971 297.956 747.776 277.106C789.316 263.093 832.145 255.106 871.359 236.134C947.768 199.169 1100.08 230.921 1152.19 278.002C1214.41 334.276 1139.6 495.585 1267.56 499.592C1320.31 501.246 1371.32 500.994 1391.39 557.015C1407.48 601.882 1414.35 626.74 1468.92 632.457C1541.07 640.023 1644.25 618.781 1702.44 673.653C1734.39 703.779 1788.21 763.191 1838.78 732.56" stroke="black" stroke-width="0.25" stroke-miterlimit="10"/>
<path d="M0.196289 -63.8687C64.7206 -38.1421 137.654 -23.5133 206.579 -24.2139C275.252 -24.9426 342.747 -16.8155 411.784 -26.6801C442.477 -31.0799 487.044 -41.0567 517.596 -29.7628C575.337 -8.4081 543.243 65.8569 529.593 107.165C513.448 156.04 488.333 205.98 472.609 256.704C466.807 275.368 454.529 303.225 464.396 322.225C483.456 359.049 549.018 347.391 578.084 338.003C678.879 305.467 784.411 262.197 882.459 224.392C961.783 193.817 1114.26 215.143 1169.15 262.421C1233.95 318.246 1141.59 491.942 1273 498.415C1324.57 500.966 1375.87 500.265 1397.81 553.764C1415.7 597.37 1421.11 622.116 1475.57 627.272C1548.78 634.194 1647.33 614.633 1705.27 671.607C1735.91 701.733 1788.52 762.126 1838.78 732.588" stroke="black" stroke-width="0.25" stroke-miterlimit="10"/>
<path d="M0.196289 -63.8687C65.057 -38.5625 138.747 -24.4662 207.924 -26.8763C276.036 -29.2584 342.411 -26.3438 410.495 -36.7409C445.168 -42.0375 485.614 -49.0997 520.595 -41.365C582.597 -27.661 571.357 26.4264 558.492 74.4043C545.346 123.307 521.184 173.779 502.348 223.691C494.752 243.813 476.337 278.479 482.98 299.834C496.602 343.608 555.492 332.734 590.109 322.113C692.866 290.529 794.81 245.382 897.875 213.546C937.677 201.243 977.564 200.795 1018.88 205.923C1071.13 212.425 1145.91 212.201 1186.89 246.839C1267 314.518 1136.38 485.608 1279.02 496.79C1328.24 500.657 1381.81 499.256 1403.81 549.952C1422.11 592.073 1427.5 617.996 1481.99 622.452C1554.36 628.365 1651.9 611.494 1708.07 669.533C1737.2 699.631 1788.85 761.033 1838.75 732.616" stroke="black" stroke-width="0.25" stroke-miterlimit="10"/>
<path d="M0.196289 -63.8687C65.3933 -38.9829 139.84 -25.419 209.27 -29.5386C276.709 -33.5461 341.99 -35.9562 409.065 -46.4934C445.252 -52.1824 485.446 -57.7593 522.053 -51.3977C580.383 -41.2809 594.342 -5.38146 585.652 45.7913C577.748 92.3961 554.147 142.336 534.863 190.118C525.361 213.63 505.319 247.26 507.618 272.734C512.383 325.196 560.622 318.022 604.068 305.439C708.394 275.228 811.46 231.762 916.851 203.261C993.484 182.523 1142.27 184.429 1205.05 231.566C1290.07 295.406 1142.1 480.312 1285.58 494.716C1333.32 499.508 1386.26 498.892 1409.56 546.814C1429.46 587.73 1433.97 613.848 1488.15 617.996C1561.28 623.573 1654.87 607.795 1710.85 667.459C1739.02 697.474 1789.19 759.94 1838.75 732.672" stroke="black" stroke-width="0.25" stroke-miterlimit="10"/>
<path d="M0.196289 -63.8687C65.7297 -39.4032 140.961 -26.3438 210.587 -32.1729C277.382 -37.7778 341.57 -45.6247 407.72 -55.9937C485.054 -68.1284 610.823 -63.3642 609.926 22.2787C609.225 90.2382 548.737 167.025 536.993 243.252C528.051 301.151 572.002 300.73 619.821 287.783C726.053 259.002 831.613 221.169 938.658 193.34C1024.2 171.089 1153.98 178.908 1223.19 217.049C1312.74 266.4 1149.19 473.221 1292.7 492.166C1339.12 498.303 1390.64 498.443 1415.02 543.759C1436.38 583.442 1440.39 609.897 1494.04 613.848C1568.04 619.257 1657.4 604.292 1713.6 665.301C1741.09 695.148 1789.53 758.763 1838.75 732.644" stroke="black" stroke-width="0.25" stroke-miterlimit="10"/>
<path d="M0.196289 -63.8685C66.0661 -39.8235 142.083 -27.2685 211.905 -34.8351C278.111 -42.0094 341.402 -55.3771 406.795 -65.4379C470.31 -75.1904 617.382 -79.3941 630.36 4.53936C641.235 74.993 589.128 144.41 570.488 212.677C555.044 269.203 581.476 283.552 637.143 268.811C745.422 240.17 854.177 210.828 962.568 183.504C1048.51 161.841 1166.65 168.847 1240.76 203.71C1339.03 249.922 1159.34 465.487 1300.47 489.167C1345.28 496.706 1395.21 497.911 1420.35 540.761C1442.91 579.21 1446.64 606.17 1499.67 610.009C1574.23 615.418 1660.76 602.246 1716.31 663.256C1742.83 692.373 1790 757.53 1838.8 732.588" stroke="black" stroke-width="0.25" stroke-miterlimit="10"/>
<path d="M0.196289 -63.8685C66.4024 -40.2439 143.456 -28.1933 213.194 -37.4694C278.783 -46.185 341.598 -65.2698 406.431 -74.9102C482.111 -86.148 606.983 -78.8617 645.86 -6.58641C676.328 50.0512 526.762 278.003 658.109 249.446C765.435 226.101 879.6 200.935 987.654 173.667C1071.49 152.509 1178.4 158.31 1256.4 192.023C1366.03 239.385 1172.51 456.379 1308.71 485.776C1351.9 495.109 1399.86 497.323 1425.45 537.818C1449.02 575.119 1452.58 602.639 1504.91 606.506C1579.7 612.027 1663.95 600.677 1718.84 661.378C1744.48 689.739 1790.45 756.297 1838.75 732.616" stroke="black" stroke-width="0.25" stroke-miterlimit="10"/>
<path d="M0.196289 -63.8687C66.7388 -40.6644 144.97 -29.1743 214.511 -40.1039C279.708 -50.3608 342.411 -75.3027 407.047 -84.6068C496.686 -97.5261 591.314 -72.6683 657.885 -12.2475C713.328 38.0846 568.722 249.81 684.345 230.137C790.437 212.089 906.592 191.07 1013.33 163.578C1094.67 142.616 1196.11 148.137 1270.84 180.841C1380.21 228.679 1193.28 452.819 1317.56 481.937C1357.93 491.409 1404.88 496.734 1430.47 534.847C1454.8 571.055 1458.3 599.276 1509.9 603.283C1584.52 609.084 1667.21 599.556 1721.39 659.584C1746.25 687.161 1791.01 754.98 1838.78 732.616" stroke="black" stroke-width="0.25" stroke-miterlimit="10"/>
<path d="M0.196289 -63.8688C67.1032 -41.0848 146.483 -30.1272 215.801 -42.7663C281.054 -54.6487 343.924 -85.5878 408.757 -94.7798C500.19 -107.727 593.192 -68.689 666.518 -16.3952C719.018 21.0175 691.549 85.4179 677.366 134.433C666.826 170.865 657.072 218.17 714.365 212.033C818.747 200.851 933.221 179.72 1038.7 153.069C1120.37 132.415 1212.4 129.893 1284.54 169.856C1386.68 226.437 1215.45 443.599 1326.9 477.621C1365.3 489.335 1409.64 496.089 1436.07 531.12C1460.88 563.993 1464.13 597.033 1514.5 600.228C1588.13 604.88 1670.09 598.603 1723.77 657.847C1749.84 686.6 1790.03 751.645 1838.69 732.588" stroke="black" stroke-width="0.25" stroke-miterlimit="10"/>
<path d="M0.196289 -63.8686C67.4675 -41.477 148.025 -31.1359 217.118 -45.4004C283.016 -58.9923 346.363 -96.0688 411.952 -105.513C503.077 -118.657 604.853 -68.6888 672.096 -19.5338C721.737 16.758 725.689 52.9656 711.814 115.32C704.022 150.323 693.399 197.04 746.991 196.003C850.365 194.013 960.606 168.595 1063.17 142.196C1144.68 121.205 1227.53 115.488 1297.58 159.235C1394.67 219.88 1235.55 434.267 1336.9 472.913C1373.09 486.729 1415.02 494.912 1440.84 528.233C1465.7 560.322 1469.79 593.923 1518.93 597.454C1592.11 602.723 1673.06 597.902 1726.26 656.221C1751.72 684.134 1790.87 750.356 1838.78 732.616" stroke="black" stroke-width="0.25" stroke-miterlimit="10"/>
<path d="M0.196289 -63.8686C67.8319 -41.8974 149.567 -32.1729 218.463 -48.0628C285.819 -63.5884 349.727 -106.634 416.858 -117.115C505.908 -131.015 605.862 -67.1194 674.843 -22.3082C723.11 9.05122 749.934 38.3649 743.656 100.271C740.124 135.246 731.295 178.572 780.823 182.355C881.842 190.09 987.654 156.096 1085.87 130.818C1168.73 109.491 1237.74 100.776 1309.74 149.034C1408.18 214.975 1250.32 420.507 1347.3 467.841C1381.19 484.375 1420.49 493.511 1445.46 525.319C1470.13 556.706 1475.09 590.84 1522.91 594.792C1595.53 600.817 1675.84 597.23 1728.56 654.624C1753.43 681.696 1791.63 749.011 1838.66 732.616" stroke="black" stroke-width="0.25" stroke-miterlimit="10"/>
<path d="M0.196289 -63.8686C68.2524 -42.2897 151.024 -33.3218 219.809 -50.725C289.519 -68.3525 352.754 -116.471 422.8 -128.465C511.093 -143.57 605.385 -67.6799 675.235 -25.1106C720.475 2.46549 766.5 31.3027 771.882 89.2014C775.133 124.288 768.854 163.298 814.711 171.089C911.301 187.511 1014.9 140.738 1106.25 118.935C1138.03 111.341 1173.24 104.251 1205.75 98.1412C1251.44 89.5377 1287.57 112.91 1321.26 139.281C1373.93 180.477 1352.1 247.568 1343.15 309.334C1337.52 348.176 1316.22 435.725 1358.35 462.32C1389.57 482.021 1426.35 491.802 1450.34 522.32C1474.56 553.119 1480.33 587.758 1526.83 592.214C1598.9 599.136 1678.81 596.585 1731.06 653.027C1755.33 679.258 1792.69 747.581 1838.78 732.588" stroke="black" stroke-width="0.25" stroke-miterlimit="10"/>
<path d="M0.196289 -63.8687C68.6728 -42.6821 152.566 -34.4149 221.182 -53.3595C292.77 -73.1167 356.622 -126.195 429.191 -139.03C519.755 -155.032 601.125 -71.8556 673.778 -28.2775C720.531 -0.224948 774.376 28.2199 795.286 81.7187C808.376 115.208 804.536 150.855 847.282 161.925C936.248 184.933 1041.44 122.943 1123.37 106.661C1154.43 100.495 1184.39 89.7898 1215.79 82.8397C1260.61 72.947 1300.8 103.382 1330.71 130.117C1378.28 172.658 1362.16 237.003 1355.24 298.657C1350.67 339.124 1332.28 425.72 1369.78 456.491C1397.56 479.303 1432.46 489.924 1455.27 519.266C1478.82 549.588 1485.32 584.703 1530.42 589.747C1601.9 597.762 1681.61 595.941 1733.41 651.513C1757.1 676.932 1793.68 746.236 1838.75 732.644" stroke="black" stroke-width="0.25" stroke-miterlimit="10"/>
<path d="M0.196289 -63.8687C69.1213 -43.0465 154.107 -35.5919 222.612 -56.0218C296.022 -77.937 360.798 -135.724 436.058 -148.923C531.079 -165.57 596.892 -77.965 671.199 -32.201C720.419 -1.90645 780.122 26.6225 813.506 76.4501C833.771 106.717 837.471 142.756 877.441 153.994C965.847 178.88 1056.86 107.249 1136.72 93.9374C1167.38 88.8369 1193.36 74.04 1223.38 67.1179C1268.4 56.7489 1312.57 94.1336 1339.65 121.57C1381.58 164.055 1370.34 229.408 1365.97 288.82C1362.72 332.959 1349.74 415.827 1381.67 450.297C1404.32 474.763 1438.6 488.074 1459.84 516.575C1482.04 546.337 1490.73 581.9 1533.84 587.281C1604.45 596.081 1684.42 595.212 1735.79 649.972C1758.89 674.577 1794.83 744.835 1838.78 732.644" stroke="black" stroke-width="0.25" stroke-miterlimit="10"/>
<path d="M0.196289 -63.8687C69.6258 -43.4108 155.621 -36.797 224.069 -58.7122C299.329 -82.7852 365.143 -145.028 443.318 -158.171C543.215 -174.958 594.482 -85.8399 668.256 -37.0772C719.018 -3.53186 780.263 25.3334 824.101 70.4249C849.664 96.7119 867.491 137.375 903.929 146.231C987.29 166.465 1065.02 95.9272 1146.55 80.906C1175.34 75.5814 1201.1 56.7489 1228.82 51.172C1275.6 41.7277 1322.78 84.2129 1348.48 113.583C1420.01 195.442 1334.05 355.602 1393.94 443.768C1411.55 469.662 1445.44 485.468 1465.22 513.1C1486.33 542.526 1495.36 578.622 1537.09 584.703C1607.25 594.904 1687.14 594.287 1738.18 648.375C1760.71 672.252 1796 743.35 1838.75 732.644" stroke="black" stroke-width="0.25" stroke-miterlimit="10"/>
<path d="M0.196289 -63.8687C70.1304 -43.7751 157.022 -38.1422 225.555 -61.3745C302.384 -87.4374 369.011 -154.752 450.914 -166.803C555.717 -182.216 594.818 -96.8816 665.873 -42.9624C716.215 -4.76501 778.469 23.1194 829.371 64.0072C859.166 87.9401 888.793 131.07 925.568 137.179C1003.07 150.099 1078.11 85.6141 1152.58 66.6975C1178 60.2239 1206.76 40.0743 1233.25 35.0859C1282.13 25.8938 1333.09 74.4043 1357.59 106.156C1419.2 186.026 1362.69 347.447 1406.53 436.986C1419.68 463.861 1452.27 482.609 1470.8 509.485C1490.79 538.49 1500.82 574.698 1540.23 582.012C1609.69 594.932 1688.68 592.017 1740.56 646.749C1762.51 669.925 1797.18 741.92 1838.75 732.616" stroke="black" stroke-width="0.25" stroke-miterlimit="10"/>
<path d="M0.196289 -63.8687C70.719 -44.1114 158.508 -39.4594 227.125 -64.0649C305.972 -92.3417 373.776 -163.328 458.846 -175.014C563.397 -189.363 601.629 -109.044 665.089 -50.0526C710.749 -7.5955 775.806 20.1208 829.931 56.7768C864.183 79.9811 900.454 120.477 941.489 124.989C1013.41 132.947 1087.86 75.1609 1155.36 51.3401C1180.39 42.5123 1211.47 24.3244 1238.27 20.7653C1291.16 13.7312 1342.2 63.3346 1367.37 99.1779C1396.69 140.934 1385.28 212.173 1389.46 264.915C1393.8 320.179 1402.94 381.945 1419.45 429.979C1428.98 457.724 1459.34 479.19 1476.66 505.702C1495.38 534.399 1505.53 571.083 1543.34 579.21C1612.35 594.035 1691.26 590.7 1743 645.152C1764.41 667.655 1798.41 740.519 1838.78 732.644" stroke="black" stroke-width="0.25" stroke-miterlimit="10"/>
<path d="M0.196289 -63.8687C71.3356 -44.4478 159.966 -40.8326 228.75 -66.7833C309.756 -97.33 378.485 -171.595 467.003 -182.833C568.134 -195.668 613.514 -124.206 667.079 -58.2638C704.33 -12.3877 772.218 16.1413 825.951 48.3975C864.127 71.3216 905.415 107.081 950.431 110.836C1015.29 116.273 1097.67 59.8876 1156.03 35.4502C1247.52 -2.8033 1321.63 4.48307 1377.94 92.5922C1405.41 135.582 1387.55 206.035 1394.65 258.89C1402.13 314.743 1421.33 372.109 1432.6 422.721C1438.96 451.278 1466.54 475.127 1482.74 501.666C1500.12 530.083 1510.16 567.159 1546.45 576.071C1615.01 592.914 1693.86 589.159 1745.46 643.386C1767.61 666.647 1798.38 737.128 1838.78 732.56" stroke="black" stroke-width="0.25" stroke-miterlimit="10"/>
<path d="M0.196289 -63.8686C75.3719 -43.9151 160.778 -45.0921 230.432 -69.4735C311.718 -97.9464 383.25 -179.498 475.328 -190.399C573.516 -202.029 628.005 -144.495 673.077 -67.4837C701.892 -18.2447 768.995 11.125 818.747 38.8133C859.923 61.7373 904.63 92.8165 951.916 96.0113C989.981 98.5896 1021.6 79.8412 1054.76 62.2418C1087.61 44.7825 1122.93 32.9842 1155.72 19.5604C1248.55 -18.4128 1336.18 -2.38279 1389.49 86.4549C1416.28 131.07 1389.26 199.842 1398.77 253.873C1408.49 309.11 1438.99 362.833 1445.94 415.435C1449.86 445.057 1473.91 470.587 1489.13 497.519C1505.98 527.309 1514.05 561.19 1549.68 572.736C1617.43 594.708 1696.92 587.842 1747.96 641.705C1769.68 664.629 1799.53 735.615 1838.78 732.616" stroke="black" stroke-width="0.25" stroke-miterlimit="10"/>
<path d="M0.196289 -63.8687C76.1848 -44.2235 162.152 -46.6616 232.198 -72.192C315.951 -102.767 388.043 -187.121 483.68 -197.882C581.308 -208.868 647.486 -159.152 683 -77.6848C714.785 -4.79299 868.416 76.9265 947.852 80.5977C986.449 82.3913 1018.23 62.3257 1052.18 45.1467C1085.56 28.2199 1121.44 15.6369 1155.3 3.95065C1251.36 -29.2024 1350.41 -9.89347 1401.96 80.5977C1428.76 127.651 1390.97 194.069 1401.96 249.642C1412.86 304.71 1456.09 351.735 1459.37 408.008C1461.8 449.597 1511.89 555.361 1552.98 568.953C1620.26 591.205 1699.75 586.16 1750.45 639.883C1771.73 662.443 1800.68 734.102 1838.75 732.616" stroke="black" stroke-width="0.25" stroke-miterlimit="10"/>
<path d="M0.196289 -63.8686C77.0537 -44.5316 163.581 -48.2589 234.048 -74.9382C320.323 -107.615 393.116 -194.351 492.033 -205.42C583.242 -215.621 659.987 -177.06 694.015 -88.9505C726.782 -4.1483 851.374 62.6061 940.004 64.6519C1010.36 66.2773 1088.14 7.45384 1155.61 -11.1264C1256.57 -38.9267 1364.4 -16.6472 1415.36 74.993C1442.94 124.624 1393.22 188.941 1404.6 246.111C1415.67 301.767 1471.47 344.757 1472.9 400.526C1473.97 441.554 1514.44 549.364 1556.6 564.693C1623.14 588.879 1702.94 584.563 1753.06 637.978C1773.94 660.257 1801.89 732.56 1838.78 732.588" stroke="black" stroke-width="0.25" stroke-miterlimit="10"/>
<path d="M0.196289 -63.8686C77.9787 -44.84 164.955 -49.9124 235.982 -77.6847C325.733 -112.771 398.134 -199.872 500.218 -213.183C588.904 -224.729 673.301 -191.492 705.844 -101.365C737.798 -12.892 835.341 48.2575 929.969 48.2575C1004.89 48.2575 1083.43 -10.4258 1157.18 -25.475C1261.92 -46.8577 1377.32 -22.3363 1429.43 69.6402C1458.83 121.542 1396.16 184.289 1406.87 243.14C1417.15 299.694 1485.29 339.937 1486.39 393.071C1487.23 434.071 1517.11 541.461 1560.5 559.901C1624.1 586.945 1706.62 583.246 1755.67 636.016C1776.19 658.099 1803.01 731.075 1838.78 732.616" stroke="black" stroke-width="0.25" stroke-miterlimit="10"/>
<path d="M0.196289 -63.8687C78.4832 -44.84 166.917 -51.4538 238 -80.4592C330.106 -118.012 402.731 -204.86 508.122 -221.366C594.622 -234.902 687.568 -204.972 718.317 -115.013C733.341 -71.0149 742.142 -38.3944 783.878 -12.2475C822.952 12.2459 873.742 32.3955 919.262 31.4427C999.623 29.7332 1079.9 -28.6419 1160.43 -39.095C1261.98 -52.2946 1391.17 -33.0978 1443.95 64.4556C1475.45 122.691 1400.06 180.281 1409.19 240.534C1417.91 297.872 1497.43 334.5 1499.2 386.037C1500.63 427.765 1520.55 533.166 1564.79 554.492C1625.11 583.554 1710.32 581.704 1758.33 633.97C1778.54 655.969 1804.07 729.618 1838.75 732.616" stroke="black" stroke-width="0.25" stroke-miterlimit="10"/>
<path d="M0.196289 -63.8686C79.5483 -45.0922 168.739 -53.1072 240.158 -83.2336C334.142 -122.888 408.028 -209.484 515.69 -230.138C599.471 -246.196 701.667 -219.181 731.295 -129.754C743.684 -92.3976 749.093 -52.3786 781.3 -26.4839C814.15 -0.0567937 868.052 15.777 909.311 14.4038C995.222 11.5173 1078.22 -46.045 1165.75 -51.9862C1271.65 -59.1605 1401.6 -36.5447 1458.58 59.4393C1494.77 120.365 1405.13 177.114 1412.08 238.04C1418.75 296.443 1508.14 328.811 1511.44 379.339C1514.22 421.32 1523.25 524.114 1569.83 548.355C1629.62 579.49 1714.02 579.799 1761.08 631.84C1781.01 653.867 1805.08 728.132 1838.78 732.644" stroke="black" stroke-width="0.25" stroke-miterlimit="10"/>
<path d="M0.196289 -63.8688C80.6415 -45.3726 170.729 -54.7608 242.429 -86.0361C337.926 -127.709 414.475 -214.444 522.698 -239.779C602.975 -258.583 714.841 -233.445 744.553 -145.56C755.456 -113.276 759.661 -66.9514 784.579 -40.9447C811.347 -13.0042 864.632 -0.757521 901.407 -2.85936C992.84 -8.07192 1079.37 -62.7758 1173.24 -64.4012C1280.87 -66.2788 1409.5 -41.6733 1472.79 54.4508C1514.81 118.263 1413.82 174.648 1417.24 234.789C1420.74 295.938 1517.39 322.814 1523.16 372.893C1528.04 415.07 1526.67 515.959 1575.1 542.021C1633.4 573.409 1718.39 578.369 1763.88 629.57C1783.59 651.709 1806.04 726.647 1838.78 732.616" stroke="black" stroke-width="0.25" stroke-miterlimit="10"/>
</g>
</svg>
