<svg width="197" height="196" viewBox="0 0 197 196" fill="none" xmlns="http://www.w3.org/2000/svg">
<path d="M59.3935 2.96969C59.3935 3.66182 59.3935 5.93939 59.3935 5.93939C59.3935 5.93939 57.3718 5.93939 56.4238 5.93925C55.6835 5.93939 53.4541 5.93925 53.4541 5.93925C53.4541 5.93925 53.4541 3.86948 53.4541 2.96962C53.4542 1.3296 54.7837 0 56.4237 0C58.0638 0 59.3935 1.32959 59.3935 2.96969Z" fill="black"/>
<path d="M68.3047 0C69.9448 0 71.2744 1.32959 71.2744 2.96969C71.2744 4.60988 69.9448 5.93939 68.3047 5.93939C66.6646 5.93939 65.335 4.60988 65.335 2.96969C65.335 1.32959 66.6646 0 68.3047 0Z" fill="black"/>
<path d="M103.938 0C104.631 0 106.908 0 106.908 0C106.908 0 106.908 2.02155 106.908 2.96969C106.908 3.7098 106.908 5.93939 106.908 5.93939C106.908 5.93939 104.839 5.93939 103.938 5.93939C102.298 5.93939 100.969 4.60922 100.969 2.96969C100.969 1.32998 102.298 0 103.938 0Z" fill="black"/>
<path d="M112.85 0H106.91V5.93939H112.85V0Z" fill="black"/>
<path d="M115.817 5.93939C115.125 5.93939 112.848 5.93939 112.848 5.93939C112.848 5.93939 112.848 3.91754 112.848 2.96969C112.848 2.22936 112.848 0 112.848 0C112.848 0 114.918 0 115.817 0C117.457 0 118.787 1.32958 118.787 2.96969C118.787 4.60973 117.457 5.93939 115.817 5.93939Z" fill="black"/>
<path d="M124.727 5.93939H130.666V0C127.386 1.18788e-05 124.727 2.65911 124.727 5.93939Z" fill="black"/>
<path d="M133.637 5.93939C132.944 5.93939 130.667 5.93939 130.667 5.93939C130.667 5.93939 130.667 3.91754 130.667 2.96969C130.667 2.22936 130.667 0 130.667 0C130.667 0 132.737 0 133.637 0C135.277 0 136.606 1.32958 136.606 2.96969C136.606 4.60973 135.277 5.93939 133.637 5.93939Z" fill="black"/>
<path d="M148.489 2.96969C148.489 3.66182 148.489 5.93939 148.489 5.93939C148.489 5.93939 146.467 5.93939 145.519 5.93925C144.779 5.93939 142.55 5.93925 142.55 5.93925C142.55 5.93925 142.55 3.86948 142.55 2.96962C142.55 1.3296 143.879 0 145.519 0C147.16 0 148.489 1.32959 148.489 2.96969Z" fill="black"/>
<path d="M59.3935 5.93933H53.4541V11.8787H59.3935V5.93933Z" fill="black"/>
<path d="M59.3984 5.93933V11.8787H65.3378C65.3378 8.59843 62.6787 5.93933 59.3984 5.93933Z" fill="black"/>
<path d="M80.1816 5.93933C80.8738 5.93933 83.1513 5.93933 83.1513 5.93933C83.1513 5.93933 83.1513 7.96089 83.1513 8.90903C83.1513 9.64913 83.1513 11.8787 83.1513 11.8787C83.1513 11.8787 81.0818 11.8787 80.1816 11.8787C78.5409 11.8787 77.2119 10.5485 77.2119 8.90903C77.2119 7.26931 78.5409 5.93933 80.1816 5.93933Z" fill="black"/>
<path d="M89.0956 5.93933H83.1562V11.8787H89.0956V5.93933Z" fill="black"/>
<path d="M89.0938 5.93945V11.8788H95.0331C95.0331 8.59855 92.374 5.93945 89.0938 5.93945Z" fill="black"/>
<path d="M121.761 5.93933C122.453 5.93933 124.73 5.93933 124.73 5.93933C124.73 5.93933 124.73 7.96089 124.73 8.90903C124.73 9.64913 124.73 11.8787 124.73 11.8787C124.73 11.8787 122.661 11.8787 121.761 11.8787C120.12 11.8787 118.791 10.5485 118.791 8.90903C118.791 7.26931 120.12 5.93933 121.761 5.93933Z" fill="black"/>
<path d="M130.666 5.93945H124.727V11.8788H130.666V5.93945Z" fill="black"/>
<path d="M148.489 5.93933H142.55V11.8787H148.489V5.93933Z" fill="black"/>
<path d="M47.5156 17.8182H53.455V11.8788C50.1748 11.8788 47.5156 14.5379 47.5156 17.8182Z" fill="black"/>
<path d="M59.3935 11.8788H53.4541V17.8182H59.3935V11.8788Z" fill="black"/>
<path d="M65.3369 11.8788H59.3975V17.8182H65.3369V11.8788Z" fill="black"/>
<path d="M68.3047 17.8182C67.6125 17.8182 65.335 17.8182 65.335 17.8182C65.335 17.8182 65.335 15.7963 65.335 14.8485C65.335 14.1081 65.335 11.8788 65.335 11.8788C65.335 11.8788 67.405 11.8788 68.3047 11.8788C69.9447 11.8788 71.2744 13.2084 71.2744 14.8485C71.2744 16.4885 69.9447 17.8182 68.3047 17.8182Z" fill="black"/>
<path d="M89.0928 14.8485C89.0928 14.1563 89.0928 11.8788 89.0928 11.8788C89.0928 11.8788 91.1146 11.8788 92.0625 11.8788C92.8028 11.8788 95.0322 11.8788 95.0322 11.8788C95.0322 11.8788 95.0322 13.9488 95.0322 14.8485C95.0322 16.4885 93.7025 17.8182 92.0625 17.8182C90.4224 17.8182 89.0928 16.4885 89.0928 14.8485Z" fill="black"/>
<path d="M106.91 17.8182H112.85V11.8788C109.569 11.8788 106.91 14.5379 106.91 17.8182Z" fill="black"/>
<path d="M112.847 11.8788V17.8182H118.786C118.786 14.5379 116.127 11.8788 112.847 11.8788Z" fill="black"/>
<path d="M130.666 11.8788H124.727V17.8182H130.666V11.8788Z" fill="black"/>
<path d="M136.604 17.8182H142.544V11.8788C139.264 11.8788 136.604 14.5379 136.604 17.8182Z" fill="black"/>
<path d="M148.489 11.8788H142.55V17.8182H148.489V11.8788Z" fill="black"/>
<path d="M53.455 23.7576V17.8182H47.5156C47.5156 21.0985 50.1747 23.7576 53.455 23.7576Z" fill="black"/>
<path d="M59.3925 17.8184H53.4531V23.7577C56.7334 23.7577 59.3925 21.0986 59.3925 17.8184Z" fill="black"/>
<path d="M77.2109 23.7576H83.1503V17.8182C79.8701 17.8182 77.2109 20.4773 77.2109 23.7576Z" fill="black"/>
<path d="M83.1514 17.8181V23.7575H89.0908C89.0908 20.4772 86.4316 17.8181 83.1514 17.8181Z" fill="black"/>
<path d="M95.0322 23.7575H100.972V17.8181C97.6914 17.8181 95.0322 20.4772 95.0322 23.7575Z" fill="black"/>
<path d="M106.908 17.8182H100.969V23.7576H106.908V17.8182Z" fill="black"/>
<path d="M112.85 17.8182H106.91V23.7576H112.85V17.8182Z" fill="black"/>
<path d="M118.787 17.8182H112.848V23.7576H118.787V17.8182Z" fill="black"/>
<path d="M124.73 17.8182H118.791V23.7576H124.73V17.8182Z" fill="black"/>
<path d="M130.666 17.8181H124.727V23.7575H130.666V17.8181Z" fill="black"/>
<path d="M142.543 17.8182H136.604V23.7576H142.543V17.8182Z" fill="black"/>
<path d="M148.489 17.8181H142.55V23.7575C145.83 23.7575 148.489 21.0983 148.489 17.8181Z" fill="black"/>
<path d="M74.2431 23.7576C74.9353 23.7576 77.2128 23.7576 77.2128 23.7576C77.2128 23.7576 77.2128 25.7791 77.2128 26.7273C77.2128 27.4674 77.2128 29.697 77.2128 29.697C77.2128 29.697 75.1433 29.697 74.2431 29.697C72.6024 29.697 71.2734 28.3668 71.2734 26.7273C71.2734 25.0876 72.6024 23.7576 74.2431 23.7576Z" fill="black"/>
<path d="M83.1513 23.7574H77.2119V29.6968H83.1513V23.7574Z" fill="black"/>
<path d="M89.0956 23.7574H83.1562V29.6968H89.0956V23.7574Z" fill="black"/>
<path d="M100.971 23.7574H95.0312V29.6968H100.971V23.7574Z" fill="black"/>
<path d="M106.91 26.7271C106.91 26.035 106.91 23.7574 106.91 23.7574C106.91 23.7574 108.932 23.7574 109.88 23.7574C110.62 23.7574 112.85 23.7574 112.85 23.7574C112.85 23.7574 112.85 25.8275 112.85 26.7271C112.85 28.3672 111.52 29.6968 109.88 29.6968C108.24 29.6968 106.91 28.3672 106.91 26.7271Z" fill="black"/>
<path d="M124.73 23.7574H118.791V29.6968H124.73V23.7574Z" fill="black"/>
<path d="M130.666 23.7576H124.727V29.697C128.007 29.697 130.666 27.0378 130.666 23.7576Z" fill="black"/>
<path d="M136.604 26.7271C136.604 26.035 136.604 23.7574 136.604 23.7574C136.604 23.7574 138.625 23.7574 139.573 23.7574C140.314 23.7574 142.543 23.7574 142.543 23.7574C142.543 23.7574 142.543 25.8275 142.543 26.7271C142.543 28.3672 141.213 29.6968 139.573 29.6968C137.933 29.6968 136.604 28.3672 136.604 26.7271Z" fill="black"/>
<path d="M68.3047 29.697C69.9448 29.697 71.2744 31.0266 71.2744 32.6667C71.2744 34.3069 69.9448 35.6364 68.3047 35.6364C66.6646 35.6364 65.335 34.3069 65.335 32.6667C65.335 31.0266 66.6646 29.697 68.3047 29.697Z" fill="black"/>
<path d="M83.1503 35.6365V29.6971H77.2109C77.2109 32.9774 79.87 35.6365 83.1503 35.6365Z" fill="black"/>
<path d="M89.0956 29.6971H83.1562V35.6365H89.0956V29.6971Z" fill="black"/>
<path d="M100.971 29.6971H95.0312V35.6365H100.971V29.6971Z" fill="black"/>
<path d="M124.73 29.6971H118.791V35.6365H124.73V29.6971Z" fill="black"/>
<path d="M148.489 32.6668C148.489 33.359 148.489 35.6365 148.489 35.6365C148.489 35.6365 146.467 35.6365 145.519 35.6364C144.779 35.6365 142.55 35.6364 142.55 35.6364C142.55 35.6364 142.55 33.5666 142.55 32.6668C142.55 31.0267 143.879 29.6971 145.519 29.6971C147.16 29.6971 148.489 31.0267 148.489 32.6668Z" fill="black"/>
<path d="M50.4873 35.6364C52.1275 35.6364 53.457 36.9659 53.457 38.606C53.457 40.2462 52.1275 41.5757 50.4873 41.5757C48.8472 41.5757 47.5176 40.2462 47.5176 38.606C47.5176 36.9659 48.8472 35.6364 50.4873 35.6364Z" fill="black"/>
<path d="M65.3369 38.6059C65.3369 39.2981 65.3369 41.5756 65.3369 41.5756C65.3369 41.5756 63.3152 41.5756 62.3672 41.5755C61.6268 41.5756 59.3975 41.5755 59.3975 41.5755C59.3975 41.5755 59.3975 39.5057 59.3975 38.6059C59.3975 36.9658 60.727 35.6362 62.3671 35.6362C64.0072 35.6362 65.3369 36.9658 65.3369 38.6059Z" fill="black"/>
<path d="M74.2431 35.6364C75.8833 35.6364 77.2128 36.9659 77.2128 38.606C77.2128 40.2462 75.8833 41.5757 74.2431 41.5757C72.603 41.5757 71.2734 40.2462 71.2734 38.606C71.2734 36.9659 72.603 35.6364 74.2431 35.6364Z" fill="black"/>
<path d="M83.1562 38.6059C83.1562 37.9137 83.1562 35.6362 83.1562 35.6362C83.1562 35.6362 85.178 35.6362 86.1259 35.6362C86.8663 35.6362 89.0956 35.6362 89.0956 35.6362C89.0956 35.6362 89.0956 37.7062 89.0956 38.6059C89.0956 40.246 87.766 41.5756 86.1259 41.5756C84.4858 41.5756 83.1562 40.246 83.1562 38.6059Z" fill="black"/>
<path d="M100.971 35.6362H95.0312V41.5756H100.971V35.6362Z" fill="black"/>
<path d="M109.88 35.6362C111.52 35.6362 112.85 36.9658 112.85 38.6059C112.85 40.2461 111.52 41.5756 109.88 41.5756C108.24 41.5756 106.91 40.2461 106.91 38.6059C106.91 36.9658 108.24 35.6362 109.88 35.6362Z" fill="black"/>
<path d="M118.791 38.6059C118.791 37.9137 118.791 35.6362 118.791 35.6362C118.791 35.6362 120.813 35.6362 121.761 35.6362C122.501 35.6362 124.73 35.6362 124.73 35.6362C124.73 35.6362 124.73 37.7062 124.73 38.6059C124.73 40.246 123.401 41.5756 121.761 41.5756C120.121 41.5756 118.791 40.246 118.791 38.6059Z" fill="black"/>
<path d="M136.606 38.6059C136.606 39.2981 136.606 41.5756 136.606 41.5756C136.606 41.5756 134.585 41.5756 133.637 41.5755C132.896 41.5756 130.667 41.5755 130.667 41.5755C130.667 41.5755 130.667 39.5057 130.667 38.6059C130.667 36.9658 131.997 35.6362 133.637 35.6362C135.277 35.6362 136.606 36.9658 136.606 38.6059Z" fill="black"/>
<path d="M142.55 38.6059C142.55 37.9137 142.55 35.6362 142.55 35.6362C142.55 35.6362 144.572 35.6362 145.519 35.6362C146.26 35.6362 148.489 35.6362 148.489 35.6362C148.489 35.6362 148.489 37.7062 148.489 38.6059C148.489 40.246 147.16 41.5756 145.519 41.5756C143.879 41.5756 142.55 40.246 142.55 38.6059Z" fill="black"/>
<path d="M59.3975 44.5454C59.3975 43.8532 59.3975 41.5757 59.3975 41.5757C59.3975 41.5757 61.4192 41.5757 62.3672 41.5757C63.1075 41.5757 65.3369 41.5757 65.3369 41.5757C65.3369 41.5757 65.3369 43.6457 65.3369 44.5454C65.3369 46.1854 64.0072 47.5151 62.3672 47.5151C60.727 47.5151 59.3975 46.1854 59.3975 44.5454Z" fill="black"/>
<path d="M89.0938 47.5151H95.0331V41.5757C91.7529 41.5757 89.0938 44.2348 89.0938 47.5151Z" fill="black"/>
<path d="M100.971 41.5757H95.0312V47.5151H100.971V41.5757Z" fill="black"/>
<path d="M136.606 47.5151V41.5757H130.667C130.667 44.8559 133.326 47.5151 136.606 47.5151Z" fill="black"/>
<path d="M136.604 41.5756V47.515H142.544C142.544 44.2347 139.885 41.5756 136.604 41.5756Z" fill="black"/>
<path d="M20.79 47.515C21.4822 47.515 23.7597 47.515 23.7597 47.515C23.7597 47.515 23.7597 49.5366 23.7597 50.4847C23.7597 51.2248 23.7597 53.4544 23.7597 53.4544C23.7597 53.4544 21.6902 53.4544 20.79 53.4544C19.1493 53.4544 17.8203 52.1242 17.8203 50.4847C17.8203 48.845 19.1493 47.515 20.79 47.515Z" fill="black"/>
<path d="M23.7588 47.5151V53.4545H29.6982C29.6982 50.1742 27.039 47.5151 23.7588 47.5151Z" fill="black"/>
<path d="M38.6093 47.5151C39.3015 47.5151 41.579 47.5151 41.579 47.5151C41.579 47.5151 41.579 49.5367 41.579 50.4848C41.579 51.2249 41.579 53.4545 41.579 53.4545C41.579 53.4545 39.5095 53.4545 38.6093 53.4545C36.9687 53.4545 35.6396 52.1244 35.6396 50.4848C35.6396 48.8451 36.9687 47.5151 38.6093 47.5151Z" fill="black"/>
<path d="M44.5459 53.4544C43.8537 53.4544 41.5762 53.4544 41.5762 53.4544C41.5762 53.4544 41.5762 51.4326 41.5762 50.4847C41.5762 49.7444 41.5762 47.515 41.5762 47.515C41.5762 47.515 43.6462 47.515 44.5459 47.515C46.1859 47.515 47.5156 48.8446 47.5156 50.4847C47.5156 52.1247 46.1859 53.4544 44.5459 53.4544Z" fill="black"/>
<path d="M68.3047 47.5151C68.9968 47.5151 71.2744 47.5151 71.2744 47.5151C71.2744 47.5151 71.2744 49.5367 71.2744 50.4848C71.2744 51.2249 71.2744 53.4545 71.2744 53.4545C71.2744 53.4545 69.2048 53.4545 68.3047 53.4545C66.664 53.4545 65.335 52.1244 65.335 50.4848C65.335 48.8451 66.664 47.5151 68.3047 47.5151Z" fill="black"/>
<path d="M77.2128 47.5151H71.2734V53.4545H77.2128V47.5151Z" fill="black"/>
<path d="M83.1513 47.515H77.2119V53.4544H83.1513V47.515Z" fill="black"/>
<path d="M89.0956 47.515H83.1562V53.4544H89.0956V47.515Z" fill="black"/>
<path d="M95.0322 47.5151H89.0928V53.4545H95.0322V47.5151Z" fill="black"/>
<path d="M100.971 47.515H95.0312V53.4544H100.971V47.515Z" fill="black"/>
<path d="M112.85 50.4847C112.85 51.1768 112.85 53.4544 112.85 53.4544C112.85 53.4544 110.828 53.4544 109.88 53.4543C109.14 53.4544 106.91 53.4543 106.91 53.4543C106.91 53.4543 106.91 51.3845 106.91 50.4846C106.91 48.8446 108.24 47.515 109.88 47.515C111.52 47.515 112.85 48.8446 112.85 50.4847Z" fill="black"/>
<path d="M121.761 47.515C123.401 47.515 124.73 48.8446 124.73 50.4847C124.73 52.1249 123.401 53.4544 121.761 53.4544C120.121 53.4544 118.791 52.1249 118.791 50.4847C118.791 48.8446 120.121 47.515 121.761 47.515Z" fill="black"/>
<path d="M142.543 47.515H136.604V53.4544H142.543V47.515Z" fill="black"/>
<path d="M145.519 53.4544C144.827 53.4544 142.55 53.4544 142.55 53.4544C142.55 53.4544 142.55 51.4326 142.55 50.4847C142.55 49.7444 142.55 47.515 142.55 47.515C142.55 47.515 144.62 47.515 145.519 47.515C147.16 47.515 148.489 48.8446 148.489 50.4847C148.489 52.1247 147.16 53.4544 145.519 53.4544Z" fill="black"/>
<path d="M172.245 53.4545H178.185V47.5151C174.904 47.5151 172.245 50.1742 172.245 53.4545Z" fill="black"/>
<path d="M178.182 47.515V53.4544H184.121C184.121 50.1741 181.462 47.515 178.182 47.515Z" fill="black"/>
<path d="M8.90719 53.4546C10.5474 53.4546 11.8769 54.7842 11.8769 56.4243C11.8769 58.0645 10.5474 59.394 8.90719 59.394C7.26709 59.394 5.9375 58.0645 5.9375 56.4243C5.9375 54.7842 7.26709 53.4546 8.90719 53.4546Z" fill="black"/>
<path d="M29.6982 53.4545H23.7588V59.3939H29.6982V53.4545Z" fill="black"/>
<path d="M32.665 59.3939C31.9728 59.3939 29.6953 59.3939 29.6953 59.3939C29.6953 59.3939 29.6953 57.372 29.6953 56.4242C29.6953 55.6838 29.6953 53.4545 29.6953 53.4545C29.6953 53.4545 31.7653 53.4545 32.665 53.4545C34.305 53.4545 35.6347 54.784 35.6347 56.4242C35.6347 58.0642 34.305 59.3939 32.665 59.3939Z" fill="black"/>
<path d="M50.4873 53.4546C52.1275 53.4546 53.457 54.7842 53.457 56.4243C53.457 58.0645 52.1275 59.394 50.4873 59.394C48.8472 59.394 47.5176 58.0645 47.5176 56.4243C47.5176 54.7842 48.8472 53.4546 50.4873 53.4546Z" fill="black"/>
<path d="M77.2128 53.4546H71.2734V59.394H77.2128V53.4546Z" fill="black"/>
<path d="M83.1513 53.4546H77.2119V59.394H83.1513V53.4546Z" fill="black"/>
<path d="M89.0908 53.4546H83.1514V59.394C86.4316 59.394 89.0908 56.7348 89.0908 53.4546Z" fill="black"/>
<path d="M95.0312 56.4243C95.0312 55.7321 95.0312 53.4546 95.0312 53.4546C95.0312 53.4546 97.053 53.4546 98.0009 53.4546C98.7413 53.4546 100.971 53.4546 100.971 53.4546C100.971 53.4546 100.971 55.5246 100.971 56.4243C100.971 58.0643 99.641 59.394 98.0009 59.394C96.3608 59.394 95.0312 58.0643 95.0312 56.4243Z" fill="black"/>
<path d="M112.85 53.4546H106.91V59.394H112.85V53.4546Z" fill="black"/>
<path d="M142.543 53.4546H136.604V59.394H142.543V53.4546Z" fill="black"/>
<path d="M154.426 56.4243C154.426 57.1164 154.426 59.394 154.426 59.394C154.426 59.394 152.404 59.394 151.456 59.3938C150.716 59.394 148.486 59.3938 148.486 59.3938C148.486 59.3938 148.486 57.3241 148.486 56.4242C148.486 54.7842 149.816 53.4546 151.456 53.4546C153.096 53.4546 154.426 54.7842 154.426 56.4243Z" fill="black"/>
<path d="M160.361 59.394H166.301V53.4546C163.021 53.4546 160.361 56.1137 160.361 59.394Z" fill="black"/>
<path d="M172.245 53.4546H166.306V59.394H172.245V53.4546Z" fill="black"/>
<path d="M178.185 53.4546H172.245V59.394H178.185V53.4546Z" fill="black"/>
<path d="M184.123 53.4545H178.184V59.3939H184.123V53.4545Z" fill="black"/>
<path d="M184.12 53.4545V59.3939H190.06C190.06 56.1136 187.4 53.4545 184.12 53.4545Z" fill="black"/>
<path d="M2.97067 59.394C4.61086 59.394 5.94037 60.7236 5.94037 62.3637C5.94037 64.0039 4.61086 65.3334 2.97067 65.3334C1.33057 65.3334 0.000976562 64.0039 0.000976562 62.3637C0.000976562 60.7236 1.33057 59.394 2.97067 59.394Z" fill="black"/>
<path d="M29.6982 59.394H23.7588V65.3334H29.6982V59.394Z" fill="black"/>
<path d="M38.6093 59.3939C40.2495 59.3939 41.579 60.7235 41.579 62.3636C41.579 64.0038 40.2495 65.3333 38.6093 65.3333C36.9692 65.3333 35.6396 64.0038 35.6396 62.3636C35.6396 60.7235 36.9692 59.3939 38.6093 59.3939Z" fill="black"/>
<path d="M68.3047 59.3939C68.9968 59.3939 71.2744 59.3939 71.2744 59.3939C71.2744 59.3939 71.2744 61.4155 71.2744 62.3636C71.2744 63.1037 71.2744 65.3333 71.2744 65.3333C71.2744 65.3333 69.2048 65.3333 68.3047 65.3333C66.664 65.3333 65.335 64.0031 65.335 62.3636C65.335 60.7239 66.664 59.3939 68.3047 59.3939Z" fill="black"/>
<path d="M77.2128 59.3939H71.2734V65.3333H77.2128V59.3939Z" fill="black"/>
<path d="M92.0625 59.394C93.7027 59.394 95.0322 60.7236 95.0322 62.3637C95.0322 64.0039 93.7027 65.3334 92.0625 65.3334C90.4224 65.3334 89.0928 64.0039 89.0928 62.3637C89.0928 60.7236 90.4224 59.394 92.0625 59.394Z" fill="black"/>
<path d="M106.91 62.3636C106.91 61.6714 106.91 59.3939 106.91 59.3939C106.91 59.3939 108.932 59.3939 109.88 59.3939C110.62 59.3939 112.85 59.3939 112.85 59.3939C112.85 59.3939 112.85 61.4639 112.85 62.3636C112.85 64.0036 111.52 65.3333 109.88 65.3333C108.24 65.3333 106.91 64.0036 106.91 62.3636Z" fill="black"/>
<path d="M127.696 59.3939C129.336 59.3939 130.666 60.7235 130.666 62.3636C130.666 64.0038 129.336 65.3333 127.696 65.3333C126.056 65.3333 124.727 64.0038 124.727 62.3636C124.727 60.7235 126.056 59.3939 127.696 59.3939Z" fill="black"/>
<path d="M136.604 62.3636C136.604 61.6714 136.604 59.3939 136.604 59.3939C136.604 59.3939 138.625 59.3939 139.573 59.3939C140.314 59.3939 142.543 59.3939 142.543 59.3939C142.543 59.3939 142.543 61.4639 142.543 62.3636C142.543 64.0036 141.213 65.3333 139.573 65.3333C137.933 65.3333 136.604 64.0036 136.604 62.3636Z" fill="black"/>
<path d="M148.486 62.3636C148.486 61.6714 148.486 59.3939 148.486 59.3939C148.486 59.3939 150.508 59.3939 151.456 59.3939C152.196 59.3939 154.426 59.3939 154.426 59.3939C154.426 59.3939 154.426 61.4639 154.426 62.3636C154.426 64.0036 153.096 65.3333 151.456 65.3333C149.816 65.3333 148.486 64.0036 148.486 62.3636Z" fill="black"/>
<path d="M166.302 59.3939H160.362V65.3333H166.302V59.3939Z" fill="black"/>
<path d="M184.123 59.3938H178.184V65.3332H184.123V59.3938Z" fill="black"/>
<path d="M190.06 59.3939H184.12V65.3333H190.06V59.3939Z" fill="black"/>
<path d="M190.062 59.3939V65.3333H196.001C196.001 62.053 193.342 59.3939 190.062 59.3939Z" fill="black"/>
<path d="M8.90719 65.3333C9.59937 65.3333 11.8769 65.3333 11.8769 65.3333C11.8769 65.3333 11.8769 67.3548 11.8769 68.3029C11.8769 69.0431 11.8769 71.2726 11.8769 71.2726C11.8769 71.2726 9.80738 71.2726 8.90719 71.2726C7.26651 71.2726 5.9375 69.9425 5.9375 68.3029C5.9375 66.6632 7.26651 65.3333 8.90719 65.3333Z" fill="black"/>
<path d="M14.8515 71.2726C14.1593 71.2726 11.8818 71.2726 11.8818 71.2726C11.8818 71.2726 11.8818 69.2508 11.8818 68.3029C11.8818 67.5626 11.8818 65.3333 11.8818 65.3333C11.8818 65.3333 13.9518 65.3333 14.8515 65.3333C16.4916 65.3333 17.8212 66.6628 17.8212 68.3029C17.8212 69.943 16.4916 71.2726 14.8515 71.2726Z" fill="black"/>
<path d="M29.6982 65.3333H23.7588V71.2726H29.6982V65.3333Z" fill="black"/>
<path d="M56.4238 65.3333C57.116 65.3333 59.3935 65.3333 59.3935 65.3333C59.3935 65.3333 59.3935 67.3548 59.3935 68.3029C59.3935 69.0431 59.3935 71.2726 59.3935 71.2726C59.3935 71.2726 57.324 71.2726 56.4238 71.2726C54.7831 71.2726 53.4541 69.9425 53.4541 68.3029C53.4541 66.6632 54.7831 65.3333 56.4238 65.3333Z" fill="black"/>
<path d="M62.3672 71.2726C61.675 71.2726 59.3975 71.2726 59.3975 71.2726C59.3975 71.2726 59.3975 69.2508 59.3975 68.3029C59.3975 67.5626 59.3975 65.3333 59.3975 65.3333C59.3975 65.3333 61.4675 65.3333 62.3672 65.3333C64.0072 65.3333 65.3369 66.6628 65.3369 68.3029C65.3369 69.943 64.0072 71.2726 62.3672 71.2726Z" fill="black"/>
<path d="M77.2128 71.2726V65.3333H71.2734C71.2734 68.6135 73.9325 71.2726 77.2128 71.2726Z" fill="black"/>
<path d="M80.1816 71.2726C79.4894 71.2726 77.2119 71.2726 77.2119 71.2726C77.2119 71.2726 77.2119 69.2508 77.2119 68.3029C77.2119 67.5626 77.2119 65.3333 77.2119 65.3333C77.2119 65.3333 79.2819 65.3333 80.1816 65.3333C81.8216 65.3333 83.1513 66.6628 83.1513 68.3029C83.1513 69.943 81.8216 71.2726 80.1816 71.2726Z" fill="black"/>
<path d="M103.938 65.3333C105.579 65.3333 106.908 66.6628 106.908 68.3029C106.908 69.9431 105.579 71.2726 103.938 71.2726C102.298 71.2726 100.969 69.9431 100.969 68.3029C100.969 66.6628 102.298 65.3333 103.938 65.3333Z" fill="black"/>
<path d="M118.787 68.3029C118.787 68.9951 118.787 71.2726 118.787 71.2726C118.787 71.2726 116.765 71.2726 115.817 71.2725C115.077 71.2726 112.848 71.2725 112.848 71.2725C112.848 71.2725 112.848 69.2027 112.848 68.3029C112.848 66.6629 114.177 65.3333 115.817 65.3333C117.457 65.3333 118.787 66.6628 118.787 68.3029Z" fill="black"/>
<path d="M148.489 68.3029C148.489 68.9951 148.489 71.2726 148.489 71.2726C148.489 71.2726 146.467 71.2726 145.519 71.2725C144.779 71.2726 142.55 71.2725 142.55 71.2725C142.55 71.2725 142.55 69.2027 142.55 68.3029C142.55 66.6629 143.879 65.3333 145.519 65.3333C147.16 65.3333 148.489 66.6628 148.489 68.3029Z" fill="black"/>
<path d="M154.422 71.2729H160.361V65.3335C157.081 65.3335 154.422 67.9926 154.422 71.2729Z" fill="black"/>
<path d="M166.302 65.3333H160.362V71.2726H166.302V65.3333Z" fill="black"/>
<path d="M172.245 65.3333H166.306V71.2726H172.245V65.3333Z" fill="black"/>
<path d="M178.185 65.3333H172.245V71.2726H178.185V65.3333Z" fill="black"/>
<path d="M184.123 65.3334H178.184V71.2728H184.123V65.3334Z" fill="black"/>
<path d="M190.06 65.3333H184.12V71.2726H190.06V65.3333Z" fill="black"/>
<path d="M196.002 65.3333H190.062V71.2726H196.002V65.3333Z" fill="black"/>
<path d="M17.8203 77.2122H23.7597V71.2728C20.4795 71.2728 17.8203 73.9319 17.8203 77.2122Z" fill="black"/>
<path d="M29.6982 71.2727H23.7588V77.2121C27.039 77.2121 29.6982 74.5529 29.6982 71.2727Z" fill="black"/>
<path d="M38.6093 71.2727C39.3015 71.2727 41.579 71.2727 41.579 71.2727C41.579 71.2727 41.579 73.2943 41.579 74.2424C41.579 74.9825 41.579 77.2121 41.579 77.2121C41.579 77.2121 39.5095 77.2121 38.6093 77.2121C36.9687 77.2121 35.6396 75.8819 35.6396 74.2424C35.6396 72.6027 36.9687 71.2727 38.6093 71.2727Z" fill="black"/>
<path d="M47.5156 71.2727H41.5762V77.2121H47.5156V71.2727Z" fill="black"/>
<path d="M50.4873 77.2121C49.7951 77.2121 47.5176 77.2121 47.5176 77.2121C47.5176 77.2121 47.5176 75.1902 47.5176 74.2424C47.5176 73.5021 47.5176 71.2727 47.5176 71.2727C47.5176 71.2727 49.5876 71.2727 50.4873 71.2727C52.1273 71.2727 53.457 72.6023 53.457 74.2424C53.457 75.8824 52.1273 77.2121 50.4873 77.2121Z" fill="black"/>
<path d="M86.1259 71.2727C87.7661 71.2727 89.0956 72.6023 89.0956 74.2424C89.0956 75.8826 87.7661 77.2121 86.1259 77.2121C84.4858 77.2121 83.1562 75.8826 83.1562 74.2424C83.1562 72.6023 84.4858 71.2727 86.1259 71.2727Z" fill="black"/>
<path d="M100.971 74.2424C100.971 74.9345 100.971 77.2121 100.971 77.2121C100.971 77.2121 98.9489 77.2121 98.0009 77.212C97.2606 77.2121 95.0312 77.212 95.0312 77.212C95.0312 77.212 95.0312 75.1422 95.0312 74.2423C95.0313 72.6023 96.3608 71.2727 98.0009 71.2727C99.641 71.2727 100.971 72.6023 100.971 74.2424Z" fill="black"/>
<path d="M109.88 71.2727C110.572 71.2727 112.85 71.2727 112.85 71.2727C112.85 71.2727 112.85 73.2943 112.85 74.2424C112.85 74.9825 112.85 77.2121 112.85 77.2121C112.85 77.2121 110.78 77.2121 109.88 77.2121C108.239 77.2121 106.91 75.8819 106.91 74.2424C106.91 72.6027 108.239 71.2727 109.88 71.2727Z" fill="black"/>
<path d="M118.787 71.2727H112.848V77.2121H118.787V71.2727Z" fill="black"/>
<path d="M124.73 71.2727H118.791V77.2121H124.73V71.2727Z" fill="black"/>
<path d="M130.666 71.2727H124.727V77.2121H130.666V71.2727Z" fill="black"/>
<path d="M130.667 71.2728V77.2122H136.606C136.606 73.9319 133.947 71.2728 130.667 71.2728Z" fill="black"/>
<path d="M142.55 74.2424C142.55 73.5502 142.55 71.2727 142.55 71.2727C142.55 71.2727 144.572 71.2727 145.519 71.2727C146.26 71.2727 148.489 71.2727 148.489 71.2727C148.489 71.2727 148.489 73.3427 148.489 74.2424C148.489 75.8824 147.16 77.2121 145.519 77.2121C143.879 77.2121 142.55 75.8824 142.55 74.2424Z" fill="black"/>
<path d="M160.361 77.2122V71.2728H154.422C154.422 74.5531 157.081 77.2122 160.361 77.2122Z" fill="black"/>
<path d="M166.302 71.2727H160.362V77.2121H166.302V71.2727Z" fill="black"/>
<path d="M172.245 71.2727H166.306V77.2121H172.245V71.2727Z" fill="black"/>
<path d="M178.185 71.2728H172.245V77.2122C175.525 77.2122 178.185 74.5531 178.185 71.2728Z" fill="black"/>
<path d="M190.062 74.2424C190.062 73.5502 190.062 71.2727 190.062 71.2727C190.062 71.2727 192.084 71.2727 193.032 71.2727C193.773 71.2727 196.002 71.2727 196.002 71.2727C196.002 71.2727 196.002 73.3427 196.002 74.2424C196.002 75.8824 194.672 77.2121 193.032 77.2121C191.392 77.2121 190.062 75.8824 190.062 74.2424Z" fill="black"/>
<path d="M2.97067 77.212C3.66285 77.212 5.94037 77.212 5.94037 77.212C5.94037 77.212 5.94037 79.2336 5.94037 80.1817C5.94037 80.9218 5.94037 83.1514 5.94037 83.1514C5.94037 83.1514 3.87086 83.1514 2.97067 83.1514C1.32999 83.1514 0.000976562 81.8213 0.000976562 80.1817C0.000976562 78.542 1.32999 77.212 2.97067 77.212Z" fill="black"/>
<path d="M5.93652 77.2118V83.1512H11.8759C11.8759 79.8709 9.21675 77.2118 5.93652 77.2118Z" fill="black"/>
<path d="M23.7597 77.2119H17.8203V83.1513H23.7597V77.2119Z" fill="black"/>
<path d="M71.2744 80.1816C71.2744 80.8737 71.2744 83.1513 71.2744 83.1513C71.2744 83.1513 69.2527 83.1513 68.3047 83.1512C67.5643 83.1513 65.335 83.1512 65.335 83.1512C65.335 83.1512 65.335 81.0814 65.335 80.1815C65.335 78.5415 66.6645 77.2119 68.3046 77.2119C69.9447 77.2119 71.2744 78.5415 71.2744 80.1816Z" fill="black"/>
<path d="M92.0625 77.212C92.7546 77.212 95.0322 77.212 95.0322 77.212C95.0322 77.212 95.0322 79.2336 95.0322 80.1817C95.0322 80.9218 95.0322 83.1514 95.0322 83.1514C95.0322 83.1514 92.9627 83.1514 92.0625 83.1514C90.4218 83.1514 89.0928 81.8213 89.0928 80.1817C89.0928 78.542 90.4218 77.212 92.0625 77.212Z" fill="black"/>
<path d="M100.971 77.2119H95.0312V83.1513H100.971V77.2119Z" fill="black"/>
<path d="M103.938 83.1513C103.246 83.1513 100.969 83.1513 100.969 83.1513C100.969 83.1513 100.969 81.1295 100.969 80.1816C100.969 79.4413 100.969 77.2119 100.969 77.2119C100.969 77.2119 103.039 77.2119 103.938 77.2119C105.578 77.2119 106.908 78.5415 106.908 80.1816C106.908 81.8216 105.578 83.1513 103.938 83.1513Z" fill="black"/>
<path d="M112.848 80.1816C112.848 79.4894 112.848 77.2119 112.848 77.2119C112.848 77.2119 114.869 77.2119 115.817 77.2119C116.558 77.2119 118.787 77.2119 118.787 77.2119C118.787 77.2119 118.787 79.2819 118.787 80.1816C118.787 81.8216 117.457 83.1513 115.817 83.1513C114.177 83.1513 112.848 81.8216 112.848 80.1816Z" fill="black"/>
<path d="M130.666 83.1515V77.2122H124.727C124.727 80.4924 127.386 83.1515 130.666 83.1515Z" fill="black"/>
<path d="M136.606 77.2119H130.667V83.1513H136.606V77.2119Z" fill="black"/>
<path d="M139.573 83.1513C138.881 83.1513 136.604 83.1513 136.604 83.1513C136.604 83.1513 136.604 81.1295 136.604 80.1816C136.604 79.4413 136.604 77.2119 136.604 77.2119C136.604 77.2119 138.674 77.2119 139.573 77.2119C141.213 77.2119 142.543 78.5415 142.543 80.1816C142.543 81.8216 141.213 83.1513 139.573 83.1513Z" fill="black"/>
<path d="M181.153 77.212C181.845 77.212 184.123 77.212 184.123 77.212C184.123 77.212 184.123 79.2336 184.123 80.1817C184.123 80.9218 184.123 83.1514 184.123 83.1514C184.123 83.1514 182.053 83.1514 181.153 83.1514C179.513 83.1514 178.184 81.8213 178.184 80.1817C178.184 78.542 179.513 77.212 181.153 77.212Z" fill="black"/>
<path d="M187.09 83.1513C186.398 83.1513 184.12 83.1513 184.12 83.1513C184.12 83.1513 184.12 81.1295 184.12 80.1816C184.12 79.4413 184.12 77.2119 184.12 77.2119C184.12 77.2119 186.19 77.2119 187.09 77.2119C188.73 77.2119 190.06 78.5415 190.06 80.1816C190.06 81.8216 188.73 83.1513 187.09 83.1513Z" fill="black"/>
<path d="M11.8769 83.1515H5.9375V89.0909H11.8769V83.1515Z" fill="black"/>
<path d="M17.8212 83.1515H11.8818V89.0909H17.8212V83.1515Z" fill="black"/>
<path d="M23.7597 83.1515H17.8203V89.0909H23.7597V83.1515Z" fill="black"/>
<path d="M26.7285 89.0908C26.0363 89.0908 23.7588 89.0908 23.7588 89.0908C23.7588 89.0908 23.7588 87.0689 23.7588 86.1211C23.7588 85.3807 23.7588 83.1514 23.7588 83.1514C23.7588 83.1514 25.8288 83.1514 26.7285 83.1514C28.3685 83.1514 29.6982 84.4809 29.6982 86.1211C29.6982 87.7611 28.3685 89.0908 26.7285 89.0908Z" fill="black"/>
<path d="M38.6093 83.1516C39.3015 83.1516 41.579 83.1516 41.579 83.1516C41.579 83.1516 41.579 85.1732 41.579 86.1213C41.579 86.8614 41.579 89.091 41.579 89.091C41.579 89.091 39.5095 89.091 38.6093 89.091C36.9687 89.091 35.6396 87.7608 35.6396 86.1213C35.6396 84.4816 36.9687 83.1516 38.6093 83.1516Z" fill="black"/>
<path d="M44.5459 89.0909C43.8537 89.0909 41.5762 89.0909 41.5762 89.0909C41.5762 89.0909 41.5762 87.069 41.5762 86.1212C41.5762 85.3809 41.5762 83.1515 41.5762 83.1515C41.5762 83.1515 43.6462 83.1515 44.5459 83.1515C46.1859 83.1515 47.5156 84.4811 47.5156 86.1212C47.5156 87.7612 46.1859 89.0909 44.5459 89.0909Z" fill="black"/>
<path d="M71.2744 89.091V83.1516H65.335C65.335 86.4318 67.9941 89.091 71.2744 89.091Z" fill="black"/>
<path d="M74.2431 89.0908C73.5509 89.0908 71.2734 89.0908 71.2734 89.0908C71.2734 89.0908 71.2734 87.0689 71.2734 86.1211C71.2734 85.3807 71.2734 83.1514 71.2734 83.1514C71.2734 83.1514 73.3434 83.1514 74.2431 83.1514C75.8832 83.1514 77.2128 84.4809 77.2128 86.1211C77.2128 87.7611 75.8832 89.0908 74.2431 89.0908Z" fill="black"/>
<path d="M109.88 83.1515C111.52 83.1515 112.85 84.4811 112.85 86.1212C112.85 87.7614 111.52 89.0909 109.88 89.0909C108.24 89.0909 106.91 87.7614 106.91 86.1212C106.91 84.4811 108.24 83.1515 109.88 83.1515Z" fill="black"/>
<path d="M121.761 83.1515C123.401 83.1515 124.73 84.4811 124.73 86.1212C124.73 87.7614 123.401 89.0909 121.761 89.0909C120.121 89.0909 118.791 87.7614 118.791 86.1212C118.791 84.4811 120.121 83.1515 121.761 83.1515Z" fill="black"/>
<path d="M148.489 86.1212C148.489 86.8133 148.489 89.0909 148.489 89.0909C148.489 89.0909 146.467 89.0909 145.519 89.0907C144.779 89.0909 142.55 89.0907 142.55 89.0907C142.55 89.0907 142.55 87.021 142.55 86.1211C142.55 84.4811 143.879 83.1515 145.519 83.1515C147.16 83.1515 148.489 84.4811 148.489 86.1212Z" fill="black"/>
<path d="M157.395 83.1516C159.036 83.1516 160.365 84.4812 160.365 86.1213C160.365 87.7615 159.036 89.091 157.395 89.091C155.755 89.091 154.426 87.7615 154.426 86.1213C154.426 84.4812 155.755 83.1516 157.395 83.1516Z" fill="black"/>
<path d="M169.275 83.1515C169.968 83.1515 172.245 83.1515 172.245 83.1515C172.245 83.1515 172.245 85.173 172.245 86.1212C172.245 86.8613 172.245 89.0909 172.245 89.0909C172.245 89.0909 170.176 89.0909 169.275 89.0909C167.635 89.0909 166.306 87.7607 166.306 86.1212C166.306 84.4815 167.635 83.1515 169.275 83.1515Z" fill="black"/>
<path d="M172.245 83.1514V89.0908H178.185C178.185 85.8105 175.525 83.1514 172.245 83.1514Z" fill="black"/>
<path d="M11.8769 89.0907H5.9375V95.0301H11.8769V89.0907Z" fill="black"/>
<path d="M17.8212 89.0907H11.8818V95.0301H17.8212V89.0907Z" fill="black"/>
<path d="M23.7597 89.0907H17.8203V95.0301C21.1005 95.0301 23.7597 92.3709 23.7597 89.0907Z" fill="black"/>
<path d="M32.665 89.0909C34.3052 89.0909 35.6347 90.4205 35.6347 92.0606C35.6347 93.7008 34.3052 95.0303 32.665 95.0303C31.0249 95.0303 29.6953 93.7008 29.6953 92.0606C29.6953 90.4205 31.0249 89.0909 32.665 89.0909Z" fill="black"/>
<path d="M77.2109 95.0301H83.1503V89.0907C79.8701 89.0907 77.2109 91.7498 77.2109 95.0301Z" fill="black"/>
<path d="M86.1259 95.0301C85.4338 95.0301 83.1562 95.0301 83.1562 95.0301C83.1562 95.0301 83.1562 93.0082 83.1562 92.0604C83.1562 91.3201 83.1562 89.0907 83.1562 89.0907C83.1562 89.0907 85.2263 89.0907 86.1259 89.0907C87.766 89.0907 89.0956 90.4203 89.0956 92.0604C89.0956 93.7004 87.766 95.0301 86.1259 95.0301Z" fill="black"/>
<path d="M95.0322 95.03H100.972V89.0906C97.6914 89.0906 95.0322 91.7497 95.0322 95.03Z" fill="black"/>
<path d="M103.938 95.0302C103.246 95.0302 100.969 95.0302 100.969 95.0302C100.969 95.0302 100.969 93.0084 100.969 92.0605C100.969 91.3202 100.969 89.0908 100.969 89.0908C100.969 89.0908 103.039 89.0908 103.938 89.0908C105.578 89.0908 106.908 90.4204 106.908 92.0605C106.908 93.7005 105.578 95.0302 103.938 95.0302Z" fill="black"/>
<path d="M118.787 92.0604C118.787 92.7525 118.787 95.0301 118.787 95.0301C118.787 95.0301 116.765 95.0301 115.817 95.0299C115.077 95.0301 112.848 95.0299 112.848 95.0299C112.848 95.0299 112.848 92.9602 112.848 92.0603C112.848 90.4203 114.177 89.0907 115.817 89.0907C117.457 89.0907 118.787 90.4203 118.787 92.0604Z" fill="black"/>
<path d="M136.604 95.03H142.544V89.0906C139.264 89.0906 136.604 91.7497 136.604 95.03Z" fill="black"/>
<path d="M148.489 89.0907H142.55V95.0301H148.489V89.0907Z" fill="black"/>
<path d="M148.486 89.0908V95.0302H154.426C154.426 91.7499 151.767 89.0908 148.486 89.0908Z" fill="black"/>
<path d="M166.302 92.0604C166.302 92.7525 166.302 95.0301 166.302 95.0301C166.302 95.0301 164.28 95.0301 163.332 95.0299C162.592 95.0301 160.362 95.0299 160.362 95.0299C160.362 95.0299 160.362 92.9602 160.362 92.0603C160.362 90.4203 161.692 89.0907 163.332 89.0907C164.972 89.0907 166.302 90.4203 166.302 92.0604Z" fill="black"/>
<path d="M178.185 89.0907H172.245V95.0301H178.185V89.0907Z" fill="black"/>
<path d="M184.123 89.0908H178.184V95.0302H184.123V89.0908Z" fill="black"/>
<path d="M190.06 89.0909H184.12V95.0303H190.06V89.0909Z" fill="black"/>
<path d="M193.032 95.0303C192.34 95.0303 190.062 95.0303 190.062 95.0303C190.062 95.0303 190.062 93.0085 190.062 92.0606C190.062 91.3203 190.062 89.0909 190.062 89.0909C190.062 89.0909 192.133 89.0909 193.032 89.0909C194.672 89.0909 196.002 90.4205 196.002 92.0606C196.002 93.7007 194.672 95.0303 193.032 95.0303Z" fill="black"/>
<path d="M0 100.97H5.93939V95.0303C2.6592 95.0303 0 97.6894 0 100.97Z" fill="black"/>
<path d="M11.8759 95.03H5.93652V100.969C9.21675 100.969 11.8759 98.3103 11.8759 95.03Z" fill="black"/>
<path d="M26.7285 95.0303C28.3687 95.0303 29.6982 96.3599 29.6982 98C29.6982 99.6402 28.3687 100.97 26.7285 100.97C25.0884 100.97 23.7588 99.6402 23.7588 98C23.7588 96.3599 25.0884 95.0303 26.7285 95.0303Z" fill="black"/>
<path d="M38.6093 95.0302C39.3015 95.0302 41.579 95.0302 41.579 95.0302C41.579 95.0302 41.579 97.0517 41.579 97.9998C41.579 98.74 41.579 100.97 41.579 100.97C41.579 100.97 39.5095 100.97 38.6093 100.97C36.9687 100.97 35.6396 99.6394 35.6396 97.9998C35.6396 96.3601 36.9687 95.0302 38.6093 95.0302Z" fill="black"/>
<path d="M44.5459 100.969C43.8537 100.969 41.5762 100.969 41.5762 100.969C41.5762 100.969 41.5762 98.9476 41.5762 97.9997C41.5762 97.2594 41.5762 95.03 41.5762 95.03C41.5762 95.03 43.6462 95.03 44.5459 95.03C46.1859 95.03 47.5156 96.3596 47.5156 97.9997C47.5156 99.6398 46.1859 100.969 44.5459 100.969Z" fill="black"/>
<path d="M53.4531 100.97H59.3925V95.0302C56.1123 95.0302 53.4531 97.6893 53.4531 100.97Z" fill="black"/>
<path d="M62.3672 100.97C61.675 100.97 59.3975 100.97 59.3975 100.97C59.3975 100.97 59.3975 98.9477 59.3975 97.9998C59.3975 97.2595 59.3975 95.0302 59.3975 95.0302C59.3975 95.0302 61.4675 95.0302 62.3672 95.0302C64.0072 95.0302 65.3369 96.3597 65.3369 97.9998C65.3369 99.6399 64.0072 100.97 62.3672 100.97Z" fill="black"/>
<path d="M77.2119 97.9997C77.2119 97.3075 77.2119 95.03 77.2119 95.03C77.2119 95.03 79.2337 95.03 80.1816 95.03C80.9219 95.03 83.1513 95.03 83.1513 95.03C83.1513 95.03 83.1513 97.1 83.1513 97.9997C83.1513 99.6398 81.8216 100.969 80.1816 100.969C78.5415 100.969 77.2119 99.6398 77.2119 97.9997Z" fill="black"/>
<path d="M95.0312 97.9997C95.0312 97.3075 95.0312 95.03 95.0312 95.03C95.0312 95.03 97.053 95.03 98.0009 95.03C98.7413 95.03 100.971 95.03 100.971 95.03C100.971 95.03 100.971 97.1 100.971 97.9997C100.971 99.6398 99.641 100.969 98.0009 100.969C96.3608 100.969 95.0312 99.6398 95.0312 97.9997Z" fill="black"/>
<path d="M106.91 100.969H112.85V95.03C109.569 95.03 106.91 97.6891 106.91 100.969Z" fill="black"/>
<path d="M118.786 95.03H112.847V100.969C116.127 100.969 118.786 98.3103 118.786 95.03Z" fill="black"/>
<path d="M136.604 97.9997C136.604 97.3075 136.604 95.03 136.604 95.03C136.604 95.03 138.625 95.03 139.573 95.03C140.314 95.03 142.543 95.03 142.543 95.03C142.543 95.03 142.543 97.1 142.543 97.9997C142.543 99.6398 141.213 100.969 139.573 100.969C137.933 100.969 136.604 99.6398 136.604 97.9997Z" fill="black"/>
<path d="M154.426 100.97V95.0303H148.486C148.486 98.3105 151.145 100.97 154.426 100.97Z" fill="black"/>
<path d="M160.365 95.0302H154.426V100.97H160.365V95.0302Z" fill="black"/>
<path d="M166.302 95.03H160.362V100.969H166.302V95.03Z" fill="black"/>
<path d="M172.245 95.03H166.306V100.969H172.245V95.03Z" fill="black"/>
<path d="M178.185 95.0303H172.245V100.97H178.185V95.0303Z" fill="black"/>
<path d="M184.12 97.9998C184.12 97.3077 184.12 95.0302 184.12 95.0302C184.12 95.0302 186.142 95.0302 187.09 95.0302C187.83 95.0302 190.06 95.0302 190.06 95.0302C190.06 95.0302 190.06 97.1002 190.06 97.9998C190.06 99.6399 188.73 100.97 187.09 100.97C185.45 100.97 184.12 99.6399 184.12 97.9998Z" fill="black"/>
<path d="M0.000976562 103.94C0.000976562 103.247 0.000976562 100.97 0.000976562 100.97C0.000976562 100.97 2.02276 100.97 2.97067 100.97C3.711 100.97 5.94037 100.97 5.94037 100.97C5.94037 100.97 5.94037 103.04 5.94037 103.94C5.94037 105.58 4.6107 106.909 2.97067 106.909C1.33056 106.909 0.000976562 105.58 0.000976562 103.94Z" fill="black"/>
<path d="M23.7597 103.939C23.7597 104.631 23.7597 106.909 23.7597 106.909C23.7597 106.909 21.738 106.909 20.79 106.909C20.0497 106.909 17.8203 106.909 17.8203 106.909C17.8203 106.909 17.8203 104.839 17.8203 103.939C17.8204 102.299 19.1499 100.969 20.7899 100.969C22.43 100.969 23.7597 102.299 23.7597 103.939Z" fill="black"/>
<path d="M35.6347 103.939C35.6347 104.631 35.6347 106.909 35.6347 106.909C35.6347 106.909 33.613 106.909 32.665 106.909C31.9247 106.909 29.6953 106.909 29.6953 106.909C29.6953 106.909 29.6953 104.839 29.6953 103.939C29.6954 102.299 31.0249 100.97 32.6649 100.97C34.305 100.97 35.6347 102.299 35.6347 103.939Z" fill="black"/>
<path d="M50.4873 100.97C51.1794 100.97 53.457 100.97 53.457 100.97C53.457 100.97 53.457 102.991 53.457 103.939C53.457 104.679 53.457 106.909 53.457 106.909C53.457 106.909 51.3875 106.909 50.4873 106.909C48.8466 106.909 47.5176 105.579 47.5176 103.939C47.5176 102.3 48.8466 100.97 50.4873 100.97Z" fill="black"/>
<path d="M59.3935 100.97H53.4541V106.909H59.3935V100.97Z" fill="black"/>
<path d="M65.335 106.909H71.2744V100.97C67.9942 100.97 65.335 103.629 65.335 106.909Z" fill="black"/>
<path d="M74.2431 106.909C73.5509 106.909 71.2734 106.909 71.2734 106.909C71.2734 106.909 71.2734 104.887 71.2734 103.939C71.2734 103.199 71.2734 100.97 71.2734 100.97C71.2734 100.97 73.3434 100.97 74.2431 100.97C75.8832 100.97 77.2128 102.299 77.2128 103.939C77.2128 105.579 75.8832 106.909 74.2431 106.909Z" fill="black"/>
<path d="M86.1259 100.97C87.7661 100.97 89.0956 102.299 89.0956 103.939C89.0956 105.579 87.7661 106.909 86.1259 106.909C84.4858 106.909 83.1562 105.579 83.1562 103.939C83.1562 102.299 84.4858 100.97 86.1259 100.97Z" fill="black"/>
<path d="M100.969 106.909H106.908V100.97C103.628 100.97 100.969 103.629 100.969 106.909Z" fill="black"/>
<path d="M112.85 100.97H106.91V106.909C110.19 106.909 112.85 104.25 112.85 100.97Z" fill="black"/>
<path d="M118.792 106.909H124.731V100.97C121.451 100.97 118.792 103.629 118.792 106.909Z" fill="black"/>
<path d="M130.666 100.97H124.727V106.909H130.666V100.97Z" fill="black"/>
<path d="M133.637 106.909C132.944 106.909 130.667 106.909 130.667 106.909C130.667 106.909 130.667 104.887 130.667 103.939C130.667 103.199 130.667 100.97 130.667 100.97C130.667 100.97 132.737 100.97 133.637 100.97C135.277 100.97 136.606 102.299 136.606 103.939C136.606 105.579 135.277 106.909 133.637 106.909Z" fill="black"/>
<path d="M145.519 100.97C147.16 100.97 148.489 102.299 148.489 103.939C148.489 105.579 147.16 106.909 145.519 106.909C143.879 106.909 142.55 105.579 142.55 103.939C142.55 102.299 143.879 100.97 145.519 100.97Z" fill="black"/>
<path d="M160.361 106.909V100.97H154.422C154.422 104.25 157.081 106.909 160.361 106.909Z" fill="black"/>
<path d="M166.302 100.97H160.362V106.909H166.302V100.97Z" fill="black"/>
<path d="M172.245 100.97H166.306V106.909H172.245V100.97Z" fill="black"/>
<path d="M178.185 100.97H172.245V106.909H178.185V100.97Z" fill="black"/>
<path d="M196.002 103.939C196.002 104.631 196.002 106.909 196.002 106.909C196.002 106.909 193.98 106.909 193.032 106.909C192.292 106.909 190.062 106.909 190.062 106.909C190.062 106.909 190.062 104.839 190.062 103.939C190.063 102.299 191.392 100.97 193.032 100.97C194.672 100.97 196.002 102.299 196.002 103.939Z" fill="black"/>
<path d="M11.8769 109.879C11.8769 110.571 11.8769 112.848 11.8769 112.848C11.8769 112.848 9.85519 112.848 8.90719 112.848C8.16686 112.848 5.9375 112.848 5.9375 112.848C5.9375 112.848 5.9375 110.778 5.9375 109.879C5.93757 108.239 7.26708 106.909 8.90712 106.909C10.5472 106.909 11.8769 108.239 11.8769 109.879Z" fill="black"/>
<path d="M23.7597 106.909H17.8203V112.848H23.7597V106.909Z" fill="black"/>
<path d="M29.6982 106.909H23.7588V112.848H29.6982V106.909Z" fill="black"/>
<path d="M35.6347 106.909H29.6953V112.848H35.6347V106.909Z" fill="black"/>
<path d="M41.579 106.909H35.6396V112.848H41.579V106.909Z" fill="black"/>
<path d="M41.5781 106.909V112.848H47.5175C47.5175 109.568 44.8584 106.909 41.5781 106.909Z" fill="black"/>
<path d="M59.3935 106.909H53.4541V112.848H59.3935V106.909Z" fill="black"/>
<path d="M71.2744 106.909H65.335V112.848H71.2744V106.909Z" fill="black"/>
<path d="M83.1513 109.879C83.1513 110.571 83.1513 112.848 83.1513 112.848C83.1513 112.848 81.1296 112.848 80.1816 112.848C79.4413 112.848 77.2119 112.848 77.2119 112.848C77.2119 112.848 77.2119 110.778 77.2119 109.879C77.212 108.239 78.5415 106.909 80.1815 106.909C81.8216 106.909 83.1513 108.239 83.1513 109.879Z" fill="black"/>
<path d="M95.0322 109.879C95.0322 110.571 95.0322 112.848 95.0322 112.848C95.0322 112.848 93.0105 112.848 92.0625 112.848C91.3221 112.848 89.0928 112.848 89.0928 112.848C89.0928 112.848 89.0928 110.779 89.0928 109.879C89.0928 108.239 90.4224 106.909 92.0624 106.909C93.7025 106.909 95.0322 108.239 95.0322 109.879Z" fill="black"/>
<path d="M106.908 106.909H100.969V112.848H106.908V106.909Z" fill="black"/>
<path d="M118.791 109.879C118.791 109.186 118.791 106.909 118.791 106.909C118.791 106.909 120.813 106.909 121.761 106.909C122.501 106.909 124.73 106.909 124.73 106.909C124.73 106.909 124.73 108.979 124.73 109.879C124.73 111.519 123.401 112.848 121.761 112.848C120.121 112.848 118.791 111.519 118.791 109.879Z" fill="black"/>
<path d="M142.543 109.879C142.543 110.571 142.543 112.848 142.543 112.848C142.543 112.848 140.521 112.848 139.573 112.848C138.833 112.848 136.604 112.848 136.604 112.848C136.604 112.848 136.604 110.778 136.604 109.879C136.604 108.239 137.933 106.909 139.573 106.909C141.213 106.909 142.543 108.239 142.543 109.879Z" fill="black"/>
<path d="M172.245 106.909H166.306V112.848H172.245V106.909Z" fill="black"/>
<path d="M178.185 106.909H172.245V112.848H178.185V106.909Z" fill="black"/>
<path d="M178.182 106.909V112.848H184.121C184.121 109.568 181.462 106.909 178.182 106.909Z" fill="black"/>
<path d="M190.062 109.879C190.062 109.187 190.062 106.909 190.062 106.909C190.062 106.909 192.084 106.909 193.032 106.909C193.773 106.909 196.002 106.909 196.002 106.909C196.002 106.909 196.002 108.979 196.002 109.879C196.002 111.519 194.672 112.848 193.032 112.848C191.392 112.848 190.062 111.519 190.062 109.879Z" fill="black"/>
<path d="M2.97067 112.848C3.66285 112.848 5.94037 112.848 5.94037 112.848C5.94037 112.848 5.94037 114.87 5.94037 115.818C5.94037 116.558 5.94037 118.788 5.94037 118.788C5.94037 118.788 3.87086 118.788 2.97067 118.788C1.32999 118.788 0.000976562 117.458 0.000976562 115.818C0.000976562 114.178 1.32999 112.848 2.97067 112.848Z" fill="black"/>
<path d="M11.8769 112.848H5.9375V118.788H11.8769V112.848Z" fill="black"/>
<path d="M23.7597 112.848H17.8203V118.788H23.7597V112.848Z" fill="black"/>
<path d="M29.6953 115.818C29.6953 115.126 29.6953 112.848 29.6953 112.848C29.6953 112.848 31.7171 112.848 32.665 112.848C33.4053 112.848 35.6347 112.848 35.6347 112.848C35.6347 112.848 35.6347 114.918 35.6347 115.818C35.6347 117.458 34.305 118.788 32.665 118.788C31.0249 118.788 29.6953 117.458 29.6953 115.818Z" fill="black"/>
<path d="M47.5156 112.848H41.5762V118.788H47.5156V112.848Z" fill="black"/>
<path d="M59.3935 112.848H53.4541V118.788H59.3935V112.848Z" fill="black"/>
<path d="M71.2744 118.788V112.848H65.335C65.335 116.129 67.9941 118.788 71.2744 118.788Z" fill="black"/>
<path d="M77.2128 112.848H71.2734V118.788H77.2128V112.848Z" fill="black"/>
<path d="M83.1513 112.848H77.2119V118.788H83.1513V112.848Z" fill="black"/>
<path d="M95.0322 112.848H89.0928V118.788H95.0322V112.848Z" fill="black"/>
<path d="M100.969 115.818C100.969 115.126 100.969 112.848 100.969 112.848C100.969 112.848 102.991 112.848 103.938 112.848C104.679 112.848 106.908 112.848 106.908 112.848C106.908 112.848 106.908 114.918 106.908 115.818C106.908 117.458 105.578 118.788 103.938 118.788C102.298 118.788 100.969 117.458 100.969 115.818Z" fill="black"/>
<path d="M118.787 115.818C118.787 116.51 118.787 118.788 118.787 118.788C118.787 118.788 116.765 118.788 115.817 118.788C115.077 118.788 112.848 118.788 112.848 118.788C112.848 118.788 112.848 116.718 112.848 115.818C112.848 114.178 114.177 112.848 115.817 112.848C117.457 112.848 118.787 114.178 118.787 115.818Z" fill="black"/>
<path d="M133.637 112.848C134.329 112.848 136.606 112.848 136.606 112.848C136.606 112.848 136.606 114.87 136.606 115.818C136.606 116.558 136.606 118.788 136.606 118.788C136.606 118.788 134.537 118.788 133.637 118.788C131.996 118.788 130.667 117.458 130.667 115.818C130.667 114.178 131.996 112.848 133.637 112.848Z" fill="black"/>
<path d="M142.543 112.848H136.604V118.788H142.543V112.848Z" fill="black"/>
<path d="M148.489 112.848H142.55V118.788H148.489V112.848Z" fill="black"/>
<path d="M151.456 118.788C150.764 118.788 148.486 118.788 148.486 118.788C148.486 118.788 148.486 116.766 148.486 115.818C148.486 115.078 148.486 112.848 148.486 112.848C148.486 112.848 150.556 112.848 151.456 112.848C153.096 112.848 154.426 114.178 154.426 115.818C154.426 117.458 153.096 118.788 151.456 118.788Z" fill="black"/>
<path d="M160.361 118.788H166.301V112.848C163.021 112.848 160.361 115.507 160.361 118.788Z" fill="black"/>
<path d="M172.245 112.848H166.306V118.788H172.245V112.848Z" fill="black"/>
<path d="M178.185 112.848H172.245V118.788H178.185V112.848Z" fill="black"/>
<path d="M184.123 112.848H178.184V118.788H184.123V112.848Z" fill="black"/>
<path d="M187.09 118.788C186.398 118.788 184.12 118.788 184.12 118.788C184.12 118.788 184.12 116.766 184.12 115.818C184.12 115.078 184.12 112.848 184.12 112.848C184.12 112.848 186.19 112.848 187.09 112.848C188.73 112.848 190.06 114.178 190.06 115.818C190.06 117.458 188.73 118.788 187.09 118.788Z" fill="black"/>
<path d="M11.8769 118.788H5.9375V124.727H11.8769V118.788Z" fill="black"/>
<path d="M17.8203 121.758C17.8203 121.065 17.8203 118.788 17.8203 118.788C17.8203 118.788 19.8421 118.788 20.79 118.788C21.5303 118.788 23.7597 118.788 23.7597 118.788C23.7597 118.788 23.7597 120.858 23.7597 121.758C23.7597 123.398 22.43 124.727 20.79 124.727C19.1499 124.727 17.8203 123.398 17.8203 121.758Z" fill="black"/>
<path d="M38.6093 118.788C39.3015 118.788 41.579 118.788 41.579 118.788C41.579 118.788 41.579 120.809 41.579 121.758C41.579 122.498 41.579 124.727 41.579 124.727C41.579 124.727 39.5095 124.727 38.6093 124.727C36.9687 124.727 35.6396 123.397 35.6396 121.758C35.6396 120.118 36.9687 118.788 38.6093 118.788Z" fill="black"/>
<path d="M47.5156 118.788H41.5762V124.727H47.5156V118.788Z" fill="black"/>
<path d="M59.3925 124.727V118.788H53.4531C53.4531 122.068 56.1122 124.727 59.3925 124.727Z" fill="black"/>
<path d="M62.3672 124.727C61.675 124.727 59.3975 124.727 59.3975 124.727C59.3975 124.727 59.3975 122.705 59.3975 121.758C59.3975 121.017 59.3975 118.788 59.3975 118.788C59.3975 118.788 61.4675 118.788 62.3672 118.788C64.0072 118.788 65.3369 120.117 65.3369 121.758C65.3369 123.398 64.0072 124.727 62.3672 124.727Z" fill="black"/>
<path d="M77.2128 118.788H71.2734V124.727H77.2128V118.788Z" fill="black"/>
<path d="M83.1513 118.788H77.2119V124.727H83.1513V118.788Z" fill="black"/>
<path d="M89.0956 118.788H83.1562V124.727H89.0956V118.788Z" fill="black"/>
<path d="M95.0322 118.788H89.0928V124.727H95.0322V118.788Z" fill="black"/>
<path d="M118.787 118.788H112.848V124.727H118.787V118.788Z" fill="black"/>
<path d="M118.792 118.788V124.727H124.731C124.731 121.447 122.072 118.788 118.792 118.788Z" fill="black"/>
<path d="M154.422 124.727H160.361V118.788C157.081 118.788 154.422 121.447 154.422 124.727Z" fill="black"/>
<path d="M166.301 118.788H160.361V124.727C163.642 124.727 166.301 122.068 166.301 118.788Z" fill="black"/>
<path d="M178.185 118.788H172.245V124.727H178.185V118.788Z" fill="black"/>
<path d="M193.032 118.788C194.672 118.788 196.002 120.117 196.002 121.758C196.002 123.398 194.672 124.727 193.032 124.727C191.392 124.727 190.062 123.398 190.062 121.758C190.062 120.117 191.392 118.788 193.032 118.788Z" fill="black"/>
<path d="M0 130.667H5.93939V124.727C2.6592 124.727 0 127.386 0 130.667Z" fill="black"/>
<path d="M11.8759 124.727H5.93652V130.667C9.21675 130.667 11.8759 128.007 11.8759 124.727Z" fill="black"/>
<path d="M29.6982 127.697C29.6982 128.389 29.6982 130.667 29.6982 130.667C29.6982 130.667 27.6765 130.667 26.7285 130.666C25.9882 130.667 23.7588 130.666 23.7588 130.666C23.7588 130.666 23.7588 128.597 23.7588 127.697C23.7589 126.057 25.0884 124.727 26.7284 124.727C28.3685 124.727 29.6982 126.057 29.6982 127.697Z" fill="black"/>
<path d="M47.5156 124.727H41.5762V130.667H47.5156V124.727Z" fill="black"/>
<path d="M77.2128 124.727H71.2734V130.667H77.2128V124.727Z" fill="black"/>
<path d="M95.0322 124.727H89.0928V130.667H95.0322V124.727Z" fill="black"/>
<path d="M100.969 130.667H106.908V124.727C103.628 124.727 100.969 127.386 100.969 130.667Z" fill="black"/>
<path d="M112.85 124.727H106.91V130.667H112.85V124.727Z" fill="black"/>
<path d="M118.787 124.727H112.848V130.667H118.787V124.727Z" fill="black"/>
<path d="M124.73 124.727H118.791V130.667H124.73V124.727Z" fill="black"/>
<path d="M130.666 124.727H124.727V130.667H130.666V124.727Z" fill="black"/>
<path d="M133.637 130.667C132.944 130.667 130.667 130.667 130.667 130.667C130.667 130.667 130.667 128.645 130.667 127.697C130.667 126.957 130.667 124.727 130.667 124.727C130.667 124.727 132.737 124.727 133.637 124.727C135.277 124.727 136.606 126.057 136.606 127.697C136.606 129.337 135.277 130.667 133.637 130.667Z" fill="black"/>
<path d="M145.519 124.727C147.16 124.727 148.489 126.057 148.489 127.697C148.489 129.337 147.16 130.667 145.519 130.667C143.879 130.667 142.55 129.337 142.55 127.697C142.55 126.057 143.879 124.727 145.519 124.727Z" fill="black"/>
<path d="M160.365 124.727H154.426V130.667H160.365V124.727Z" fill="black"/>
<path d="M166.309 130.667H172.248V124.727C168.968 124.727 166.309 127.386 166.309 130.667Z" fill="black"/>
<path d="M178.185 124.727H172.245V130.667H178.185V124.727Z" fill="black"/>
<path d="M181.153 130.667C180.461 130.667 178.184 130.667 178.184 130.667C178.184 130.667 178.184 128.645 178.184 127.697C178.184 126.957 178.184 124.727 178.184 124.727C178.184 124.727 180.254 124.727 181.153 124.727C182.793 124.727 184.123 126.057 184.123 127.697C184.123 129.337 182.793 130.667 181.153 130.667Z" fill="black"/>
<path d="M5.94037 130.667H0.000976562V136.606H5.94037V130.667Z" fill="black"/>
<path d="M17.8203 136.606H23.7597V130.667C20.4795 130.667 17.8203 133.326 17.8203 136.606Z" fill="black"/>
<path d="M29.6982 130.667H23.7588V136.606H29.6982V130.667Z" fill="black"/>
<path d="M35.6347 130.667H29.6953V136.606H35.6347V130.667Z" fill="black"/>
<path d="M41.579 130.667H35.6396V136.606H41.579V130.667Z" fill="black"/>
<path d="M47.5175 130.667H41.5781V136.606C44.8584 136.606 47.5175 133.947 47.5175 130.667Z" fill="black"/>
<path d="M53.4531 136.606H59.3925V130.667C56.1123 130.667 53.4531 133.326 53.4531 136.606Z" fill="black"/>
<path d="M65.3369 130.667H59.3975V136.606H65.3369V130.667Z" fill="black"/>
<path d="M71.2744 130.667H65.335V136.606H71.2744V130.667Z" fill="black"/>
<path d="M77.2128 130.667H71.2734V136.606C74.5537 136.606 77.2128 133.947 77.2128 130.667Z" fill="black"/>
<path d="M86.1259 130.667C86.8181 130.667 89.0956 130.667 89.0956 130.667C89.0956 130.667 89.0956 132.688 89.0956 133.636C89.0956 134.376 89.0956 136.606 89.0956 136.606C89.0956 136.606 87.0261 136.606 86.1259 136.606C84.4853 136.606 83.1562 135.276 83.1562 133.636C83.1562 131.997 84.4853 130.667 86.1259 130.667Z" fill="black"/>
<path d="M95.0322 130.667H89.0928V136.606H95.0322V130.667Z" fill="black"/>
<path d="M106.908 130.667H100.969V136.606H106.908V130.667Z" fill="black"/>
<path d="M112.85 130.667H106.91V136.606H112.85V130.667Z" fill="black"/>
<path d="M118.787 130.667H112.848V136.606H118.787V130.667Z" fill="black"/>
<path d="M124.727 133.636C124.727 132.944 124.727 130.667 124.727 130.667C124.727 130.667 126.748 130.667 127.696 130.667C128.437 130.667 130.666 130.667 130.666 130.667C130.666 130.667 130.666 132.737 130.666 133.636C130.666 135.276 129.336 136.606 127.696 136.606C126.056 136.606 124.727 135.276 124.727 133.636Z" fill="black"/>
<path d="M142.543 133.636C142.543 134.328 142.543 136.606 142.543 136.606C142.543 136.606 140.521 136.606 139.573 136.606C138.833 136.606 136.604 136.606 136.604 136.606C136.604 136.606 136.604 134.536 136.604 133.636C136.604 131.996 137.933 130.667 139.573 130.667C141.213 130.667 142.543 131.996 142.543 133.636Z" fill="black"/>
<path d="M154.426 133.636C154.426 132.944 154.426 130.667 154.426 130.667C154.426 130.667 156.448 130.667 157.395 130.667C158.136 130.667 160.365 130.667 160.365 130.667C160.365 130.667 160.365 132.737 160.365 133.636C160.365 135.276 159.036 136.606 157.395 136.606C155.755 136.606 154.426 135.276 154.426 133.636Z" fill="black"/>
<path d="M172.245 130.667H166.306V136.606H172.245V130.667Z" fill="black"/>
<path d="M187.09 130.667C187.782 130.667 190.06 130.667 190.06 130.667C190.06 130.667 190.06 132.688 190.06 133.636C190.06 134.376 190.06 136.606 190.06 136.606C190.06 136.606 187.99 136.606 187.09 136.606C185.449 136.606 184.12 135.276 184.12 133.636C184.12 131.996 185.449 130.667 187.09 130.667Z" fill="black"/>
<path d="M193.032 136.606C192.34 136.606 190.062 136.606 190.062 136.606C190.062 136.606 190.062 134.584 190.062 133.636C190.062 132.896 190.062 130.667 190.062 130.667C190.062 130.667 192.133 130.667 193.032 130.667C194.672 130.667 196.002 131.996 196.002 133.636C196.002 135.276 194.672 136.606 193.032 136.606Z" fill="black"/>
<path d="M5.94037 136.606H0.000976562V142.545H5.94037V136.606Z" fill="black"/>
<path d="M11.8838 142.545H17.8232V136.606C14.543 136.606 11.8838 139.265 11.8838 142.545Z" fill="black"/>
<path d="M23.7597 136.606H17.8203V142.545H23.7597V136.606Z" fill="black"/>
<path d="M53.4541 139.576C53.4541 138.884 53.4541 136.606 53.4541 136.606C53.4541 136.606 55.4759 136.606 56.4238 136.606C57.1641 136.606 59.3935 136.606 59.3935 136.606C59.3935 136.606 59.3935 138.676 59.3935 139.576C59.3935 141.216 58.0638 142.545 56.4238 142.545C54.7837 142.545 53.4541 141.216 53.4541 139.576Z" fill="black"/>
<path d="M65.335 139.576C65.335 138.884 65.335 136.606 65.335 136.606C65.335 136.606 67.3567 136.606 68.3047 136.606C69.045 136.606 71.2744 136.606 71.2744 136.606C71.2744 136.606 71.2744 138.676 71.2744 139.576C71.2744 141.216 69.9447 142.545 68.3047 142.545C66.6645 142.545 65.335 141.216 65.335 139.576Z" fill="black"/>
<path d="M95.0322 136.606H89.0928V142.545H95.0322V136.606Z" fill="black"/>
<path d="M100.971 136.606H95.0312V142.545H100.971V136.606Z" fill="black"/>
<path d="M106.908 136.606H100.969V142.545C104.249 142.545 106.908 139.886 106.908 136.606Z" fill="black"/>
<path d="M118.786 142.545V136.606H112.847C112.847 139.886 115.506 142.545 118.786 142.545Z" fill="black"/>
<path d="M121.761 142.545C121.069 142.545 118.791 142.545 118.791 142.545C118.791 142.545 118.791 140.524 118.791 139.576C118.791 138.835 118.791 136.606 118.791 136.606C118.791 136.606 120.861 136.606 121.761 136.606C123.401 136.606 124.73 137.936 124.73 139.576C124.73 141.216 123.401 142.545 121.761 142.545Z" fill="black"/>
<path d="M142.543 136.606H136.604V142.545H142.543V136.606Z" fill="black"/>
<path d="M142.55 136.606V142.545H148.489C148.489 139.265 145.83 136.606 142.55 136.606Z" fill="black"/>
<path d="M160.361 142.545H166.301V136.606C163.021 136.606 160.361 139.265 160.361 142.545Z" fill="black"/>
<path d="M172.245 136.606H166.306V142.545H172.245V136.606Z" fill="black"/>
<path d="M181.153 136.606C182.793 136.606 184.123 137.936 184.123 139.576C184.123 141.216 182.793 142.545 181.153 142.545C179.513 142.545 178.184 141.216 178.184 139.576C178.184 137.936 179.513 136.606 181.153 136.606Z" fill="black"/>
<path d="M5.93939 148.485V142.545H0C1.18788e-05 145.826 2.6591 148.485 5.93939 148.485Z" fill="black"/>
<path d="M11.8769 142.545H5.9375V148.485H11.8769V142.545Z" fill="black"/>
<path d="M17.8212 142.545H11.8818V148.485H17.8212V142.545Z" fill="black"/>
<path d="M23.7597 142.545H17.8203V148.485H23.7597V142.545Z" fill="black"/>
<path d="M26.7285 148.485C26.0363 148.485 23.7588 148.485 23.7588 148.485C23.7588 148.485 23.7588 146.463 23.7588 145.515C23.7588 144.775 23.7588 142.545 23.7588 142.545C23.7588 142.545 25.8288 142.545 26.7285 142.545C28.3685 142.545 29.6982 143.875 29.6982 145.515C29.6982 147.155 28.3685 148.485 26.7285 148.485Z" fill="black"/>
<path d="M38.6093 142.545C39.3015 142.545 41.579 142.545 41.579 142.545C41.579 142.545 41.579 144.567 41.579 145.515C41.579 146.255 41.579 148.485 41.579 148.485C41.579 148.485 39.5095 148.485 38.6093 148.485C36.9687 148.485 35.6396 147.155 35.6396 145.515C35.6396 143.875 36.9687 142.545 38.6093 142.545Z" fill="black"/>
<path d="M44.5459 148.485C43.8537 148.485 41.5762 148.485 41.5762 148.485C41.5762 148.485 41.5762 146.463 41.5762 145.515C41.5762 144.775 41.5762 142.545 41.5762 142.545C41.5762 142.545 43.6462 142.545 44.5459 142.545C46.1859 142.545 47.5156 143.875 47.5156 145.515C47.5156 147.155 46.1859 148.485 44.5459 148.485Z" fill="black"/>
<path d="M74.2431 142.545C75.8833 142.545 77.2128 143.875 77.2128 145.515C77.2128 147.155 75.8833 148.485 74.2431 148.485C72.603 148.485 71.2734 147.155 71.2734 145.515C71.2734 143.875 72.603 142.545 74.2431 142.545Z" fill="black"/>
<path d="M83.1514 148.485H89.0908V142.546C85.8106 142.546 83.1514 145.205 83.1514 148.485Z" fill="black"/>
<path d="M95.0322 142.545H89.0928V148.485H95.0322V142.545Z" fill="black"/>
<path d="M133.637 142.545C134.329 142.545 136.606 142.545 136.606 142.545C136.606 142.545 136.606 144.567 136.606 145.515C136.606 146.255 136.606 148.485 136.606 148.485C136.606 148.485 134.537 148.485 133.637 148.485C131.996 148.485 130.667 147.155 130.667 145.515C130.667 143.875 131.996 142.545 133.637 142.545Z" fill="black"/>
<path d="M142.543 142.545H136.604V148.485H142.543V142.545Z" fill="black"/>
<path d="M148.489 142.545H142.55V148.485H148.489V142.545Z" fill="black"/>
<path d="M154.426 142.545H148.486V148.485H154.426V142.545Z" fill="black"/>
<path d="M160.365 142.545H154.426V148.485H160.365V142.545Z" fill="black"/>
<path d="M166.302 142.545H160.362V148.485H166.302V142.545Z" fill="black"/>
<path d="M172.245 142.545H166.306V148.485H172.245V142.545Z" fill="black"/>
<path d="M193.032 142.545C194.672 142.545 196.002 143.875 196.002 145.515C196.002 147.155 194.672 148.485 193.032 148.485C191.392 148.485 190.062 147.155 190.062 145.515C190.062 143.875 191.392 142.545 193.032 142.545Z" fill="black"/>
<path d="M53.457 151.455C53.457 152.147 53.457 154.424 53.457 154.424C53.457 154.424 51.4353 154.424 50.4873 154.424C49.7469 154.424 47.5176 154.424 47.5176 154.424C47.5176 154.424 47.5176 152.354 47.5176 151.454C47.5176 149.814 48.8472 148.485 50.4872 148.485C52.1273 148.485 53.457 149.814 53.457 151.455Z" fill="black"/>
<path d="M68.3047 148.485C69.9448 148.485 71.2744 149.814 71.2744 151.454C71.2744 153.095 69.9448 154.424 68.3047 154.424C66.6646 154.424 65.335 153.095 65.335 151.454C65.335 149.814 66.6646 148.485 68.3047 148.485Z" fill="black"/>
<path d="M77.2109 154.424H83.1503V148.485C79.8701 148.485 77.2109 151.144 77.2109 154.424Z" fill="black"/>
<path d="M89.0956 148.485H83.1562V154.424H89.0956V148.485Z" fill="black"/>
<path d="M95.0322 148.485H89.0928V154.424H95.0322V148.485Z" fill="black"/>
<path d="M95.0322 148.485V154.424H100.972C100.972 151.144 98.3125 148.485 95.0322 148.485Z" fill="black"/>
<path d="M115.817 148.485C116.51 148.485 118.787 148.485 118.787 148.485C118.787 148.485 118.787 150.506 118.787 151.454C118.787 152.194 118.787 154.424 118.787 154.424C118.787 154.424 116.718 154.424 115.817 154.424C114.177 154.424 112.848 153.094 112.848 151.454C112.848 149.815 114.177 148.485 115.817 148.485Z" fill="black"/>
<path d="M124.73 148.485H118.791V154.424H124.73V148.485Z" fill="black"/>
<path d="M127.696 154.424C127.004 154.424 124.727 154.424 124.727 154.424C124.727 154.424 124.727 152.402 124.727 151.455C124.727 150.714 124.727 148.485 124.727 148.485C124.727 148.485 126.797 148.485 127.696 148.485C129.336 148.485 130.666 149.814 130.666 151.455C130.666 153.095 129.336 154.424 127.696 154.424Z" fill="black"/>
<path d="M148.489 148.485H142.55V154.424H148.489V148.485Z" fill="black"/>
<path d="M172.245 148.485H166.306V154.424H172.245V148.485Z" fill="black"/>
<path d="M172.245 148.485V154.424H178.185C178.185 151.144 175.525 148.485 172.245 148.485Z" fill="black"/>
<path d="M53.455 160.364V154.424H47.5156C47.5156 157.704 50.1747 160.364 53.455 160.364Z" fill="black"/>
<path d="M56.4238 160.364C55.7316 160.364 53.4541 160.364 53.4541 160.364C53.4541 160.364 53.4541 158.342 53.4541 157.394C53.4541 156.654 53.4541 154.424 53.4541 154.424C53.4541 154.424 55.5241 154.424 56.4238 154.424C58.0638 154.424 59.3935 155.754 59.3935 157.394C59.3935 159.034 58.0638 160.364 56.4238 160.364Z" fill="black"/>
<path d="M83.1513 154.424H77.2119V160.364H83.1513V154.424Z" fill="black"/>
<path d="M95.0322 154.424H89.0928V160.364H95.0322V154.424Z" fill="black"/>
<path d="M100.971 154.424H95.0312V160.364H100.971V154.424Z" fill="black"/>
<path d="M103.938 160.364C103.246 160.364 100.969 160.364 100.969 160.364C100.969 160.364 100.969 158.342 100.969 157.394C100.969 156.654 100.969 154.424 100.969 154.424C100.969 154.424 103.039 154.424 103.938 154.424C105.578 154.424 106.908 155.754 106.908 157.394C106.908 159.034 105.578 160.364 103.938 160.364Z" fill="black"/>
<path d="M118.791 157.394C118.791 156.702 118.791 154.424 118.791 154.424C118.791 154.424 120.813 154.424 121.761 154.424C122.501 154.424 124.73 154.424 124.73 154.424C124.73 154.424 124.73 156.494 124.73 157.394C124.73 159.034 123.401 160.364 121.761 160.364C120.121 160.364 118.791 159.034 118.791 157.394Z" fill="black"/>
<path d="M136.604 160.364H142.544V154.424C139.264 154.424 136.604 157.083 136.604 160.364Z" fill="black"/>
<path d="M148.489 154.424H142.55V160.364H148.489V154.424Z" fill="black"/>
<path d="M157.395 154.424C159.036 154.424 160.365 155.754 160.365 157.394C160.365 159.034 159.036 160.364 157.395 160.364C155.755 160.364 154.426 159.034 154.426 157.394C154.426 155.754 155.755 154.424 157.395 154.424Z" fill="black"/>
<path d="M172.245 154.424H166.306V160.364H172.245V154.424Z" fill="black"/>
<path d="M178.185 154.424H172.245V160.364H178.185V154.424Z" fill="black"/>
<path d="M178.182 154.424V160.364H184.121C184.121 157.083 181.462 154.424 178.182 154.424Z" fill="black"/>
<path d="M62.3672 160.364C64.0073 160.364 65.3369 161.693 65.3369 163.333C65.3369 164.973 64.0073 166.303 62.3672 166.303C60.7271 166.303 59.3975 164.973 59.3975 163.333C59.3975 161.693 60.7271 160.364 62.3672 160.364Z" fill="black"/>
<path d="M83.1513 160.364H77.2119V166.303H83.1513V160.364Z" fill="black"/>
<path d="M95.0331 166.303V160.363H89.0938C89.0938 163.644 91.7529 166.303 95.0331 166.303Z" fill="black"/>
<path d="M100.972 160.363H95.0322V166.303C98.3125 166.303 100.972 163.644 100.972 160.363Z" fill="black"/>
<path d="M124.727 166.303H130.666V160.364C127.386 160.364 124.727 163.023 124.727 166.303Z" fill="black"/>
<path d="M136.606 160.364H130.667V166.303H136.606V160.364Z" fill="black"/>
<path d="M142.543 160.364H136.604V166.303H142.543V160.364Z" fill="black"/>
<path d="M148.489 160.364H142.55V166.303H148.489V160.364Z" fill="black"/>
<path d="M172.245 160.364H166.306V166.303H172.245V160.364Z" fill="black"/>
<path d="M178.185 160.364H172.245V166.303H178.185V160.364Z" fill="black"/>
<path d="M184.123 160.364H178.184V166.303H184.123V160.364Z" fill="black"/>
<path d="M184.12 160.363V166.303H190.06C190.06 163.023 187.4 160.363 184.12 160.363Z" fill="black"/>
<path d="M47.5156 172.242H53.455V166.303C50.1748 166.303 47.5156 168.962 47.5156 172.242Z" fill="black"/>
<path d="M53.4531 166.303V172.242H59.3925C59.3925 168.962 56.7334 166.303 53.4531 166.303Z" fill="black"/>
<path d="M71.2734 172.242H77.2128V166.303C73.9326 166.303 71.2734 168.962 71.2734 172.242Z" fill="black"/>
<path d="M83.1513 166.303H77.2119V172.242H83.1513V166.303Z" fill="black"/>
<path d="M83.1514 166.303V172.242H89.0908C89.0908 168.962 86.4316 166.303 83.1514 166.303Z" fill="black"/>
<path d="M118.792 172.242H124.731V166.303C121.451 166.303 118.792 168.962 118.792 172.242Z" fill="black"/>
<path d="M130.666 166.303H124.727V172.242H130.666V166.303Z" fill="black"/>
<path d="M136.606 166.303H130.667V172.242H136.606V166.303Z" fill="black"/>
<path d="M142.543 166.303H136.604V172.242H142.543V166.303Z" fill="black"/>
<path d="M148.489 166.303H142.55V172.242H148.489V166.303Z" fill="black"/>
<path d="M154.426 166.303H148.486V172.242H154.426V166.303Z" fill="black"/>
<path d="M160.365 166.303H154.426V172.242H160.365V166.303Z" fill="black"/>
<path d="M166.302 166.303H160.362V172.242H166.302V166.303Z" fill="black"/>
<path d="M172.245 166.303H166.306V172.242H172.245V166.303Z" fill="black"/>
<path d="M178.185 166.303H172.245V172.242C175.525 172.242 178.185 169.583 178.185 166.303Z" fill="black"/>
<path d="M190.06 166.303H184.12V172.242H190.06V166.303Z" fill="black"/>
<path d="M53.455 178.182V172.242H47.5156C47.5156 175.522 50.1747 178.182 53.455 178.182Z" fill="black"/>
<path d="M59.3935 172.242H53.4541V178.182H59.3935V172.242Z" fill="black"/>
<path d="M65.335 178.182H71.2744V172.242C67.9942 172.242 65.335 174.901 65.335 178.182Z" fill="black"/>
<path d="M77.2128 172.242H71.2734V178.182H77.2128V172.242Z" fill="black"/>
<path d="M83.1513 172.242H77.2119V178.182H83.1513V172.242Z" fill="black"/>
<path d="M89.0956 172.242H83.1562V178.182H89.0956V172.242Z" fill="black"/>
<path d="M95.0322 172.242H89.0928V178.182H95.0322V172.242Z" fill="black"/>
<path d="M98.0009 178.182C97.3088 178.182 95.0312 178.182 95.0312 178.182C95.0312 178.182 95.0312 176.16 95.0312 175.212C95.0312 174.472 95.0312 172.242 95.0312 172.242C95.0312 172.242 97.1013 172.242 98.0009 172.242C99.641 172.242 100.971 173.572 100.971 175.212C100.971 176.852 99.641 178.182 98.0009 178.182Z" fill="black"/>
<path d="M112.85 175.212C112.85 175.904 112.85 178.182 112.85 178.182C112.85 178.182 110.828 178.182 109.88 178.181C109.14 178.182 106.91 178.181 106.91 178.181C106.91 178.181 106.91 176.112 106.91 175.212C106.91 173.572 108.24 172.242 109.88 172.242C111.52 172.242 112.85 173.572 112.85 175.212Z" fill="black"/>
<path d="M124.731 178.182V172.242H118.792C118.792 175.523 121.451 178.182 124.731 178.182Z" fill="black"/>
<path d="M130.666 172.242H124.727V178.182H130.666V172.242Z" fill="black"/>
<path d="M136.606 172.242H130.667V178.182H136.606V172.242Z" fill="black"/>
<path d="M142.544 172.242H136.604V178.182C139.885 178.182 142.544 175.523 142.544 172.242Z" fill="black"/>
<path d="M148.486 175.212C148.486 174.52 148.486 172.242 148.486 172.242C148.486 172.242 150.508 172.242 151.456 172.242C152.196 172.242 154.426 172.242 154.426 172.242C154.426 172.242 154.426 174.312 154.426 175.212C154.426 176.852 153.096 178.182 151.456 178.182C149.816 178.182 148.486 176.852 148.486 175.212Z" fill="black"/>
<path d="M160.362 175.212C160.362 174.52 160.362 172.242 160.362 172.242C160.362 172.242 162.384 172.242 163.332 172.242C164.072 172.242 166.302 172.242 166.302 172.242C166.302 172.242 166.302 174.312 166.302 175.212C166.302 176.852 164.972 178.182 163.332 178.182C161.692 178.182 160.362 176.852 160.362 175.212Z" fill="black"/>
<path d="M190.06 172.242H184.12V178.182H190.06V172.242Z" fill="black"/>
<path d="M53.4541 181.151C53.4541 180.459 53.4541 178.182 53.4541 178.182C53.4541 178.182 55.4759 178.182 56.4238 178.182C57.1641 178.182 59.3935 178.182 59.3935 178.182C59.3935 178.182 59.3935 180.252 59.3935 181.151C59.3935 182.791 58.0638 184.121 56.4238 184.121C54.7837 184.121 53.4541 182.791 53.4541 181.151Z" fill="black"/>
<path d="M71.2744 184.121V178.182H65.335C65.335 181.462 67.9941 184.121 71.2744 184.121Z" fill="black"/>
<path d="M77.2128 178.182H71.2734V184.121H77.2128V178.182Z" fill="black"/>
<path d="M89.0956 178.182H83.1562V184.121H89.0956V178.182Z" fill="black"/>
<path d="M95.0331 178.182H89.0938V184.121C92.374 184.121 95.0331 181.462 95.0331 178.182Z" fill="black"/>
<path d="M103.938 178.182C104.631 178.182 106.908 178.182 106.908 178.182C106.908 178.182 106.908 180.203 106.908 181.151C106.908 181.892 106.908 184.121 106.908 184.121C106.908 184.121 104.839 184.121 103.938 184.121C102.298 184.121 100.969 182.791 100.969 181.151C100.969 179.512 102.298 178.182 103.938 178.182Z" fill="black"/>
<path d="M112.85 178.182H106.91V184.121C110.19 184.121 112.85 181.462 112.85 178.182Z" fill="black"/>
<path d="M130.667 181.151C130.667 180.459 130.667 178.182 130.667 178.182C130.667 178.182 132.689 178.182 133.637 178.182C134.377 178.182 136.606 178.182 136.606 178.182C136.606 178.182 136.606 180.252 136.606 181.151C136.606 182.791 135.277 184.121 133.637 184.121C131.997 184.121 130.667 182.791 130.667 181.151Z" fill="black"/>
<path d="M169.275 178.182C170.916 178.182 172.245 179.511 172.245 181.151C172.245 182.792 170.916 184.121 169.275 184.121C167.635 184.121 166.306 182.792 166.306 181.151C166.306 179.511 167.635 178.182 169.275 178.182Z" fill="black"/>
<path d="M190.06 178.182H184.12V184.121H190.06V178.182Z" fill="black"/>
<path d="M190.062 178.182V184.121H196.001C196.001 180.841 193.342 178.182 190.062 178.182Z" fill="black"/>
<path d="M77.2128 184.121H71.2734V190.06H77.2128V184.121Z" fill="black"/>
<path d="M83.1513 184.121H77.2119V190.06H83.1513V184.121Z" fill="black"/>
<path d="M89.0908 184.121H83.1514V190.06C86.4316 190.06 89.0908 187.401 89.0908 184.121Z" fill="black"/>
<path d="M98.0009 184.121C99.6411 184.121 100.971 185.451 100.971 187.091C100.971 188.731 99.6411 190.06 98.0009 190.06C96.3608 190.06 95.0312 188.731 95.0312 187.091C95.0312 185.451 96.3608 184.121 98.0009 184.121Z" fill="black"/>
<path d="M115.817 184.121C116.51 184.121 118.787 184.121 118.787 184.121C118.787 184.121 118.787 186.143 118.787 187.091C118.787 187.831 118.787 190.06 118.787 190.06C118.787 190.06 116.718 190.06 115.817 190.06C114.177 190.06 112.848 188.73 112.848 187.091C112.848 185.451 114.177 184.121 115.817 184.121Z" fill="black"/>
<path d="M124.73 184.121H118.791V190.06H124.73V184.121Z" fill="black"/>
<path d="M124.727 184.121V190.06H130.666C130.666 186.78 128.007 184.121 124.727 184.121Z" fill="black"/>
<path d="M142.543 187.091C142.543 187.783 142.543 190.06 142.543 190.06C142.543 190.06 140.521 190.06 139.573 190.06C138.833 190.06 136.604 190.06 136.604 190.06C136.604 190.06 136.604 187.99 136.604 187.091C136.604 185.451 137.933 184.121 139.573 184.121C141.213 184.121 142.543 185.451 142.543 187.091Z" fill="black"/>
<path d="M151.456 184.121C152.148 184.121 154.426 184.121 154.426 184.121C154.426 184.121 154.426 186.143 154.426 187.091C154.426 187.831 154.426 190.06 154.426 190.06C154.426 190.06 152.356 190.06 151.456 190.06C149.815 190.06 148.486 188.73 148.486 187.091C148.486 185.451 149.815 184.121 151.456 184.121Z" fill="black"/>
<path d="M157.395 190.06C156.703 190.06 154.426 190.06 154.426 190.06C154.426 190.06 154.426 188.039 154.426 187.091C154.426 186.35 154.426 184.121 154.426 184.121C154.426 184.121 156.496 184.121 157.395 184.121C159.036 184.121 160.365 185.451 160.365 187.091C160.365 188.731 159.036 190.06 157.395 190.06Z" fill="black"/>
<path d="M175.215 184.121C175.907 184.121 178.185 184.121 178.185 184.121C178.185 184.121 178.185 186.143 178.185 187.091C178.185 187.831 178.185 190.06 178.185 190.06C178.185 190.06 176.115 190.06 175.215 190.06C173.574 190.06 172.245 188.73 172.245 187.091C172.245 185.451 173.574 184.121 175.215 184.121Z" fill="black"/>
<path d="M184.123 184.121H178.184V190.06H184.123V184.121Z" fill="black"/>
<path d="M190.06 184.121H184.12V190.061H190.06V184.121Z" fill="black"/>
<path d="M196.001 184.121H190.062V190.061C193.342 190.061 196.001 187.401 196.001 184.121Z" fill="black"/>
<path d="M56.4238 190.061C57.116 190.061 59.3935 190.061 59.3935 190.061C59.3935 190.061 59.3935 192.082 59.3935 193.03C59.3935 193.77 59.3935 196 59.3935 196C59.3935 196 57.324 196 56.4238 196C54.7831 196 53.4541 194.67 53.4541 193.03C53.4541 191.391 54.7831 190.061 56.4238 190.061Z" fill="black"/>
<path d="M65.3369 190.061H59.3975V196H65.3369V190.061Z" fill="black"/>
<path d="M71.2744 190.061H65.335V196H71.2744V190.061Z" fill="black"/>
<path d="M77.2128 190.06H71.2734V196H77.2128V190.06Z" fill="black"/>
<path d="M83.1503 190.061H77.2109V196C80.4912 196 83.1503 193.341 83.1503 190.061Z" fill="black"/>
<path d="M109.88 190.061C111.52 190.061 112.85 191.39 112.85 193.03C112.85 194.67 111.52 196 109.88 196C108.24 196 106.91 194.67 106.91 193.03C106.91 191.39 108.24 190.061 109.88 190.061Z" fill="black"/>
<path d="M124.731 196V190.061H118.792C118.792 193.341 121.451 196 124.731 196Z" fill="black"/>
<path d="M130.666 190.06H124.727V196C128.007 196 130.666 193.341 130.666 190.06Z" fill="black"/>
<path d="M142.544 196V190.061H136.604C136.605 193.341 139.264 196 142.544 196Z" fill="black"/>
<path d="M145.519 196C144.827 196 142.55 196 142.55 196C142.55 196 142.55 193.978 142.55 193.03C142.55 192.29 142.55 190.061 142.55 190.061C142.55 190.061 144.62 190.061 145.519 190.061C147.16 190.061 148.489 191.39 148.489 193.03C148.489 194.67 147.16 196 145.519 196Z" fill="black"/>
<path d="M169.275 190.061C170.916 190.061 172.245 191.39 172.245 193.03C172.245 194.67 170.916 196 169.275 196C167.635 196 166.306 194.67 166.306 193.03C166.306 191.39 167.635 190.061 169.275 190.061Z" fill="black"/>
<path d="M27.3814 0.00341797H14.1944C7.76759 0.00341797 2.32284 4.24955 0.58206 10.0531C0.402037 10.6535 0.261511 11.2704 0.163808 11.9011C0.0561272 12.5971 0 13.3097 0 14.0352V27.5353C0 35.2763 6.3694 41.5713 14.1944 41.5713L20.7879 41.5725L27.3814 41.5708C35.2059 41.5708 41.5757 35.2759 41.5757 27.5349V14.0352C41.5757 6.29798 35.2063 0.00341797 27.3814 0.00341797ZM35.3394 27.5353C35.3394 31.8359 31.7697 35.3349 27.3797 35.3349L20.7879 35.3361L14.196 35.3345C9.80605 35.3345 6.23636 31.8355 6.23636 27.5353V14.0352C6.23636 12.6919 6.58476 11.4272 7.19801 10.3221C7.78838 9.25901 8.62364 8.34476 9.62935 7.65252C10.9224 6.76239 12.4968 6.23978 14.194 6.23978H27.3814C31.7697 6.23978 35.3394 9.73671 35.3394 14.0352V27.5353Z" fill="#1093FF"/>
<path d="M181.803 0.0032959H168.616C162.189 0.0032959 156.745 4.24943 155.004 10.053C154.824 10.6533 154.683 11.2703 154.586 11.901C154.478 12.597 154.422 13.3096 154.422 14.0351V27.5352C154.422 35.2761 160.791 41.5711 168.616 41.5711L175.21 41.5724L181.803 41.5707C189.628 41.5707 195.998 35.2757 195.998 27.5347V14.0351C195.998 6.29786 189.628 0.0032959 181.803 0.0032959ZM189.761 27.5352C189.761 31.8358 186.192 35.3348 181.802 35.3348L175.21 35.336L168.618 35.3344C164.228 35.3344 160.658 31.8353 160.658 27.5352V14.0351C160.658 12.6918 161.007 11.4271 161.62 10.322C162.21 9.25889 163.046 8.34464 164.051 7.6524C165.344 6.76226 166.919 6.23966 168.616 6.23966H181.803C186.192 6.23966 189.761 9.73659 189.761 14.0351V27.5352Z" fill="#1093FF"/>
<path d="M27.3814 154.427H14.1944C7.76759 154.427 2.32284 158.674 0.58206 164.477C0.402037 165.078 0.261511 165.695 0.163808 166.325C0.0561272 167.021 0 167.734 0 168.459V181.959C0 189.7 6.3694 195.995 14.1944 195.995L20.7879 195.997L27.3814 195.995C35.2059 195.995 41.5757 189.7 41.5757 181.959V168.459C41.5757 160.722 35.2063 154.427 27.3814 154.427ZM35.3394 181.959C35.3394 186.26 31.7697 189.759 27.3797 189.759L20.7879 189.76L14.196 189.759C9.80605 189.759 6.23636 186.26 6.23636 181.959V168.459C6.23636 167.116 6.58476 165.851 7.19801 164.746C7.78838 163.683 8.62364 162.769 9.62935 162.077C10.9224 161.186 12.4968 160.664 14.194 160.664H27.3814C31.7697 160.664 35.3394 164.161 35.3394 168.459V181.959Z" fill="#1093FF"/>
<path d="M16.7451 29.697C14.0563 29.697 11.8691 27.5531 11.8691 24.9203V16.653C11.8691 15.8305 12.083 15.0565 12.4573 14.3792C12.8188 13.7274 13.3306 13.1672 13.9469 12.7446C14.7386 12.1997 15.7036 11.8788 16.7424 11.8788H24.8189C27.5051 11.8788 29.6923 14.0202 29.6923 16.6528V24.9201C29.6923 27.5527 27.5053 29.6968 24.8189 29.6968H20.7807L16.7451 29.697Z" fill="#1093FF"/>
<path d="M171.186 29.697C168.497 29.697 166.31 27.5531 166.31 24.9203V16.653C166.31 15.8305 166.523 15.0565 166.898 14.3792C167.259 13.7274 167.771 13.1672 168.387 12.7446C169.179 12.1997 170.144 11.8788 171.183 11.8788H179.259C181.946 11.8788 184.133 14.0202 184.133 16.6528V24.9201C184.133 27.5527 181.946 29.6968 179.259 29.6968H175.221L171.186 29.697Z" fill="#1093FF"/>
<path d="M16.7451 184.121C14.0563 184.121 11.8691 181.977 11.8691 179.344V171.077C11.8691 170.255 12.083 169.481 12.4573 168.803C12.8188 168.152 13.3306 167.591 13.9469 167.169C14.7386 166.624 15.7036 166.303 16.7424 166.303H24.8189C27.5051 166.303 29.6923 168.444 29.6923 171.077V179.344C29.6923 181.977 27.5053 184.121 24.8189 184.121H20.7807L16.7451 184.121Z" fill="#1093FF"/>
</svg>
