<svg width="16" height="16" viewBox="0 0 16 16" fill="none" xmlns="http://www.w3.org/2000/svg">
<path d="M11.4999 5.90137C13.0224 5.90984 13.8469 5.97736 14.3848 6.51522C14.9998 7.13029 14.9998 8.12023 14.9998 10.1001V10.8001C14.9998 12.78 14.9998 13.7699 14.3848 14.385C13.7697 15.0001 12.7798 15.0001 10.7999 15.0001H5.19995C3.22008 15.0001 2.23014 15.0001 1.61507 14.385C1 13.7699 1 12.78 1 10.8001L1 10.1001C1 8.12023 1 7.13029 1.61507 6.51522C2.15293 5.97736 2.97746 5.90984 4.49996 5.90137" stroke="#242424" stroke-width="1.2" stroke-linecap="round"/>
<path d="M8.00037 0.999756L8.00037 10.0997M8.00037 10.0997L10.1003 7.64968M8.00037 10.0997L5.90039 7.64968" stroke="#242424" stroke-width="1.2" stroke-linecap="round" stroke-linejoin="round"/>
</svg>
