<svg   viewBox="0 0 67 67" fill="none" xmlns="http://www.w3.org/2000/svg">
<g id="Bold / Security / Eye Scan">
<g id="Vector">
<path d="M39.083 7.677C44.4062 7.677 48.188 7.68145 51.0569 8.06716C53.8656 8.44478 55.4837 9.15294 56.6652 10.3344C58.0251 11.6943 58.617 12.7485 58.9449 14.6278C59.3146 16.746 59.3226 19.7675 59.3226 25.1249C59.3226 26.2813 60.26 27.2187 61.4164 27.2187C62.5727 27.2187 63.5101 26.2813 63.5101 25.1249L63.5101 24.856C63.5102 19.8333 63.5103 16.4308 63.0701 13.908C62.5804 11.1014 61.5369 9.28411 59.6262 7.37339C57.537 5.28421 54.8879 4.35705 51.6149 3.91701C48.4346 3.48943 44.371 3.48946 39.2406 3.4895H39.083C37.9267 3.4895 36.9893 4.42691 36.9893 5.58325C36.9893 6.7396 37.9267 7.677 39.083 7.677Z" fill="#1093FF"/>
<path d="M5.58302 39.7812C6.73937 39.7812 7.67677 40.7186 7.67677 41.8749C7.67677 47.2324 7.68482 50.2538 8.05444 52.372C8.38236 54.2513 8.97425 55.3055 10.3342 56.6654C11.5156 57.8469 13.1338 58.5551 15.9425 58.9327C18.8114 59.3184 22.5931 59.3228 27.9164 59.3228C29.0727 59.3228 30.0101 60.2602 30.0101 61.4166C30.0101 62.5729 29.0727 63.5103 27.9164 63.5103H27.7589C22.6285 63.5104 18.5648 63.5104 15.3845 63.0828C12.1115 62.6428 9.46234 61.7156 7.37316 59.6264C5.46244 57.7157 4.419 55.8984 3.92927 53.0919C3.48904 50.569 3.48913 47.1666 3.48926 42.1439L3.48927 41.8749C3.48927 40.7186 4.42668 39.7812 5.58302 39.7812Z" fill="#1093FF"/>
<path d="M61.4164 39.7812C62.5727 39.7812 63.5101 40.7186 63.5101 41.8749L63.5101 42.1438C63.5102 47.1665 63.5103 50.569 63.0701 53.0919C62.5804 55.8984 61.5369 57.7157 59.6262 59.6264C57.537 61.7156 54.8879 62.6428 51.6149 63.0828C48.4346 63.5104 44.3709 63.5104 39.2405 63.5103H39.083C37.9267 63.5103 36.9893 62.5729 36.9893 61.4166C36.9893 60.2602 37.9267 59.3228 39.083 59.3228C44.4062 59.3228 48.188 59.3184 51.0569 58.9327C53.8656 58.5551 55.4837 57.8469 56.6652 56.6654C58.0251 55.3055 58.617 54.2513 58.9449 52.372C59.3146 50.2538 59.3226 47.2324 59.3226 41.8749C59.3226 40.7186 60.26 39.7812 61.4164 39.7812Z" fill="#1093FF"/>
<path d="M27.7589 3.4895H27.9164C29.0727 3.4895 30.0101 4.42691 30.0101 5.58325C30.0101 6.7396 29.0727 7.677 27.9164 7.677C22.5931 7.677 18.8114 7.68145 15.9425 8.06716C13.1338 8.44478 11.5156 9.15294 10.3342 10.3344C8.97425 11.6943 8.38236 12.7485 8.05444 14.6278C7.68482 16.746 7.67677 19.7675 7.67677 25.1249C7.67677 26.2813 6.73937 27.2187 5.58302 27.2187C4.42668 27.2187 3.48927 26.2813 3.48927 25.1249L3.48926 24.856C3.48913 19.8334 3.48904 16.4308 3.92927 13.908C4.419 11.1014 5.46244 9.28411 7.37316 7.37339C9.46234 5.28421 12.1115 4.35705 15.3845 3.91701C18.5648 3.48943 22.6285 3.48946 27.7589 3.4895Z" fill="#1093FF"/>
<path d="M33.4997 30.0103C31.5724 30.0103 30.0101 31.5727 30.0101 33.4999C30.0101 35.4272 31.5724 36.9895 33.4997 36.9895C35.4269 36.9895 36.9893 35.4272 36.9893 33.4999C36.9893 31.5727 35.4269 30.0103 33.4997 30.0103Z" fill="#1093FF"/>
<path fill-rule="evenodd" clip-rule="evenodd" d="M16.4494 39.2502C14.7885 37.3236 13.958 36.3603 13.958 33.4999C13.958 30.6396 14.7885 29.6763 16.4494 27.7497C19.7657 23.9028 25.3276 19.5416 33.4997 19.5416C41.6718 19.5416 47.2336 23.9028 50.55 27.7497C52.2109 29.6763 53.0414 30.6396 53.0414 33.4999C53.0414 36.3603 52.2109 37.3236 50.55 39.2502C47.2336 43.097 41.6718 47.4583 33.4997 47.4583C25.3276 47.4583 19.7657 43.097 16.4494 39.2502ZM25.8226 33.4999C25.8226 29.26 29.2598 25.8228 33.4997 25.8228C37.7396 25.8228 41.1768 29.26 41.1768 33.4999C41.1768 37.7399 37.7396 41.177 33.4997 41.177C29.2598 41.177 25.8226 37.7399 25.8226 33.4999Z" fill="#1093FF"/>
</g>
</g>
</svg>
