<svg width="35" height="35" viewBox="0 0 35 35" fill="none" xmlns="http://www.w3.org/2000/svg">
<path d="M0 17.5C0 7.83502 7.83502 0 17.5 0C27.165 0 35 7.83502 35 17.5C35 27.165 27.165 35 17.5 35C7.83502 35 0 27.165 0 17.5Z" fill="#627EEA"/>
<path d="M17.498 6.62158V15.0121L24.5898 18.181L17.498 6.62158Z" fill="white" fill-opacity="0.602"/>
<path d="M17.499 6.62158L10.4062 18.181L17.499 15.0121V6.62158Z" fill="white"/>
<path d="M17.498 23.6185V29.3197L24.5945 19.5017L17.498 23.6185Z" fill="white" fill-opacity="0.602"/>
<path d="M17.499 29.3197V23.6175L10.4062 19.5017L17.499 29.3197Z" fill="white"/>
<path d="M17.498 22.2986L24.5898 18.1809L17.498 15.0139V22.2986Z" fill="white" fill-opacity="0.2"/>
<path d="M10.4062 18.1809L17.499 22.2986V15.0139L10.4062 18.1809Z" fill="white" fill-opacity="0.602"/>
</svg>
