<svg width="35" height="35" viewBox="0 0 35 35" fill="none" xmlns="http://www.w3.org/2000/svg">
<path d="M17.5 35C27.165 35 35 27.165 35 17.5C35 7.83502 27.165 0 17.5 0C7.83502 0 0 7.83502 0 17.5C0 27.165 7.83502 35 17.5 35Z" fill="#0AC18E"/>
<path d="M22.9594 11.6238C22.08 9.6295 20.059 9.20311 17.585 9.61618L16.79 6.53369L14.9156 7.01783L15.6974 10.0914C15.2043 10.2158 14.698 10.3224 14.1961 10.4645L13.4144 7.40869L11.54 7.89283L12.335 10.9753C11.9309 11.0908 8.55078 11.9569 8.55078 11.9569L9.06601 13.9645C9.06601 13.9645 10.4429 13.5781 10.4296 13.6092C11.1935 13.4093 11.5533 13.7913 11.7221 14.1511L13.9074 22.599C13.934 22.8433 13.8896 23.2609 13.3655 23.403C13.3966 23.4207 12.0019 23.7539 12.0019 23.7539L12.2062 26.0946C12.2062 26.0946 15.5552 25.2374 15.9949 25.1263L16.7989 28.2444L18.6732 27.7602L17.8693 24.62C18.3845 24.5001 18.8864 24.3757 19.375 24.2469L20.1745 27.3694L22.0489 26.8852L21.2449 23.7716C24.132 23.0699 26.1707 21.2488 25.7532 18.4639C25.4867 16.785 23.6523 15.4081 22.1288 15.2526C23.066 14.422 23.5413 13.2095 22.9594 11.6238ZM22.0578 18.9747C22.4309 21.7329 18.5977 22.0705 17.3319 22.4036L16.2303 18.2773C17.5007 17.9442 21.4271 16.5451 22.0578 18.9747ZM19.7481 13.356C20.1434 15.8078 16.8655 16.0921 15.8084 16.363L14.8046 12.6187C15.8661 12.3567 18.9442 11.0864 19.7481 13.356Z" fill="white"/>
</svg>
