<svg width="35" height="35" viewBox="0 0 35 35" fill="none" xmlns="http://www.w3.org/2000/svg">
<rect width="35" height="35" rx="17.5" fill="#F2F2F2"/>
<path d="M20.666 25.4864L20.666 21.4843L15.0968 21.4843C14.253 21.4843 13.5686 20.8064 13.5686 19.9707L13.5686 14.4551L9.5276 14.4551C8.68378 14.4551 7.99935 15.1329 7.99935 15.9686L7.99935 25.4864C7.99935 26.3221 8.68378 26.9999 9.5276 26.9999L19.1378 26.9999C19.9816 26.9999 20.666 26.3221 20.666 25.4864Z" fill="#1093FF"/>
<path d="M20.666 23.5133L20.666 21.5037L15.0974 21.5037C14.258 21.5037 13.577 20.815 13.577 19.9658L13.577 14.3333L11.5903 14.3333C10.7508 14.3333 10.0699 15.022 10.0699 15.8711L10.0699 23.5133C10.0699 24.3625 10.7508 25.0512 11.5903 25.0512L19.1456 25.0512C19.9851 25.0512 20.666 24.3625 20.666 23.5133Z" fill="#55B2FF"/>
<path d="M20.666 21.4887C20.666 21.4887 20.6567 21.4887 20.6475 21.4887L15.1429 21.4887C14.3089 21.4887 13.6324 20.8122 13.6324 19.9782L13.6324 14.4736L13.6324 14.4551C12.8076 14.4643 12.1404 15.1408 12.1404 15.9656L12.1404 21.4702C12.1404 22.3042 12.8169 22.9807 13.6509 22.9807L19.1555 22.9807C19.9803 22.9807 20.6567 22.3135 20.666 21.4887Z" fill="#99D1FF"/>
<path d="M14.2122 9.52825L14.2122 13.5692L19.7814 13.5692C20.6253 13.5692 21.3097 14.2536 21.3097 15.0975L21.3097 20.6667L25.3507 20.6667C26.1945 20.6667 26.8789 19.9822 26.8789 19.1384L26.8789 9.52825C26.8789 8.68443 26.1945 8 25.3507 8L15.7405 8C14.8967 8 14.2122 8.68443 14.2122 9.52825Z" fill="#1093FF"/>
<path d="M14.2124 11.591L14.2124 13.5777L19.7766 13.5777C20.6168 13.5777 21.2983 14.2586 21.2983 15.0981L21.2983 20.6667L23.2869 20.6667C24.1271 20.6667 24.8086 19.9858 24.8086 19.1463L24.8086 11.591C24.8086 10.7515 24.1271 10.0706 23.2869 10.0706L15.7342 10.0706C14.894 10.0706 14.2124 10.7515 14.2124 11.591Z" fill="#55B2FF"/>
<path d="M14.2107 13.5326C14.2107 13.5326 14.22 13.5326 14.2292 13.5326L19.7338 13.5326C20.5679 13.5326 21.2443 14.2187 21.2443 15.0647L21.2443 20.6479C21.2443 20.6479 21.2443 20.6573 21.2443 20.6667C22.0691 20.6573 22.7363 19.9712 22.7363 19.1346L22.7363 13.5514C22.7363 12.7054 22.0598 12.0193 21.2258 12.0193L15.7212 12.0193C14.8964 12.0193 14.22 12.696 14.2107 13.5326Z" fill="#99D1FF"/>
</svg>
