<svg width="233" height="96" viewBox="0 0 233 96" fill="none" xmlns="http://www.w3.org/2000/svg">
<g id="Group 814">
<path id="Vector" d="M63.8672 88.1678L63.8672 67.9888L35.7867 67.9888C31.5321 67.9888 28.0811 64.571 28.0811 60.3573L28.0811 32.5469L7.70626 32.5469C3.45164 32.5469 0.000678867 35.9647 0.000678683 40.1784L0.000676585 88.1678C0.000676401 92.3815 3.45164 95.7993 7.70625 95.7993L56.1616 95.7993C60.4162 95.7993 63.8672 92.3815 63.8672 88.1678Z" fill="#1093FF"/>
<path id="Vector_2" d="M63.8672 78.2199L63.8672 68.0872L35.7899 68.0872C31.5571 68.0872 28.1239 64.6145 28.1239 60.3331L28.1239 31.9331L18.1064 31.9331C13.8736 31.9331 10.4404 35.4058 10.4404 39.6872L10.4404 78.2199C10.4404 82.5013 13.8736 85.974 18.1064 85.974L56.2012 85.974C60.4339 85.974 63.8672 82.5013 63.8672 78.2199Z" fill="#55B2FF"/>
<path id="Vector_3" d="M63.8672 68.0112C63.8672 68.0112 63.8205 68.0112 63.7737 68.0112L36.019 68.0112C31.8138 68.0112 28.4028 64.6003 28.4028 60.395L28.4029 32.6403L28.4029 32.5469C24.2443 32.5936 20.8801 36.0045 20.8801 40.1631L20.8801 67.9178C20.8801 72.123 24.291 75.5339 28.4963 75.5339L56.251 75.5339C60.4095 75.5339 63.8205 72.1697 63.8672 68.0112Z" fill="#99D1FF"/>
<path id="Vector_4" d="M31.3171 7.70559L31.3171 28.0805L59.3975 28.0805C63.6522 28.0805 67.1031 31.5314 67.1031 35.786L67.1031 63.8665L87.478 63.8665C91.7326 63.8665 95.1836 60.4156 95.1836 56.1609L95.1836 7.70559C95.1836 3.45097 91.7326 -1.50847e-07 87.478 -3.36822e-07L39.0227 -2.45487e-06C34.7681 -2.64085e-06 31.3171 3.45097 31.3171 7.70559Z" fill="#1093FF"/>
<path id="Vector_5" d="M31.3154 18.1059L31.3154 28.1234L59.3703 28.1234C63.6068 28.1234 67.0431 31.5567 67.0431 35.7894L67.0431 63.8667L77.0694 63.8667C81.3059 63.8667 84.7422 60.4335 84.7422 56.2007L84.7422 18.1059C84.7422 13.8732 81.3059 10.4399 77.0694 10.4399L38.9881 10.4399C34.7517 10.4399 31.3154 13.8732 31.3154 18.1059Z" fill="#55B2FF"/>
<path id="Vector_6" d="M31.3176 27.8958C31.3176 27.8958 31.3643 27.8958 31.4111 27.8958L59.1658 27.8958C63.371 27.8958 66.7819 31.3555 66.7819 35.6208L66.7819 63.772C66.7819 63.772 66.7819 63.8194 66.7819 63.8668C70.9405 63.8194 74.3047 60.3598 74.3047 56.1418L74.3047 27.9906C74.3047 23.7253 70.8938 20.2656 66.6885 20.2656L38.9338 20.2656C34.7753 20.2656 31.3643 23.6779 31.3176 27.8958Z" fill="#99D1FF"/>
<g id="LINE">
<path d="M119.009 54.0719H133.103V64.9415H106.113V5.34303H119.009V54.0719Z" fill="white"/>
<path d="M152.113 5.34303V64.9415H139.217V5.34303H152.113Z" fill="white"/>
<path d="M195.881 64.9415H182.985V15.4757C182.985 14.9844 182.801 14.5545 182.432 14.1861C182.125 13.8176 181.726 13.6334 181.235 13.6334H176.26C175.769 13.6334 175.339 13.8176 174.971 14.1861C174.664 14.5545 174.51 14.9844 174.51 15.4757V64.9415H161.614V16.5811C161.614 8.47494 165.422 4.42188 173.036 4.42188H184.459C192.074 4.42188 195.881 8.47494 195.881 16.5811V64.9415Z" fill="white"/>
<path d="M217.421 54.2562H231.699V64.9415H204.525V5.34303H231.699V15.8441H217.421V29.8457H230.778V39.9783H217.421V54.2562Z" fill="white"/>
</g>
<g id="GatePay">
<path d="M114.466 80.2504H120.927V88.0126C118.814 89.2736 116.628 89.9041 114.368 89.9041C111.797 89.9041 109.717 89.0853 108.129 87.4477C106.54 85.8101 105.746 83.6894 105.746 81.0856C105.746 78.4818 106.565 76.3611 108.202 74.7235C109.84 73.0859 111.805 72.2671 114.098 72.2671C116.407 72.2671 118.593 72.8976 120.656 74.1585V76.4675H120.558C118.544 75.1083 116.554 74.4287 114.589 74.4287C112.64 74.4287 111.052 75.0183 109.824 76.1973C108.596 77.3764 107.981 78.9813 107.981 81.0119C107.981 83.0261 108.579 84.6637 109.775 85.9247C110.97 87.1693 112.599 87.7916 114.663 87.7916C116.202 87.7916 117.635 87.4313 118.962 86.7107V82.2647H114.466V80.2504Z" fill="white"/>
<path d="M129.871 77.8186C131.296 77.1963 132.819 76.8851 134.44 76.8851C136.078 76.8851 137.331 77.36 138.199 78.3098C139.067 79.2597 139.501 80.3978 139.501 81.7242V89.6584H137.535L137.265 88.0863H137.192C136.012 89.2982 134.498 89.9041 132.647 89.9041C131.534 89.9041 130.584 89.5684 129.798 88.8969C129.028 88.2255 128.643 87.3085 128.643 86.1458C128.643 84.9831 129.118 84.0415 130.068 83.3209C131.034 82.6004 132.442 82.2401 134.293 82.2401H137.265V82.0436C137.265 80.9628 136.995 80.1849 136.455 79.71C135.931 79.2351 135.014 78.9976 133.703 78.9976C132.393 78.9976 131.165 79.276 130.019 79.8328H129.871V77.8186ZM137.265 86.0966V84.0333H134.588C132.115 84.0333 130.879 84.6883 130.879 85.9984C130.879 87.2921 131.746 87.9389 133.482 87.9389C134.203 87.9389 134.899 87.767 135.57 87.4231C136.242 87.0628 136.807 86.6207 137.265 86.0966Z" fill="white"/>
<path d="M154.919 79.0468H151.357V86.4651C151.357 87.1529 151.546 87.5787 151.922 87.7424C152.233 87.8734 152.635 87.9389 153.126 87.9389C153.617 87.9389 154.158 87.8079 154.747 87.5459H154.919V89.3637C154.231 89.7239 153.494 89.9041 152.708 89.9041C150.317 89.9041 149.122 88.8233 149.122 86.6616V79.0468H146.788V78.8994L151.357 74.4287V77.1308H154.919V79.0468Z" fill="white"/>
<path d="M173.779 83.3946V84.1806H164.297C164.428 85.327 164.854 86.2195 165.575 86.8581C166.295 87.4968 167.384 87.8161 168.842 87.8161C170.316 87.8161 171.675 87.4067 172.919 86.5879H173.042V88.7496C171.667 89.5192 170.045 89.9041 168.178 89.9041C166.328 89.9041 164.838 89.3391 163.708 88.2092C162.594 87.0628 162.037 85.5235 162.037 83.5911C162.037 81.6424 162.537 80.0375 163.536 78.7766C164.535 77.5156 165.992 76.8851 167.908 76.8851C169.824 76.8851 171.282 77.5156 172.281 78.7766C173.28 80.0375 173.779 81.5769 173.779 83.3946ZM164.297 82.3629H171.544C171.478 81.1838 171.077 80.2913 170.34 79.6854C169.62 79.0795 168.809 78.7766 167.908 78.7766C167.008 78.7766 166.197 79.0795 165.476 79.6854C164.756 80.2913 164.363 81.1838 164.297 82.3629Z" fill="white"/>
<path d="M188.967 72.5127C190.146 72.5127 191.178 72.6765 192.062 73.004C192.947 73.3152 193.626 73.7409 194.101 74.2813C194.593 74.8217 194.953 75.4031 195.182 76.0254C195.411 76.6313 195.526 77.2782 195.526 77.9659C195.526 78.6537 195.411 79.3088 195.182 79.9311C194.953 80.537 194.593 81.1101 194.101 81.6506C193.626 82.191 192.947 82.6249 192.062 82.9524C191.178 83.2636 190.146 83.4192 188.967 83.4192H184.497V89.6584H182.261V72.5127H188.967ZM188.746 81.3067C190.417 81.3067 191.588 80.9873 192.259 80.3487C192.947 79.71 193.291 78.9158 193.291 77.9659C193.291 77.0161 192.947 76.2219 192.259 75.5832C191.588 74.9446 190.417 74.6252 188.746 74.6252H184.497V81.3067H188.746Z" fill="white"/>
<path d="M203.508 77.8186C204.933 77.1963 206.456 76.8851 208.077 76.8851C209.714 76.8851 210.967 77.36 211.835 78.3098C212.703 79.2597 213.137 80.3978 213.137 81.7242V89.6584H211.172L210.902 88.0863H210.828C209.649 89.2982 208.134 89.9041 206.284 89.9041C205.17 89.9041 204.22 89.5684 203.434 88.8969C202.665 88.2255 202.28 87.3085 202.28 86.1458C202.28 84.9831 202.755 84.0415 203.704 83.3209C204.671 82.6004 206.079 82.2401 207.929 82.2401H210.902V82.0436C210.902 80.9628 210.631 80.1849 210.091 79.71C209.567 79.2351 208.65 78.9976 207.34 78.9976C206.03 78.9976 204.802 79.276 203.655 79.8328H203.508V77.8186ZM210.902 86.0966V84.0333H208.224C205.751 84.0333 204.515 84.6883 204.515 85.9984C204.515 87.2921 205.383 87.9389 207.119 87.9389C207.839 87.9389 208.535 87.767 209.207 87.4231C209.878 87.0628 210.443 86.6207 210.902 86.0966Z" fill="white"/>
<path d="M233.002 77.1308L225.46 95.3082H223.201L225.313 89.8549L220.13 77.1308H222.537L226.468 87.0301H226.566L230.594 77.1308H233.002Z" fill="white"/>
</g>
</g>
</svg>
