<svg width="16" height="18" viewBox="0 0 16 18" fill="none" xmlns="http://www.w3.org/2000/svg">
<path d="M10.8222 2.6001C12.4656 2.60978 13.3556 2.68695 13.9361 3.30172C14.6 4.00473 14.6 5.13621 14.6 7.39917V12.1996C14.6 14.4626 14.6 15.5941 13.9361 16.2971C13.2722 17.0001 12.2037 17.0001 10.0667 17.0001H5.53333C3.3963 17.0001 2.32778 17.0001 1.66389 16.2971C1 15.5941 1 14.4626 1 12.1996V7.39917C1 5.13621 1 4.00473 1.66389 3.30172C2.24445 2.68695 3.13442 2.60978 4.77778 2.6001" stroke="#1093FF" stroke-width="1.5"/>
<path d="M5.25 10.12L6.70714 11.4L10.35 8.19995" stroke="#1093FF" stroke-width="1.5" stroke-linecap="round" stroke-linejoin="round"/>
<path d="M4.40039 2.2C4.40039 1.53726 4.97123 1 5.67539 1H9.92539C10.6296 1 11.2004 1.53726 11.2004 2.2V3C11.2004 3.66274 10.6296 4.2 9.92539 4.2H5.67539C4.97123 4.2 4.40039 3.66274 4.40039 3V2.2Z" stroke="#1093FF" stroke-width="1.5"/>
</svg>
