<svg width="15" height="16" viewBox="0 0 15 16" fill="none" xmlns="http://www.w3.org/2000/svg">
<path d="M11.2667 1H3.33333C3.11665 1 3.00831 1 2.91697 1.00838C1.90173 1.10157 1.09681 1.94608 1.00799 3.01125C1 3.10708 1 3.22075 1 3.44809V13.7818C1 14.3926 1.74109 14.6518 2.09038 14.1632C2.33269 13.8242 2.81731 13.8242 3.05962 14.1632L3.3625 14.5869C3.75625 15.1377 4.54375 15.1377 4.9375 14.5869C5.33125 14.0361 6.11875 14.0361 6.5125 14.5869C6.90625 15.1377 7.69375 15.1377 8.0875 14.5869C8.48125 14.0361 9.26875 14.0361 9.6625 14.5869C10.0563 15.1377 10.8438 15.1377 11.2375 14.5869L11.5404 14.1632C11.7827 13.8242 12.2673 13.8242 12.5096 14.1632C12.8589 14.6518 13.6 14.3926 13.6 13.7818V3.44809C13.6 3.22075 13.6 3.10708 13.592 3.01125C13.5032 1.94608 12.6983 1.10157 11.683 1.00838C11.5917 1 11.4833 1 11.2667 1Z" stroke="#F33131" stroke-width="1.2"/>
<path d="M4.15039 10.45H10.4504" stroke="#F33131" stroke-width="1.2" stroke-linecap="round"/>
<path d="M9.39924 4.50003L5.19925 8.70002M5.19924 4.50002L9.39922 8.7" stroke="#F33131" stroke-width="1.2" stroke-linecap="round"/>
</svg>
