<svg viewBox="0 0 70 70" fill="none" xmlns="http://www.w3.org/2000/svg">
<g id="Bold / Arrows / Restart Square">
<path id="Subtract" fill-rule="evenodd" clip-rule="evenodd" d="M5.83301 34.9999C5.83301 21.2506 5.83301 14.376 10.1044 10.1046C14.3757 5.83325 21.2504 5.83325 34.9997 5.83325C48.749 5.83325 55.6236 5.83325 59.895 10.1046C64.1663 14.376 64.1663 21.2506 64.1663 34.9999C64.1663 48.7492 64.1663 55.6239 59.895 59.8952C55.6236 64.1666 48.749 64.1666 34.9997 64.1666C21.2504 64.1666 14.3757 64.1666 10.1044 59.8952C5.83301 55.6239 5.83301 48.7492 5.83301 34.9999ZM46.4756 16.3087C47.2994 16.6442 47.8379 17.4451 47.8379 18.3345V26.2519C47.8379 27.46 46.8585 28.4394 45.6504 28.4394H37.9164C37.0363 28.4394 36.2419 27.9119 35.9004 27.1008C35.5588 26.2897 35.7366 25.3529 36.3516 24.7233L38.5726 22.4496C34.3565 21.1499 29.5943 22.2046 26.2525 25.6256C21.3876 30.6059 21.3876 38.7012 26.2525 43.6814C31.0894 48.633 38.9099 48.633 43.7468 43.6814C45.7238 41.6576 46.9013 39.116 47.2698 36.4713C47.4397 35.2523 48.4082 34.2268 49.639 34.2268C50.8215 34.2268 51.8024 35.1735 51.6881 36.3505C51.3205 40.1351 49.7204 43.8272 46.8765 46.7386C40.3231 53.4473 29.6763 53.4473 23.1229 46.7386C16.5975 40.0584 16.5975 29.2486 23.1229 22.5685C28.1908 17.3805 35.7114 16.201 41.8966 19.0468L44.0856 16.806C44.7071 16.1697 45.6519 15.9731 46.4756 16.3087Z" fill="#1093FF"/>
</g>
</svg>
