<svg width="15" height="15" viewBox="0 0 15 15" fill="none" xmlns="http://www.w3.org/2000/svg">
<path d="M14.9508 8.33158C14.537 12.1331 11.3338 15 7.5 15C4.88692 15 2.50308 13.6377 1.15385 11.4893V13.6538C1.15385 13.9723 0.895385 14.2308 0.576923 14.2308C0.258462 14.2308 0 13.9723 0 13.6538V9.80769C0 9.48923 0.258462 9.23077 0.576923 9.23077H4.42308C4.74154 9.23077 5 9.48923 5 9.80769C5 10.1262 4.74154 10.3846 4.42308 10.3846H1.86148C2.93071 12.4815 5.09769 13.8462 7.5 13.8462C10.7438 13.8462 13.4531 11.4215 13.8039 8.20688C13.8377 7.88919 14.1254 7.66224 14.4392 7.69531C14.7569 7.72993 14.9846 8.01466 14.9508 8.33158ZM14.4231 0.769231C14.1046 0.769231 13.8462 1.02769 13.8462 1.34615V3.51074C12.4969 1.36228 10.1131 0 7.5 0C3.66692 0 0.463819 2.86688 0.0492037 6.66842C0.0145883 6.98534 0.243098 7.27007 0.560021 7.30469C0.58079 7.307 0.602353 7.30769 0.623122 7.30769C0.913891 7.30769 1.16381 7.0885 1.19535 6.79312C1.54612 3.5785 4.25617 1.15385 7.49925 1.15385C9.90233 1.15385 12.0685 2.51846 13.1378 4.61538H10.5769C10.2585 4.61538 10 4.87385 10 5.19231C10 5.51077 10.2585 5.76923 10.5769 5.76923H14.4231C14.7415 5.76923 15 5.51077 15 5.19231V1.34615C15 1.02769 14.7415 0.769231 14.4231 0.769231Z" fill="#242424"/>
</svg>
