<svg width="15" height="16" viewBox="0 0 15 16" fill="none" xmlns="http://www.w3.org/2000/svg">
<path d="M10.6285 1H3.97151C3.1603 1 2.7547 1 2.42757 1.11382C1.80725 1.32967 1.32024 1.83103 1.11057 2.46962C1 2.80638 1 3.22394 1 4.05904V13.8619C1 14.4627 1.6895 14.7815 2.12567 14.3823C2.38192 14.1478 2.76808 14.1478 3.02433 14.3823L3.3625 14.6918C3.81161 15.1027 4.48839 15.1027 4.9375 14.6918C5.38661 14.2808 6.06339 14.2808 6.5125 14.6918C6.96161 15.1027 7.63839 15.1027 8.0875 14.6918C8.53661 14.2808 9.21339 14.2808 9.6625 14.6918C10.1116 15.1027 10.7884 15.1027 11.2375 14.6918L11.5757 14.3823C11.8319 14.1478 12.2181 14.1478 12.4743 14.3823C12.9105 14.7815 13.6 14.4627 13.6 13.8619V4.05904C13.6 3.22394 13.6 2.80638 13.4894 2.46962C13.2798 1.83103 12.7927 1.32967 12.1724 1.11382C11.8453 1 11.4397 1 10.6285 1Z" stroke="#17AD4A" stroke-width="1.2"/>
<path d="M4.5 7.02L6.1 8.7L10.1 4.5" stroke="#17AD4A" stroke-width="1.2" stroke-linecap="round" stroke-linejoin="round"/>
<path d="M4.15039 10.45H10.4504" stroke="#17AD4A" stroke-width="1.2" stroke-linecap="round"/>
</svg>
