<svg viewBox="0 0 69 69" fill="none" xmlns="http://www.w3.org/2000/svg">
<g id="Bold / Money / Tag Price">
<path id="Vector" fill-rule="evenodd" clip-rule="evenodd" d="M46.3935 13.5944L51.6537 18.8546C59.3846 26.5854 63.25 30.4508 63.25 35.2542C63.25 40.0575 59.3846 43.9229 51.6537 51.6537C43.9229 59.3846 40.0575 63.25 35.2542 63.25C30.4508 63.25 26.5854 59.3846 18.8546 51.6537L13.5944 46.3935C9.15098 41.9501 6.92928 39.7284 6.10259 36.8459C5.2759 33.9634 5.9824 30.9019 7.3954 24.7789L8.21025 21.2479C9.39902 16.0966 9.9934 13.5209 11.7572 11.7572C13.5209 9.9934 16.0966 9.39902 21.2479 8.21025L24.7789 7.3954C30.9019 5.9824 33.9634 5.2759 36.8459 6.10259C39.7284 6.92928 41.9501 9.15098 46.3935 13.5944ZM32.0467 41.1943C30.1119 39.2595 30.1283 36.4834 31.2854 34.2834C30.7071 33.4434 30.7915 32.2848 31.5385 31.5378C32.2827 30.7936 33.4356 30.7071 34.2748 31.2784C35.2519 30.7592 36.3255 30.4846 37.3953 30.4946C38.5861 30.5059 39.5424 31.4803 39.5312 32.6711C39.5199 33.8619 38.5455 34.8182 37.3547 34.807C36.8461 34.8022 36.1776 35.0304 35.6043 35.6037C34.4902 36.7179 34.7832 37.832 35.0961 38.1449C35.409 38.4577 36.5231 38.7508 37.6372 37.6366C39.8914 35.3825 43.7832 34.6344 46.2772 37.1284C48.212 39.0632 48.1956 41.8392 47.0385 44.0393C47.6168 44.8792 47.5324 46.0379 46.7854 46.7848C46.041 47.5292 44.8878 47.6156 44.0485 47.0438C42.735 47.7419 41.2406 48.0035 39.816 47.7108C38.6495 47.471 37.8982 46.3311 38.1379 45.1646C38.3776 43.9981 39.5176 43.2468 40.684 43.4865C41.1934 43.5912 42.0145 43.424 42.7196 42.719C43.8337 41.6048 43.5407 40.4907 43.2278 40.1778C42.9149 39.8649 41.8008 39.5719 40.6866 40.686C38.4325 42.9401 34.5407 43.6883 32.0467 41.1943ZM28.8103 29.5927C31.0558 27.3472 31.0558 23.7065 28.8103 21.461C26.5647 19.2155 22.924 19.2155 20.6785 21.461C18.433 23.7065 18.433 27.3472 20.6785 29.5927C22.924 31.8382 26.5647 31.8382 28.8103 29.5927Z" fill="#1093FF"/>
</g>
</svg>
