<svg width="14" height="18" viewBox="0 0 14 18" fill="none" xmlns="http://www.w3.org/2000/svg">
<path d="M1.21997 6.28014C0.926971 5.98714 0.926971 5.51211 1.21997 5.21911L6.21997 0.219109C6.28897 0.150109 6.37211 0.095 6.46411 0.057C6.64711 -0.019 6.85411 -0.019 7.03711 0.057C7.12911 0.095 7.21201 0.150109 7.28101 0.219109L12.281 5.21911C12.574 5.51211 12.574 5.98714 12.281 6.28014C12.135 6.42614 11.943 6.50012 11.751 6.50012C11.559 6.50012 11.3669 6.42714 11.2209 6.28014L7.50098 2.56017V12.7501C7.50098 13.1641 7.16498 13.5001 6.75098 13.5001C6.33698 13.5001 6.00098 13.1641 6.00098 12.7501V2.56115L2.28101 6.28112C1.98701 6.57312 1.51297 6.57314 1.21997 6.28014ZM12.75 16.0001H0.75C0.336 16.0001 0 16.3361 0 16.7501C0 17.1641 0.336 17.5001 0.75 17.5001H12.75C13.164 17.5001 13.5 17.1641 13.5 16.7501C13.5 16.3361 13.164 16.0001 12.75 16.0001Z" fill="#2388FF"/>
</svg>
