<svg viewBox="0 0 68 68" fill="none" xmlns="http://www.w3.org/2000/svg">
<path id="Vector" fill-rule="evenodd" clip-rule="evenodd" d="M68 34C68 52.7777 52.7777 68 34 68C15.2223 68 0 52.7777 0 34C0 15.2223 15.2223 0 34 0C52.7777 0 68 15.2223 68 34ZM17 43.35L44.2 43.35L37.6358 49.0788C36.5747 50.0048 36.4652 51.6156 37.3913 52.6767C38.3173 53.7378 39.9281 53.8473 40.9892 52.9212L52.6767 42.7212C53.4776 42.0223 53.7609 40.8999 53.3876 39.9046C53.0144 38.9094 52.063 38.25 51 38.25L17 38.25C15.5917 38.25 14.45 39.3917 14.45 40.8C14.45 42.2083 15.5917 43.35 17 43.35ZM30.6087 15.3233C31.5348 16.3844 31.4253 17.9952 30.3642 18.9212L23.8 24.65H51C52.4083 24.65 53.55 25.7917 53.55 27.2C53.55 28.6083 52.4083 29.75 51 29.75H17C15.937 29.75 14.9856 29.0906 14.6124 28.0954C14.2391 27.1001 14.5224 25.9777 15.3233 25.2788L27.0108 15.0788C28.0719 14.1527 29.6827 14.2622 30.6087 15.3233Z" fill="#1093FF"/>
</svg>
