<svg width="46" height="48" viewBox="0 0 46 48" fill="none" xmlns="http://www.w3.org/2000/svg">
<path d="M44.8655 29.1981L42.5302 26.88C41.799 26.1542 40.8296 25.7561 39.7988 25.7561C39.7964 25.7561 39.7942 25.7561 39.7942 25.7561C38.761 25.7561 37.7864 26.1588 37.0598 26.887L24.1074 39.8025C23.7748 40.1303 23.5909 40.5776 23.5909 41.0412V46.2439C23.5909 47.2133 24.3834 48 25.36 48H30.6041C31.0711 48 31.5212 47.815 31.8515 47.4872L44.8632 34.6303C45.5968 33.9067 45.9976 32.9421 46 31.9165C45.9976 30.891 45.5967 29.9262 44.8655 29.1981ZM39.7965 29.2683C39.8578 29.2683 39.9472 29.2846 40.0274 29.3643L42.3627 31.6824C42.4429 31.762 42.4594 31.8533 42.4594 31.9142C42.4594 31.975 42.4429 32.064 42.3627 32.1436L40.8625 33.6257L38.0694 30.8535L39.5627 29.3643C39.6452 29.2846 39.7352 29.2683 39.7965 29.2683ZM29.8704 44.4878H27.1268V41.7647L35.574 33.3424L38.355 36.103L29.8704 44.4878ZM18.2811 42.1463H8.84571C5.12579 42.1463 3.53828 40.5705 3.53828 36.878V8.78049C3.53828 5.088 5.12579 3.5122 8.84571 3.5122H21.2297V8.78049C21.2297 14.4421 24.3717 17.561 30.0754 17.561H35.3828V20.4878C35.3828 21.4572 36.1754 22.2439 37.152 22.2439C38.1286 22.2439 38.9211 21.4572 38.9211 20.4878V15.8049C38.9211 15.3389 38.7348 14.8917 38.4022 14.5639L24.2491 0.515125C23.9165 0.184978 23.4683 0 22.9988 0H8.84571C3.142 0 0 3.11883 0 8.78049V36.878C0 42.5397 3.142 45.6585 8.84571 45.6585H18.2811C19.2577 45.6585 20.0503 44.8718 20.0503 43.9024C20.0503 42.9331 19.2577 42.1463 18.2811 42.1463ZM24.768 8.78049V5.9965L32.88 14.0488H30.0754C26.3555 14.0488 24.768 12.473 24.768 8.78049ZM11.2046 21.0732C10.228 21.0732 9.43542 21.8599 9.43542 22.8293C9.43542 23.7986 10.228 24.5854 11.2046 24.5854H27.7166C28.6931 24.5854 29.4857 23.7986 29.4857 22.8293C29.4857 21.8599 28.6931 21.0732 27.7166 21.0732H11.2046ZM20.64 30.439H11.2046C10.228 30.439 9.43542 31.2258 9.43542 32.1951C9.43542 33.1645 10.228 33.9512 11.2046 33.9512H20.64C21.6166 33.9512 22.4091 33.1645 22.4091 32.1951C22.4091 31.2258 21.6166 30.439 20.64 30.439Z" fill="currentColor"/>
</svg>
